<svg xmlns="http://www.w3.org/2000/svg" xmlns:xlink="http://www.w3.org/1999/xlink" width="70" zoomAndPan="magnify" viewBox="0 0 52.5 23.25" height="31" preserveAspectRatio="xMidYMid meet" version="1.0"><defs><clipPath id="aa4915abea"><path d="M 1.277344 7 L 50.683594 7 L 50.683594 20 L 1.277344 20 Z M 1.277344 7 " clip-rule="nonzero"/></clipPath><clipPath id="a6a1eec020"><path d="M 25.507812 15.222656 L 31.484375 15.222656 L 31.484375 21.539062 L 25.507812 21.539062 Z M 25.507812 15.222656 " clip-rule="nonzero"/></clipPath><clipPath id="1412422fe4"><path d="M 41 0.46875 L 46 0.46875 L 46 5 L 41 5 Z M 41 0.46875 " clip-rule="nonzero"/></clipPath><clipPath id="77efab8307"><path d="M 1.277344 7 L 50.683594 7 L 50.683594 20 L 1.277344 20 Z M 1.277344 7 " clip-rule="nonzero"/></clipPath><clipPath id="d74803c09e"><path d="M 25.507812 15.222656 L 31.484375 15.222656 L 31.484375 21.539062 L 25.507812 21.539062 Z M 25.507812 15.222656 " clip-rule="nonzero"/></clipPath><clipPath id="405a3f6d30"><path d="M 41 0.46875 L 46 0.46875 L 46 5 L 41 5 Z M 41 0.46875 " clip-rule="nonzero"/></clipPath></defs><g clip-path="url(#aa4915abea)"><path fill="#458fa3" d="M 43.101562 7.148438 C 42.914062 7.101562 42.726562 7.050781 42.539062 7.003906 L 42.539062 7.925781 C 46.027344 8.953125 48.148438 10.3125 48.148438 11.800781 C 48.148438 12.617188 47.511719 13.390625 46.363281 14.097656 C 45.355469 14.757812 43.800781 15.382812 41.792969 15.921875 C 40.671875 16.21875 39.449219 16.484375 38.140625 16.710938 C 37.542969 16.8125 36.929688 16.910156 36.300781 16.996094 L 36.300781 18.785156 C 36.925781 18.707031 37.542969 18.617188 38.140625 18.523438 C 39.925781 18.246094 41.59375 17.902344 43.101562 17.5 C 48.046875 16.175781 50.773438 14.339844 50.773438 12.324219 C 50.773438 10.3125 48.046875 8.472656 43.101562 7.148438 Z M 29.675781 17.578125 C 28.71875 17.617188 27.75 17.644531 26.765625 17.652344 C 26.527344 17.652344 26.285156 17.65625 26.042969 17.65625 C 25.878906 17.65625 25.710938 17.65625 25.542969 17.652344 C 19.757812 17.621094 14.359375 17.007812 10.296875 15.921875 C 8.285156 15.382812 6.734375 14.757812 5.726562 14.097656 C 4.578125 13.390625 3.941406 12.617188 3.941406 11.800781 C 3.941406 10.3125 6.0625 8.953125 9.550781 7.925781 L 9.550781 7.003906 C 9.363281 7.050781 9.175781 7.101562 8.988281 7.148438 C 4.039062 8.472656 1.316406 10.3125 1.316406 12.324219 C 1.316406 14.339844 4.039062 16.175781 8.988281 17.5 C 13.449219 18.691406 19.3125 19.363281 25.542969 19.398438 C 25.710938 19.398438 25.878906 19.398438 26.042969 19.398438 C 26.285156 19.398438 26.527344 19.398438 26.765625 19.394531 C 27.851562 19.386719 28.921875 19.359375 29.976562 19.3125 L 31.464844 18.523438 L 31.453125 18.519531 L 29.675781 17.578125 " fill-opacity="1" fill-rule="nonzero"/></g><path fill="#458fa3" d="M 19.515625 6.730469 C 19.367188 6.5625 19.203125 6.410156 19.023438 6.277344 C 18.636719 5.996094 18.164062 5.792969 17.609375 5.660156 C 17.558594 5.648438 17.503906 5.636719 17.453125 5.625 L 19.691406 3.214844 L 19.691406 1.300781 L 11.878906 1.300781 L 11.878906 3.664062 L 16.140625 3.664062 L 14.210938 5.75 L 14.210938 7.679688 L 15.492188 7.679688 C 16.59375 7.679688 17.144531 8.027344 17.144531 8.726562 C 17.144531 9.089844 16.992188 9.367188 16.679688 9.5625 C 16.371094 9.757812 15.957031 9.855469 15.429688 9.855469 C 14.917969 9.855469 14.394531 9.777344 13.863281 9.625 C 13.332031 9.46875 12.859375 9.246094 12.4375 8.960938 L 11.324219 11.257812 C 11.871094 11.597656 12.515625 11.863281 13.261719 12.046875 C 14.007812 12.234375 14.761719 12.324219 15.523438 12.324219 C 16.5625 12.324219 17.4375 12.15625 18.140625 11.824219 C 18.847656 11.488281 19.371094 11.050781 19.714844 10.503906 C 20.058594 9.957031 20.230469 9.367188 20.230469 8.726562 C 20.230469 7.945312 19.992188 7.277344 19.515625 6.730469 " fill-opacity="1" fill-rule="nonzero"/><path fill="#458fa3" d="M 27.09375 9.777344 C 26.820312 10.023438 26.46875 10.148438 26.039062 10.148438 C 25.574219 10.148438 25.207031 10.023438 24.933594 9.769531 C 24.660156 9.519531 24.523438 9.191406 24.523438 8.789062 C 24.523438 8.378906 24.664062 8.046875 24.941406 7.792969 C 25.21875 7.542969 25.578125 7.414062 26.019531 7.414062 C 26.464844 7.414062 26.820312 7.539062 27.09375 7.785156 C 27.367188 8.035156 27.503906 8.363281 27.503906 8.773438 C 27.503906 9.195312 27.367188 9.53125 27.09375 9.777344 Z M 29.964844 6.851562 C 29.761719 6.539062 29.519531 6.265625 29.230469 6.039062 C 29.042969 5.890625 28.839844 5.757812 28.613281 5.648438 C 28.214844 5.449219 27.785156 5.320312 27.328125 5.261719 C 27.140625 5.234375 26.945312 5.222656 26.746094 5.222656 C 26.558594 5.222656 26.375 5.234375 26.195312 5.253906 C 25.457031 5.332031 24.839844 5.582031 24.34375 5.996094 C 24.332031 6.007812 24.320312 6.015625 24.308594 6.027344 C 24.308594 6.015625 24.308594 6.007812 24.3125 5.996094 C 24.335938 5.730469 24.382812 5.488281 24.453125 5.265625 C 24.589844 4.8125 24.820312 4.445312 25.140625 4.15625 C 25.625 3.726562 26.257812 3.507812 27.039062 3.507812 C 27.84375 3.507812 28.507812 3.695312 29.03125 4.066406 L 30.144531 1.875 C 29.753906 1.617188 29.277344 1.421875 28.722656 1.285156 C 28.167969 1.152344 27.582031 1.085938 26.964844 1.085938 C 25.820312 1.085938 24.816406 1.316406 23.953125 1.78125 C 23.089844 2.242188 22.417969 2.921875 21.9375 3.8125 C 21.683594 4.28125 21.496094 4.804688 21.378906 5.371094 C 21.328125 5.609375 21.289062 5.859375 21.265625 6.113281 C 21.234375 6.398438 21.21875 6.695312 21.21875 7 C 21.21875 8.71875 21.667969 10.035156 22.5625 10.949219 C 23.457031 11.867188 24.679688 12.324219 26.222656 12.324219 C 27.015625 12.324219 27.734375 12.171875 28.375 11.871094 C 29.019531 11.566406 29.527344 11.132812 29.90625 10.574219 C 30.28125 10.011719 30.46875 9.367188 30.46875 8.636719 C 30.46875 7.964844 30.300781 7.371094 29.964844 6.851562 " fill-opacity="1" fill-rule="nonzero"/><path fill="#458fa3" d="M 37.238281 9.074219 C 36.933594 9.574219 36.523438 9.824219 36.011719 9.824219 C 35.484375 9.824219 35.070312 9.574219 34.765625 9.074219 C 34.464844 8.574219 34.3125 7.785156 34.3125 6.707031 C 34.3125 6.601562 34.3125 6.5 34.316406 6.398438 C 34.324219 6.128906 34.34375 5.878906 34.371094 5.648438 C 34.441406 5.09375 34.574219 4.65625 34.765625 4.335938 C 35.070312 3.835938 35.484375 3.585938 36.011719 3.585938 C 36.523438 3.585938 36.933594 3.835938 37.238281 4.335938 C 37.476562 4.730469 37.621094 5.300781 37.671875 6.054688 C 37.683594 6.257812 37.691406 6.476562 37.691406 6.707031 C 37.691406 6.753906 37.691406 6.804688 37.691406 6.851562 C 37.679688 7.855469 37.527344 8.597656 37.238281 9.074219 Z M 40.761719 6.601562 C 40.753906 5.480469 40.550781 4.511719 40.15625 3.6875 C 39.75 2.839844 39.183594 2.191406 38.464844 1.75 C 37.742188 1.308594 36.925781 1.085938 36.011719 1.085938 C 35.082031 1.085938 34.261719 1.308594 33.539062 1.75 C 32.820312 2.191406 32.257812 2.839844 31.851562 3.6875 C 31.601562 4.203125 31.429688 4.777344 31.335938 5.40625 C 31.296875 5.644531 31.273438 5.886719 31.257812 6.140625 C 31.246094 6.324219 31.238281 6.511719 31.238281 6.707031 C 31.238281 7.867188 31.441406 8.875 31.851562 9.722656 C 32.257812 10.574219 32.820312 11.21875 33.539062 11.660156 C 34.261719 12.105469 35.082031 12.324219 36.011719 12.324219 C 36.925781 12.324219 37.742188 12.105469 38.464844 11.660156 C 39.183594 11.21875 39.75 10.574219 40.15625 9.722656 C 40.472656 9.0625 40.664062 8.304688 40.734375 7.449219 C 40.753906 7.210938 40.765625 6.960938 40.765625 6.707031 C 40.765625 6.671875 40.765625 6.632812 40.761719 6.601562 " fill-opacity="1" fill-rule="nonzero"/><g clip-path="url(#a6a1eec020)"><path fill="#458fa3" d="M 31.464844 18.523438 L 29.976562 19.351562 L 29.917969 19.386719 L 28.503906 20.175781 L 25.542969 21.824219 L 25.542969 15.226562 L 28.503906 16.875 L 29.554688 17.460938 L 29.675781 17.527344 L 31.453125 18.519531 L 31.464844 18.523438 " fill-opacity="1" fill-rule="nonzero"/></g><g clip-path="url(#1412422fe4)"><path fill="#458fa3" d="M 43.59375 1.695312 C 43.105469 1.695312 42.703125 2.097656 42.703125 2.585938 C 42.703125 3.078125 43.105469 3.476562 43.59375 3.476562 C 44.085938 3.476562 44.488281 3.078125 44.488281 2.585938 C 44.488281 2.097656 44.085938 1.695312 43.59375 1.695312 Z M 43.59375 4.707031 C 42.425781 4.707031 41.476562 3.753906 41.476562 2.585938 C 41.476562 1.417969 42.425781 0.46875 43.59375 0.46875 C 44.765625 0.46875 45.714844 1.417969 45.714844 2.585938 C 45.714844 3.753906 44.765625 4.707031 43.59375 4.707031 " fill-opacity="1" fill-rule="nonzero"/></g><g clip-path="url(#77efab8307)"><path fill="#c4c0b5" d="M 43.101562 7.148438 C 42.914062 7.101562 42.726562 7.050781 42.539062 7.003906 L 42.539062 7.925781 C 46.027344 8.953125 48.148438 10.3125 48.148438 11.800781 C 48.148438 12.617188 47.511719 13.390625 46.363281 14.097656 C 45.355469 14.757812 43.800781 15.382812 41.792969 15.921875 C 40.671875 16.21875 39.449219 16.484375 38.140625 16.710938 C 37.542969 16.8125 36.929688 16.910156 36.300781 16.996094 L 36.300781 18.785156 C 36.925781 18.707031 37.542969 18.617188 38.140625 18.523438 C 39.925781 18.246094 41.59375 17.902344 43.101562 17.5 C 48.046875 16.175781 50.773438 14.339844 50.773438 12.324219 C 50.773438 10.3125 48.046875 8.472656 43.101562 7.148438 Z M 29.675781 17.578125 C 28.71875 17.617188 27.75 17.644531 26.765625 17.652344 C 26.527344 17.652344 26.285156 17.65625 26.042969 17.65625 C 25.878906 17.65625 25.710938 17.65625 25.542969 17.652344 C 19.757812 17.621094 14.359375 17.007812 10.296875 15.921875 C 8.285156 15.382812 6.734375 14.757812 5.726562 14.097656 C 4.578125 13.390625 3.941406 12.617188 3.941406 11.800781 C 3.941406 10.3125 6.0625 8.953125 9.550781 7.925781 L 9.550781 7.003906 C 9.363281 7.050781 9.175781 7.101562 8.988281 7.148438 C 4.039062 8.472656 1.316406 10.3125 1.316406 12.324219 C 1.316406 14.339844 4.039062 16.175781 8.988281 17.5 C 13.449219 18.691406 19.3125 19.363281 25.542969 19.398438 C 25.710938 19.398438 25.878906 19.398438 26.042969 19.398438 C 26.285156 19.398438 26.527344 19.398438 26.765625 19.394531 C 27.851562 19.386719 28.921875 19.359375 29.976562 19.3125 L 31.464844 18.523438 L 31.453125 18.519531 L 29.675781 17.578125 " fill-opacity="1" fill-rule="nonzero"/></g><path fill="#c4c0b5" d="M 19.515625 6.730469 C 19.367188 6.5625 19.203125 6.410156 19.023438 6.277344 C 18.636719 5.996094 18.164062 5.792969 17.609375 5.660156 C 17.558594 5.648438 17.503906 5.636719 17.453125 5.625 L 19.691406 3.214844 L 19.691406 1.300781 L 11.878906 1.300781 L 11.878906 3.664062 L 16.140625 3.664062 L 14.210938 5.75 L 14.210938 7.679688 L 15.492188 7.679688 C 16.59375 7.679688 17.144531 8.027344 17.144531 8.726562 C 17.144531 9.089844 16.992188 9.367188 16.679688 9.5625 C 16.371094 9.757812 15.957031 9.855469 15.429688 9.855469 C 14.917969 9.855469 14.394531 9.777344 13.863281 9.625 C 13.332031 9.46875 12.859375 9.246094 12.4375 8.960938 L 11.324219 11.257812 C 11.871094 11.597656 12.515625 11.863281 13.261719 12.046875 C 14.007812 12.234375 14.761719 12.324219 15.523438 12.324219 C 16.5625 12.324219 17.4375 12.15625 18.140625 11.824219 C 18.847656 11.488281 19.371094 11.050781 19.714844 10.503906 C 20.058594 9.957031 20.230469 9.367188 20.230469 8.726562 C 20.230469 7.945312 19.992188 7.277344 19.515625 6.730469 " fill-opacity="1" fill-rule="nonzero"/><path fill="#c4c0b5" d="M 27.09375 9.777344 C 26.820312 10.023438 26.46875 10.148438 26.039062 10.148438 C 25.574219 10.148438 25.207031 10.023438 24.933594 9.769531 C 24.660156 9.519531 24.523438 9.191406 24.523438 8.789062 C 24.523438 8.378906 24.664062 8.046875 24.941406 7.792969 C 25.21875 7.542969 25.578125 7.414062 26.019531 7.414062 C 26.464844 7.414062 26.820312 7.539062 27.09375 7.785156 C 27.367188 8.035156 27.503906 8.363281 27.503906 8.773438 C 27.503906 9.195312 27.367188 9.53125 27.09375 9.777344 Z M 29.964844 6.851562 C 29.761719 6.539062 29.519531 6.265625 29.230469 6.039062 C 29.042969 5.890625 28.839844 5.757812 28.613281 5.648438 C 28.214844 5.449219 27.785156 5.320312 27.328125 5.261719 C 27.140625 5.234375 26.945312 5.222656 26.746094 5.222656 C 26.558594 5.222656 26.375 5.234375 26.195312 5.253906 C 25.457031 5.332031 24.839844 5.582031 24.34375 5.996094 C 24.332031 6.007812 24.320312 6.015625 24.308594 6.027344 C 24.308594 6.015625 24.308594 6.007812 24.3125 5.996094 C 24.335938 5.730469 24.382812 5.488281 24.453125 5.265625 C 24.589844 4.8125 24.820312 4.445312 25.140625 4.15625 C 25.625 3.726562 26.257812 3.507812 27.039062 3.507812 C 27.84375 3.507812 28.507812 3.695312 29.03125 4.066406 L 30.144531 1.875 C 29.753906 1.617188 29.277344 1.421875 28.722656 1.285156 C 28.167969 1.152344 27.582031 1.085938 26.964844 1.085938 C 25.820312 1.085938 24.816406 1.316406 23.953125 1.78125 C 23.089844 2.242188 22.417969 2.921875 21.9375 3.8125 C 21.683594 4.28125 21.496094 4.804688 21.378906 5.371094 C 21.328125 5.609375 21.289062 5.859375 21.265625 6.113281 C 21.234375 6.398438 21.21875 6.695312 21.21875 7 C 21.21875 8.71875 21.667969 10.035156 22.5625 10.949219 C 23.457031 11.867188 24.679688 12.324219 26.222656 12.324219 C 27.015625 12.324219 27.734375 12.171875 28.375 11.871094 C 29.019531 11.566406 29.527344 11.132812 29.90625 10.574219 C 30.28125 10.011719 30.46875 9.367188 30.46875 8.636719 C 30.46875 7.964844 30.300781 7.371094 29.964844 6.851562 " fill-opacity="1" fill-rule="nonzero"/><path fill="#c4c0b5" d="M 37.238281 9.074219 C 36.933594 9.574219 36.523438 9.824219 36.011719 9.824219 C 35.484375 9.824219 35.070312 9.574219 34.765625 9.074219 C 34.464844 8.574219 34.3125 7.785156 34.3125 6.707031 C 34.3125 6.601562 34.3125 6.5 34.316406 6.398438 C 34.324219 6.128906 34.34375 5.878906 34.371094 5.648438 C 34.441406 5.09375 34.574219 4.65625 34.765625 4.335938 C 35.070312 3.835938 35.484375 3.585938 36.011719 3.585938 C 36.523438 3.585938 36.933594 3.835938 37.238281 4.335938 C 37.476562 4.730469 37.621094 5.300781 37.671875 6.054688 C 37.683594 6.257812 37.691406 6.476562 37.691406 6.707031 C 37.691406 6.753906 37.691406 6.804688 37.691406 6.851562 C 37.679688 7.855469 37.527344 8.597656 37.238281 9.074219 Z M 40.761719 6.601562 C 40.753906 5.480469 40.550781 4.511719 40.15625 3.6875 C 39.75 2.839844 39.183594 2.191406 38.464844 1.75 C 37.742188 1.308594 36.925781 1.085938 36.011719 1.085938 C 35.082031 1.085938 34.261719 1.308594 33.539062 1.75 C 32.820312 2.191406 32.257812 2.839844 31.851562 3.6875 C 31.601562 4.203125 31.429688 4.777344 31.335938 5.40625 C 31.296875 5.644531 31.273438 5.886719 31.257812 6.140625 C 31.246094 6.324219 31.238281 6.511719 31.238281 6.707031 C 31.238281 7.867188 31.441406 8.875 31.851562 9.722656 C 32.257812 10.574219 32.820312 11.21875 33.539062 11.660156 C 34.261719 12.105469 35.082031 12.324219 36.011719 12.324219 C 36.925781 12.324219 37.742188 12.105469 38.464844 11.660156 C 39.183594 11.21875 39.75 10.574219 40.15625 9.722656 C 40.472656 9.0625 40.664062 8.304688 40.734375 7.449219 C 40.753906 7.210938 40.765625 6.960938 40.765625 6.707031 C 40.765625 6.671875 40.765625 6.632812 40.761719 6.601562 " fill-opacity="1" fill-rule="nonzero"/><g clip-path="url(#d74803c09e)"><path fill="#c4c0b5" d="M 31.464844 18.523438 L 29.976562 19.351562 L 29.917969 19.386719 L 28.503906 20.175781 L 25.542969 21.824219 L 25.542969 15.226562 L 28.503906 16.875 L 29.554688 17.460938 L 29.675781 17.527344 L 31.453125 18.519531 L 31.464844 18.523438 " fill-opacity="1" fill-rule="nonzero"/></g><g clip-path="url(#405a3f6d30)"><path fill="#c4c0b5" d="M 43.59375 1.695312 C 43.105469 1.695312 42.703125 2.097656 42.703125 2.585938 C 42.703125 3.078125 43.105469 3.476562 43.59375 3.476562 C 44.085938 3.476562 44.488281 3.078125 44.488281 2.585938 C 44.488281 2.097656 44.085938 1.695312 43.59375 1.695312 Z M 43.59375 4.707031 C 42.425781 4.707031 41.476562 3.753906 41.476562 2.585938 C 41.476562 1.417969 42.425781 0.46875 43.59375 0.46875 C 44.765625 0.46875 45.714844 1.417969 45.714844 2.585938 C 45.714844 3.753906 44.765625 4.707031 43.59375 4.707031 " fill-opacity="1" fill-rule="nonzero"/></g></svg>