<svg width="38" height="17" viewBox="0 0 38 17" fill="none" xmlns="http://www.w3.org/2000/svg">
<mask id="mask0_2_2532" style="mask-type:luminance" maskUnits="userSpaceOnUse" x="1" y="4" width="35" height="12">
<path d="M1.21597 4.53334H35.216V15.1111H1.21597V4.53334Z" fill="white"/>
</mask>
<g mask="url(#mask0_2_2532)">
<path d="M30.3344 5.19445C30.2045 5.15903 30.0747 5.12361 29.9448 5.0941V5.7316C32.3708 6.45174 33.8524 7.39618 33.8524 8.43507C33.8524 9.00174 33.4097 9.53889 32.607 10.0347C31.9045 10.4951 30.8243 10.9319 29.4254 11.3038C28.6403 11.5104 27.7903 11.6934 26.8813 11.8528C26.4622 11.9236 26.0372 11.9885 25.6004 12.0535V13.299C26.0372 13.2399 26.4622 13.1809 26.8813 13.116C28.1267 12.9212 29.2837 12.6851 30.3344 12.4017C33.7816 11.4809 35.6823 10.2 35.6823 8.79514C35.6823 7.39618 33.7816 6.11528 30.3344 5.19445ZM20.9844 12.4549C20.3174 12.4844 19.6445 12.5021 18.9538 12.508C18.7885 12.508 18.6233 12.508 18.4521 12.508C18.3399 12.508 18.2219 12.508 18.1038 12.508C14.0781 12.4844 10.3181 12.0594 7.48473 11.3038C6.08577 10.9319 5.00556 10.4951 4.30313 10.0347C3.50035 9.53889 3.05765 9.00174 3.05765 8.43507C3.05765 7.39618 4.53334 6.45174 6.96528 5.7316V5.0941C6.83542 5.12361 6.70556 5.15903 6.5757 5.19445C3.12848 6.11528 1.22778 7.39618 1.22778 8.79514C1.22778 10.2 3.12848 11.4809 6.5757 12.4017C9.68056 13.234 13.7653 13.7004 18.1038 13.724C18.2219 13.724 18.3399 13.724 18.4521 13.724C18.6233 13.724 18.7885 13.724 18.9538 13.724C19.7094 13.7181 20.459 13.7003 21.1969 13.6649L22.2299 13.116L22.224 13.1101L20.9844 12.4549Z" fill="#EDEDED"/>
</g>
<mask id="mask1_2_2532" style="mask-type:luminance" maskUnits="userSpaceOnUse" x="7" y="0" width="9" height="10">
<path d="M7.55554 0.537155H15.1111V9.06667H7.55554V0.537155Z" fill="white"/>
</mask>
<g mask="url(#mask1_2_2532)">
<path d="M13.9069 4.89931C13.8066 4.78126 13.6885 4.68091 13.5646 4.58647C13.293 4.39167 12.9625 4.24411 12.5788 4.15556C12.5434 4.14376 12.508 4.13785 12.4667 4.13195L14.0309 2.45556V1.12154H8.58853V2.76251H11.5576L10.2118 4.21459V5.56043H11.1031C11.8705 5.56043 12.2542 5.80244 12.2542 6.29237C12.2542 6.54619 12.1479 6.73508 11.9295 6.87084C11.717 7.00661 11.4278 7.07744 11.0618 7.07744C10.7017 7.07744 10.3417 7.02431 9.96978 6.91806C9.5979 6.80591 9.26735 6.65244 8.97221 6.45174L8.19894 8.0573C8.58263 8.29341 9.03124 8.4764 9.55068 8.60626C10.0701 8.73612 10.5955 8.79515 11.1267 8.79515C11.8469 8.79515 12.4548 8.68299 12.9507 8.44688C13.4406 8.21667 13.8066 7.90973 14.0427 7.53195C14.2847 7.14827 14.4028 6.73508 14.4028 6.29237C14.4028 5.74931 14.2375 5.28299 13.9069 4.89931Z" fill="#EDEDED"/>
</g>
<mask id="mask2_2_2532" style="mask-type:luminance" maskUnits="userSpaceOnUse" x="13" y="0" width="10" height="10">
<path d="M13.6 0.537155H22.6667V9.06667H13.6V0.537155Z" fill="white"/>
</mask>
<g mask="url(#mask2_2_2532)">
<path d="M19.184 7.02431C18.9951 7.19549 18.7531 7.28404 18.4521 7.28404C18.1274 7.28404 17.8677 7.19549 17.6788 7.01841C17.4899 6.84133 17.3955 6.61702 17.3955 6.33369C17.3955 6.05035 17.4899 5.82015 17.6847 5.64306C17.8795 5.46598 18.1274 5.37744 18.4403 5.37744C18.7472 5.37744 18.9951 5.46598 19.184 5.63716C19.3729 5.80834 19.4733 6.03855 19.4733 6.32188C19.4733 6.61702 19.3729 6.85313 19.184 7.02431ZM21.1851 4.98785C21.0434 4.76355 20.8722 4.57466 20.6715 4.42119C20.5417 4.31494 20.4 4.2264 20.2465 4.14966C19.9632 4.00799 19.6681 3.91945 19.3493 3.87813C19.2195 3.86043 19.0837 3.84862 18.942 3.84862C18.8122 3.84862 18.6823 3.86043 18.5583 3.87223C18.0448 3.92535 17.6139 4.10244 17.2715 4.39167C17.2597 4.39758 17.2538 4.40348 17.242 4.40938C17.2479 4.40348 17.2479 4.39758 17.2479 4.39167C17.2656 4.20279 17.2951 4.03751 17.3483 3.87813C17.4427 3.56529 17.6021 3.30556 17.8264 3.11077C18.1629 2.80973 18.6056 2.65626 19.1486 2.65626C19.7094 2.65626 20.1698 2.78612 20.5358 3.04584L21.309 1.51702C21.0375 1.33994 20.707 1.20417 20.3233 1.10973C19.9337 1.01529 19.5264 0.968063 19.0955 0.968063C18.2986 0.968063 17.6021 1.12744 17 1.45209C16.3979 1.77674 15.9257 2.24897 15.5951 2.86876C15.4181 3.19341 15.2882 3.55938 15.2056 3.95487C15.1701 4.12015 15.1406 4.29133 15.1229 4.47431C15.1052 4.66911 15.0934 4.8757 15.0934 5.0882C15.0934 6.28647 15.4063 7.2014 16.032 7.8389C16.6517 8.4764 17.5017 8.79515 18.5761 8.79515C19.1309 8.79515 19.6327 8.6948 20.0754 8.4823C20.524 8.2698 20.884 7.96876 21.1438 7.57917C21.4035 7.18959 21.5333 6.73508 21.5333 6.22744C21.5333 5.76112 21.4212 5.34792 21.1851 4.98785Z" fill="#EDEDED"/>
</g>
<mask id="mask3_2_2532" style="mask-type:luminance" maskUnits="userSpaceOnUse" x="21" y="0" width="8" height="10">
<path d="M21.1555 0.537155H28.7111V9.06667H21.1555V0.537155Z" fill="white"/>
</mask>
<g mask="url(#mask3_2_2532)">
<path d="M26.2497 6.53438C26.0372 6.88265 25.7538 7.05383 25.3938 7.05383C25.0337 7.05383 24.7445 6.88265 24.532 6.53438C24.3195 6.18612 24.2132 5.63716 24.2132 4.88161C24.2132 4.81077 24.2132 4.73994 24.2191 4.66911C24.2191 4.48022 24.2368 4.30904 24.2545 4.14966C24.3017 3.76008 24.3962 3.45313 24.532 3.23473C24.7445 2.88647 25.0337 2.70938 25.3938 2.70938C25.7538 2.70938 26.0372 2.88647 26.2497 3.23473C26.4149 3.50626 26.5212 3.90765 26.5507 4.42709C26.5625 4.57466 26.5684 4.72223 26.5684 4.88161C26.5684 4.91702 26.5684 4.95244 26.5684 4.98785C26.5566 5.68438 26.4504 6.20383 26.2497 6.53438ZM28.7052 4.81077C28.6993 4.03161 28.5576 3.35279 28.2861 2.78022C28.0028 2.18994 27.6073 1.74133 27.1056 1.42848C26.6038 1.12154 26.0372 0.968063 25.3938 0.968063C24.7504 0.968063 24.1778 1.12154 23.6761 1.42848C23.1743 1.74133 22.7788 2.18994 22.4955 2.78022C22.3243 3.14029 22.2063 3.54167 22.1413 3.97848C22.1118 4.14376 22.0941 4.31494 22.0882 4.49202C22.0764 4.61598 22.0705 4.75174 22.0705 4.88161C22.0705 5.69619 22.2122 6.39272 22.4955 6.9889C22.7788 7.57917 23.1743 8.02779 23.6761 8.33473C24.1778 8.64167 24.7504 8.79515 25.3938 8.79515C26.0372 8.79515 26.6038 8.64167 27.1056 8.33473C27.6073 8.02779 28.0028 7.57917 28.2861 6.9889C28.5045 6.52258 28.6403 5.99723 28.6875 5.40105C28.6993 5.23577 28.7052 5.06459 28.7052 4.88161C28.7052 4.85799 28.7052 4.83438 28.7052 4.81077Z" fill="#EDEDED"/>
</g>
<mask id="mask4_2_2532" style="mask-type:luminance" maskUnits="userSpaceOnUse" x="18" y="10" width="5" height="6">
<path d="M18.0802 10.8198H22.2417V15.4122H18.0802V10.8198Z" fill="white"/>
</mask>
<g mask="url(#mask4_2_2532)">
<path d="M22.2299 13.116L21.1969 13.6944L21.1556 13.7181L20.1698 14.267L18.1038 15.4122V10.8198L20.1698 11.9649L20.8958 12.3781L20.9844 12.4253L22.224 13.1101L22.2299 13.116Z" fill="#EDEDED"/>
</g>
<mask id="mask5_2_2532" style="mask-type:luminance" maskUnits="userSpaceOnUse" x="28" y="0" width="6" height="5">
<path d="M28.7111 0.537155H33.2445V4.53334H28.7111V0.537155Z" fill="white"/>
</mask>
<g mask="url(#mask5_2_2532)">
<path d="M30.6826 1.39306C30.3403 1.39306 30.0569 1.67049 30.0569 2.01285C30.0569 2.35521 30.3403 2.63264 30.6826 2.63264C31.025 2.63264 31.3024 2.35521 31.3024 2.01285C31.3024 1.67049 31.025 1.39306 30.6826 1.39306ZM30.6826 3.48854C29.8681 3.48854 29.2069 2.82743 29.2069 2.01285C29.2069 1.19827 29.8681 0.537155 30.6826 0.537155C31.4913 0.537155 32.1583 1.19827 32.1583 2.01285C32.1583 2.82743 31.4913 3.48854 30.6826 3.48854Z" fill="#EDEDED"/>
</g>
<mask id="mask6_2_2532" style="mask-type:luminance" maskUnits="userSpaceOnUse" x="1" y="4" width="35" height="12">
<path d="M1.21597 4.53334H35.216V15.1111H1.21597V4.53334Z" fill="white"/>
</mask>
<g mask="url(#mask6_2_2532)">
<path d="M30.3344 5.19445C30.2045 5.15903 30.0747 5.12361 29.9448 5.0941V5.7316C32.3708 6.45174 33.8524 7.39618 33.8524 8.43507C33.8524 9.00174 33.4097 9.53889 32.607 10.0347C31.9045 10.4951 30.8243 10.9319 29.4254 11.3038C28.6403 11.5104 27.7903 11.6934 26.8813 11.8528C26.4622 11.9236 26.0372 11.9885 25.6004 12.0535V13.299C26.0372 13.2399 26.4622 13.1809 26.8813 13.116C28.1267 12.9212 29.2837 12.6851 30.3344 12.4017C33.7816 11.4809 35.6823 10.2 35.6823 8.79514C35.6823 7.39618 33.7816 6.11528 30.3344 5.19445ZM20.9844 12.4549C20.3174 12.4844 19.6445 12.5021 18.9538 12.508C18.7885 12.508 18.6233 12.508 18.4521 12.508C18.3399 12.508 18.2219 12.508 18.1038 12.508C14.0781 12.4844 10.3181 12.0594 7.48473 11.3038C6.08577 10.9319 5.00556 10.4951 4.30313 10.0347C3.50035 9.53889 3.05765 9.00174 3.05765 8.43507C3.05765 7.39618 4.53334 6.45174 6.96528 5.7316V5.0941C6.83542 5.12361 6.70556 5.15903 6.5757 5.19445C3.12848 6.11528 1.22778 7.39618 1.22778 8.79514C1.22778 10.2 3.12848 11.4809 6.5757 12.4017C9.68056 13.234 13.7653 13.7004 18.1038 13.724C18.2219 13.724 18.3399 13.724 18.4521 13.724C18.6233 13.724 18.7885 13.724 18.9538 13.724C19.7094 13.7181 20.459 13.7003 21.1969 13.6649L22.2299 13.116L22.224 13.1101L20.9844 12.4549Z" fill="#6A37A6"/>
</g>
<mask id="mask7_2_2532" style="mask-type:luminance" maskUnits="userSpaceOnUse" x="7" y="0" width="9" height="10">
<path d="M7.55554 0.537155H15.1111V9.06667H7.55554V0.537155Z" fill="white"/>
</mask>
<g mask="url(#mask7_2_2532)">
<path d="M13.9069 4.89931C13.8066 4.78126 13.6885 4.68091 13.5646 4.58647C13.293 4.39167 12.9625 4.24411 12.5788 4.15556C12.5434 4.14376 12.508 4.13785 12.4667 4.13195L14.0309 2.45556V1.12154H8.58853V2.76251H11.5576L10.2118 4.21459V5.56043H11.1031C11.8705 5.56043 12.2542 5.80244 12.2542 6.29237C12.2542 6.54619 12.1479 6.73508 11.9295 6.87084C11.717 7.00661 11.4278 7.07744 11.0618 7.07744C10.7017 7.07744 10.3417 7.02431 9.96978 6.91806C9.5979 6.80591 9.26735 6.65244 8.97221 6.45174L8.19894 8.0573C8.58263 8.29341 9.03124 8.4764 9.55068 8.60626C10.0701 8.73612 10.5955 8.79515 11.1267 8.79515C11.8469 8.79515 12.4548 8.68299 12.9507 8.44688C13.4406 8.21667 13.8066 7.90973 14.0427 7.53195C14.2847 7.14827 14.4028 6.73508 14.4028 6.29237C14.4028 5.74931 14.2375 5.28299 13.9069 4.89931Z" fill="#6A37A6"/>
</g>
<mask id="mask8_2_2532" style="mask-type:luminance" maskUnits="userSpaceOnUse" x="13" y="0" width="10" height="10">
<path d="M13.6 0.537155H22.6667V9.06667H13.6V0.537155Z" fill="white"/>
</mask>
<g mask="url(#mask8_2_2532)">
<path d="M19.184 7.02431C18.9951 7.19549 18.7531 7.28404 18.4521 7.28404C18.1274 7.28404 17.8677 7.19549 17.6788 7.01841C17.4899 6.84133 17.3955 6.61702 17.3955 6.33369C17.3955 6.05035 17.4899 5.82015 17.6847 5.64306C17.8795 5.46598 18.1274 5.37744 18.4403 5.37744C18.7472 5.37744 18.9951 5.46598 19.184 5.63716C19.3729 5.80834 19.4733 6.03855 19.4733 6.32188C19.4733 6.61702 19.3729 6.85313 19.184 7.02431ZM21.1851 4.98785C21.0434 4.76355 20.8722 4.57466 20.6715 4.42119C20.5417 4.31494 20.4 4.2264 20.2465 4.14966C19.9632 4.00799 19.6681 3.91945 19.3493 3.87813C19.2195 3.86043 19.0837 3.84862 18.942 3.84862C18.8122 3.84862 18.6823 3.86043 18.5583 3.87223C18.0448 3.92535 17.6139 4.10244 17.2715 4.39167C17.2597 4.39758 17.2538 4.40348 17.242 4.40938C17.2479 4.40348 17.2479 4.39758 17.2479 4.39167C17.2656 4.20279 17.2951 4.03751 17.3483 3.87813C17.4427 3.56529 17.6021 3.30556 17.8264 3.11077C18.1629 2.80973 18.6056 2.65626 19.1486 2.65626C19.7094 2.65626 20.1698 2.78612 20.5358 3.04584L21.309 1.51702C21.0375 1.33994 20.707 1.20417 20.3233 1.10973C19.9337 1.01529 19.5264 0.968063 19.0955 0.968063C18.2986 0.968063 17.6021 1.12744 17 1.45209C16.3979 1.77674 15.9257 2.24897 15.5951 2.86876C15.4181 3.19341 15.2882 3.55938 15.2056 3.95487C15.1701 4.12015 15.1406 4.29133 15.1229 4.47431C15.1052 4.66911 15.0934 4.8757 15.0934 5.0882C15.0934 6.28647 15.4063 7.2014 16.032 7.8389C16.6517 8.4764 17.5017 8.79515 18.5761 8.79515C19.1309 8.79515 19.6327 8.6948 20.0754 8.4823C20.524 8.2698 20.884 7.96876 21.1438 7.57917C21.4035 7.18959 21.5333 6.73508 21.5333 6.22744C21.5333 5.76112 21.4212 5.34792 21.1851 4.98785Z" fill="#6A37A6"/>
</g>
<mask id="mask9_2_2532" style="mask-type:luminance" maskUnits="userSpaceOnUse" x="21" y="0" width="8" height="10">
<path d="M21.1555 0.537155H28.7111V9.06667H21.1555V0.537155Z" fill="white"/>
</mask>
<g mask="url(#mask9_2_2532)">
<path d="M26.2497 6.53438C26.0372 6.88265 25.7538 7.05383 25.3938 7.05383C25.0337 7.05383 24.7445 6.88265 24.532 6.53438C24.3195 6.18612 24.2132 5.63716 24.2132 4.88161C24.2132 4.81077 24.2132 4.73994 24.2191 4.66911C24.2191 4.48022 24.2368 4.30904 24.2545 4.14966C24.3017 3.76008 24.3962 3.45313 24.532 3.23473C24.7445 2.88647 25.0337 2.70938 25.3938 2.70938C25.7538 2.70938 26.0372 2.88647 26.2497 3.23473C26.4149 3.50626 26.5212 3.90765 26.5507 4.42709C26.5625 4.57466 26.5684 4.72223 26.5684 4.88161C26.5684 4.91702 26.5684 4.95244 26.5684 4.98785C26.5566 5.68438 26.4504 6.20383 26.2497 6.53438ZM28.7052 4.81077C28.6993 4.03161 28.5576 3.35279 28.2861 2.78022C28.0028 2.18994 27.6073 1.74133 27.1056 1.42848C26.6038 1.12154 26.0372 0.968063 25.3938 0.968063C24.7504 0.968063 24.1778 1.12154 23.6761 1.42848C23.1743 1.74133 22.7788 2.18994 22.4955 2.78022C22.3243 3.14029 22.2063 3.54167 22.1413 3.97848C22.1118 4.14376 22.0941 4.31494 22.0882 4.49202C22.0764 4.61598 22.0705 4.75174 22.0705 4.88161C22.0705 5.69619 22.2122 6.39272 22.4955 6.9889C22.7788 7.57917 23.1743 8.02779 23.6761 8.33473C24.1778 8.64167 24.7504 8.79515 25.3938 8.79515C26.0372 8.79515 26.6038 8.64167 27.1056 8.33473C27.6073 8.02779 28.0028 7.57917 28.2861 6.9889C28.5045 6.52258 28.6403 5.99723 28.6875 5.40105C28.6993 5.23577 28.7052 5.06459 28.7052 4.88161C28.7052 4.85799 28.7052 4.83438 28.7052 4.81077Z" fill="#6A37A6"/>
</g>
<mask id="mask10_2_2532" style="mask-type:luminance" maskUnits="userSpaceOnUse" x="18" y="10" width="5" height="6">
<path d="M18.0802 10.8198H22.2417V15.4122H18.0802V10.8198Z" fill="white"/>
</mask>
<g mask="url(#mask10_2_2532)">
<path d="M22.2299 13.116L21.1969 13.6944L21.1556 13.7181L20.1698 14.267L18.1038 15.4122V10.8198L20.1698 11.9649L20.8958 12.3781L20.9844 12.4253L22.224 13.1101L22.2299 13.116Z" fill="#6A37A6"/>
</g>
<mask id="mask11_2_2532" style="mask-type:luminance" maskUnits="userSpaceOnUse" x="28" y="0" width="6" height="5">
<path d="M28.7111 0.537155H33.2445V4.53334H28.7111V0.537155Z" fill="white"/>
</mask>
<g mask="url(#mask11_2_2532)">
<path d="M30.6826 1.39306C30.3403 1.39306 30.0569 1.67049 30.0569 2.01285C30.0569 2.35521 30.3403 2.63264 30.6826 2.63264C31.025 2.63264 31.3024 2.35521 31.3024 2.01285C31.3024 1.67049 31.025 1.39306 30.6826 1.39306ZM30.6826 3.48854C29.8681 3.48854 29.2069 2.82743 29.2069 2.01285C29.2069 1.19827 29.8681 0.537155 30.6826 0.537155C31.4913 0.537155 32.1583 1.19827 32.1583 2.01285C32.1583 2.82743 31.4913 3.48854 30.6826 3.48854Z" fill="#6A37A6"/>
</g>
</svg>
