<svg width="38" height="17" viewBox="0 0 38 17" fill="none" xmlns="http://www.w3.org/2000/svg">
<mask id="mask0_2_2593" style="mask-type:luminance" maskUnits="userSpaceOnUse" x="1" y="4" width="35" height="12">
<path d="M1.21597 4.53333H35.216V15.1111H1.21597V4.53333Z" fill="white"/>
</mask>
<g mask="url(#mask0_2_2593)">
<path d="M30.3344 5.19443C30.2045 5.15902 30.0747 5.1236 29.9448 5.09409V5.73159C32.3708 6.45172 33.8524 7.39617 33.8524 8.43506C33.8524 9.00172 33.4097 9.53888 32.607 10.0347C31.9045 10.4951 30.8243 10.9319 29.4254 11.3038C28.6403 11.5104 27.7903 11.6934 26.8813 11.8528C26.4622 11.9236 26.0372 11.9885 25.6004 12.0535V13.2989C26.0372 13.2399 26.4622 13.1809 26.8813 13.116C28.1267 12.9212 29.2837 12.6851 30.3344 12.4017C33.7816 11.4809 35.6823 10.2 35.6823 8.79513C35.6823 7.39617 33.7816 6.11527 30.3344 5.19443ZM20.9844 12.4549C20.3174 12.4844 19.6445 12.5021 18.9538 12.508C18.7885 12.508 18.6233 12.508 18.4521 12.508C18.3399 12.508 18.2219 12.508 18.1038 12.508C14.0781 12.4844 10.3181 12.0594 7.48473 11.3038C6.08577 10.9319 5.00556 10.4951 4.30313 10.0347C3.50035 9.53888 3.05765 9.00172 3.05765 8.43506C3.05765 7.39617 4.53334 6.45172 6.96528 5.73159V5.09409C6.83542 5.1236 6.70556 5.15902 6.5757 5.19443C3.12848 6.11527 1.22778 7.39617 1.22778 8.79513C1.22778 10.2 3.12848 11.4809 6.5757 12.4017C9.68056 13.234 13.7653 13.7003 18.1038 13.7239C18.2219 13.7239 18.3399 13.7239 18.4521 13.7239C18.6233 13.7239 18.7885 13.7239 18.9538 13.7239C19.7094 13.718 20.459 13.7003 21.1969 13.6649L22.2299 13.116L22.224 13.1101L20.9844 12.4549Z" fill="#EDEDED"/>
</g>
<mask id="mask1_2_2593" style="mask-type:luminance" maskUnits="userSpaceOnUse" x="7" y="0" width="9" height="10">
<path d="M7.55554 0.53714H15.1111V9.06665H7.55554V0.53714Z" fill="white"/>
</mask>
<g mask="url(#mask1_2_2593)">
<path d="M13.9069 4.8993C13.8066 4.78124 13.6885 4.6809 13.5646 4.58645C13.293 4.39166 12.9625 4.24409 12.5788 4.15555C12.5434 4.14374 12.508 4.13784 12.4667 4.13194L14.0309 2.45555V1.12152H8.58853V2.76249H11.5576L10.2118 4.21458V5.56041H11.1031C11.8705 5.56041 12.2542 5.80242 12.2542 6.29235C12.2542 6.54617 12.1479 6.73506 11.9295 6.87083C11.717 7.00659 11.4278 7.07742 11.0618 7.07742C10.7017 7.07742 10.3417 7.0243 9.96978 6.91805C9.5979 6.80589 9.26735 6.65242 8.97221 6.45173L8.19894 8.05728C8.58263 8.29339 9.03124 8.47638 9.55068 8.60624C10.0701 8.7361 10.5955 8.79513 11.1267 8.79513C11.8469 8.79513 12.4548 8.68298 12.9507 8.44687C13.4406 8.21666 13.8066 7.90971 14.0427 7.53194C14.2847 7.14826 14.4028 6.73506 14.4028 6.29235C14.4028 5.7493 14.2375 5.28298 13.9069 4.8993Z" fill="#EDEDED"/>
</g>
<mask id="mask2_2_2593" style="mask-type:luminance" maskUnits="userSpaceOnUse" x="13" y="0" width="10" height="10">
<path d="M13.6 0.53714H22.6667V9.06665H13.6V0.53714Z" fill="white"/>
</mask>
<g mask="url(#mask2_2_2593)">
<path d="M19.184 7.0243C18.9951 7.19548 18.7531 7.28402 18.4521 7.28402C18.1274 7.28402 17.8677 7.19548 17.6788 7.0184C17.4899 6.84131 17.3955 6.61701 17.3955 6.33367C17.3955 6.05034 17.4899 5.82013 17.6847 5.64305C17.8795 5.46597 18.1274 5.37742 18.4403 5.37742C18.7472 5.37742 18.9951 5.46597 19.184 5.63715C19.3729 5.80833 19.4733 6.03854 19.4733 6.32187C19.4733 6.61701 19.3729 6.85312 19.184 7.0243ZM21.1851 4.98784C21.0434 4.76354 20.8722 4.57465 20.6715 4.42117C20.5417 4.31492 20.4 4.22638 20.2465 4.14965C19.9632 4.00798 19.6681 3.91944 19.3493 3.87812C19.2195 3.86041 19.0837 3.8486 18.942 3.8486C18.8122 3.8486 18.6823 3.86041 18.5583 3.87222C18.0448 3.92534 17.6139 4.10242 17.2715 4.39166C17.2597 4.39756 17.2538 4.40346 17.242 4.40937C17.2479 4.40346 17.2479 4.39756 17.2479 4.39166C17.2656 4.20277 17.2951 4.03749 17.3483 3.87812C17.4427 3.56527 17.6021 3.30555 17.8264 3.11076C18.1629 2.80971 18.6056 2.65624 19.1486 2.65624C19.7094 2.65624 20.1698 2.7861 20.5358 3.04583L21.309 1.51701C21.0375 1.33992 20.707 1.20416 20.3233 1.10971C19.9337 1.01527 19.5264 0.968048 19.0955 0.968048C18.2986 0.968048 17.6021 1.12742 17 1.45208C16.3979 1.77673 15.9257 2.24895 15.5951 2.86874C15.4181 3.1934 15.2882 3.55937 15.2056 3.95485C15.1701 4.12013 15.1406 4.29131 15.1229 4.4743C15.1052 4.66909 15.0934 4.87569 15.0934 5.08819C15.0934 6.28645 15.4063 7.20138 16.032 7.83888C16.6517 8.47638 17.5017 8.79513 18.5761 8.79513C19.1309 8.79513 19.6327 8.69478 20.0754 8.48228C20.524 8.26978 20.884 7.96874 21.1438 7.57916C21.4035 7.18958 21.5333 6.73506 21.5333 6.22742C21.5333 5.7611 21.4212 5.34791 21.1851 4.98784Z" fill="#EDEDED"/>
</g>
<mask id="mask3_2_2593" style="mask-type:luminance" maskUnits="userSpaceOnUse" x="21" y="0" width="8" height="10">
<path d="M21.1555 0.53714H28.7111V9.06665H21.1555V0.53714Z" fill="white"/>
</mask>
<g mask="url(#mask3_2_2593)">
<path d="M26.2497 6.53437C26.0372 6.88263 25.7538 7.05381 25.3938 7.05381C25.0337 7.05381 24.7445 6.88263 24.532 6.53437C24.3195 6.1861 24.2132 5.63715 24.2132 4.88159C24.2132 4.81076 24.2132 4.73992 24.2191 4.66909C24.2191 4.4802 24.2368 4.30902 24.2545 4.14965C24.3017 3.76006 24.3962 3.45312 24.532 3.23471C24.7445 2.88645 25.0337 2.70937 25.3938 2.70937C25.7538 2.70937 26.0372 2.88645 26.2497 3.23471C26.4149 3.50624 26.5212 3.90763 26.5507 4.42708C26.5625 4.57465 26.5684 4.72222 26.5684 4.88159C26.5684 4.91701 26.5684 4.95242 26.5684 4.98784C26.5566 5.68437 26.4504 6.20381 26.2497 6.53437ZM28.7052 4.81076C28.6993 4.03159 28.5576 3.35277 28.2861 2.7802C28.0028 2.18992 27.6073 1.74131 27.1056 1.42846C26.6038 1.12152 26.0372 0.968048 25.3938 0.968048C24.7504 0.968048 24.1778 1.12152 23.6761 1.42846C23.1743 1.74131 22.7788 2.18992 22.4955 2.7802C22.3243 3.14027 22.2063 3.54166 22.1413 3.97846C22.1118 4.14374 22.0941 4.31492 22.0882 4.49201C22.0764 4.61597 22.0705 4.75173 22.0705 4.88159C22.0705 5.69617 22.2122 6.3927 22.4955 6.98888C22.7788 7.57916 23.1743 8.02777 23.6761 8.33472C24.1778 8.64166 24.7504 8.79513 25.3938 8.79513C26.0372 8.79513 26.6038 8.64166 27.1056 8.33472C27.6073 8.02777 28.0028 7.57916 28.2861 6.98888C28.5045 6.52256 28.6403 5.99722 28.6875 5.40103C28.6993 5.23576 28.7052 5.06458 28.7052 4.88159C28.7052 4.85798 28.7052 4.83437 28.7052 4.81076Z" fill="#EDEDED"/>
</g>
<mask id="mask4_2_2593" style="mask-type:luminance" maskUnits="userSpaceOnUse" x="18" y="10" width="5" height="6">
<path d="M18.0802 10.8198H22.2417V15.4122H18.0802V10.8198Z" fill="white"/>
</mask>
<g mask="url(#mask4_2_2593)">
<path d="M22.2299 13.116L21.1969 13.6944L21.1556 13.7181L20.1698 14.267L18.1038 15.4122V10.8198L20.1698 11.9649L20.8958 12.3781L20.9844 12.4253L22.224 13.1101L22.2299 13.116Z" fill="#EDEDED"/>
</g>
<mask id="mask5_2_2593" style="mask-type:luminance" maskUnits="userSpaceOnUse" x="28" y="0" width="6" height="5">
<path d="M28.7111 0.53714H33.2445V4.53332H28.7111V0.53714Z" fill="white"/>
</mask>
<g mask="url(#mask5_2_2593)">
<path d="M30.6826 1.39304C30.3403 1.39304 30.0569 1.67047 30.0569 2.01283C30.0569 2.3552 30.3403 2.63263 30.6826 2.63263C31.025 2.63263 31.3024 2.3552 31.3024 2.01283C31.3024 1.67047 31.025 1.39304 30.6826 1.39304ZM30.6826 3.48853C29.8681 3.48853 29.2069 2.82742 29.2069 2.01283C29.2069 1.19825 29.8681 0.53714 30.6826 0.53714C31.4913 0.53714 32.1583 1.19825 32.1583 2.01283C32.1583 2.82742 31.4913 3.48853 30.6826 3.48853Z" fill="#EDEDED"/>
</g>
<mask id="mask6_2_2593" style="mask-type:luminance" maskUnits="userSpaceOnUse" x="1" y="4" width="35" height="12">
<path d="M1.21597 4.53333H35.216V15.1111H1.21597V4.53333Z" fill="white"/>
</mask>
<g mask="url(#mask6_2_2593)">
<path d="M30.3344 5.19443C30.2045 5.15902 30.0747 5.1236 29.9448 5.09409V5.73159C32.3708 6.45172 33.8524 7.39617 33.8524 8.43506C33.8524 9.00172 33.4097 9.53888 32.607 10.0347C31.9045 10.4951 30.8243 10.9319 29.4254 11.3038C28.6403 11.5104 27.7903 11.6934 26.8813 11.8528C26.4622 11.9236 26.0372 11.9885 25.6004 12.0535V13.2989C26.0372 13.2399 26.4622 13.1809 26.8813 13.116C28.1267 12.9212 29.2837 12.6851 30.3344 12.4017C33.7816 11.4809 35.6823 10.2 35.6823 8.79513C35.6823 7.39617 33.7816 6.11527 30.3344 5.19443ZM20.9844 12.4549C20.3174 12.4844 19.6445 12.5021 18.9538 12.508C18.7885 12.508 18.6233 12.508 18.4521 12.508C18.3399 12.508 18.2219 12.508 18.1038 12.508C14.0781 12.4844 10.3181 12.0594 7.48473 11.3038C6.08577 10.9319 5.00556 10.4951 4.30313 10.0347C3.50035 9.53888 3.05765 9.00172 3.05765 8.43506C3.05765 7.39617 4.53334 6.45172 6.96528 5.73159V5.09409C6.83542 5.1236 6.70556 5.15902 6.5757 5.19443C3.12848 6.11527 1.22778 7.39617 1.22778 8.79513C1.22778 10.2 3.12848 11.4809 6.5757 12.4017C9.68056 13.234 13.7653 13.7003 18.1038 13.7239C18.2219 13.7239 18.3399 13.7239 18.4521 13.7239C18.6233 13.7239 18.7885 13.7239 18.9538 13.7239C19.7094 13.718 20.459 13.7003 21.1969 13.6649L22.2299 13.116L22.224 13.1101L20.9844 12.4549Z" fill="#EDEDED"/>
</g>
<mask id="mask7_2_2593" style="mask-type:luminance" maskUnits="userSpaceOnUse" x="7" y="0" width="9" height="10">
<path d="M7.55554 0.53714H15.1111V9.06665H7.55554V0.53714Z" fill="white"/>
</mask>
<g mask="url(#mask7_2_2593)">
<path d="M13.9069 4.8993C13.8066 4.78124 13.6885 4.6809 13.5646 4.58645C13.293 4.39166 12.9625 4.24409 12.5788 4.15555C12.5434 4.14374 12.508 4.13784 12.4667 4.13194L14.0309 2.45555V1.12152H8.58853V2.76249H11.5576L10.2118 4.21458V5.56041H11.1031C11.8705 5.56041 12.2542 5.80242 12.2542 6.29235C12.2542 6.54617 12.1479 6.73506 11.9295 6.87083C11.717 7.00659 11.4278 7.07742 11.0618 7.07742C10.7017 7.07742 10.3417 7.0243 9.96978 6.91805C9.5979 6.80589 9.26735 6.65242 8.97221 6.45173L8.19894 8.05728C8.58263 8.29339 9.03124 8.47638 9.55068 8.60624C10.0701 8.7361 10.5955 8.79513 11.1267 8.79513C11.8469 8.79513 12.4548 8.68298 12.9507 8.44687C13.4406 8.21666 13.8066 7.90971 14.0427 7.53194C14.2847 7.14826 14.4028 6.73506 14.4028 6.29235C14.4028 5.7493 14.2375 5.28298 13.9069 4.8993Z" fill="#EDEDED"/>
</g>
<mask id="mask8_2_2593" style="mask-type:luminance" maskUnits="userSpaceOnUse" x="13" y="0" width="10" height="10">
<path d="M13.6 0.53714H22.6667V9.06665H13.6V0.53714Z" fill="white"/>
</mask>
<g mask="url(#mask8_2_2593)">
<path d="M19.184 7.0243C18.9951 7.19548 18.7531 7.28402 18.4521 7.28402C18.1274 7.28402 17.8677 7.19548 17.6788 7.0184C17.4899 6.84131 17.3955 6.61701 17.3955 6.33367C17.3955 6.05034 17.4899 5.82013 17.6847 5.64305C17.8795 5.46597 18.1274 5.37742 18.4403 5.37742C18.7472 5.37742 18.9951 5.46597 19.184 5.63715C19.3729 5.80833 19.4733 6.03854 19.4733 6.32187C19.4733 6.61701 19.3729 6.85312 19.184 7.0243ZM21.1851 4.98784C21.0434 4.76354 20.8722 4.57465 20.6715 4.42117C20.5417 4.31492 20.4 4.22638 20.2465 4.14965C19.9632 4.00798 19.6681 3.91944 19.3493 3.87812C19.2195 3.86041 19.0837 3.8486 18.942 3.8486C18.8122 3.8486 18.6823 3.86041 18.5583 3.87222C18.0448 3.92534 17.6139 4.10242 17.2715 4.39166C17.2597 4.39756 17.2538 4.40346 17.242 4.40937C17.2479 4.40346 17.2479 4.39756 17.2479 4.39166C17.2656 4.20277 17.2951 4.03749 17.3483 3.87812C17.4427 3.56527 17.6021 3.30555 17.8264 3.11076C18.1629 2.80971 18.6056 2.65624 19.1486 2.65624C19.7094 2.65624 20.1698 2.7861 20.5358 3.04583L21.309 1.51701C21.0375 1.33992 20.707 1.20416 20.3233 1.10971C19.9337 1.01527 19.5264 0.968048 19.0955 0.968048C18.2986 0.968048 17.6021 1.12742 17 1.45208C16.3979 1.77673 15.9257 2.24895 15.5951 2.86874C15.4181 3.1934 15.2882 3.55937 15.2056 3.95485C15.1701 4.12013 15.1406 4.29131 15.1229 4.4743C15.1052 4.66909 15.0934 4.87569 15.0934 5.08819C15.0934 6.28645 15.4063 7.20138 16.032 7.83888C16.6517 8.47638 17.5017 8.79513 18.5761 8.79513C19.1309 8.79513 19.6327 8.69478 20.0754 8.48228C20.524 8.26978 20.884 7.96874 21.1438 7.57916C21.4035 7.18958 21.5333 6.73506 21.5333 6.22742C21.5333 5.7611 21.4212 5.34791 21.1851 4.98784Z" fill="#EDEDED"/>
</g>
<mask id="mask9_2_2593" style="mask-type:luminance" maskUnits="userSpaceOnUse" x="21" y="0" width="8" height="10">
<path d="M21.1555 0.53714H28.7111V9.06665H21.1555V0.53714Z" fill="white"/>
</mask>
<g mask="url(#mask9_2_2593)">
<path d="M26.2497 6.53437C26.0372 6.88263 25.7538 7.05381 25.3938 7.05381C25.0337 7.05381 24.7445 6.88263 24.532 6.53437C24.3195 6.1861 24.2132 5.63715 24.2132 4.88159C24.2132 4.81076 24.2132 4.73992 24.2191 4.66909C24.2191 4.4802 24.2368 4.30902 24.2545 4.14965C24.3017 3.76006 24.3962 3.45312 24.532 3.23471C24.7445 2.88645 25.0337 2.70937 25.3938 2.70937C25.7538 2.70937 26.0372 2.88645 26.2497 3.23471C26.4149 3.50624 26.5212 3.90763 26.5507 4.42708C26.5625 4.57465 26.5684 4.72222 26.5684 4.88159C26.5684 4.91701 26.5684 4.95242 26.5684 4.98784C26.5566 5.68437 26.4504 6.20381 26.2497 6.53437ZM28.7052 4.81076C28.6993 4.03159 28.5576 3.35277 28.2861 2.7802C28.0028 2.18992 27.6073 1.74131 27.1056 1.42846C26.6038 1.12152 26.0372 0.968048 25.3938 0.968048C24.7504 0.968048 24.1778 1.12152 23.6761 1.42846C23.1743 1.74131 22.7788 2.18992 22.4955 2.7802C22.3243 3.14027 22.2063 3.54166 22.1413 3.97846C22.1118 4.14374 22.0941 4.31492 22.0882 4.49201C22.0764 4.61597 22.0705 4.75173 22.0705 4.88159C22.0705 5.69617 22.2122 6.3927 22.4955 6.98888C22.7788 7.57916 23.1743 8.02777 23.6761 8.33472C24.1778 8.64166 24.7504 8.79513 25.3938 8.79513C26.0372 8.79513 26.6038 8.64166 27.1056 8.33472C27.6073 8.02777 28.0028 7.57916 28.2861 6.98888C28.5045 6.52256 28.6403 5.99722 28.6875 5.40103C28.6993 5.23576 28.7052 5.06458 28.7052 4.88159C28.7052 4.85798 28.7052 4.83437 28.7052 4.81076Z" fill="#EDEDED"/>
</g>
<mask id="mask10_2_2593" style="mask-type:luminance" maskUnits="userSpaceOnUse" x="18" y="10" width="5" height="6">
<path d="M18.0802 10.8198H22.2417V15.4122H18.0802V10.8198Z" fill="white"/>
</mask>
<g mask="url(#mask10_2_2593)">
<path d="M22.2299 13.116L21.1969 13.6944L21.1556 13.7181L20.1698 14.267L18.1038 15.4122V10.8198L20.1698 11.9649L20.8958 12.3781L20.9844 12.4253L22.224 13.1101L22.2299 13.116Z" fill="#EDEDED"/>
</g>
<mask id="mask11_2_2593" style="mask-type:luminance" maskUnits="userSpaceOnUse" x="28" y="0" width="6" height="5">
<path d="M28.7111 0.53714H33.2445V4.53332H28.7111V0.53714Z" fill="white"/>
</mask>
<g mask="url(#mask11_2_2593)">
<path d="M30.6826 1.39304C30.3403 1.39304 30.0569 1.67047 30.0569 2.01283C30.0569 2.3552 30.3403 2.63263 30.6826 2.63263C31.025 2.63263 31.3024 2.3552 31.3024 2.01283C31.3024 1.67047 31.025 1.39304 30.6826 1.39304ZM30.6826 3.48853C29.8681 3.48853 29.2069 2.82742 29.2069 2.01283C29.2069 1.19825 29.8681 0.53714 30.6826 0.53714C31.4913 0.53714 32.1583 1.19825 32.1583 2.01283C32.1583 2.82742 31.4913 3.48853 30.6826 3.48853Z" fill="#EDEDED"/>
</g>
</svg>
