<svg xmlns="http://www.w3.org/2000/svg" xmlns:xlink="http://www.w3.org/1999/xlink" width="259" zoomAndPan="magnify" viewBox="0 0 194.25 220.499992" height="294" preserveAspectRatio="xMidYMid meet" version="1.0"><defs><clipPath id="68a1d92f0a"><path d="M 0.449219 0.328125 L 193 0.328125 L 193 219 L 0.449219 219 Z M 0.449219 0.328125 " clip-rule="nonzero"/></clipPath><clipPath id="7af8f1b049"><path d="M 0.449219 0.328125 L 193.207031 0.328125 L 193.207031 219 L 0.449219 219 Z M 0.449219 0.328125 " clip-rule="nonzero"/></clipPath></defs><g clip-path="url(#68a1d92f0a)"><path fill="#363847" d="M 4.6875 14.1875 C 5.308594 13.902344 6.136719 13.519531 6.757812 13.230469 C 7.519531 14.875 8.546875 17.058594 9.300781 18.707031 C 9.742188 19.675781 10.28125 20.988281 10.753906 21.941406 C 11.226562 22.890625 12.449219 25.042969 12.449219 25.042969 C 11.046875 24.046875 9.148438 22.757812 7.773438 21.71875 C 6.789062 20.976562 4.554688 19.152344 4.554688 19.152344 C 4.515625 18.582031 4.417969 17.25 4.417969 17.25 C 4.074219 17.621094 3.273438 18.484375 3.273438 18.484375 C 2.953125 18.355469 2.542969 18.125 2.207031 18.058594 C 1.789062 17.976562 0.785156 18.058594 0.785156 18.058594 C 0.753906 18.6875 0.664062 19.523438 0.679688 20.152344 C 0.707031 21.4375 0.808594 23.171875 1.140625 24.414062 C 1.351562 25.207031 1.789062 26.226562 2.207031 26.9375 C 2.753906 27.863281 3.726562 28.9375 4.445312 29.742188 C 5.238281 30.632812 6.492188 31.640625 7.257812 32.554688 C 8.335938 33.847656 9.675781 35.675781 10.433594 37.179688 C 10.820312 37.949219 11.414062 39.886719 11.414062 39.886719 C 11.441406 39.578125 11.410156 39.152344 11.507812 38.859375 C 11.625 38.515625 12.160156 37.832031 12.160156 37.832031 C 12.695312 39.277344 13.359375 41.21875 13.9375 42.644531 C 14.410156 43.808594 15.199219 45.296875 15.628906 46.480469 C 15.789062 46.921875 15.984375 47.519531 16.078125 47.976562 C 16.445312 49.824219 16.53125 52.355469 16.542969 54.238281 C 16.554688 56.164062 16.230469 58.714844 16.144531 60.636719 C 16.042969 62.871094 15.78125 65.863281 15.945312 68.097656 C 16.019531 69.140625 16.21875 70.53125 16.5 71.539062 C 16.75 72.453125 17.421875 73.554688 17.664062 74.46875 C 17.796875 74.976562 17.925781 76.195312 17.925781 76.195312 C 17.949219 76.0625 17.960938 75.878906 18 75.746094 C 18.203125 75.082031 19.050781 73.679688 19.050781 73.679688 C 19.230469 74.378906 19.515625 75.300781 19.652344 76.007812 C 19.835938 76.964844 20.015625 78.253906 20.054688 79.226562 C 20.085938 79.984375 20.101562 81.007812 19.953125 81.753906 C 19.871094 82.164062 19.496094 83.078125 19.496094 83.078125 C 19.71875 82.972656 20.035156 82.863281 20.234375 82.722656 C 20.519531 82.519531 21.050781 81.878906 21.050781 81.878906 C 21.082031 82.988281 21.101562 84.46875 21.152344 85.578125 C 21.199219 86.515625 21.238281 87.769531 21.367188 88.699219 C 21.460938 89.398438 21.554688 90.351562 21.839844 90.992188 C 22.089844 91.558594 23.039062 92.667969 23.039062 92.667969 C 23.035156 92.21875 22.953125 91.617188 23.023438 91.175781 C 23.097656 90.6875 23.542969 89.609375 23.542969 89.609375 C 24 90.980469 25.0625 94.175781 25.0625 94.175781 C 25.269531 95.5 25.542969 97.265625 25.75 98.589844 C 26.230469 101.695312 26.746094 105.855469 27.347656 108.9375 C 28.078125 112.679688 29.050781 117.695312 30.289062 121.304688 C 30.683594 122.449219 31.238281 123.992188 31.894531 125.011719 C 32.378906 125.761719 33.871094 127.234375 33.871094 127.234375 C 33.757812 126.9375 33.550781 126.558594 33.5 126.246094 C 33.429688 125.824219 33.5625 124.824219 33.5625 124.824219 C 34.097656 126.324219 34.824219 128.324219 35.351562 129.828125 C 36.140625 132.0625 37.152344 135.058594 37.933594 137.296875 C 38.84375 139.914062 40.300781 143.324219 41.003906 146.003906 C 42.457031 151.539062 43.402344 159.148438 44.078125 164.828125 C 44.769531 170.613281 45.292969 178.375 45.542969 184.195312 C 45.671875 187.277344 45.734375 191.386719 45.679688 194.46875 C 45.632812 197.039062 45.660156 200.484375 45.265625 203.019531 C 45.210938 203.378906 44.992188 204.191406 44.992188 204.191406 C 44.019531 204.089844 42.726562 203.773438 41.75 203.847656 C 40.917969 203.910156 39.808594 204.167969 39.058594 204.539062 C 38.425781 204.851562 37.679688 205.464844 37.199219 205.984375 C 36.710938 206.515625 36.039062 207.285156 35.886719 207.988281 C 35.78125 208.476562 35.847656 209.207031 36.09375 209.640625 C 36.292969 209.988281 36.777344 210.285156 37.128906 210.46875 C 38.113281 210.980469 39.613281 211.25 40.714844 211.363281 C 42.734375 211.578125 45.503906 211.511719 47.472656 211.019531 C 48.613281 210.738281 50.078125 210.082031 51.058594 209.433594 C 51.449219 209.175781 52.230469 208.398438 52.230469 208.398438 C 52.398438 206.683594 52.617188 204.394531 52.785156 202.675781 C 53.15625 198.824219 53.714844 193.691406 54.035156 189.832031 C 54.507812 184.203125 54.953125 176.683594 55.332031 171.046875 C 55.628906 166.625 56.304688 156.3125 56.304688 156.3125 C 56.855469 159.957031 57.679688 164.804688 58.148438 168.460938 C 58.621094 172.160156 59.226562 177.097656 59.429688 180.820312 C 59.703125 185.78125 59.566406 192.417969 59.488281 197.386719 C 59.453125 199.816406 59.445312 203.066406 59.230469 205.484375 C 59.171875 206.1875 58.921875 207.804688 58.921875 207.804688 C 57.699219 207.824219 56.027344 207.539062 54.847656 207.859375 C 53.890625 208.117188 52.738281 208.84375 51.960938 209.457031 C 51.28125 209.992188 50.390625 210.800781 50 211.570312 C 49.644531 212.273438 49.15625 213.433594 49.484375 214.152344 C 49.796875 214.832031 50.941406 215.148438 51.652344 215.386719 C 53.066406 215.867188 55.109375 215.925781 56.601562 215.90625 C 59.042969 215.867188 62.476562 215.828125 64.648438 214.71875 C 65.457031 214.304688 66.882812 212.671875 66.886719 212.671875 C 67.207031 208.421875 67.617188 202.75 67.964844 198.5 C 68.3125 194.203125 68.757812 188.46875 69.195312 184.179688 C 69.898438 177.300781 71.09375 168.15625 71.933594 161.292969 C 72.242188 158.753906 72.625 155.367188 72.980469 152.835938 C 73.25 150.945312 73.53125 148.402344 73.96875 146.542969 C 74.3125 145.085938 75.449219 141.789062 75.449219 141.789062 C 77.117188 142.75 79.226562 144.261719 81.003906 145 C 82.773438 145.730469 85.289062 146.304688 87.175781 146.640625 C 88.695312 146.910156 90.761719 147.027344 92.308594 147.121094 C 93.539062 147.199219 95.183594 147.207031 96.414062 147.242188 C 95.925781 146.988281 95.273438 146.652344 94.785156 146.398438 C 95.925781 146.488281 97.445312 146.742188 98.589844 146.699219 C 99.6875 146.660156 101.171875 146.511719 102.210938 146.15625 C 102.792969 145.957031 104.023438 145.191406 104.023438 145.191406 C 103.644531 145.136719 102.753906 145.007812 102.753906 145.007812 C 104.167969 144.449219 106.023438 143.621094 107.464844 143.136719 C 108.410156 142.820312 110.664062 142.230469 110.667969 142.230469 C 110.972656 143.808594 111.328125 145.921875 111.691406 147.484375 C 112.382812 150.449219 113.292969 154.425781 114.386719 157.269531 C 115.382812 159.855469 117.1875 163.105469 118.519531 165.535156 C 119.855469 167.964844 121.867188 171.074219 123.28125 173.460938 C 124.59375 175.683594 126.421875 178.601562 127.609375 180.894531 C 128.390625 182.402344 129.976562 186.039062 129.976562 186.039062 C 129.933594 187.390625 129.859375 189.191406 129.828125 190.542969 C 129.710938 195.636719 129.664062 207.523438 129.664062 207.527344 C 128.828125 207.410156 127.726562 207.085938 126.886719 207.136719 C 125.941406 207.195312 124.675781 207.535156 123.835938 207.972656 C 122.753906 208.53125 121.371094 209.546875 120.726562 210.578125 C 120.332031 211.210938 119.945312 212.230469 120.058594 212.964844 C 120.152344 213.550781 120.644531 214.273438 121.113281 214.632812 C 122.175781 215.4375 124.113281 215.542969 125.445312 215.628906 C 128.136719 215.808594 131.890625 215.617188 134.378906 214.574219 C 135.097656 214.277344 136.488281 213.078125 136.488281 213.078125 C 136.878906 209.84375 137.449219 205.539062 137.785156 202.300781 C 138.371094 196.605469 139.394531 183.289062 139.394531 183.285156 C 138.695312 180.917969 137.53125 177.820312 137.0625 175.394531 C 136.496094 172.4375 136.171875 165.402344 136.171875 165.398438 C 138.007812 168.589844 140.5 172.820312 142.296875 176.035156 C 144.738281 180.40625 150.234375 190.714844 150.234375 190.71875 C 150.148438 194.679688 150.1875 199.972656 149.945312 203.929688 C 149.816406 205.972656 149.289062 210.714844 149.289062 210.71875 C 148.148438 210.5625 146.628906 210.042969 145.492188 210.207031 C 144.8125 210.304688 143.957031 210.71875 143.375 211.082031 C 142.339844 211.730469 140.9375 212.765625 140.382812 213.855469 C 140.070312 214.46875 139.878906 215.445312 140.019531 216.117188 C 140.089844 216.464844 140.339844 216.902344 140.601562 217.140625 C 141.597656 218.042969 143.511719 218.378906 144.835938 218.601562 C 146.734375 218.917969 149.355469 218.835938 151.257812 218.527344 C 152.84375 218.269531 156.367188 216.921875 156.367188 216.921875 C 156.828125 214.140625 157.542969 210.449219 157.898438 207.652344 C 158.691406 201.460938 159.652344 186.917969 159.652344 186.917969 C 158.976562 185.550781 157.886719 183.808594 157.402344 182.363281 C 156.695312 180.257812 156.300781 177.285156 156.085938 175.070312 C 155.855469 172.667969 155.933594 169.441406 155.988281 167.027344 C 156.105469 162.117188 156.597656 155.582031 157.054688 150.691406 C 157.390625 147.09375 158.492188 138.738281 158.492188 138.734375 C 158.53125 142.039062 158.550781 146.449219 158.617188 149.753906 C 158.683594 152.851562 158.53125 157.007812 158.929688 160.082031 C 159.25 162.539062 160.042969 165.765625 160.761719 168.136719 C 161.1875 169.554688 162.484375 172.761719 162.484375 172.761719 C 162.484375 172.113281 162.441406 171.25 162.484375 170.605469 C 162.511719 170.183594 162.65625 169.199219 162.65625 169.199219 C 163.015625 170.707031 163.410156 172.742188 163.863281 174.222656 C 164.207031 175.359375 164.621094 176.914062 165.234375 177.929688 C 165.648438 178.617188 166.988281 179.945312 166.988281 179.945312 C 166.910156 179.640625 166.761719 179.238281 166.726562 178.925781 C 166.6875 178.550781 166.773438 177.667969 166.773438 177.667969 C 167.1875 178.515625 167.59375 179.726562 168.148438 180.488281 C 168.554688 181.046875 169.785156 182.101562 169.785156 182.101562 C 169.683594 181.683594 169.511719 181.128906 169.453125 180.703125 C 169.414062 180.445312 169.398438 179.839844 169.398438 179.839844 C 169.886719 180.574219 170.460938 181.613281 171.03125 182.285156 C 172.019531 183.457031 173.53125 184.882812 174.800781 185.75 C 177.5 187.597656 181.511719 189.550781 184.6875 190.335938 C 187.09375 190.933594 192.941406 190.847656 192.941406 190.847656 C 191.808594 189.898438 190.207031 188.734375 189.167969 187.6875 C 186.519531 185.011719 183.414062 181.015625 181.367188 177.855469 C 180.628906 176.707031 179.214844 173.847656 179.214844 173.847656 C 179.5 173.90625 179.875 174.042969 180.167969 174.046875 C 180.273438 174.050781 180.515625 173.996094 180.515625 173.996094 C 179.644531 172.75 178.304688 171.195312 177.613281 169.839844 C 176.859375 168.367188 175.808594 164.628906 175.808594 164.628906 C 176.230469 164.839844 176.75 165.234375 177.210938 165.332031 C 177.59375 165.410156 178.511719 165.28125 178.515625 165.28125 C 177.726562 164.09375 176.613281 162.546875 175.886719 161.316406 C 174.636719 159.199219 173.144531 156.269531 172.136719 154.023438 C 169.273438 147.632812 165.960938 138.863281 164.007812 132.140625 C 162.507812 126.96875 162.089844 119.640625 160.203125 114.601562 C 159.238281 112.023438 157.597656 108.671875 155.925781 106.488281 C 153.597656 103.453125 149.632812 100.09375 146.484375 97.929688 C 144.753906 96.742188 142.242188 95.453125 140.289062 94.683594 C 136.671875 93.261719 131.550781 92.246094 127.75 91.441406 C 122.398438 90.300781 115.066406 89.78125 109.75 88.488281 C 104.675781 87.257812 98.050781 85.035156 93.195312 83.125 C 89.6875 81.742188 84.949219 79.910156 81.792969 77.855469 C 81.417969 77.613281 80.636719 76.917969 80.636719 76.917969 C 80.832031 76.808594 81.285156 76.554688 81.285156 76.554688 C 80.09375 75.710938 78.519531 74.570312 77.316406 73.742188 C 75.710938 72.636719 71.90625 70.132812 71.902344 70.132812 C 72.25 70.066406 72.71875 70.003906 73.058594 69.917969 C 73.390625 69.832031 74.140625 69.554688 74.140625 69.554688 C 73.449219 68.90625 72.4375 68.121094 71.832031 67.390625 C 71.230469 66.660156 70.148438 64.730469 70.148438 64.726562 C 70.820312 64.726562 72.382812 64.726562 72.382812 64.726562 C 71.195312 63.507812 69.632812 61.859375 68.417969 60.660156 C 67.191406 59.449219 64.25 56.695312 64.25 56.695312 C 64.675781 56.726562 65.246094 56.808594 65.671875 56.796875 C 66.136719 56.785156 67.199219 56.59375 67.199219 56.59375 C 65.367188 54.335938 62.753906 51.457031 61.097656 49.070312 C 59.941406 47.40625 57.640625 43.273438 57.640625 43.273438 C 60.050781 42.691406 63.441406 42.417969 65.671875 41.339844 C 66.910156 40.742188 69.339844 38.605469 69.339844 38.605469 C 69.027344 38.292969 68.640625 37.851562 68.304688 37.566406 C 66.699219 36.222656 64.328125 34.714844 62.488281 33.710938 C 60.4375 32.59375 57.566406 31.339844 55.347656 30.601562 C 54.335938 30.265625 51.894531 29.738281 51.894531 29.738281 C 50.757812 27.964844 49.371094 25.515625 48.105469 23.832031 C 46.933594 22.265625 45.492188 19.929688 43.824219 18.902344 C 41.410156 17.417969 37.402344 17.316406 34.617188 16.800781 C 32.335938 16.378906 26.96875 15.691406 26.96875 15.691406 C 24.757812 13.832031 21.734375 11.441406 19.609375 9.484375 C 17.191406 7.261719 14.246094 4.007812 11.882812 1.722656 C 11.550781 1.402344 11.191406 0.832031 10.757812 0.671875 C 10.375 0.527344 9.761719 0.527344 9.390625 0.707031 C 9.003906 0.890625 8.621094 1.394531 8.476562 1.792969 C 8.285156 2.320312 8.511719 3.65625 8.511719 3.65625 C 7.769531 4.800781 6.550781 6.214844 6.03125 7.476562 C 5.710938 8.253906 5.296875 9.382812 5.414062 10.214844 C 5.476562 10.667969 6.085938 11.582031 6.085938 11.582031 C 5.667969 12.363281 4.691406 14.1875 4.6875 14.1875 Z M 4.6875 14.1875 " fill-opacity="1" fill-rule="evenodd"/></g><g clip-path="url(#7af8f1b049)"><path stroke-linecap="round" transform="matrix(0.394753, 0, 0, 0.394753, -157.181748, -34.013448)" fill="none" stroke-linejoin="round" d="M 799.675185 437.610242 C 799.675185 437.620137 796.884672 458.786474 796.033664 467.900171 C 794.875898 480.289257 793.629073 496.844321 793.33221 509.282884 C 793.193674 515.398263 792.995765 523.571893 793.579596 529.657586 C 794.123845 535.268298 795.123284 542.798725 796.914358 548.132365 C 798.141392 551.793676 800.902219 556.207041 802.614129 559.670443 C 802.614129 559.670443 800.179852 596.511151 798.171078 612.195417 C 797.270594 619.280549 795.459729 628.631736 794.292067 635.677286 C 794.292067 635.677286 785.366384 639.091212 781.348837 639.744311 C 776.52976 640.52605 769.889923 640.733854 765.080741 639.932324 C 761.726188 639.368284 756.877424 638.517277 754.354088 636.231431 C 753.691094 635.627809 753.057786 634.51952 752.879668 633.638827 C 752.523433 631.936812 753.008309 629.462953 753.799944 627.909369 C 755.205096 625.148543 758.757557 622.526252 761.379848 620.88361 C 762.854268 619.963334 765.021368 618.914418 766.743174 618.667032 C 769.622746 618.251424 773.47207 619.567517 776.361538 619.963334 C 776.361538 619.953439 777.697421 607.94038 778.023971 602.765067 C 778.637488 592.74099 778.538533 579.332674 778.756233 569.298702 C 778.756233 569.288807 764.833355 543.174752 758.648707 532.101759 C 754.096807 523.957815 747.783519 513.241058 743.132664 505.156487 C 743.132664 505.166382 743.953985 522.988062 745.388823 530.478907 C 746.576276 536.623973 749.525115 544.471054 751.296398 550.467688 C 751.296398 550.477583 748.703794 584.211124 747.219479 598.63867 C 746.368471 606.841986 744.923738 617.746757 743.934194 625.940178 C 743.934194 625.940178 740.411419 628.978076 738.590659 629.730129 C 732.287266 632.372211 722.777752 632.857087 715.959797 632.401897 C 712.585453 632.184198 707.677317 631.917021 704.985758 629.878561 C 703.798306 628.968181 702.551481 627.137525 702.313991 625.65321 C 702.027023 623.792868 703.006671 621.210159 704.00611 619.607099 C 705.638857 616.994703 709.141842 614.42189 711.882877 613.006843 C 714.010396 611.898554 717.216517 611.037651 719.611213 610.88922 C 721.738731 610.760579 724.529244 611.5819 726.646868 611.878763 C 726.646868 611.868868 726.765613 581.757056 727.062476 568.853408 C 727.141639 565.429587 727.329653 560.867791 727.438503 557.44397 C 727.438503 557.44397 723.420956 548.231319 721.441868 544.411681 C 718.433656 538.60306 713.802592 531.21117 710.477725 525.580667 C 706.895578 519.534555 701.799428 511.657788 698.415189 505.502827 C 695.040845 499.347866 690.469154 491.114863 687.945818 484.564085 C 685.175096 477.360208 682.869459 467.286654 681.117967 459.776018 C 680.197692 455.817844 679.297207 450.464413 678.525363 446.466657 C 678.515467 446.466657 672.805801 447.960867 670.411105 448.762398 C 666.75969 449.989432 662.059358 452.087264 658.47721 453.502312 C 658.47721 453.502312 660.733369 453.828861 661.693226 453.967397 C 661.693226 453.967397 658.576164 455.906903 657.101744 456.41157 C 654.469558 457.312054 650.709293 457.688081 647.928675 457.787035 C 645.029312 457.895885 641.179988 457.252682 638.290521 457.025087 C 639.52745 457.66829 641.179988 458.519298 642.416917 459.162501 C 639.299855 459.073442 635.133876 459.053651 632.016814 458.855742 C 628.098222 458.618252 622.863536 458.321389 619.014211 457.638604 C 614.234716 456.787596 607.862055 455.332967 603.379423 453.482521 C 598.876999 451.612283 593.533464 447.78275 589.308113 445.348472 C 589.308113 445.348472 586.428541 453.70022 585.557743 457.391218 C 584.449454 462.101445 583.736982 468.543374 583.054197 473.332765 C 582.153713 479.745008 581.18396 488.324351 580.402221 494.756384 C 578.274702 512.142665 575.246698 535.30788 573.46552 552.733743 C 572.357231 563.598931 571.229151 578.125431 570.348458 589.010411 C 569.467764 599.776645 568.428743 614.144818 567.617317 624.911052 C 567.607422 624.911052 563.995588 629.047344 561.947233 630.096261 C 556.44537 632.906564 547.747282 633.005519 541.562635 633.104473 C 537.782578 633.15395 532.607265 633.005519 529.025117 631.78838 C 527.224148 631.184759 524.324785 630.383228 523.53315 628.661422 C 522.701934 626.840662 523.938863 623.901718 524.839348 622.120539 C 525.828892 620.171138 528.085051 618.122783 529.806857 616.767108 C 531.776049 615.213525 534.695202 613.372974 537.119584 612.719875 C 540.108006 611.908449 544.343252 612.630816 547.440524 612.581339 C 547.440524 612.581339 548.073831 608.484629 548.222263 606.70345 C 548.766512 600.578175 548.786303 592.345173 548.875362 586.190212 C 549.07327 573.603217 549.419611 556.790871 548.72693 544.223668 C 548.212368 534.793317 546.678575 522.285487 545.481227 512.914509 C 544.293775 503.652381 542.205838 491.372145 540.810582 482.139703 C 540.810582 482.139703 539.098671 508.263654 538.346618 519.465287 C 537.386761 533.744401 536.258681 552.793115 535.061333 567.052438 C 534.249908 576.829129 532.83486 589.831732 531.894794 599.588632 C 531.46929 603.942624 530.915146 609.741349 530.489642 614.085445 C 530.489642 614.085445 528.510555 616.054637 527.521011 616.707736 C 525.037257 618.350378 521.326468 620.012811 518.437001 620.725283 C 513.449701 621.972108 506.433837 622.14033 501.317897 621.596081 C 498.527384 621.309114 494.727537 620.626328 492.233887 619.330026 C 491.343297 618.864941 490.116263 618.112888 489.611596 617.232194 C 488.988184 616.133801 488.819961 614.283354 489.087138 613.046425 C 489.47306 611.265246 491.175075 609.315845 492.412005 607.970066 C 493.629143 606.653973 495.519171 605.10039 497.122232 604.308755 C 499.022156 603.368688 501.83246 602.715589 503.940187 602.557262 C 506.414046 602.369249 509.689436 603.17078 512.153399 603.428061 C 512.153399 603.428061 512.707544 601.36981 512.84608 600.45943 C 513.845519 594.037292 513.776251 585.309518 513.894996 578.798321 C 514.033532 570.990822 513.875205 560.580823 513.548656 552.773325 C 512.915348 538.029125 511.589359 518.366894 509.837867 503.711753 C 508.125957 489.32379 505.731261 470.04748 502.050159 456.025648 C 500.268981 449.237379 496.577983 440.598663 494.272347 433.968721 C 492.293259 428.298636 489.730341 420.708837 487.731463 415.048648 C 486.39558 411.238905 484.555028 406.172442 483.199354 402.372594 C 483.199354 402.372594 482.862909 404.905826 483.041027 405.974533 C 483.169667 406.766168 483.694126 407.726025 483.981093 408.478078 C 483.981093 408.478078 480.201037 404.747499 478.974003 402.847575 C 477.311569 400.264866 475.906417 396.356169 474.906978 393.456807 C 471.770125 384.313424 469.306162 371.607684 467.455715 362.127857 C 465.931818 354.320358 464.625621 343.781718 463.408482 335.914847 C 462.884024 332.560294 462.191343 328.087557 461.666885 324.733004 C 461.666885 324.733004 458.975327 316.638538 457.817561 313.16524 C 457.817561 313.16524 456.689481 315.89638 456.501468 317.13331 C 456.32335 318.251494 456.531154 319.775391 456.541049 320.913366 C 456.541049 320.913366 454.136459 318.103062 453.503151 316.668224 C 452.780784 315.045373 452.543293 312.630886 452.305803 310.859603 C 451.979253 308.504489 451.880299 305.328054 451.761554 302.95315 C 451.632913 300.142846 451.583436 296.392476 451.504273 293.582172 C 451.504273 293.582172 450.158493 295.205024 449.436126 295.719586 C 448.931459 296.075822 448.129929 296.352894 447.565889 296.620071 C 447.565889 296.620071 448.515851 294.304539 448.723655 293.265518 C 449.099682 291.37549 449.0601 288.782886 448.980936 286.863171 C 448.881982 284.399208 448.426792 281.133714 447.961707 278.709332 C 447.615366 276.918258 446.892999 274.582935 446.437809 272.811652 C 446.437809 272.811652 444.2905 276.364114 443.775937 278.046338 C 443.676983 278.382783 443.647296 278.847868 443.587924 279.184313 C 443.587924 279.184313 443.261374 276.096937 442.92493 274.81053 C 442.311413 272.494998 440.609398 269.704485 439.97609 267.388953 C 439.263618 264.835931 438.758951 261.313156 438.570938 258.671074 C 438.15533 253.010885 438.818324 245.430981 439.075605 239.770792 C 439.293305 234.902237 440.114626 228.440518 440.08494 223.562068 C 440.055253 218.792468 439.837554 212.380225 438.907383 207.699684 C 438.669892 206.541918 438.17512 205.027916 437.769408 203.909732 C 436.68091 200.911415 434.682032 197.141254 433.484684 194.192414 C 432.020159 190.58058 430.337935 185.662548 428.98226 182.001237 C 428.98226 182.001237 427.626586 183.732938 427.329723 184.603737 C 427.082337 185.345894 427.1615 186.424497 427.092232 187.206236 C 427.092232 187.206236 425.588126 182.2981 424.608478 180.348699 C 422.688763 176.538956 419.294629 171.907892 416.563488 168.632503 C 414.623983 166.316971 411.447548 163.763949 409.438775 161.507789 C 407.618014 159.469329 405.154051 156.748085 403.76869 154.402866 C 402.709878 152.601897 401.601589 150.019188 401.067236 148.010415 C 400.226124 144.863666 399.968842 140.470092 399.899574 137.214494 C 399.859993 135.621329 400.087588 133.503706 400.166751 131.91054 C 400.166751 131.91054 402.709878 131.702736 403.76869 131.91054 C 404.619697 132.078763 405.658718 132.662594 406.470144 132.989143 C 406.470144 132.989143 408.498708 130.802252 409.369507 129.862185 C 409.369507 129.862185 409.616892 133.236529 409.715847 134.681262 C 409.715847 134.681262 415.376036 139.302431 417.869686 141.182564 C 421.352879 143.81475 426.162061 147.080244 429.714523 149.60358 C 429.714523 149.60358 426.617251 144.151195 425.419904 141.746604 C 424.222556 139.332117 422.856986 136.007251 421.738801 133.553183 C 419.828982 129.377309 417.226483 123.84576 415.296873 119.679782 C 413.723498 120.412044 411.625666 121.381797 410.052292 122.104163 C 410.062187 122.104163 412.536046 117.482995 413.594858 115.503908 C 413.594858 115.503908 412.05117 113.188376 411.892843 112.040505 C 411.59598 109.932777 412.644896 107.072996 413.456322 105.103805 C 414.772415 101.907579 417.859791 98.325431 419.739923 95.426068 C 419.739923 95.426068 419.165988 92.041829 419.650864 90.705945 C 420.016996 89.696611 420.986748 88.4201 421.966396 87.955014 C 422.906463 87.499824 424.460046 87.499824 425.429799 87.865955 C 426.528192 88.271668 427.438572 89.716402 428.279685 90.527827 C 434.266423 96.316657 441.727582 104.559556 447.852857 110.190059 C 453.235974 115.147672 460.895041 121.203679 466.495858 125.913906 C 466.495858 125.913906 480.092187 127.655503 485.871121 128.72421 C 492.926567 130.030408 503.079284 130.287689 509.194664 134.047955 C 513.420015 136.650454 517.071431 142.567925 520.040062 146.535995 C 523.246183 150.800928 526.759063 157.005366 529.638634 161.497894 C 529.638634 161.497894 535.823282 162.833778 538.3862 163.684785 C 544.006807 165.555022 551.279953 168.731457 556.475057 171.561552 C 561.135807 174.104679 567.142336 177.924317 571.209361 181.328347 C 572.060368 182.050714 573.040016 183.168898 573.831651 183.960533 C 573.831651 183.960533 567.67669 189.373337 564.539837 190.887338 C 558.889543 193.618479 550.300305 194.311159 544.194821 195.785579 C 544.194821 195.785579 550.023232 206.25495 552.952281 210.470406 C 557.147946 216.516517 563.767993 223.809454 568.408952 229.529016 C 568.408952 229.529016 565.717394 230.013892 564.539837 230.043578 C 563.461234 230.073265 562.016501 229.86546 560.937898 229.786297 C 560.937898 229.786297 568.389161 236.762579 571.496328 239.830164 C 574.573809 242.868063 578.531983 247.043937 581.540196 250.131313 C 581.540196 250.131313 577.582021 250.131313 575.880006 250.131313 C 575.880006 250.141208 578.621042 255.029554 580.144939 256.88 C 581.678732 258.730447 584.24165 260.719429 585.993142 262.362072 C 585.993142 262.362072 584.093218 263.064648 583.252106 263.282347 C 582.391203 263.500047 581.203751 263.658374 580.323057 263.826596 C 580.332952 263.826596 589.971107 270.169571 594.038131 272.969979 C 597.085925 275.067812 601.073786 277.957279 604.091894 280.094693 C 604.091894 280.094693 602.944024 280.737896 602.449252 281.014968 C 602.449252 281.014968 604.428339 282.776356 605.378301 283.389873 C 613.373813 288.594872 625.376977 293.235832 634.263078 296.738816 C 646.563105 301.577684 663.345764 307.208187 676.199935 310.32525 C 689.667624 313.600639 708.241357 314.916732 721.798104 317.806199 C 731.426363 319.844659 744.39928 322.417472 753.562453 326.019411 C 758.510171 327.968812 764.872937 331.234306 769.256615 334.242518 C 777.232336 339.72459 787.276203 348.234665 793.173883 355.923418 C 797.40913 361.454967 801.565213 369.945251 804.009385 376.476239 C 808.788881 389.241351 809.847693 407.805189 813.64754 420.906746 C 818.595258 437.936791 826.986588 460.152045 834.239942 476.340978 C 836.792965 482.030853 840.573021 489.45243 843.739561 494.815756 C 845.580112 497.932819 848.400311 501.851411 850.399189 504.859624 C 850.389294 504.859624 848.063866 505.186173 847.094113 504.988265 C 845.926452 504.740879 844.610359 503.74144 843.541652 503.207086 C 843.541652 503.207086 846.203524 512.677018 848.113343 516.407598 C 849.864835 519.841314 853.25897 523.779697 855.465652 526.936341 C 855.465652 526.936341 854.852135 527.074877 854.584958 527.064982 C 853.842801 527.055087 852.892839 526.708746 852.170472 526.560315 C 852.170472 526.560315 855.75262 533.803774 857.622857 536.713032 C 862.808066 544.71844 870.674937 554.841471 877.384043 561.619844 C 880.016229 564.271821 884.073357 567.220661 886.943034 569.625252 C 886.943034 569.625252 872.129566 569.842951 866.033978 568.32895 C 857.988988 566.339967 847.826376 561.392249 840.988629 556.711708 C 837.772613 554.514921 833.943079 550.903087 831.439534 547.934456 C 829.9948 546.232441 828.540171 543.600255 827.303242 541.739913 C 827.303242 541.739913 827.342823 543.273706 827.441778 543.926805 C 827.590209 545.005407 828.025608 546.410559 828.28289 547.469371 C 828.28289 547.469371 825.165827 544.797603 824.136702 543.382556 C 822.73155 541.452946 821.702425 538.385361 820.653509 536.238051 C 820.653509 536.238051 820.435809 538.47442 820.534763 539.424381 C 820.623822 540.216016 820.999849 541.235246 821.197758 542.00709 C 821.197758 542.00709 817.803623 538.642642 816.754707 536.901045 C 815.201123 534.328232 814.152207 530.389849 813.281409 527.510277 C 812.133538 523.759906 811.134099 518.604384 810.223719 514.784746 C 810.223719 514.784746 809.857588 517.278396 809.78832 518.347103 C 809.67947 519.97985 809.78832 522.166741 809.78832 523.809384 C 809.78832 523.809384 806.503035 515.685231 805.424433 512.093188 C 803.603673 506.086658 801.594899 497.913028 800.783473 491.688799 C 799.774139 483.901091 800.160061 473.372347 799.991839 465.525266 C 799.823616 457.153727 799.774139 445.98178 799.675185 437.610242 M 415.296873 119.679782 L 415.296873 119.679782 M 642.416917 459.162501 L 642.416917 459.162501 M 638.290521 457.025087 L 638.290521 457.025087 M 410.052292 122.104163 L 410.052292 122.104163 " stroke="#000000" stroke-width="1" stroke-opacity="1" stroke-miterlimit="4"/></g></svg>