<svg xmlns="http://www.w3.org/2000/svg" xmlns:xlink="http://www.w3.org/1999/xlink" width="307" zoomAndPan="magnify" viewBox="0 0 230.25 183.749994" height="245" preserveAspectRatio="xMidYMid meet" version="1.0"><defs><clipPath id="b71358a447"><path d="M 0.503906 0.1875 L 228 0.1875 L 228 181 L 0.503906 181 Z M 0.503906 0.1875 " clip-rule="nonzero"/></clipPath></defs><g clip-path="url(#b71358a447)"><path fill="#482667" d="M 206.320312 89.367188 C 206.265625 90.625 207.035156 92.160156 206.539062 93.035156 C 206.046875 93.96875 204.296875 94.1875 202.761719 94.898438 C 204.570312 98.511719 201.722656 100.320312 198.324219 99.9375 C 199.203125 103.332031 197.011719 104.265625 194.710938 103.878906 C 195.203125 104.867188 195.914062 106.34375 194 107.441406 C 192.738281 108.152344 191.808594 107.605469 191.097656 107.277344 C 191.699219 111.273438 189.617188 111.765625 187.535156 111.875 C 187.261719 113.082031 187.863281 114.011719 186.878906 114.890625 C 186.332031 115.273438 184.90625 115.054688 183.648438 114.285156 C 183.976562 116.367188 184.195312 119.871094 179.648438 117.078125 C 180.964844 122.445312 179.15625 121.570312 175.707031 121.132812 C 176.253906 125.019531 175.378906 125.351562 171.925781 124.855469 C 171.871094 127.8125 170.394531 131.429688 163.601562 127.210938 C 163.929688 131.320312 164.367188 132.195312 159.386719 131.648438 C 160.152344 133.238281 161.464844 134.878906 162.835938 136.6875 C 163.4375 137.398438 163.328125 137.34375 164.09375 137.34375 C 166.777344 137.289062 183.101562 136.140625 189.234375 137.617188 C 192.574219 138.4375 191.917969 140.464844 189.5625 141.726562 C 187.644531 142.710938 183.320312 142.765625 180.195312 143.257812 C 183.648438 143.695312 190.875 143.3125 192.136719 147.3125 C 192.902344 149.832031 191.207031 150.925781 186.441406 152.40625 C 198.269531 159.140625 188.46875 161.113281 182.824219 159.855469 C 184.25 160.949219 190.765625 164.453125 189.289062 167.027344 C 187.753906 169.601562 183.320312 168.617188 181.128906 168.945312 C 181.949219 169.65625 186.386719 171.246094 184.195312 172.667969 C 182.332031 174.09375 178.71875 172.285156 176.035156 172.175781 C 177.183594 173.164062 180.964844 176.394531 176.582031 177.050781 C 174.773438 177.378906 171.160156 173.601562 168.53125 172.613281 C 176.035156 180.882812 170.449219 181.597656 164.917969 175.460938 C 167.050781 182.964844 161.628906 180.828125 157.960938 176.558594 C 157.03125 183.128906 150.621094 177.105469 149.199219 172.886719 C 147.445312 174.859375 140.269531 174.367188 140.488281 167.90625 C 138.464844 169 134.410156 171.574219 132.4375 168.835938 C 130.304688 165.988281 134.027344 158.539062 134.628906 154.488281 C 132.660156 154.15625 130.851562 153.773438 128.878906 153.226562 C 128.386719 153.882812 128.441406 155.035156 127.839844 155.417969 C 127.015625 155.855469 125.265625 155.035156 124.058594 154.871094 C 124.113281 155.691406 124.992188 156.894531 124.496094 157.390625 C 123.894531 158.046875 122.199219 157.117188 121.15625 157.117188 C 121.429688 158.101562 121.15625 159.523438 120.554688 160.019531 C 119.84375 160.511719 118.527344 159.800781 117.542969 159.855469 C 117.707031 160.675781 117.871094 161.714844 117.378906 162.152344 C 116.664062 162.867188 114.367188 162.316406 113.214844 162.261719 C 114.09375 166.589844 109.328125 165.058594 107.902344 164.179688 C 106.097656 166.480469 105.164062 166.808594 102.480469 165.332031 C 101.660156 165.878906 101.496094 167.519531 99.796875 167.742188 C 97.988281 168.070312 96.894531 166.808594 95.691406 166.480469 C 95.582031 167.628906 95.746094 169.546875 94.921875 169.929688 C 93.992188 170.371094 91.691406 168.453125 90.15625 167.683594 C 89.609375 168.5625 89.390625 170.148438 88.460938 170.480469 C 87.253906 170.917969 84.789062 169.109375 83.148438 167.960938 C 82.820312 168.507812 81.777344 170.371094 80.902344 170.699219 C 79.644531 171.136719 77.453125 169.164062 76.027344 167.519531 C 75.535156 168.671875 74.550781 170.699219 73.453125 171.191406 C 70.988281 172.230469 69.566406 170.257812 68.414062 168.726562 C 66.9375 169.4375 65.839844 170.753906 64.417969 170.808594 C 63.046875 170.863281 61.734375 169.21875 60.691406 169.054688 C 59.214844 169 56.859375 170.917969 55.160156 170.589844 C 53.574219 170.257812 52.421875 168.398438 51.273438 167.027344 C 47.769531 169.65625 47.164062 170.371094 41.90625 169.875 C 43.605469 167.136719 43.550781 166.152344 42.34375 166.042969 C 38.785156 168.179688 34.898438 169.820312 28.597656 169.875 C 32.980469 167.082031 34.019531 166.371094 36.320312 163.90625 C 30.515625 165.769531 22.738281 169.328125 15.894531 166.972656 C 19.835938 166.207031 25.476562 166.042969 27.339844 163.796875 C 16.660156 165.386719 12.933594 166.261719 1.980469 160.621094 C 6.527344 161.222656 10.03125 161.550781 14.414062 160.566406 C 7.953125 159.140625 5.980469 158.757812 0.503906 150.871094 C 5.925781 154.871094 11.019531 157.609375 16.058594 158.921875 C 12.441406 156.457031 9.320312 150.761719 9.265625 150.925781 C 15.835938 157.117188 22.191406 159.910156 31.335938 158.757812 C 36.867188 158.046875 40.757812 155.527344 47.546875 153.007812 C 44.699219 152.625 38.347656 152.40625 38.292969 151.691406 C 46.125 151.199219 55.105469 148.132812 58.503906 146.984375 C 64.636719 144.847656 70.878906 142.492188 77.125 140.136719 C 85.558594 136.414062 93.9375 132.632812 102.644531 128.746094 C 100.015625 126.882812 94.429688 122.226562 91.144531 122.941406 C 89.992188 123.214844 87.640625 124.199219 86.652344 125.074219 C 86.761719 123.324219 86.816406 120.75 87.363281 119.105469 C 91.144531 107.660156 112.175781 127.265625 141.039062 95.117188 C 146.023438 89.585938 153.6875 83.617188 157.960938 78.6875 C 161.082031 75.128906 163 72.445312 164.480469 69.761719 C 166.558594 65.925781 167.328125 58.972656 169.734375 52.835938 C 170.230469 53.933594 170.339844 59.246094 170.832031 60.339844 C 181.238281 41.664062 183.703125 36.625 178.992188 16.46875 C 187.371094 24.027344 184.414062 32.351562 182.441406 40.734375 C 190.929688 22.933594 188.742188 19.703125 188.632812 1.792969 C 196.023438 15.484375 191.863281 26.65625 187.425781 39.363281 C 191.261719 31.039062 196.464844 21.34375 198.984375 14.117188 C 200.789062 8.96875 201.226562 5.023438 202.324219 0.644531 C 203.308594 2.230469 203.636719 4.367188 203.472656 6.996094 C 202.871094 17.074219 198.324219 27.207031 193.121094 36.515625 C 197.558594 30.984375 201.722656 25.34375 204.898438 19.265625 C 207.800781 13.730469 210.539062 0.257812 212.179688 1.957031 C 211.523438 20.632812 209.992188 18.003906 201.832031 34.269531 C 208.839844 25.78125 221.546875 8.527344 222.695312 8.96875 C 226.09375 11.980469 207.964844 33.777344 205.9375 36.515625 C 206.867188 36.351562 207.636719 36.40625 209.167969 35.585938 C 212.949219 33.503906 225.160156 19.8125 227.570312 21.070312 C 229.269531 23.042969 218.644531 32.132812 213.988281 38.214844 C 217.550781 37.171875 224.339844 32.1875 224.832031 32.574219 C 226.421875 36.132812 220.234375 41.773438 218.042969 44.183594 C 219.902344 43.800781 222.476562 42.539062 223.628906 42.8125 C 226.3125 43.527344 220.066406 50.535156 219.410156 51.578125 C 220.945312 51.523438 222.75 51.523438 222.09375 53.714844 C 221.65625 55.027344 218.863281 57.164062 216.945312 58.914062 C 217.550781 59.683594 218.863281 60.394531 219.191406 61.214844 C 220.671875 64.886719 214.753906 67.953125 212.015625 68.445312 C 216.5625 71.785156 212.949219 72.882812 209.609375 75.730469 C 210.703125 76.933594 213.003906 77.976562 213.003906 79.070312 C 212.949219 80.332031 210.210938 81.589844 208.621094 83.015625 C 209.113281 84.328125 210.757812 85.753906 210.539062 86.792969 C 210.265625 87.832031 207.800781 88.492188 206.320312 89.367188 Z M 206.320312 89.367188 " fill-opacity="1" fill-rule="evenodd"/></g></svg>