<svg xmlns="http://www.w3.org/2000/svg" xmlns:xlink="http://www.w3.org/1999/xlink" width="276" zoomAndPan="magnify" viewBox="0 0 206.87999 193.499995" height="258" preserveAspectRatio="xMidYMid meet" version="1.0"><path fill="#f1833a" d="M 155.664062 72.863281 C 150.554688 64.691406 130.902344 39.277344 123.71875 31.308594 C 123.714844 26.847656 121.953125 25.503906 123.738281 20.355469 C 125.214844 16.082031 128.042969 16.441406 130.015625 13.78125 C 125.765625 0.523438 101.242188 10.683594 93.671875 17.847656 C 86.726562 23.34375 73.632812 11.261719 47.367188 22.503906 C 24.625 32.238281 7.511719 51.132812 3.734375 75.902344 C 0.757812 95.433594 9.3125 101.085938 9.8125 106.375 C 10.074219 109.140625 8.871094 111.835938 8.230469 114.457031 C 0.875 144.609375 35.242188 101.21875 36.167969 100.507812 C 41.125 96.703125 46.339844 87.191406 51.617188 86.023438 C 51.886719 86.027344 99.621094 114.570312 97.28125 91.089844 C 95.347656 88.855469 91.191406 88.164062 88.382812 87.035156 C 85.078125 85.703125 82.890625 83.886719 79.972656 81.8125 C 91.164062 73.707031 136.695312 95.039062 148.140625 106.890625 C 161.535156 121.480469 164.394531 133.074219 169.125 151.902344 C 165.488281 155.421875 148.460938 163.207031 145.316406 175.28125 C 144.859375 176.664062 143.835938 180.992188 143.625 182.078125 C 143.527344 182.574219 165.953125 176.65625 174.300781 177.261719 C 184.441406 178.304688 191.152344 181.691406 199.441406 189.414062 C 202.707031 192.457031 206.441406 192.644531 205.230469 188.722656 C 198.082031 165.136719 191.554688 165.894531 176.746094 151.082031 C 177.585938 128.5 168.019531 92.632812 155.664062 72.863281 Z M 155.664062 72.863281 " fill-opacity="1" fill-rule="evenodd"/></svg>