<svg xmlns="http://www.w3.org/2000/svg" width="1200pt" fill="#458FA3" height="1200pt" viewBox="0 0 1200 1200"><g><path d="m682.05 168.77c0 52.691-42.715 95.41-95.41 95.41-52.695 0-95.414-42.719-95.414-95.41 0-52.695 42.719-95.414 95.414-95.414 52.695 0 95.41 42.719 95.41 95.414"></path><path d="m225 173.34c0.42188 0.92578 0.82812 1.8359 1.3086 2.7227 0.40625 0.91016 0.82812 1.8242 1.2969 2.6992 0.40625 0.92578 0.83984 1.8477 1.3203 2.7344 0.40625 0.91016 0.82812 1.8242 1.2969 2.6992 0.40625 0.92578 0.82812 1.8359 1.2969 2.7109 0.40625 0.92578 0.82812 1.8359 1.2969 2.7227 0.39453 0.92578 0.81641 1.8125 1.2734 2.6992 0.39453 0.92578 0.82812 1.8242 1.2852 2.7227 0.39453 0.94922 0.83984 1.8594 1.2969 2.7617 0.38281 0.92578 0.81641 1.8125 1.2734 2.6992 0.38281 0.92578 0.81641 1.8125 1.2617 2.7109 0.38281 0.9375 0.83984 1.8477 1.2852 2.7617 0.53906 1.332 1.1523 2.6172 1.8125 3.875 0.39453 0.89844 0.79297 1.8008 1.2461 2.6758 0.40625 0.9375 0.82812 1.8711 1.3086 2.7852 0.39453 0.91016 0.80469 1.8242 1.2617 2.6992 0.39453 0.9375 0.81641 1.8594 1.2852 2.7617 0.38281 0.89844 0.79297 1.8008 1.2344 2.6641 0.39453 0.94922 0.82812 1.8828 1.2852 2.8086 0.38281 0.91016 0.79297 1.8125 1.2461 2.6992 0.38281 0.92578 0.80469 1.8359 1.2461 2.7344 0.38281 0.9375 0.81641 1.8477 1.2617 2.7617 0.38281 0.92578 0.80469 1.8359 1.2461 2.7344 0.38281 0.9375 0.81641 1.8477 1.2461 2.7617 0.37109 0.9375 0.80469 1.8359 1.2461 2.7344 0.48047 1.2344 1.043 2.4375 1.6328 3.625 0.42188 1.0078 0.85156 2.0039 1.3555 2.9766 0.38281 0.92578 0.78125 1.8477 1.2344 2.7344 0.39453 0.9375 0.79297 1.8594 1.2461 2.7617 0.38281 0.92578 0.79297 1.8359 1.2344 2.7344 0.38281 0.9375 0.79297 1.8477 1.2344 2.7617 0.38281 0.9375 0.79297 1.8594 1.2344 2.7617 0.38281 0.92578 0.78125 1.8359 1.2227 2.7344 0.38281 0.9375 0.79297 1.8594 1.2344 2.7617 0.37109 0.9375 0.79297 1.8477 1.2227 2.7617 0.37109 0.9375 0.79297 1.8477 1.2227 2.7617 0.35937 0.9375 0.78125 1.8477 1.2109 2.7461 0.37109 0.9375 0.79297 1.8477 1.2109 2.7617 0.37109 0.98438 0.81641 1.9336 1.2617 2.8789 0.49219 1.2852 1.043 2.5312 1.6445 3.7578 0.38281 0.9375 0.76953 1.8711 1.2227 2.7734 0.37109 0.92578 0.75781 1.8477 1.1992 2.7461 0.37109 0.9375 0.76953 1.8711 1.2109 2.7734 0.37109 0.9375 0.76953 1.8711 1.2109 2.7734 0.37109 0.92578 0.75781 1.8477 1.1875 2.7461 0.37109 0.9375 0.76953 1.8477 1.1992 2.7617 0.37109 0.94922 0.76953 1.8711 1.1992 2.7969 0.35938 0.9375 0.75781 1.8477 1.1875 2.7461 0.35938 0.92578 0.75781 1.8359 1.1758 2.7461 0.35938 0.94922 0.76953 1.8594 1.1875 2.7852 0.35938 0.96094 0.78125 1.8945 1.1992 2.8203 0.34766 0.92578 0.74219 1.8125 1.1523 2.7109 0.40625 1.0938 0.875 2.1602 1.3555 3.2148 0.44531 1.1523 0.91016 2.3047 1.4414 3.4219 4.9688 12.613 15.602 22.355 28.777 26.113 1.0547 0.39453 2.1484 0.71875 3.2266 1.0312 1.2969 0.48047 2.6055 0.91016 3.9492 1.2734 1.0195 0.35938 2.0273 0.70703 3.0703 0.99609 1.0312 0.37109 2.0742 0.71875 3.1328 1.0195 1.0078 0.37109 2.0273 0.71875 3.0586 1.0078 1.0195 0.37109 2.0391 0.71875 3.0977 1.0195 1.0078 0.37109 2.0273 0.71875 3.0586 1.0195 1.0195 0.38281 2.0508 0.73047 3.0977 1.043 1.0078 0.38281 2.0273 0.71875 3.0703 1.0312 1.0195 0.39453 2.0508 0.73047 3.1094 1.0547 1.1172 0.44531 2.2695 0.81641 3.4219 1.1641 1.2969 0.50391 2.6172 0.96094 3.9609 1.3555 1.0195 0.38281 2.0391 0.75781 3.0977 1.0547 1.0195 0.38281 2.0391 0.75781 3.0977 1.0664 1.0078 0.38281 2.0273 0.74219 3.0586 1.0547 0.99609 0.38281 2.0039 0.74219 3.0352 1.0547 1.0195 0.40625 2.0625 0.75781 3.1094 1.0938 1.0078 0.39453 2.0156 0.74219 3.0352 1.0664 0.99609 0.40625 2.0273 0.75781 3.0469 1.0781 0.99609 0.40625 2.0273 0.75781 3.0586 1.0938 0.99609 0.40625 2.0273 0.75781 3.0469 1.0938 1.0547 0.44531 2.1602 0.80469 3.2539 1.1758 1.4297 0.58984 2.8906 1.1172 4.3672 1.5703 1.0195 0.38281 2.0273 0.78125 3.0703 1.1055 0.99609 0.38281 1.9922 0.76953 3.0117 1.0938 1.0195 0.39453 2.0391 0.78125 3.0859 1.1172 1.0078 0.39453 2.0156 0.78125 3.0469 1.1172 1.0078 0.40625 2.0273 0.78125 3.0586 1.1172 0.99609 0.39453 1.9922 0.76953 3.0117 1.1055 0.99609 0.40625 2.0273 0.78125 3.0586 1.1289 0.99609 0.40625 2.0039 0.76953 3.0234 1.1289 0.98437 0.40625 2.0039 0.76953 3.0234 1.1172 0.99609 0.42188 2.0156 0.78125 3.0352 1.1406 0.98438 0.42188 2.0039 0.76953 3.0117 1.1289 1.3438 0.57422 2.7227 1.0664 4.1055 1.5352 1.2617 0.51563 2.5312 1.0195 3.8398 1.4414 1.0078 0.39453 2.0039 0.80469 3.0352 1.1406 0.99609 0.39453 2.0039 0.80469 3.0234 1.1406 1.0078 0.40625 2.0156 0.81641 3.0586 1.1641 0.99609 0.40625 1.9805 0.80469 3 1.1406 1.0078 0.40625 2.0156 0.80469 3.0469 1.1641 0.99609 0.42188 2.0039 0.80469 3.0352 1.1641 0.98438 0.40625 1.9922 0.79297 3.0117 1.1523 0.3125 0.13281 0.61328 0.28906 0.92578 0.42188 0 0.14453-0.023437 0.27734-0.023437 0.42188 0 0.79297 0.097656 1.5586 0.12109 2.3398-0.023438 0.78125-0.12109 1.5586-0.12109 2.3398 0 0.79297 0.097656 1.5586 0.12109 2.3398-0.023438 0.79297-0.12109 1.5586-0.12109 2.3398 0 0.79297 0.097656 1.5586 0.12109 2.3398-0.023438 0.78125-0.12109 1.5469-0.12109 2.3398 0 0.79297 0.097656 1.5586 0.12109 2.3398-0.023438 0.78125-0.12109 1.5586-0.12109 2.3398 0 0.79297 0.097656 1.5586 0.12109 2.3398-0.023438 0.79297-0.12109 1.5586-0.12109 2.3398 0 0.79297 0.097656 1.5586 0.12109 2.3398-0.023438 0.78125-0.12109 1.5469-0.12109 2.3398s0.097656 1.5586 0.12109 2.3398c-0.023438 0.79297-0.12109 1.5469-0.12109 2.3398 0 0.79297 0.097656 1.5586 0.12109 2.3398-0.023438 0.78125-0.12109 1.5469-0.12109 2.3398s0.097656 1.5586 0.12109 2.3398c-0.023438 0.79297-0.12109 1.5586-0.12109 2.3398 0 0.79297 0.097656 1.5586 0.12109 2.3398-0.023438 0.78125-0.12109 1.5469-0.12109 2.3398s0.097656 1.5586 0.12109 2.3398c-0.023438 0.78125-0.12109 1.5469-0.12109 2.3398 0 0.79297 0.097656 1.5586 0.12109 2.3398-0.023438 0.79297-0.12109 1.5586-0.12109 2.3398 0 0.79297 0.097656 1.5586 0.12109 2.3398-0.023438 0.78125-0.12109 1.5469-0.12109 2.3398 0 0.79297 0.097656 1.5586 0.12109 2.3398-0.023438 0.79297-0.12109 1.5469-0.12109 2.3398s0.097656 1.5586 0.12109 2.3398c-0.023438 0.78125-0.12109 1.5469-0.12109 2.3398 0 0.79297 0.097656 1.5586 0.12109 2.3398-0.023438 0.78125-0.12109 1.5586-0.12109 2.3398 0 0.79297 0.097656 1.5586 0.12109 2.3398-0.023438 0.79297-0.12109 1.5469-0.12109 2.3398 0 0.79297 0.097656 1.5586 0.12109 2.3398-0.023438 0.78125-0.12109 1.5469-0.12109 2.3398s0.097656 1.5586 0.12109 2.3398c-0.023438 0.79297-0.12109 1.5469-0.12109 2.3398 0 0.79297 0.097656 1.5586 0.12109 2.3398-0.023438 0.78125-0.12109 1.5469-0.12109 2.3398s0.097656 1.5586 0.12109 2.3398c-0.023438 0.78125-0.12109 1.5469-0.12109 2.3398 0 0.79297 0.097656 1.5586 0.12109 2.3398-0.023438 0.79297-0.12109 1.5469-0.12109 2.3398s0.097656 1.5586 0.12109 2.3398c-0.023438 0.78125-0.12109 1.5469-0.12109 2.3398 0 0.79297 0.097656 1.5586 0.12109 2.3398-0.023438 0.79297-0.12109 1.5469-0.12109 2.3398s0.097656 1.5586 0.12109 2.3516c-0.023438 0.78125-0.12109 1.5469-0.12109 2.3398s0.097656 1.5586 0.12109 2.3398c-0.023438 0.78125-0.12109 1.5586-0.12109 2.3398 0 0.79297 0.097656 1.5586 0.12109 2.3398 0 0.10938-0.011719 0.21484-0.011719 0.32422 33.961 5.2578 71.258 12.527 114.29 22.211l0.82812 0.19141c44.797 11.242 89.148 19.703 132.74 25.344-0.023438-0.49219-0.046875-0.98438-0.070313-1.4766 0.058594-1.1289 0.16797-2.2578 0.16797-3.4062 0-1.1523-0.10938-2.2695-0.16797-3.3945 0.058594-1.1289 0.16797-2.2578 0.16797-3.3945 0-1.1523-0.10938-2.2695-0.16797-3.4062 0.058594-1.1289 0.16797-2.2578 0.16797-3.3945 0-1.1523-0.10938-2.2695-0.16797-3.4062 0.058594-1.1289 0.16797-2.2578 0.16797-3.3945 0-1.1523-0.10938-2.2695-0.16797-3.3945 0.058594-1.1289 0.16797-2.2578 0.16797-3.4062 0-1.1523-0.10938-2.2695-0.16797-3.4062 0.058594-1.1289 0.16797-2.2578 0.16797-3.3945 0-1.1523-0.10938-2.2695-0.16797-3.3945 0.058594-1.1289 0.16797-2.2578 0.16797-3.4062 0-1.1523-0.10938-2.2695-0.16797-3.3945 0.058594-1.1289 0.16797-2.2578 0.16797-3.3945 0-1.1523-0.10938-2.2695-0.16797-3.3945 0.058594-1.1289 0.16797-2.2578 0.16797-3.3945 0-1.1523-0.10938-2.2695-0.16797-3.4062 0.058594-1.1289 0.16797-2.2578 0.16797-3.3945 0-1.1523-0.10938-2.2695-0.16797-3.3945 0.058594-1.1289 0.16797-2.2578 0.16797-3.4062 0-1.1523-0.10938-2.2695-0.16797-3.4062 0.058594-1.1289 0.16797-2.2578 0.16797-3.3945 0-1.1523-0.10938-2.2695-0.16797-3.3945 0.046875-0.78125 0.10938-1.5586 0.12109-2.3516 0.40625 0.27734 0.82812 0.53906 1.2461 0.80469 0.91016 0.66016 1.8594 1.2734 2.8086 1.8594 0.91016 0.66016 1.8477 1.2852 2.8086 1.8828 0.91016 0.66016 1.8359 1.2969 2.7852 1.8828 0.91016 0.66016 1.8359 1.3203 2.7969 1.9062 0.75781 0.53906 1.5 1.0781 2.293 1.5703 0.89844 0.67188 1.8359 1.2734 2.7734 1.8711 0.89844 0.67188 1.8359 1.2969 2.7852 1.9062 0.89844 0.67188 1.8242 1.3086 2.7734 1.9062 0.88672 0.66016 1.7891 1.3086 2.7227 1.9062 0.88672 0.67188 1.7891 1.332 2.7344 1.9336 0.78125 0.58984 1.5703 1.1641 2.3984 1.7031 0.875 0.67188 1.7891 1.2852 2.7109 1.8828 0.89844 0.69531 1.8242 1.332 2.7734 1.957 0.86328 0.67187 1.7539 1.2969 2.6641 1.9062 0.875 0.68359 1.7773 1.3438 2.6992 1.957 0.875 0.68359 1.7656 1.3555 2.6875 1.9688 0.79297 0.61328 1.5977 1.1992 2.4258 1.7656 0.011718 0 0.011718 0.011718 0.011718 0.011718 0.023438 0.12109 0.046876 0.23828 0.070313 0.35938 0.10938 1.1523 0.25391 2.293 0.45703 3.4336 0.10938 1.1641 0.25391 2.3164 0.45703 3.457 0.10937 1.1289 0.23828 2.2422 0.43359 3.3477 0.12109 1.1641 0.25391 2.3164 0.45703 3.457 0.097657 0.97266 0.21484 1.9336 0.37109 2.8906 0.097656 1.1523 0.27734 2.2812 0.45703 3.4062 0.097656 1.1641 0.26562 2.3047 0.45703 3.457 0.097656 1.1406 0.26562 2.2695 0.45703 3.3945 0.097656 1.1523 0.25391 2.293 0.44531 3.4219 0.097657 1.1523 0.25391 2.293 0.44531 3.4219 0.097656 1.1523 0.23828 2.293 0.43359 3.4336 0.097656 1.1523 0.23828 2.293 0.43359 3.4219 0.097657 1.1523 0.23828 2.2812 0.43359 3.4062 0.097656 1.1523 0.23828 2.293 0.42188 3.4219 0.097657 1.1523 0.22656 2.293 0.42188 3.4219 0.097656 1.1406 0.22656 2.2812 0.42188 3.4062 0.097657 1.1523 0.22656 2.3047 0.42188 3.4336 0.011719 0.14453 0.035156 0.27734 0.046875 0.42188 24.59 1.8711 48.91 2.8438 72.863 2.8438 4.7148 0 9.4219-0.035156 14.113-0.12109-0.085938-1.0781-0.21484-2.1367-0.37109-3.2031-0.085938-1.1172-0.22656-2.2188-0.38281-3.3242-0.085938-1.1172-0.22656-2.207-0.38281-3.3008-0.070313-1.1172-0.22656-2.207-0.38281-3.3008-0.097656-1.4648-0.26562-2.9023-0.50391-4.332-0.097656-1.1172-0.20312-2.2188-0.38281-3.3125-0.097656-1.1172-0.21484-2.2188-0.38281-3.3242-0.097656-1.1172-0.21484-2.2188-0.38281-3.3125-0.085938-1.1055-0.20312-2.207-0.37109-3.3008-0.085937-1.1172-0.20312-2.2305-0.38281-3.3242-0.085937-1.1172-0.20312-2.2305-0.37109-3.3359-0.085938-1.1055-0.20312-2.1953-0.37109-3.2891-0.085937-1.1172-0.20312-2.2305-0.37109-3.3359-0.085937-1.1172-0.20312-2.2188-0.37109-3.3125-0.070313-1.1055-0.20313-2.207-0.35938-3.3008-0.070312-1.1172-0.20312-2.2305-0.35937-3.3359-0.070313-1.1172-0.20313-2.2305-0.35938-3.3359-0.058593-1.1055-0.19141-2.1836-0.34766-3.2656-0.058594-1.1406-0.20312-2.2578-0.35938-3.3711-0.085937-1.4414-0.23828-2.8672-0.45703-4.2852-0.085938-1.1289-0.19141-2.2422-0.37109-3.3594-0.085937-1.1055-0.17969-2.207-0.34766-3.3008-0.085938-1.1172-0.17969-2.2188-0.34766-3.3242-0.085938-1.1289-0.19141-2.2422-0.34766-3.3477-0.085938-1.1055-0.17969-2.1953-0.33594-3.2773-0.085938-1.1641-0.19141-2.3164-0.35938-3.457-0.85156-12.898-7.2734-24.254-16.883-31.715-0.79297-0.70703-1.5977-1.3906-2.4258-2.0391-0.76953-0.69531-1.5586-1.3555-2.3633-2.0039-0.76953-0.70703-1.5586-1.3789-2.375-2.0273-0.75781-0.70703-1.5469-1.3555-2.3281-2.0039-1.0664-1.0195-2.1953-1.9922-3.3594-2.8906-0.78125-0.70703-1.5586-1.4023-2.375-2.0508-0.76953-0.69531-1.5352-1.3906-2.3398-2.0273-0.75781-0.69531-1.5234-1.3789-2.3164-2.0273-0.76953-0.71875-1.5469-1.4141-2.3633-2.0742-0.74219-0.70703-1.5-1.3789-2.293-2.0273-0.75781-0.73047-1.5469-1.4141-2.3516-2.1016-0.73047-0.71875-1.5117-1.3906-2.293-2.0508-0.9375-0.9375-1.9336-1.8008-2.9414-2.6523-0.88672-0.86328-1.8008-1.7031-2.7461-2.4844-0.74219-0.70703-1.4883-1.4023-2.2812-2.0625-0.75781-0.73047-1.5234-1.4414-2.3164-2.1133-0.74219-0.71875-1.5-1.4297-2.293-2.1016-0.73047-0.71875-1.4883-1.4141-2.2695-2.1016-0.73047-0.73047-1.5-1.4414-2.2812-2.125-0.73047-0.73047-1.4883-1.4297-2.2578-2.1133-0.71875-0.73047-1.4883-1.4141-2.2422-2.1133-1.0078-1.043-2.0742-2.0391-3.1797-2.9883-0.82812-0.81641-1.6562-1.6328-2.5312-2.3867-0.73047-0.73047-1.4766-1.4531-2.2578-2.1367-0.73047-0.73047-1.4766-1.4648-2.2695-2.1484-0.73047-0.74219-1.4766-1.4648-2.2578-2.1484-0.71875-0.73047-1.4648-1.4531-2.2188-2.1367-0.71875-0.74219-1.4766-1.4648-2.2422-2.1602-0.70703-0.74219-1.4531-1.4414-2.207-2.1367-0.70703-0.75781-1.4766-1.4766-2.2422-2.1836-0.69531-0.74219-1.4414-1.4297-2.1836-2.125-1.1406-1.2227-2.3281-2.3867-3.5742-3.5039-0.73047-0.74219-1.4648-1.4883-2.2305-2.1836-0.73047-0.74219-1.4531-1.4883-2.2188-2.1836-0.70703-0.73047-1.4297-1.4648-2.1836-2.1602-0.71875-0.75781-1.4531-1.5-2.2188-2.207-0.71875-0.75781-1.4414-1.4883-2.1953-2.1953-0.70703-0.75781-1.4414-1.4766-2.1836-2.1836-0.70703-0.75781-1.4414-1.4883-2.1953-2.207-0.69531-0.75781-1.4414-1.4766-2.1836-2.1953-0.69531-0.75781-1.4414-1.4766-2.1719-2.1953-0.68359-0.75781-1.4297-1.4648-2.1484-2.1719-1.1406-1.2734-2.3398-2.4961-3.5898-3.6484-0.78125-0.81641-1.5352-1.6445-2.3633-2.4102-0.71875-0.74219-1.4297-1.5117-2.1836-2.2188-0.70703-0.74219-1.4141-1.5-2.1602-2.2188-0.71875-0.75781-1.4297-1.5234-2.1836-2.2422-0.70703-0.75781-1.4141-1.5-2.1602-2.2305-0.69531-0.75781-1.4023-1.4883-2.1484-2.207-0.69531-0.76953-1.4297-1.5117-2.1719-2.2422-0.68359-0.76953-1.4141-1.5-2.1484-2.2305-0.68359-0.76953-1.4141-1.5-2.1484-2.2305-0.68359-0.76953-1.4141-1.5-2.1367-2.2305-0.68359-0.78125-1.4297-1.5-2.1484-2.2422-1.0312-1.1758-2.1367-2.293-3.2539-3.3828-9.5039-10.355-22.488-17.41-37.129-19.285-0.83984-0.14453-1.6797-0.27734-2.5195-0.37109-0.69531-0.10938-1.4023-0.20312-2.1016-0.30078-0.69531-0.12109-1.3906-0.20312-2.1016-0.30078-0.69531-0.12109-1.4023-0.20312-2.1016-0.30078-0.69531-0.12109-1.4023-0.20312-2.1016-0.30078-0.69531-0.12109-1.4023-0.20312-2.1133-0.30078-0.69531-0.12109-1.4023-0.20312-2.1016-0.30078-0.68359-0.12109-1.3789-0.20313-2.0742-0.30078-0.70703-0.13281-1.4414-0.20312-2.1602-0.3125-0.67188-0.12109-1.3672-0.19141-2.0508-0.28906-0.69531-0.13281-1.4023-0.20312-2.1133-0.30078-0.69531-0.13281-1.4023-0.20312-2.1133-0.30078-0.69531-0.13281-1.4023-0.19141-2.1133-0.30078-0.75781-0.14453-1.5352-0.21484-2.293-0.33594-1.5859-0.30078-3.1914-0.52734-4.8125-0.70703-0.97266-0.14453-1.9453-0.33594-2.9297-0.43359-0.69531-0.097657-1.3789-0.23828-2.0898-0.3125-0.69531-0.097657-1.3906-0.23828-2.1016-0.3125-0.69531-0.097657-1.3906-0.23828-2.0898-0.3125-0.69531-0.097657-1.3906-0.23828-2.1016-0.3125-0.69531-0.10938-1.3906-0.23828-2.1016-0.3125-0.69531-0.10938-1.3906-0.23828-2.0898-0.3125-0.70703-0.10938-1.4023-0.22656-2.1133-0.3125-0.69531-0.10938-1.3906-0.22656-2.0898-0.3125-0.69531-0.10938-1.3906-0.22656-2.0898-0.3125-0.69531-0.10938-1.3906-0.22656-2.1016-0.3125-0.69531-0.12109-1.3906-0.22656-2.1016-0.32422-0.70703-0.12109-1.4297-0.22656-2.1484-0.32422-0.68359-0.12109-1.3672-0.21484-2.0508-0.3125-0.70703-0.12109-1.4141-0.22656-2.125-0.32422-0.69531-0.12109-1.3906-0.22656-2.0898-0.3125-0.70703-0.12109-1.4141-0.22656-2.125-0.32422-0.68359-0.12109-1.3672-0.21484-2.0508-0.3125-0.69531-0.12109-1.4141-0.22656-2.125-0.32422-0.69531-0.13281-1.3906-0.21484-2.1016-0.32422-0.69531-0.13281-1.3906-0.21484-2.1016-0.32422-0.69531-0.13281-1.3906-0.21484-2.0898-0.32422-0.69531-0.13281-1.4023-0.21484-2.1133-0.32422-0.69531-0.13281-1.4023-0.21484-2.1016-0.32422-0.69531-0.13281-1.4023-0.21484-2.1016-0.32422-0.69531-0.14453-1.4023-0.21484-2.1133-0.32422-0.68359-0.14453-1.3906-0.20312-2.0742-0.32422-0.69531-0.14453-1.4023-0.21484-2.1133-0.32422-1.0195-0.21484-2.0625-0.32422-3.0977-0.48047-1.3438-0.25391-2.6992-0.48047-4.0664-0.64844-0.97266-0.15625-1.9453-0.35938-2.9297-0.46875-0.69531-0.10938-1.3672-0.25391-2.0742-0.33594-0.69531-0.10938-1.3672-0.25391-2.0742-0.33594-0.70703-0.10938-1.3906-0.25391-2.1133-0.33594-0.70703-0.10938-1.4023-0.25391-2.1133-0.33594-0.69531-0.10938-1.3789-0.25391-2.0742-0.33594-0.69531-0.10938-1.3789-0.25391-2.0898-0.33594-0.69531-0.12109-1.3906-0.25391-2.0898-0.33594-0.70703-0.12109-1.4141-0.25391-2.1367-0.34766-0.79297-0.13281-1.5703-0.26562-2.3633-0.35938-1.1406-0.19141-2.2812-0.39453-3.4453-0.52734-0.92578-0.15625-1.8711-0.25391-2.8086-0.37109-1.1641-0.20313-2.3516-0.38281-3.5508-0.51563-1.1523-0.20312-2.3164-0.37109-3.4922-0.51562-1.1641-0.20313-2.3281-0.38281-3.5156-0.51563-1.1758-0.20312-2.3633-0.39453-3.5625-0.52734-1.1406-0.19141-2.293-0.39453-3.4453-0.51562-1.1641-0.19141-2.3164-0.40625-3.4922-0.52734-0.46875-0.085938-0.94922-0.15625-1.4141-0.21484-0.10938-0.023437-0.21484-0.023437-0.3125-0.046875-0.60156-0.085937-1.1758-0.20312-1.7773-0.26562-0.48047-0.070312-0.96094-0.14453-1.4414-0.21484-1.1523-0.22656-2.3398-0.37109-3.5273-0.52734-1.1641-0.22656-2.3398-0.37109-3.5156-0.52734-1.1641-0.22656-2.3398-0.38281-3.5156-0.53906-1.1523-0.22656-2.3281-0.38281-3.5039-0.53906-1.1641-0.22656-2.3398-0.39453-3.5273-0.53906-1.1406-0.21484-2.2812-0.39453-3.4453-0.53906-1.1641-0.21484-2.3281-0.40625-3.5156-0.55078-1.1523-0.21484-2.3047-0.40625-3.4805-0.55078-1.1523-0.21484-2.3164-0.42187-3.4922-0.5625-1.1641-0.21484-2.3281-0.875-3.5156-1.0195-0.72266 0.003907-1.3438-0.64453-1.9805-0.64453h-0.058594c-0.49219 0-0.97266 0.26562-1.4648 0.21484-0.66016-0.12109-1.332 0-1.9922-0.097656-1.1523-0.23828-2.3281-0.28906-3.5039-0.45703-1.1406-0.23828-2.3047-0.34766-3.4805-0.50391-1.1523-0.23828-2.3164-0.38281-3.4805-0.53906-1.1406-0.23828-2.293-0.40625-3.4688-0.5625-1.1523-0.22656-2.3047-0.42188-3.4805-0.57422-1.1406-0.22656-2.3047-0.43359-3.4688-0.58984-1.1406-0.22656-2.2812-0.43359-3.4336-0.58984-1.1406-0.22656-2.2812-0.44531-3.4453-0.60156-1.1523-0.22656-2.293-0.45703-3.4688-0.60156-0.78125-0.15625-1.5586-0.28906-2.3398-0.40625-1.1406-0.25391-2.3047-0.42188-3.457-0.58984-1.1406-0.25391-2.293-0.43359-3.4453-0.60156-1.1406-0.25391-2.3047-0.44531-3.4805-0.61328-1.1172-0.23828-2.2578-0.44531-3.3945-0.60156-1.1523-0.25391-2.293-0.45703-3.4688-0.625-1.1289-0.23828-2.2578-0.45703-3.4062-0.625-1.1406-0.23828-2.2812-0.46875-3.4336-0.63672-1.1172-0.23828-2.2422-0.48047-3.3828-0.63672-0.875-0.19141-1.7773-0.34766-2.6758-0.49219-1.1289-0.26562-2.2812-0.45703-3.4336-0.625-1.1172-0.25391-2.2578-0.44531-3.3828-0.625-1.1289-0.26562-2.2695-0.46875-3.4062-0.64844-1.1055-0.25391-2.2305-0.46875-3.3711-0.64844-1.1289-0.26562-2.2695-0.49219-3.4062-0.66016-1.1172-0.25391-2.2305-0.49219-3.3594-0.66016-1.1172-0.25391-2.2422-0.50391-3.3711-0.68359-0.96094-0.21484-1.9219-0.40625-2.8906-0.5625-1.1172-0.27734-2.2422-0.46875-3.3711-0.64844-0.16797-0.035156-0.33594-0.097656-0.50391-0.14453-0.17969-0.39453-0.37109-0.80469-0.5625-1.1992-0.40625-0.97266-0.88672-1.9062-1.3672-2.8555-0.40625-0.97266-0.875-1.9062-1.3555-2.8555-0.40625-0.97266-0.875-1.9219-1.3555-2.8672-0.42188-0.97266-0.875-1.9336-1.3555-2.8789-0.40625-0.96094-0.85156-1.9062-1.332-2.8438-0.42188-0.97266-0.86328-1.9336-1.3438-2.8672-0.42188-0.98438-0.86328-1.9453-1.3438-2.8906-0.42188-0.96094-0.83984-1.9219-1.3203-2.8555-0.42188-0.97266-0.83984-1.9453-1.332-2.8789-0.42188-0.97266-0.83984-1.9453-1.332-2.8789-0.32422-0.75781-0.68359-1.5117-1.0547-2.2578-0.39453-0.97266-0.86328-1.9062-1.3203-2.8438-0.40625-0.98438-0.86328-1.9453-1.332-2.8906-0.40625-0.97266-0.85156-1.9219-1.3203-2.8555-0.40625-0.98438-0.85156-1.9453-1.332-2.8906-0.40625-0.98438-0.85156-1.9453-1.3203-2.8906-0.40625-0.96094-0.82813-1.9062-1.2969-2.8438-0.40625-0.99609-0.83984-1.9688-1.3203-2.9141-0.39453-0.97266-0.81641-1.9219-1.2969-2.8555-0.40625-0.98438-0.82812-1.957-1.3086-2.9141-0.3125-0.75781-0.64844-1.5117-1.0078-2.2422-0.046875-0.12109-0.10938-0.23828-0.16797-0.35938-0.046875-0.085937-0.070312-0.17969-0.12109-0.26562-0.3125-0.75781-0.66016-1.5117-1.0195-2.2422-0.39453-0.98437-0.85156-1.9453-1.3086-2.8906-0.39453-0.98438-0.83984-1.9453-1.3086-2.8906-0.39453-0.99609-0.83984-1.957-1.3086-2.9141-0.39453-0.97266-0.81641-1.9062-1.2734-2.8438-0.39453-0.99609-0.82812-1.9688-1.3086-2.9141-0.39453-0.97266-0.81641-1.9336-1.2734-2.8789-0.39453-0.98438-0.81641-1.957-1.2852-2.9023-0.39453-0.98438-0.81641-1.957-1.2852-2.9023-0.40625-0.98438-0.81641-1.9688-1.2852-2.9297-0.30078-0.74219-0.61328-1.4766-0.96094-2.1953-0.38281-0.99609-0.83984-1.9688-1.2969-2.9297-0.38281-0.98438-0.82812-1.9453-1.2852-2.9023-0.38281-0.99609-0.81641-1.957-1.2852-2.9023-0.38281-0.98438-0.80469-1.9336-1.2617-2.8789-0.39453-0.99609-0.81641-1.9688-1.2852-2.9297-0.38281-0.99609-0.81641-1.9688-1.2734-2.9297-0.38281-0.98438-0.79297-1.9453-1.2461-2.8789-0.39453-0.99609-0.80469-1.9805-1.2734-2.9414-0.38281-0.98438-0.79297-1.957-1.2461-2.9023-0.39453-0.98438-0.79297-1.9688-1.2461-2.9141-0.28906-0.73047-0.60156-1.4648-0.92578-2.1836-0.37109-0.99609-0.81641-1.9688-1.2734-2.9414-0.37109-0.99609-0.80469-1.9453-1.2461-2.9023-0.37109-0.99609-0.80469-1.9688-1.2617-2.9414-0.37109-0.98438-0.79297-1.9453-1.2344-2.9023-0.38281-0.99609-0.80469-1.9805-1.2461-2.9414-6.3008-16.523-22.246-28.273-40.98-28.273-24.238 0-43.883 19.645-43.883 43.883 0 7.5977 1.9336 14.746 5.3281 20.977 0.44141 0.93359 0.84766 1.8477 1.3164 2.7109z"></path><path d="m582.78 785.06c-9.0859-1.6797-17.953-3.4922-26.566-5.4375l-0.82812 0.23828c-31.789-7.9805-63.336-14.496-94.559-19.621-0.035156 0.75781-0.12109 1.5-0.12109 2.2695 0 0.79297 0.097657 1.5586 0.12109 2.3398-0.023437 0.78125-0.12109 1.5469-0.12109 2.3398 0 0.79297 0.097657 1.5586 0.12109 2.3398-0.023437 0.78125-0.12109 1.5469-0.12109 2.3398 0 0.79297 0.097657 1.5586 0.12109 2.3398-0.023437 0.79297-0.12109 1.5469-0.12109 2.3398s0.097657 1.5586 0.12109 2.3398c-0.023437 0.79297-0.12109 1.5469-0.12109 2.3398s0.097657 1.5586 0.12109 2.3398c-0.023437 0.78125-0.12109 1.5469-0.12109 2.3398 0 0.79297 0.097657 1.5586 0.12109 2.3398-0.023437 0.79297-0.12109 1.5469-0.12109 2.3398 0 0.79297 0.097657 1.5586 0.12109 2.3398-0.023437 0.78125-0.12109 1.5469-0.12109 2.3398s0.097657 1.5586 0.12109 2.3398c-0.023437 0.79297-0.12109 1.5469-0.12109 2.3398s0.097657 1.5586 0.12109 2.3398c-0.023437 0.79297-0.12109 1.5586-0.12109 2.3398 0 0.79297 0.097657 1.5586 0.12109 2.3398-0.023437 0.78125-0.12109 1.5469-0.12109 2.3398 0 0.79297 0.097657 1.5586 0.12109 2.3398-0.023437 0.79297-0.12109 1.5469-0.12109 2.3398s0.097657 1.5586 0.12109 2.3398c-0.023437 0.78125-0.12109 1.5469-0.12109 2.3398s0.097657 1.5586 0.12109 2.3398c-0.023437 0.78125-0.12109 1.5586-0.12109 2.3398 0 0.79297 0.097657 1.5586 0.12109 2.3398-0.023437 0.78125-0.12109 1.5469-0.12109 2.3398 0 0.79297 0.097657 1.5586 0.12109 2.3398-0.023437 0.78125-0.12109 1.5469-0.12109 2.3398 0 33.719 27.336 61.055 61.055 61.055s61.055-27.336 61.055-61.055c0-0.80469-0.085937-1.5859-0.12109-2.375 0.023438-0.76953 0.12109-1.5234 0.12109-2.3047s-0.085937-1.5352-0.12109-2.3047c0.023438-0.79297 0.12109-1.5703 0.12109-2.375 0-0.79297-0.085937-1.5586-0.12109-2.3398 0.023438-0.79297 0.12109-1.5469 0.12109-2.3398s-0.085937-1.5586-0.12109-2.3398c0.023438-0.79297 0.12109-1.5586 0.12109-2.3398 0-0.79297-0.085937-1.5586-0.12109-2.3398 0.023438-0.78125 0.12109-1.5469 0.12109-2.3398 0-0.79297-0.085937-1.5586-0.12109-2.3398 0.023438-0.79297 0.12109-1.5469 0.12109-2.3398 0-0.79297-0.085937-1.5586-0.12109-2.3398 0.023438-0.78125 0.12109-1.5469 0.12109-2.3398s-0.085937-1.5586-0.12109-2.3398c0.023438-0.78125 0.12109-1.5469 0.12109-2.3398s-0.085937-1.5586-0.12109-2.3398c0.023438-0.78125 0.12109-1.5469 0.12109-2.3398 0-0.79297-0.085937-1.5586-0.12109-2.3398 0.023438-0.78125 0.12109-1.5469 0.12109-2.3398 0.011719-0.26953-0.011718-0.55859-0.035156-0.84766z"></path><path d="m708.73 799.71c-43.477-2.5938-84.562-7.2109-122.04-13.969-0.011718 0.32422-0.046875 0.64844-0.046875 0.97266 0 1.1523 0.10938 2.2695 0.16797 3.4062-0.058594 1.1289-0.16797 2.2578-0.16797 3.3945 0 1.1523 0.10938 2.2695 0.16797 3.3945-0.058594 1.1289-0.16797 2.2578-0.16797 3.4062 0 1.1523 0.10938 2.2695 0.16797 3.4062-0.058594 1.1289-0.16797 2.2578-0.16797 3.3945 0 1.1523 0.10938 2.2695 0.16797 3.3945-0.058594 1.1289-0.16797 2.2578-0.16797 3.4062 0 1.1523 0.10938 2.2695 0.16797 3.3945-0.058594 1.1289-0.16797 2.2578-0.16797 3.4062 0 1.1523 0.10938 2.2695 0.16797 3.3945-0.058594 1.1289-0.16797 2.2578-0.16797 3.4062 0 1.1523 0.10938 2.2695 0.16797 3.4062-0.058594 1.1289-0.16797 2.2578-0.16797 3.3945 0 1.1523 0.10938 2.2695 0.16797 3.3945-0.058594 1.1289-0.16797 2.2578-0.16797 3.4062 0 1.1523 0.10938 2.2695 0.16797 3.3945-0.058594 1.1289-0.16797 2.2578-0.16797 3.3945 0 1.1523 0.10938 2.2695 0.16797 3.4062-0.058594 1.1289-0.16797 2.2578-0.16797 3.3945 0 1.1523 0.10938 2.2695 0.16797 3.4062-0.058594 1.1289-0.16797 2.2578-0.16797 3.3945 0 1.1523 0.10938 2.2695 0.16797 3.3945-0.058594 1.1289-0.16797 2.2578-0.16797 3.3945 0 1.1523 0.10938 2.2695 0.16797 3.3945-0.058594 1.1289-0.16797 2.2578-0.16797 3.3945 0 1.1523 0.10938 2.2695 0.16797 3.4062-0.058594 1.1289-0.16797 2.2578-0.16797 3.3945 0 1.1523 0.10938 2.2695 0.16797 3.4062-0.058594 1.1289-0.16797 2.2578-0.16797 3.3945 0 1.1523 0.10938 2.2695 0.16797 3.4062-0.058594 1.1289-0.16797 2.2578-0.16797 3.3945 0 1.1523 0.10938 2.2695 0.16797 3.3945-0.058594 1.1289-0.16797 2.2578-0.16797 3.4062 0 1.1523 0.10938 2.2695 0.16797 3.4062-0.058594 1.1289-0.16797 2.2578-0.16797 3.3945 0 1.1406 0.10938 2.2695 0.16797 3.3945-0.058594 1.1289-0.16797 2.2578-0.16797 3.4062 0 1.1523 0.10938 2.2695 0.16797 3.4062-0.058594 1.1289-0.16797 2.2578-0.16797 3.3945 0 1.1523 0.10938 2.2695 0.16797 3.3945-0.058594 1.1289-0.16797 2.2578-0.16797 3.4062 0 1.1523 0.10938 2.2695 0.16797 3.4062-0.058594 1.1289-0.16797 2.2578-0.16797 3.3945 0 1.1523 0.10938 2.2695 0.16797 3.3945-0.058594 1.1289-0.16797 2.2578-0.16797 3.4062 0 1.1523 0.10938 2.2695 0.16797 3.4062-0.058594 1.1289-0.16797 2.2578-0.16797 3.3945 0 1.1523 0.10938 2.2695 0.16797 3.3945-0.058594 1.1289-0.16797 2.2578-0.16797 3.4062 0 1.1523 0.10938 2.2695 0.16797 3.4062-0.058594 1.1289-0.16797 2.2578-0.16797 3.3945 0 1.1523 0.10938 2.2695 0.16797 3.4062-0.058594 1.1289-0.16797 2.2422-0.16797 3.3945 0 1.1523 0.10938 2.2695 0.16797 3.3945-0.058594 1.1289-0.16797 2.2578-0.16797 3.4062 0 1.1523 0.10938 2.2695 0.16797 3.3945-0.058594 1.1289-0.16797 2.2578-0.16797 3.3945 0 1.1523 0.10938 2.2695 0.16797 3.4062-0.058594 1.1289-0.16797 2.2578-0.16797 3.3945 0 1.1523 0.10938 2.2695 0.16797 3.3945-0.058594 1.1289-0.16797 2.2422-0.16797 3.3945s0.10938 2.2695 0.16797 3.3945c-0.058594 1.1289-0.16797 2.2578-0.16797 3.4062 0 1.1523 0.10938 2.2695 0.16797 3.3945-0.058594 1.1289-0.16797 2.2578-0.16797 3.3945 0 1.1523 0.10938 2.2695 0.16797 3.4062-0.058594 1.1289-0.16797 2.2578-0.16797 3.3945 0 1.1523 0.10938 2.2695 0.16797 3.4062-0.058594 1.1289-0.16797 2.2578-0.16797 3.3945 0 1.1523 0.10938 2.2695 0.16797 3.3945-0.058594 1.1289-0.16797 2.2578-0.16797 3.4062 0 1.1406 0.10938 2.2422 0.16797 3.3594-0.070312 1.1406-0.17969 2.2812-0.17969 3.4336 0 1.1641 0.10938 2.293 0.17969 3.4336-0.058594 1.1289-0.16797 2.2305-0.16797 3.3594 0 1.1523 0.10938 2.2695 0.16797 3.4062-0.058594 1.1289-0.16797 2.2578-0.16797 3.3945 0 1.1406 0.10938 2.2422 0.16797 3.3594-0.070312 1.1406-0.17969 2.2812-0.17969 3.4336 0 1.1641 0.10938 2.293 0.17969 3.4336-0.058594 1.1172-0.16797 2.2305-0.16797 3.3594 0 33.719 27.336 61.055 61.066 61.055 33.719 0 61.055-27.336 61.055-61.055 0-1.1523-0.10938-2.2695-0.16797-3.3945 0.058594-1.1289 0.16797-2.2578 0.16797-3.4062 0-1.1523-0.10938-2.2695-0.16797-3.4062 0.058594-1.1289 0.16797-2.2578 0.16797-3.3945 0-1.1523-0.10938-2.2695-0.16797-3.3945 0.058594-1.1289 0.16797-2.2578 0.16797-3.4062 0-1.1523-0.10938-2.2695-0.16797-3.4062 0.058594-1.1289 0.16797-2.2578 0.16797-3.3945 0-1.1406-0.10938-2.2695-0.16797-3.3945 0.058594-1.1289 0.16797-2.2578 0.16797-3.4062 0-1.1523-0.10938-2.2695-0.16797-3.4062 0.058594-1.1289 0.16797-2.2578 0.16797-3.3945 0-1.1523-0.10938-2.2695-0.16797-3.3945 0.058594-1.1289 0.16797-2.2578 0.16797-3.4062 0-1.1523-0.10938-2.2695-0.16797-3.3945 0.058594-1.1289 0.16797-2.2578 0.16797-3.3945 0-1.1523-0.10938-2.2695-0.16797-3.3945 0.058594-1.1289 0.16797-2.2578 0.16797-3.3945 0-1.1406-0.10938-2.2695-0.16797-3.4062 0.058594-1.1289 0.16797-2.2578 0.16797-3.3945 0-1.1523-0.10938-2.2695-0.16797-3.3945 0.058594-1.1406 0.16797-2.2578 0.16797-3.3945 0-1.1523-0.10938-2.2695-0.16797-3.3945 0.058594-1.1289 0.16797-2.2578 0.16797-3.4062 0-1.1523-0.10938-2.2695-0.16797-3.3945 0.058594-1.1289 0.16797-2.2578 0.16797-3.3945 0-1.1523-0.10938-2.2695-0.16797-3.4062 0.058594-1.1289 0.16797-2.2578 0.16797-3.3945 0-1.1523-0.10938-2.2695-0.16797-3.4062 0.058594-1.1289 0.16797-2.2578 0.16797-3.3945 0-1.1523-0.10938-2.2695-0.16797-3.3945 0.058594-1.1289 0.16797-2.2578 0.16797-3.4062 0-1.1523-0.10938-2.2695-0.16797-3.4062 0.058594-1.1289 0.16797-2.2578 0.16797-3.3945 0-1.1523-0.10938-2.2695-0.16797-3.3945 0.058594-1.1289 0.16797-2.2578 0.16797-3.4062 0-1.1523-0.10938-2.2695-0.16797-3.4062 0.058594-1.1289 0.16797-2.2578 0.16797-3.3945 0-1.1523-0.10938-2.2695-0.16797-3.3945 0.058594-1.1289 0.16797-2.2578 0.16797-3.4062 0-1.1523-0.10938-2.2695-0.16797-3.4062 0.058594-1.1289 0.16797-2.2578 0.16797-3.3945 0-1.1523-0.10938-2.2695-0.16797-3.3945 0.058594-1.1289 0.16797-2.2578 0.16797-3.4062 0-1.1523-0.10938-2.2695-0.16797-3.4062 0.058594-1.1289 0.16797-2.2578 0.16797-3.3945 0-1.1406-0.10938-2.2695-0.16797-3.3945 0.058594-1.1289 0.16797-2.2578 0.16797-3.4062 0-1.1523-0.10938-2.2695-0.16797-3.4062 0.058594-1.1289 0.16797-2.2578 0.16797-3.3945 0-1.1523-0.10938-2.2695-0.16797-3.3945 0.058594-1.1289 0.16797-2.2578 0.16797-3.4062 0-1.1523-0.10938-2.2695-0.16797-3.3945 0.058594-1.1289 0.16797-2.2578 0.16797-3.4062 0-1.1523-0.10938-2.2695-0.16797-3.3945 0.058594-1.1289 0.16797-2.2578 0.16797-3.4062 0-1.1406-0.10938-2.2695-0.16797-3.3945 0.058594-1.1289 0.16797-2.2578 0.16797-3.3945 0-1.1523-0.10938-2.2695-0.16797-3.3945 0.058594-1.1289 0.16797-2.2578 0.16797-3.3945 0-1.1523-0.10938-2.2695-0.16797-3.3945 0.058594-1.1406 0.16797-2.2578 0.16797-3.4062 0-1.1523-0.10938-2.2695-0.16797-3.3945 0.058594-1.1289 0.16797-2.2578 0.16797-3.4062 0-1.1523-0.10938-2.2695-0.16797-3.3945 0.058594-1.1289 0.16797-2.2578 0.16797-3.3945 0-1.1523-0.10938-2.2695-0.16797-3.4062 0.058594-1.1289 0.16797-2.2578 0.16797-3.3945 0-1.1523-0.10938-2.2695-0.16797-3.3945 0.058594-1.1289 0.16797-2.2578 0.16797-3.4062 0-1.1523-0.10938-2.2695-0.16797-3.4062 0.058594-1.1289 0.16797-2.2578 0.16797-3.3945 0-1.1523-0.10938-2.2695-0.16797-3.4062 0.058594-1.1289 0.16797-2.2578 0.16797-3.3945 0-1.1523-0.10938-2.2695-0.16797-3.4062 0.058594-1.1289 0.16797-2.2578 0.16797-3.3945 0-1.1523-0.10938-2.2695-0.16797-3.3945 0.058594-1.1289 0.16797-2.2578 0.16797-3.4062-0.007813-0.17578-0.023437-0.37891-0.035156-0.58594z"></path><path d="m1071.3 585.46c-164.1 45.648-335.83 38.629-503.75-3.5156-171.73-38.629-278.58-45.648-442.68-3.5039 0 52.668-41.977 108.85-64.871 165.04 164.1-45.648 335.83-38.629 503.75 3.5156 171.72 38.617 412.14 24.574 576.24-17.566-26.711-49.152-68.688-91.297-68.688-143.96z"></path></g></svg>