<svg xmlns="http://www.w3.org/2000/svg" xmlns:xlink="http://www.w3.org/1999/xlink" width="269" zoomAndPan="magnify" viewBox="0 0 201.75 215.999996" height="288" preserveAspectRatio="xMidYMid meet" version="1.0"><defs><clipPath id="e819b9d40f"><path d="M 13 0.824219 L 27 0.824219 L 27 33 L 13 33 Z M 13 0.824219 " clip-rule="nonzero"/></clipPath></defs><path fill="#554266" d="M 8.480469 5.304688 C 8.480469 5.304688 0.273438 32.03125 20.90625 48.207031 C 20.90625 48.207031 35.675781 57.820312 37.550781 69.542969 C 37.550781 69.542969 27 55.589844 6.253906 45.394531 C 6.253906 45.394531 15.746094 52.542969 21.375 66.140625 C 27 79.742188 43.179688 85.601562 54.3125 89.46875 C 54.3125 89.46875 36.964844 90.644531 17.972656 79.742188 C 17.972656 79.742188 28.925781 114.320312 86.222656 105.414062 C 86.222656 105.414062 63.289062 106.953125 41.066406 94.394531 C 41.066406 94.394531 57.125 98.261719 78.226562 97.558594 C 78.226562 97.558594 65.1875 96.601562 58.300781 81.734375 C 50.367188 64.617188 45.835938 61.023438 36.769531 52.269531 C 36.769531 52.269531 53.960938 59.148438 72.089844 81.1875 C 72.089844 81.1875 83.03125 96.972656 93.347656 96.347656 C 93.347656 96.347656 94.285156 106.039062 89.597656 112.914062 C 89.597656 112.914062 99.914062 111.351562 100.070312 94.472656 C 100.226562 77.589844 98.195312 64.933594 103.195312 54.460938 C 103.195312 54.460938 101.164062 66.496094 109.136719 89.160156 C 109.136719 89.160156 116.792969 111.039062 89.441406 126.199219 C 89.441406 126.199219 115.855469 123.386719 121.484375 95.253906 C 121.484375 95.253906 133.515625 94.316406 143.988281 83.0625 C 143.988281 83.0625 151.179688 74.625 158.210938 74.464844 C 158.210938 74.464844 151.648438 78.53125 145.238281 90.5625 C 138.832031 102.597656 132.109375 105.101562 132.109375 105.101562 C 132.109375 105.101562 144.457031 107.289062 158.210938 107.132812 C 158.210938 107.132812 149.617188 113.222656 120.390625 111.664062 C 120.390625 111.664062 159.933594 125.574219 184.46875 100.097656 C 184.46875 100.097656 164.308594 108.226562 146.488281 100.253906 C 146.488281 100.253906 170.871094 101.347656 178.375 90.5625 C 185.875 79.777344 196.816406 73.058594 196.816406 73.058594 C 196.816406 73.058594 174.625 77.433594 160.085938 89.625 C 160.085938 89.625 163.996094 77.121094 176.96875 73.683594 C 189.9375 70.246094 201.191406 61.335938 200.253906 38.046875 C 200.253906 38.046875 195.097656 61.492188 173.058594 60.242188 C 151.019531 58.992188 137.738281 75.402344 122.105469 91.8125 C 122.105469 91.8125 123.980469 79.621094 114.761719 67.902344 C 105.539062 56.179688 112.261719 38.046875 127.890625 34.140625 C 127.890625 34.140625 124.140625 28.203125 114.605469 34.453125 C 114.605469 34.453125 109.132812 28.984375 101.476562 35.859375 C 93.816406 42.738281 84.984375 44.691406 84.984375 44.691406 C 84.984375 44.691406 95.378906 46.332031 101.476562 43.597656 C 101.476562 43.597656 90.378906 52.894531 94.753906 74.621094 C 94.753906 74.621094 96.628906 89.3125 87.25 83.53125 C 77.875 77.75 64.277344 50.550781 34.5 40.003906 C 6.375 30.035156 8.480469 5.304688 8.480469 5.304688 Z M 8.480469 5.304688 " fill-opacity="1" fill-rule="nonzero"/><g clip-path="url(#e819b9d40f)"><path fill="#554266" d="M 13.636719 0.847656 C 13.636719 0.847656 10.121094 15.617188 27 32.265625 C 27 32.265625 19.734375 21.246094 13.636719 0.847656 Z M 13.636719 0.847656 " fill-opacity="1" fill-rule="nonzero"/></g><path fill="#554266" d="M 111.714844 119.476562 C 111.714844 119.476562 113.511719 122.132812 116.324219 124.636719 C 116.324219 124.636719 107.257812 126.511719 99.132812 126.667969 C 99.132812 126.667969 125 132.683594 145.472656 121.902344 C 145.472656 121.902344 122.886719 122.683594 111.714844 119.476562 Z M 111.714844 119.476562 " fill-opacity="1" fill-rule="nonzero"/><path fill="#554266" d="M 84.4375 112.132812 C 84.4375 112.132812 57.402344 115.882812 39.113281 104.941406 C 39.113281 104.941406 52.789062 126.355469 82.25 122.917969 C 82.25 122.917969 72.558594 120.414062 69.433594 117.445312 C 69.433594 117.445312 72.40625 119.632812 84.4375 112.132812 Z M 84.4375 112.132812 " fill-opacity="1" fill-rule="nonzero"/><path fill="#554266" d="M 81.933594 128.042969 C 81.933594 128.042969 81.621094 138.671875 61.300781 146.957031 C 40.984375 155.238281 22.070312 171.648438 32.542969 191.03125 C 32.542969 191.03125 29.574219 177.902344 40.359375 170.398438 C 51.144531 162.894531 65.835938 153.519531 73.964844 144.609375 C 73.964844 144.609375 77.820312 153.476562 61.71875 162.386719 C 61.71875 162.386719 48.644531 169.226562 48.332031 184.464844 C 48.332031 184.464844 52.746094 171.628906 64.878906 166.238281 C 77.011719 160.84375 87.546875 140.378906 81.933594 128.042969 Z M 81.933594 128.042969 " fill-opacity="1" fill-rule="nonzero"/><path fill="#554266" d="M 88.03125 134.644531 C 88.03125 134.644531 90.960938 155.980469 71.851562 168.757812 C 52.746094 181.535156 43.601562 192.203125 54.503906 214.828125 C 54.503906 214.828125 50.285156 199.707031 66.460938 185.40625 C 82.636719 171.101562 94.28125 158.597656 88.03125 134.644531 Z M 88.03125 134.644531 " fill-opacity="1" fill-rule="nonzero"/></svg>