<svg xmlns="http://www.w3.org/2000/svg" xmlns:xlink="http://www.w3.org/1999/xlink" width="281" zoomAndPan="magnify" viewBox="0 0 210.75 198.749996" height="265" preserveAspectRatio="xMidYMid meet" version="1.0"><defs><clipPath id="3f9c7cc2b8"><path d="M 0.675781 0.09375 L 210.191406 0.09375 L 210.191406 197.507812 L 0.675781 197.507812 Z M 0.675781 0.09375 " clip-rule="nonzero"/></clipPath></defs><g clip-path="url(#3f9c7cc2b8)"><path fill="#554266" d="M 152.878906 77.765625 L 177.875 10.699219 L 179.101562 10.09375 L 204.328125 77.765625 Z M 58.003906 146.191406 L 6.550781 146.191406 L 31.335938 79.699219 C 31.957031 79.910156 32.628906 79.992188 33.316406 79.941406 Z M 209.828125 78.222656 C 209.566406 77.929688 209.191406 77.765625 208.8125 77.765625 L 207.816406 77.765625 L 181.855469 8.128906 C 182.949219 6.671875 183.277344 4.691406 182.425781 2.941406 C 181.230469 0.46875 178.269531 -0.578125 175.78125 0.585938 L 30.746094 70.480469 C 28.292969 71.691406 27.261719 74.65625 28.457031 77.144531 C 28.519531 77.257812 28.617188 77.339844 28.699219 77.457031 L 3.066406 146.191406 L 2.066406 146.191406 C 1.691406 146.191406 1.316406 146.355469 1.050781 146.632812 C 0.789062 146.925781 0.644531 147.304688 0.675781 147.679688 C 1.445312 158.269531 10.285156 166.636719 21.074219 166.636719 L 43.480469 166.636719 C 54.269531 166.636719 63.109375 158.269531 63.878906 147.679688 C 63.894531 147.304688 63.765625 146.925781 63.503906 146.632812 C 63.242188 146.355469 62.863281 146.191406 62.488281 146.191406 L 61.488281 146.191406 L 36.394531 78.878906 L 100.433594 48.023438 L 100.433594 177.734375 L 75.171875 177.734375 C 68.511719 177.734375 63.109375 183.136719 63.109375 189.800781 C 63.109375 194.054688 66.5625 197.507812 70.820312 197.507812 L 140.0625 197.507812 C 144.316406 197.507812 147.773438 194.054688 147.773438 189.800781 C 147.773438 183.136719 142.371094 177.734375 135.707031 177.734375 L 110.449219 177.734375 L 110.449219 43.195312 L 112.121094 42.375 L 173.652344 12.730469 L 149.394531 77.765625 L 148.410156 77.765625 C 148.019531 77.765625 147.640625 77.929688 147.378906 78.222656 C 147.117188 78.503906 146.96875 78.878906 147.003906 79.273438 C 147.773438 89.863281 156.613281 98.210938 167.398438 98.210938 L 189.808594 98.210938 C 200.597656 98.210938 209.4375 89.863281 210.207031 79.273438 C 210.238281 78.878906 210.089844 78.503906 209.828125 78.222656 " fill-opacity="1" fill-rule="nonzero"/></g></svg>