<svg xmlns="http://www.w3.org/2000/svg" xmlns:xlink="http://www.w3.org/1999/xlink" width="282" zoomAndPan="magnify" viewBox="0 0 211.5 231.749993" height="309" preserveAspectRatio="xMidYMid meet" version="1.0"><defs><clipPath id="781b99c2cb"><path d="M 0.59375 1 L 210.097656 1 L 210.097656 230.546875 L 0.59375 230.546875 Z M 0.59375 1 " clip-rule="nonzero"/></clipPath></defs><g clip-path="url(#781b99c2cb)"><path fill="#554266" d="M 82.25 97.644531 C 82.640625 93.925781 85.390625 92.046875 87.042969 90.488281 C 88.695312 88.925781 86.195312 85.648438 86.195312 85.648438 C 86.195312 85.648438 84.613281 86.382812 80.734375 85.761719 C 76.859375 85.140625 75.597656 82.894531 73.535156 81.035156 C 71.445312 79.179688 68.234375 80.257812 65.988281 86.105469 C 63.738281 91.953125 71.171875 100.371094 73.027344 102.734375 C 74.886719 105.097656 78.558594 111.359375 79.910156 110.234375 C 81.242188 109.066406 81.859375 101.359375 82.25 97.644531 M 100.234375 13.601562 C 105.394531 22.707031 105.460938 37.410156 105.460938 37.867188 C 105.460938 37.410156 105.53125 22.683594 110.691406 13.601562 C 115.921875 4.355469 120.050781 4.128906 120.050781 4.128906 C 120.050781 4.128906 115.441406 0.984375 111.378906 1.144531 C 107.320312 1.304688 105.460938 2.453125 105.460938 2.453125 C 105.460938 2.453125 103.605469 1.328125 99.542969 1.144531 C 95.484375 0.984375 90.875 4.128906 90.875 4.128906 C 90.875 4.128906 94.980469 4.355469 100.234375 13.601562 Z M 102.273438 39.269531 C 102.273438 39.269531 100.027344 24.953125 95.277344 17.292969 C 90.554688 9.632812 82.203125 6.582031 82.203125 6.582031 C 82.203125 6.582031 85.300781 9.425781 86.058594 11.285156 C 86.816406 13.140625 86.90625 13.761719 86.90625 13.761719 C 86.90625 13.761719 77.15625 8.808594 71.078125 8.417969 C 65 8.027344 62.457031 8.992188 59.589844 8.464844 C 56.722656 7.957031 55.367188 6.835938 55.367188 6.835938 C 55.367188 6.835938 56.492188 8.53125 58.304688 9.816406 C 60.117188 11.125 63.832031 12.019531 68.121094 12.132812 C 72.410156 12.246094 83.625 13.832031 89.820312 22.269531 C 96.011719 30.710938 98.996094 45.324219 98.996094 45.324219 C 98.996094 45.324219 99.84375 39.679688 99.613281 37.316406 C 99.382812 34.957031 99.109375 33.878906 99.109375 33.878906 Z M 91.035156 39.453125 C 91.035156 39.453125 88.558594 21.421875 78.191406 17.820312 C 67.824219 14.21875 56.558594 17.476562 49.5625 16.238281 C 42.570312 15 39.425781 12.636719 39.425781 12.636719 C 39.425781 12.636719 43.257812 20.296875 51.03125 20.527344 C 58.808594 20.757812 66.8125 18.050781 75.828125 22.453125 C 84.84375 26.835938 91.035156 39.453125 91.035156 39.453125 Z M 83.03125 39.453125 C 83.03125 39.453125 78.074219 28.1875 65.230469 26.03125 C 52.386719 23.898438 43.601562 28.738281 35.480469 25.367188 C 27.359375 21.996094 26.808594 18.714844 26.808594 18.714844 C 26.808594 18.714844 28.621094 32.570312 38.53125 33.601562 C 48.441406 34.613281 57.25 28.96875 66.582031 31.238281 C 75.941406 33.488281 83.03125 39.453125 83.03125 39.453125 Z M 23.140625 57.984375 C 27.429688 56.90625 29.058594 54.382812 32.109375 49.703125 C 35.160156 45.023438 39.886719 39.679688 39.886719 39.679688 C 39.886719 39.679688 39.105469 39.40625 36.285156 40.414062 C 33.460938 41.425781 29.289062 44.820312 26.191406 49.886719 C 23.09375 54.957031 15.136719 58.28125 15.136719 58.28125 C 15.136719 58.28125 18.851562 59.0625 23.140625 57.984375 Z M 33.898438 56.816406 C 26.351562 64.589844 23.1875 66.632812 18.804688 68.878906 C 14.402344 71.128906 9.792969 70.234375 9.792969 70.234375 C 9.792969 70.234375 19.148438 76.886719 27.15625 73.167969 C 35.160156 69.453125 40.113281 60.4375 44.632812 53.671875 C 49.152344 46.90625 58.714844 42.523438 63.898438 41.378906 C 69.082031 40.253906 73.921875 40.367188 73.921875 40.367188 C 73.921875 40.367188 64.449219 34.839844 52.613281 37.664062 C 40.78125 40.460938 41.445312 49.039062 33.898438 56.816406 Z M 48.371094 57.570312 C 40.480469 69.292969 34.402344 78.878906 22.796875 81.703125 C 11.191406 84.5 0.59375 80.785156 0.59375 80.785156 C 0.59375 80.785156 11.855469 88.214844 23.371094 87.988281 C 34.863281 87.757812 41.742188 81.335938 45.6875 75.601562 C 49.632812 69.84375 53.691406 61.402344 58.992188 55.53125 C 64.289062 49.660156 70.023438 46.859375 70.023438 46.859375 C 70.023438 46.859375 56.261719 45.851562 48.371094 57.570312 Z M 24.425781 93.078125 L 19.46875 92.988281 C 19.46875 92.988281 16.421875 95.347656 13.714844 102.574219 C 11.007812 109.800781 11.351562 116.65625 11.121094 122.070312 C 10.890625 127.484375 6.832031 132.09375 6.832031 132.09375 C 6.832031 132.09375 10.203125 131.199219 12.796875 127.253906 C 15.386719 123.308594 14.035156 113.722656 17.085938 106.75 C 20.136719 99.753906 27.109375 92.894531 27.109375 92.894531 C 27.109375 92.894531 25.777344 93.101562 24.425781 93.078125 Z M 46.859375 89.042969 C 41.445312 90.855469 25.113281 95.808594 19.929688 113.609375 C 14.746094 131.429688 22.84375 147.644531 25.550781 154.871094 C 28.253906 162.074219 27.246094 170.996094 27.246094 170.996094 C 27.246094 170.996094 28.484375 169.527344 29.265625 161.867188 C 30.042969 154.207031 26.671875 144.503906 25.550781 133.355469 C 24.425781 122.210938 29.839844 104.617188 41.328125 97.183594 C 52.820312 89.753906 54.863281 82.527344 54.863281 82.527344 C 54.863281 82.527344 52.269531 87.230469 46.859375 89.042969 Z M 44.035156 103.054688 C 36.261719 109.480469 31.191406 123.125 31.191406 132.578125 C 31.191406 142.050781 33.667969 148.242188 34.011719 152.761719 C 34.355469 157.28125 33.117188 160.765625 33.117188 160.765625 C 33.117188 160.765625 36.375 156.59375 36.949219 149.160156 C 37.523438 141.730469 37.292969 135.628906 43.714844 128.082031 C 50.136719 120.535156 54.3125 112.070312 55.320312 106.105469 C 56.332031 100.144531 55.78125 92.804688 55.78125 92.804688 C 55.78125 92.804688 51.8125 96.632812 44.035156 103.054688 Z M 61.742188 129.753906 C 56.332031 135.832031 44.953125 141.476562 42.132812 150.375 C 39.3125 159.277344 43.027344 168.519531 42.132812 176.179688 C 41.238281 183.839844 36.054688 188.128906 36.054688 188.128906 C 36.054688 188.128906 45.640625 182.050781 47.660156 173.039062 C 49.679688 164.023438 48.554688 155.675781 54.863281 149.367188 C 61.171875 143.058594 66.929688 137.601562 68.28125 130.261719 C 69.632812 122.941406 67.042969 116.335938 67.042969 116.335938 C 67.042969 116.335938 67.132812 123.675781 61.742188 129.753906 Z M 64.726562 149.824219 C 57.179688 158.953125 53.898438 164.480469 53.347656 173.613281 C 52.777344 182.742188 57.292969 195.816406 64.289062 201.457031 C 71.285156 207.101562 81.539062 222.878906 81.539062 222.878906 C 81.539062 222.878906 78.601562 211.160156 75.117188 204.050781 C 71.628906 196.9375 62.386719 183.199219 67.113281 166.84375 C 71.835938 150.511719 74.3125 146.660156 73.648438 140.351562 L 72.984375 134.042969 C 72.960938 134.042969 72.273438 140.695312 64.726562 149.824219 Z M 75.644531 158.496094 C 73.28125 165.925781 71.355469 179.917969 76.21875 191.640625 C 81.058594 203.359375 91.21875 215.3125 93.808594 220.839844 C 96.402344 226.367188 95.621094 230.542969 95.621094 230.542969 C 95.621094 230.542969 99.109375 221.640625 94.039062 212.972656 C 88.96875 204.300781 83.902344 191.890625 83.902344 179.828125 C 83.902344 167.761719 83.441406 161.914062 82.203125 156.613281 C 80.964844 151.316406 78.03125 149.414062 78.03125 149.414062 C 78.03125 149.414062 78.03125 151.0625 75.644531 158.496094 Z M 89.0625 162.554688 C 89.0625 162.554688 88.28125 182.050781 90.875 189.164062 C 93.464844 196.273438 99.339844 206.640625 100.003906 211.480469 C 100.667969 216.320312 100.578125 218.476562 100.578125 218.476562 C 100.578125 218.476562 104.523438 206.640625 102.710938 195.585938 C 100.898438 184.53125 94.75 179.804688 93.351562 173.65625 C 91.953125 167.511719 89.0625 162.554688 89.0625 162.554688 Z M 96.5625 166.777344 C 97.753906 171.386719 98.925781 176.480469 100.507812 178.839844 C 102.089844 181.203125 103.558594 185.101562 103.558594 185.101562 C 103.558594 185.101562 103.628906 175.746094 101.539062 169.484375 C 99.453125 163.222656 92.296875 156.523438 92.296875 156.523438 C 92.296875 156.523438 95.394531 162.164062 96.5625 166.777344 Z M 97.160156 151.636719 C 101.21875 152.53125 102.917969 153.886719 104.039062 155.351562 C 105.164062 156.820312 105.484375 157.671875 105.484375 157.671875 C 105.484375 157.671875 105.804688 156.820312 106.929688 155.351562 C 108.054688 153.886719 109.75 152.53125 113.8125 151.636719 C 117.871094 150.742188 119.109375 148.152344 119.109375 148.152344 C 119.109375 148.152344 119.269531 149.046875 118.71875 150.125 C 118.167969 151.203125 117.941406 151.476562 117.941406 151.476562 C 117.941406 151.476562 121.035156 150.8125 123.398438 148.152344 C 125.761719 145.511719 126.039062 140.878906 124.476562 138.976562 C 122.894531 137.074219 113.835938 138.402344 110.507812 137.578125 C 107.183594 136.726562 105.53125 134.710938 105.53125 134.710938 C 105.53125 134.710938 103.855469 136.726562 100.554688 137.578125 C 97.226562 138.425781 88.144531 137.074219 86.585938 138.976562 C 85.003906 140.902344 85.277344 145.511719 87.664062 148.152344 C 90.027344 150.789062 93.121094 151.476562 93.121094 151.476562 C 93.121094 151.476562 92.894531 151.203125 92.34375 150.125 C 91.792969 149.046875 91.953125 148.152344 91.953125 148.152344 C 91.953125 148.152344 93.097656 150.71875 97.160156 151.636719 Z M 118.652344 156.523438 C 118.652344 156.523438 111.496094 163.222656 109.40625 169.484375 C 107.320312 175.746094 107.390625 185.101562 107.390625 185.101562 C 107.390625 185.101562 108.855469 181.203125 110.441406 178.839844 C 112.023438 176.480469 113.191406 171.410156 114.386719 166.777344 C 115.578125 162.144531 118.652344 156.523438 118.652344 156.523438 Z M 117.574219 173.65625 C 116.175781 179.804688 110.027344 184.53125 108.214844 195.585938 C 106.402344 206.640625 110.347656 218.476562 110.347656 218.476562 C 110.347656 218.476562 110.234375 216.34375 110.921875 211.480469 C 111.585938 206.640625 117.457031 196.273438 120.050781 189.164062 C 122.640625 182.050781 121.863281 162.554688 121.863281 162.554688 C 121.863281 162.554688 118.972656 167.511719 117.574219 173.65625 Z M 128.722656 156.59375 C 127.480469 161.890625 127.023438 167.761719 127.023438 179.804688 C 127.023438 191.871094 121.953125 204.253906 116.886719 212.949219 C 111.816406 221.621094 115.300781 230.519531 115.300781 230.519531 C 115.300781 230.519531 114.523438 226.34375 117.113281 220.816406 C 119.707031 215.289062 129.84375 203.339844 134.707031 191.617188 C 139.546875 179.894531 137.644531 165.925781 135.28125 158.472656 C 132.917969 151.042969 132.917969 149.34375 132.917969 149.34375 C 132.917969 149.34375 129.984375 151.292969 128.722656 156.59375 Z M 137.300781 140.351562 C 136.632812 146.660156 139.113281 150.492188 143.835938 166.84375 C 148.5625 183.199219 139.316406 196.9375 135.832031 204.050781 C 132.34375 211.160156 129.410156 222.878906 129.410156 222.878906 C 129.410156 222.878906 139.660156 207.101562 146.65625 201.457031 C 153.652344 195.816406 158.148438 182.742188 157.597656 173.613281 C 157.027344 164.480469 153.769531 158.953125 146.222656 149.824219 C 138.675781 140.695312 137.988281 134.042969 137.988281 134.042969 Z M 142.667969 130.261719 C 144.019531 137.578125 149.777344 143.058594 156.085938 149.367188 C 162.394531 155.675781 161.269531 164.023438 163.289062 173.039062 C 165.328125 182.050781 174.894531 188.128906 174.894531 188.128906 C 174.894531 188.128906 169.710938 183.839844 168.816406 176.179688 C 167.921875 168.519531 171.636719 159.277344 168.816406 150.375 C 165.992188 141.476562 154.617188 135.832031 149.203125 129.753906 C 143.789062 123.675781 143.90625 116.335938 143.90625 116.335938 C 143.90625 116.335938 141.3125 122.941406 142.667969 130.261719 Z M 155.625 106.085938 C 156.636719 112.046875 160.808594 120.511719 167.234375 128.058594 C 173.65625 135.605469 173.425781 141.707031 174 149.136719 C 174.574219 156.570312 177.828125 160.742188 177.828125 160.742188 C 177.828125 160.742188 176.589844 157.257812 176.933594 152.738281 C 177.277344 148.21875 179.757812 142.027344 179.757812 132.554688 C 179.757812 123.082031 174.6875 109.457031 166.910156 103.035156 C 159.136719 96.609375 155.191406 92.78125 155.191406 92.78125 C 155.191406 92.78125 154.59375 100.121094 155.625 106.085938 Z M 137.917969 102.710938 C 139.777344 100.351562 147.207031 91.953125 144.960938 86.082031 C 142.710938 80.210938 139.5 79.15625 137.414062 81.011719 C 135.328125 82.871094 134.089844 85.121094 130.210938 85.738281 C 126.3125 86.359375 124.753906 85.625 124.753906 85.625 C 124.753906 85.625 122.277344 88.902344 123.902344 90.464844 C 125.554688 92.023438 128.308594 93.90625 128.699219 97.621094 C 129.089844 101.335938 129.707031 109.066406 131.058594 110.191406 C 132.390625 111.335938 136.0625 105.074219 137.917969 102.710938 Z M 169.59375 97.160156 C 181.085938 104.59375 186.5 122.1875 185.375 133.332031 C 184.253906 144.480469 180.855469 154.183594 181.660156 161.84375 C 182.441406 169.503906 183.679688 170.972656 183.679688 170.972656 C 183.679688 170.972656 182.667969 162.074219 185.375 154.847656 C 188.082031 147.644531 196.203125 131.40625 191.019531 113.609375 C 185.835938 95.808594 169.503906 90.855469 164.089844 89.042969 C 158.675781 87.230469 156.085938 82.503906 156.085938 82.503906 C 156.085938 82.503906 158.105469 89.730469 169.59375 97.160156 Z M 183.792969 92.871094 C 183.792969 92.871094 190.789062 99.753906 193.816406 106.726562 C 196.867188 113.722656 195.515625 123.285156 198.105469 127.230469 C 200.699219 131.175781 204.070312 132.070312 204.070312 132.070312 C 204.070312 132.070312 200.011719 127.460938 199.78125 122.046875 C 199.550781 116.636719 199.894531 109.753906 197.1875 102.550781 C 194.480469 95.328125 191.429688 92.964844 191.429688 92.964844 L 186.476562 93.054688 C 185.148438 93.101562 183.792969 92.871094 183.792969 92.871094 Z M 165.238281 75.601562 C 169.183594 81.359375 176.0625 87.78125 187.554688 87.988281 C 199.046875 88.214844 210.332031 80.785156 210.332031 80.785156 C 210.332031 80.785156 199.734375 84.5 188.128906 81.679688 C 176.523438 78.859375 170.445312 69.292969 162.554688 57.570312 C 154.664062 45.851562 140.921875 46.859375 140.921875 46.859375 C 140.921875 46.859375 146.679688 49.679688 151.980469 55.53125 C 157.277344 61.378906 161.316406 69.84375 165.238281 75.601562 Z M 166.316406 53.648438 C 170.832031 60.414062 175.789062 69.429688 183.792969 73.144531 C 191.796875 76.863281 201.15625 70.210938 201.15625 70.210938 C 201.15625 70.210938 196.546875 71.105469 192.140625 68.855469 C 187.738281 66.609375 184.597656 64.566406 177.050781 56.792969 C 169.503906 49.015625 170.167969 40.460938 158.332031 37.640625 C 146.496094 34.816406 137.023438 40.347656 137.023438 40.347656 C 137.023438 40.347656 141.863281 40.230469 147.046875 41.355469 C 152.230469 42.5 161.820312 46.882812 166.316406 53.648438 Z M 178.839844 49.703125 C 181.890625 54.382812 183.519531 56.90625 187.808594 57.984375 C 192.097656 59.0625 195.8125 58.261719 195.8125 58.261719 C 195.8125 58.261719 187.851562 54.933594 184.757812 49.863281 C 181.660156 44.796875 177.484375 41.425781 174.664062 40.390625 C 171.84375 39.382812 171.0625 39.65625 171.0625 39.65625 C 171.0625 39.65625 175.789062 45.023438 178.839844 49.703125 Z M 172.417969 33.601562 C 182.324219 32.59375 184.136719 18.714844 184.136719 18.714844 C 184.136719 18.714844 183.5625 21.972656 175.46875 25.367188 C 167.347656 28.738281 158.5625 23.898438 145.71875 26.03125 C 132.871094 28.167969 127.917969 39.453125 127.917969 39.453125 C 127.917969 39.453125 135.027344 33.488281 144.363281 31.214844 C 153.699219 28.96875 162.484375 34.613281 172.417969 33.601562 Z M 119.890625 39.453125 C 119.890625 39.453125 126.082031 26.835938 135.097656 22.433594 C 144.113281 18.027344 152.117188 20.734375 159.894531 20.503906 C 167.667969 20.277344 171.5 12.613281 171.5 12.613281 C 171.5 12.613281 168.332031 14.976562 161.359375 16.214844 C 154.363281 17.453125 143.101562 14.199219 132.734375 17.796875 C 122.367188 21.421875 119.890625 39.453125 119.890625 39.453125 Z M 121.128906 22.269531 C 127.320312 13.808594 138.539062 12.246094 142.828125 12.132812 C 147.117188 12.019531 150.832031 11.125 152.644531 9.816406 C 154.457031 8.53125 155.582031 6.835938 155.582031 6.835938 C 155.582031 6.835938 154.226562 7.957031 151.359375 8.464844 C 148.492188 8.96875 145.945312 8.003906 139.867188 8.417969 C 133.746094 8.808594 123.996094 13.761719 123.996094 13.761719 C 123.996094 13.761719 124.085938 13.140625 124.84375 11.285156 C 125.601562 9.425781 128.699219 6.582031 128.699219 6.582031 C 128.699219 6.582031 120.347656 9.632812 115.625 17.292969 C 110.898438 24.953125 108.628906 39.269531 108.628906 39.269531 L 111.816406 33.878906 C 111.816406 33.878906 111.539062 34.957031 111.3125 37.316406 C 111.082031 39.679688 111.929688 45.324219 111.929688 45.324219 C 111.929688 45.324219 114.9375 30.710938 121.128906 22.269531 Z M 145.578125 77.414062 C 145.578125 77.414062 145.808594 74.476562 143.445312 66.816406 C 141.085938 59.15625 131.039062 49.796875 121.015625 49.335938 C 110.992188 48.878906 105.460938 66.128906 105.460938 66.128906 C 105.460938 66.128906 99.933594 48.878906 89.910156 49.335938 C 79.886719 49.796875 69.839844 59.132812 67.476562 66.816406 C 65.117188 74.476562 65.34375 77.414062 65.34375 77.414062 C 65.34375 77.414062 68.601562 76.175781 74.015625 76.175781 C 79.429688 76.175781 83.808594 77.871094 83.808594 77.871094 C 83.808594 77.871094 83.949219 76.175781 83.535156 75.347656 C 83.121094 74.5 82.089844 73.855469 82.089844 73.855469 C 82.089844 73.855469 87.386719 75.074219 88.785156 77.894531 C 90.1875 80.714844 91.378906 88.375 91.722656 90.1875 C 92.066406 92 88.167969 94.25 86.308594 96.726562 C 84.453125 99.203125 83.992188 102.804688 84.109375 107.667969 C 84.222656 112.507812 82.984375 113.746094 80.941406 118.148438 C 78.925781 122.554688 80.714844 132.460938 87.136719 134.160156 C 93.558594 135.855469 103.925781 134.160156 104.15625 130.097656 C 104.382812 126.039062 103.8125 122.667969 101.105469 121.085938 C 98.398438 119.503906 93.71875 117.484375 91.746094 114.386719 C 89.773438 111.289062 91.355469 107.621094 91.355469 107.621094 C 91.355469 107.621094 91.699219 110.71875 92.824219 111.613281 C 93.949219 112.507812 94.910156 112.734375 94.910156 112.734375 C 94.910156 112.734375 94.0625 110.878906 94.339844 110.488281 C 94.613281 110.097656 97.710938 111.0625 99.40625 111.0625 C 101.105469 111.0625 103.558594 111.015625 104.476562 111.40625 L 105.394531 111.796875 L 106.335938 111.40625 C 107.273438 111.015625 109.707031 111.0625 111.402344 111.0625 C 113.101562 111.0625 116.195312 110.097656 116.472656 110.488281 C 116.746094 110.878906 115.898438 112.734375 115.898438 112.734375 C 115.898438 112.734375 116.863281 112.507812 117.984375 111.613281 C 119.109375 110.71875 119.453125 107.621094 119.453125 107.621094 C 119.453125 107.621094 121.035156 111.289062 119.0625 114.386719 C 117.089844 117.484375 112.414062 119.523438 109.707031 121.085938 C 107 122.667969 106.449219 126.039062 106.65625 130.097656 C 106.882812 134.160156 117.253906 135.855469 123.675781 134.160156 C 130.097656 132.460938 131.910156 122.554688 129.867188 118.148438 C 127.828125 113.746094 126.585938 112.507812 126.703125 107.667969 C 126.816406 102.828125 126.359375 99.226562 124.5 96.726562 C 122.640625 94.25 118.742188 92 119.085938 90.1875 C 119.429688 88.375 120.601562 80.714844 122.023438 77.894531 C 123.421875 75.074219 128.722656 73.855469 128.722656 73.855469 C 128.722656 73.855469 127.710938 74.5 127.277344 75.347656 C 126.863281 76.195312 127 77.871094 127 77.871094 C 127 77.871094 131.40625 76.175781 136.792969 76.175781 C 142.324219 76.175781 145.578125 77.414062 145.578125 77.414062 Z M 145.578125 77.414062 " fill-opacity="1" fill-rule="evenodd"/></g></svg>