<svg xmlns="http://www.w3.org/2000/svg" xmlns:xlink="http://www.w3.org/1999/xlink" width="258" zoomAndPan="magnify" viewBox="0 0 193.5 153.000002" height="204" preserveAspectRatio="xMidYMid meet" version="1.0"><defs><clipPath id="46d43d31e9"><path d="M 1.023438 0.113281 L 91 0.113281 L 91 151 L 1.023438 151 Z M 1.023438 0.113281 " clip-rule="nonzero"/></clipPath><clipPath id="e4c8dad911"><path d="M 96 0.113281 L 191 0.113281 L 191 150 L 96 150 Z M 96 0.113281 " clip-rule="nonzero"/></clipPath></defs><g clip-path="url(#46d43d31e9)"><path fill="#554266" d="M 90.179688 137.277344 C 90.179688 137.820312 90.148438 138.355469 90.082031 138.894531 C 90.015625 139.429688 89.914062 139.960938 89.785156 140.484375 C 89.652344 141.011719 89.488281 141.523438 89.292969 142.027344 C 89.097656 142.53125 88.875 143.023438 88.617188 143.5 C 88.363281 143.976562 88.078125 144.4375 87.769531 144.878906 C 87.457031 145.320312 87.117188 145.738281 86.753906 146.140625 C 86.390625 146.539062 86.003906 146.917969 85.59375 147.269531 C 85.183594 147.621094 84.753906 147.945312 84.304688 148.246094 C 83.851562 148.546875 83.386719 148.816406 82.902344 149.058594 C 82.417969 149.300781 81.921875 149.511719 81.414062 149.691406 C 80.902344 149.875 80.386719 150.023438 79.855469 150.140625 C 79.328125 150.257812 78.796875 150.339844 78.257812 150.390625 C 77.71875 150.441406 77.179688 150.460938 76.640625 150.445312 C 76.097656 150.429688 75.5625 150.382812 75.027344 150.300781 C 74.492188 150.21875 73.964844 150.105469 73.445312 149.960938 C 72.925781 149.8125 72.414062 149.636719 71.917969 149.425781 C 61.003906 144.839844 46.074219 136.429688 29.667969 121.082031 C 10.722656 103.367188 1.046875 73.96875 1.046875 55.804688 C 1.046875 25.433594 20.320312 0.808594 48.617188 0.808594 C 64.074219 0.808594 77.929688 8.15625 87.324219 19.769531 C 88.257812 20.933594 88.96875 22.21875 89.457031 23.625 C 89.949219 25.03125 90.191406 26.480469 90.183594 27.96875 Z M 90.179688 137.277344 " fill-opacity="1" fill-rule="nonzero"/></g><g clip-path="url(#e4c8dad911)"><path fill="#554266" d="M 187.691406 60.054688 C 187.1875 59.230469 186.609375 58.46875 185.957031 57.757812 C 185.304688 57.050781 184.589844 56.414062 183.808594 55.84375 C 183.03125 55.277344 182.207031 54.789062 181.332031 54.386719 C 180.457031 53.980469 179.554688 53.664062 178.617188 53.4375 C 177.679688 53.207031 176.730469 53.074219 175.769531 53.03125 C 174.808594 52.992188 173.851562 53.042969 172.898438 53.191406 C 171.945312 53.339844 171.015625 53.578125 170.113281 53.90625 C 169.207031 54.234375 168.34375 54.648438 167.519531 55.148438 C 167.25 55.3125 166.957031 55.417969 166.644531 55.46875 C 166.332031 55.515625 166.023438 55.503906 165.714844 55.429688 C 165.40625 55.355469 165.125 55.222656 164.871094 55.035156 C 164.613281 54.851562 164.40625 54.621094 164.242188 54.351562 C 164.078125 54.082031 163.96875 53.789062 163.921875 53.476562 C 163.871094 53.164062 163.886719 52.855469 163.960938 52.546875 C 164.035156 52.238281 164.164062 51.957031 164.351562 51.703125 C 164.539062 51.449219 164.769531 51.238281 165.039062 51.074219 C 166 50.488281 167.003906 49.992188 168.046875 49.582031 C 169.09375 49.171875 170.167969 48.855469 171.269531 48.632812 C 172.371094 48.40625 173.484375 48.28125 174.609375 48.25 C 175.730469 48.21875 176.847656 48.28125 177.960938 48.445312 C 179.074219 48.605469 180.164062 48.863281 181.230469 49.214844 C 182.300781 49.566406 183.328125 50.003906 184.320312 50.535156 C 185.3125 51.0625 186.25 51.671875 187.136719 52.363281 C 188.023438 53.054688 188.84375 53.816406 189.597656 54.652344 C 190.515625 50.257812 190.71875 45.835938 190.210938 41.378906 C 189.894531 38.808594 189.230469 36.332031 188.21875 33.953125 C 187.203125 31.570312 185.878906 29.375 184.246094 27.367188 C 183.785156 29.824219 182.882812 32.105469 181.542969 34.214844 C 181.375 34.480469 181.15625 34.703125 180.898438 34.882812 C 180.640625 35.0625 180.355469 35.1875 180.046875 35.257812 C 179.738281 35.324219 179.425781 35.328125 179.117188 35.273438 C 178.804688 35.21875 178.515625 35.105469 178.25 34.933594 C 177.984375 34.765625 177.761719 34.550781 177.578125 34.289062 C 177.398438 34.03125 177.273438 33.746094 177.207031 33.4375 C 177.136719 33.128906 177.132812 32.820312 177.1875 32.507812 C 177.242188 32.195312 177.355469 31.90625 177.523438 31.640625 C 178.359375 30.328125 178.96875 28.917969 179.359375 27.410156 C 179.746094 25.902344 179.890625 24.371094 179.792969 22.820312 C 179.785156 22.707031 179.785156 22.59375 179.792969 22.476562 C 179.742188 21.902344 179.65625 21.328125 179.542969 20.757812 C 179.433594 20.1875 179.289062 19.628906 179.121094 19.074219 C 178.949219 18.519531 178.753906 17.972656 178.527344 17.4375 C 178.300781 16.90625 178.050781 16.382812 177.769531 15.875 C 177.492188 15.367188 177.1875 14.871094 176.859375 14.394531 C 176.53125 13.917969 176.175781 13.457031 175.800781 13.015625 C 175.425781 12.574219 175.027344 12.152344 174.609375 11.753906 C 174.1875 11.351562 173.75 10.972656 173.292969 10.617188 C 172.835938 10.261719 172.359375 9.929688 171.867188 9.621094 C 171.375 9.3125 170.871094 9.03125 170.347656 8.777344 C 169.828125 8.519531 169.296875 8.292969 168.753906 8.089844 C 168.207031 7.886719 167.65625 7.714844 167.09375 7.570312 C 166.53125 7.425781 165.964844 7.308594 165.390625 7.222656 C 164.816406 7.132812 164.242188 7.074219 163.664062 7.046875 C 163.082031 7.019531 162.503906 7.019531 161.925781 7.050781 C 161.34375 7.082031 160.769531 7.140625 160.195312 7.230469 L 160.078125 7.261719 C 157.332031 7.6875 154.90625 8.808594 152.796875 10.617188 C 152.558594 10.832031 152.289062 10.988281 151.984375 11.09375 C 151.683594 11.195312 151.371094 11.238281 151.054688 11.214844 C 150.734375 11.195312 150.433594 11.109375 150.144531 10.96875 C 149.859375 10.824219 149.613281 10.632812 149.40625 10.390625 C 149.195312 10.148438 149.042969 9.875 148.945312 9.570312 C 148.847656 9.265625 148.808594 8.953125 148.835938 8.636719 C 148.863281 8.316406 148.949219 8.015625 149.097656 7.734375 C 149.246094 7.449219 149.441406 7.207031 149.6875 7 C 151.195312 5.707031 152.859375 4.667969 154.6875 3.882812 C 152.46875 2.746094 150.148438 1.902344 147.71875 1.347656 C 141.613281 0.113281 134.035156 0.839844 128.242188 4.949219 C 130.5625 5.863281 132.621094 7.1875 134.414062 8.925781 C 134.632812 9.148438 134.796875 9.402344 134.914062 9.6875 C 135.03125 9.976562 135.089844 10.273438 135.09375 10.585938 C 135.09375 10.894531 135.035156 11.195312 134.917969 11.480469 C 134.804688 11.769531 134.636719 12.023438 134.421875 12.246094 C 134.207031 12.46875 133.957031 12.644531 133.675781 12.769531 C 133.390625 12.894531 133.09375 12.964844 132.785156 12.972656 C 132.476562 12.984375 132.175781 12.9375 131.882812 12.828125 C 131.59375 12.722656 131.332031 12.566406 131.101562 12.355469 C 129.15625 10.46875 126.851562 9.25 124.191406 8.710938 L 124.074219 8.683594 C 122.613281 8.398438 121.140625 8.316406 119.65625 8.4375 C 118.171875 8.558594 116.734375 8.871094 115.335938 9.386719 C 113.9375 9.898438 112.632812 10.589844 111.425781 11.457031 C 110.21875 12.324219 109.148438 13.339844 108.214844 14.5 C 107.28125 15.660156 106.523438 16.925781 105.9375 18.292969 C 105.351562 19.664062 104.957031 21.085938 104.761719 22.558594 C 104.5625 24.035156 104.566406 25.507812 104.769531 26.984375 C 104.976562 28.457031 105.375 29.878906 105.964844 31.242188 C 106.035156 31.351562 106.097656 31.460938 106.152344 31.578125 C 106.886719 33.210938 107.902344 34.644531 109.191406 35.886719 C 109.417969 36.105469 109.59375 36.363281 109.71875 36.652344 C 109.847656 36.941406 109.914062 37.246094 109.917969 37.5625 C 109.921875 37.878906 109.867188 38.183594 109.75 38.476562 C 109.636719 38.773438 109.46875 39.03125 109.246094 39.261719 C 109.027344 39.488281 108.773438 39.664062 108.484375 39.789062 C 108.191406 39.917969 107.890625 39.984375 107.574219 39.988281 C 107.257812 39.992188 106.953125 39.9375 106.65625 39.820312 C 106.363281 39.707031 106.101562 39.539062 105.875 39.316406 C 104.589844 38.082031 103.507812 36.6875 102.621094 35.140625 C 100.730469 37.632812 99.578125 40.429688 99.160156 43.527344 C 98.21875 49.519531 99.28125 55.242188 102.679688 60.191406 C 102.828125 60.058594 102.988281 59.945312 103.167969 59.855469 C 105.945312 58.441406 108.890625 57.734375 112.007812 57.738281 C 112.324219 57.738281 112.628906 57.796875 112.921875 57.917969 C 113.214844 58.039062 113.472656 58.210938 113.695312 58.433594 C 113.917969 58.660156 114.089844 58.917969 114.210938 59.207031 C 114.332031 59.5 114.394531 59.804688 114.394531 60.121094 C 114.394531 60.4375 114.332031 60.742188 114.210938 61.035156 C 114.089844 61.328125 113.917969 61.585938 113.695312 61.808594 C 113.472656 62.03125 113.214844 62.203125 112.921875 62.324219 C 112.628906 62.445312 112.324219 62.507812 112.007812 62.507812 C 109.835938 62.5 107.769531 62.960938 105.804688 63.886719 C 104.445312 64.578125 103.207031 65.4375 102.078125 66.464844 C 100.953125 67.488281 99.984375 68.644531 99.167969 69.933594 C 98.351562 71.21875 97.71875 72.589844 97.269531 74.042969 C 96.824219 75.5 96.574219 76.988281 96.523438 78.511719 C 96.476562 80.03125 96.628906 81.535156 96.980469 83.015625 C 97.335938 84.496094 97.878906 85.90625 98.609375 87.242188 C 99.339844 88.578125 100.234375 89.792969 101.292969 90.890625 C 102.347656 91.988281 103.53125 92.921875 104.839844 93.703125 C 107.050781 94.9375 109.425781 95.554688 111.957031 95.554688 C 112.273438 95.554688 112.578125 95.617188 112.871094 95.738281 C 113.164062 95.859375 113.421875 96.03125 113.644531 96.253906 C 113.867188 96.476562 114.039062 96.734375 114.160156 97.027344 C 114.28125 97.320312 114.34375 97.625 114.34375 97.941406 C 114.34375 98.257812 114.28125 98.5625 114.160156 98.851562 C 114.039062 99.144531 113.867188 99.402344 113.644531 99.628906 C 113.421875 99.851562 113.164062 100.023438 112.871094 100.144531 C 112.578125 100.265625 112.273438 100.324219 111.957031 100.324219 C 108.394531 100.328125 105.078125 99.417969 102.019531 97.589844 L 101.917969 97.527344 C 101.039062 99.066406 100.375 100.695312 99.929688 102.410156 C 99.480469 104.128906 99.269531 105.871094 99.292969 107.644531 C 99.3125 109.417969 99.566406 111.160156 100.054688 112.863281 C 100.539062 114.570312 101.242188 116.179688 102.160156 117.699219 L 102.210938 117.65625 C 104.183594 116.144531 106.375 115.085938 108.785156 114.472656 C 109.089844 114.394531 109.402344 114.378906 109.714844 114.425781 C 110.027344 114.46875 110.320312 114.570312 110.589844 114.730469 C 110.863281 114.894531 111.09375 115.101562 111.285156 115.351562 C 111.476562 115.605469 111.609375 115.886719 111.6875 116.191406 C 111.769531 116.496094 111.785156 116.808594 111.742188 117.121094 C 111.695312 117.433594 111.59375 117.726562 111.433594 118 C 111.273438 118.269531 111.066406 118.503906 110.816406 118.691406 C 110.5625 118.882812 110.285156 119.019531 109.976562 119.097656 C 108.199219 119.550781 106.578125 120.332031 105.125 121.453125 C 105.011719 121.535156 104.894531 121.609375 104.773438 121.675781 C 104.332031 122.03125 103.914062 122.414062 103.511719 122.816406 C 103.113281 123.21875 102.734375 123.644531 102.382812 124.089844 C 102.027344 124.53125 101.699219 124.992188 101.394531 125.472656 C 101.089844 125.953125 100.808594 126.445312 100.558594 126.957031 C 100.304688 127.464844 100.082031 127.984375 99.886719 128.519531 C 99.691406 129.050781 99.523438 129.59375 99.386719 130.144531 C 99.25 130.695312 99.140625 131.253906 99.0625 131.816406 C 98.984375 132.378906 98.9375 132.945312 98.921875 133.511719 C 98.902344 134.078125 98.917969 134.644531 98.960938 135.210938 C 99.003906 135.777344 99.078125 136.339844 99.183594 136.898438 C 99.285156 137.457031 99.417969 138.007812 99.582031 138.554688 C 99.746094 139.097656 99.9375 139.632812 100.15625 140.15625 C 100.378906 140.679688 100.625 141.1875 100.902344 141.683594 C 101.175781 142.183594 101.476562 142.664062 101.804688 143.128906 C 102.128906 143.589844 102.480469 144.039062 102.855469 144.464844 C 103.230469 144.890625 103.625 145.296875 104.046875 145.679688 C 104.464844 146.066406 104.902344 146.425781 105.359375 146.765625 C 105.8125 147.101562 106.289062 147.414062 106.777344 147.699219 C 107.269531 147.988281 107.773438 148.246094 108.292969 148.480469 C 108.808594 148.710938 109.339844 148.914062 109.878906 149.089844 C 110.417969 149.265625 110.964844 149.414062 111.523438 149.53125 C 112.078125 149.648438 112.640625 149.734375 113.203125 149.792969 C 113.769531 149.847656 114.335938 149.875 114.902344 149.871094 C 115.472656 149.867188 116.039062 149.832031 116.601562 149.765625 C 117.167969 149.703125 117.726562 149.609375 118.28125 149.484375 C 118.832031 149.359375 119.378906 149.203125 119.917969 149.019531 C 120.453125 148.835938 120.980469 148.625 121.496094 148.386719 C 122.011719 148.144531 122.511719 147.878906 122.996094 147.585938 C 123.484375 147.292969 123.953125 146.972656 124.40625 146.628906 C 124.855469 146.285156 125.289062 145.917969 125.703125 145.527344 C 126.113281 145.136719 126.503906 144.726562 126.875 144.296875 C 127.242188 143.863281 127.585938 143.414062 127.90625 142.941406 C 127.960938 142.773438 128.035156 142.609375 128.128906 142.457031 C 128.8125 141.332031 129.320312 140.132812 129.652344 138.859375 C 129.722656 138.542969 129.847656 138.253906 130.035156 137.988281 C 130.226562 137.722656 130.457031 137.507812 130.734375 137.335938 C 131.007812 137.167969 131.308594 137.058594 131.628906 137.011719 C 131.949219 136.960938 132.265625 136.976562 132.578125 137.058594 C 132.894531 137.140625 133.179688 137.28125 133.4375 137.476562 C 133.691406 137.675781 133.902344 137.914062 134.058594 138.195312 C 134.21875 138.480469 134.316406 138.78125 134.351562 139.105469 C 134.390625 139.425781 134.359375 139.742188 134.269531 140.054688 C 133.9375 141.324219 133.476562 142.550781 132.878906 143.722656 C 133.988281 143.871094 135.101562 143.910156 136.21875 143.835938 C 136.96875 143.796875 137.707031 143.695312 138.4375 143.539062 C 139.171875 143.382812 139.886719 143.167969 140.585938 142.898438 C 141.285156 142.628906 141.957031 142.308594 142.605469 141.933594 C 143.253906 141.558594 143.871094 141.136719 144.453125 140.667969 C 145.035156 140.199219 145.578125 139.683594 146.078125 139.128906 C 146.582031 138.574219 147.039062 137.984375 147.449219 137.355469 C 147.859375 136.730469 148.214844 136.074219 148.523438 135.394531 C 148.832031 134.710938 149.085938 134.007812 149.28125 133.285156 C 148.128906 133.285156 146.980469 133.199219 145.835938 133.027344 C 145.523438 132.980469 145.230469 132.875 144.960938 132.714844 C 144.6875 132.550781 144.460938 132.339844 144.269531 132.085938 C 144.082031 131.832031 143.953125 131.550781 143.875 131.246094 C 143.796875 130.9375 143.785156 130.628906 143.832031 130.316406 C 143.878906 130.003906 143.984375 129.710938 144.144531 129.4375 C 144.308594 129.167969 144.515625 128.9375 144.773438 128.75 C 145.027344 128.5625 145.308594 128.429688 145.613281 128.351562 C 145.921875 128.277344 146.230469 128.261719 146.542969 128.308594 C 147.597656 128.46875 148.660156 128.539062 149.722656 128.511719 L 149.773438 128.511719 C 150.039062 128.511719 150.296875 128.554688 150.546875 128.644531 C 153.445312 128.46875 156.21875 127.785156 158.863281 126.59375 C 160.953125 125.644531 162.855469 124.40625 164.5625 122.875 C 166.269531 121.339844 167.707031 119.585938 168.875 117.609375 C 165.5625 117.492188 162.480469 116.589844 159.628906 114.898438 C 159.351562 114.738281 159.121094 114.53125 158.929688 114.277344 C 158.738281 114.023438 158.605469 113.742188 158.523438 113.4375 C 158.445312 113.128906 158.429688 112.816406 158.476562 112.503906 C 158.519531 112.1875 158.625 111.894531 158.785156 111.621094 C 158.949219 111.351562 159.15625 111.117188 159.414062 110.929688 C 159.667969 110.738281 159.949219 110.605469 160.257812 110.53125 C 160.5625 110.453125 160.875 110.4375 161.1875 110.484375 C 161.503906 110.53125 161.796875 110.636719 162.066406 110.800781 C 163.441406 111.621094 164.914062 112.203125 166.476562 112.542969 C 168.042969 112.882812 169.621094 112.964844 171.210938 112.789062 C 184.085938 109.140625 186.523438 90.925781 180.914062 84.378906 C 180.75 84.273438 180.601562 84.148438 180.464844 84.007812 C 179.507812 82.972656 178.421875 82.101562 177.210938 81.382812 C 176.96875 81.210938 176.765625 81 176.601562 80.753906 C 176.4375 80.503906 176.324219 80.234375 176.257812 79.945312 C 176.195312 79.652344 176.1875 79.363281 176.234375 79.066406 C 176.28125 78.773438 176.375 78.5 176.527344 78.242188 C 176.675781 77.984375 176.867188 77.761719 177.097656 77.574219 C 177.328125 77.390625 177.585938 77.25 177.871094 77.164062 C 178.15625 77.074219 178.445312 77.039062 178.742188 77.054688 C 179.039062 77.074219 179.320312 77.148438 179.59375 77.273438 C 181.195312 78.226562 182.632812 79.386719 183.90625 80.75 C 184.121094 80.984375 184.28125 81.25 184.394531 81.546875 C 189.816406 76.003906 191.851562 67.167969 187.992188 60.453125 C 187.875 60.332031 187.777344 60.199219 187.691406 60.054688 Z M 149.699219 31.402344 C 149.753906 31.089844 149.863281 30.800781 150.03125 30.535156 C 150.199219 30.265625 150.410156 30.042969 150.667969 29.859375 C 150.925781 29.675781 151.207031 29.546875 151.515625 29.476562 C 151.824219 29.40625 152.132812 29.394531 152.445312 29.445312 C 153.027344 29.539062 153.613281 29.574219 154.199219 29.550781 C 154.789062 29.53125 155.371094 29.449219 155.945312 29.3125 C 156.519531 29.175781 157.074219 28.984375 157.609375 28.738281 C 158.144531 28.492188 158.652344 28.199219 159.128906 27.851562 C 159.605469 27.507812 160.046875 27.117188 160.449219 26.6875 C 160.847656 26.253906 161.203125 25.785156 161.515625 25.285156 C 161.824219 24.78125 162.082031 24.253906 162.285156 23.703125 C 162.492188 23.148438 162.640625 22.582031 162.734375 22 C 162.792969 21.695312 162.90625 21.410156 163.078125 21.148438 C 163.246094 20.882812 163.460938 20.664062 163.714844 20.484375 C 163.972656 20.308594 164.253906 20.183594 164.558594 20.117188 C 164.863281 20.046875 165.167969 20.039062 165.476562 20.089844 C 165.785156 20.144531 166.074219 20.25 166.335938 20.417969 C 166.601562 20.582031 166.828125 20.789062 167.011719 21.042969 C 167.195312 21.296875 167.324219 21.574219 167.398438 21.878906 C 167.472656 22.179688 167.484375 22.488281 167.4375 22.796875 C 167.308594 23.59375 167.109375 24.371094 166.839844 25.132812 C 166.570312 25.894531 166.238281 26.625 165.84375 27.328125 C 165.445312 28.03125 164.992188 28.695312 164.480469 29.316406 C 163.964844 29.941406 163.402344 30.515625 162.789062 31.039062 C 162.175781 31.5625 161.519531 32.03125 160.824219 32.441406 C 160.128906 32.851562 159.40625 33.195312 158.648438 33.476562 C 157.890625 33.761719 157.117188 33.976562 156.324219 34.121094 C 155.53125 34.265625 154.730469 34.34375 153.921875 34.347656 C 153.167969 34.347656 152.417969 34.285156 151.671875 34.15625 C 151.359375 34.105469 151.066406 34 150.796875 33.832031 C 150.523438 33.664062 150.296875 33.449219 150.113281 33.191406 C 149.925781 32.933594 149.796875 32.648438 149.726562 32.339844 C 149.65625 32.027344 149.648438 31.714844 149.699219 31.402344 Z M 132.9375 120.8125 C 132.910156 121.125 132.820312 121.425781 132.675781 121.707031 C 132.53125 121.988281 132.335938 122.230469 132.09375 122.433594 C 131.851562 122.636719 131.578125 122.785156 131.277344 122.878906 C 130.976562 122.976562 130.667969 123.007812 130.351562 122.980469 C 129.753906 122.929688 129.15625 122.9375 128.558594 123.003906 C 127.964844 123.070312 127.378906 123.195312 126.808594 123.375 C 126.234375 123.558594 125.6875 123.792969 125.160156 124.082031 C 124.632812 124.371094 124.140625 124.710938 123.683594 125.097656 C 123.222656 125.484375 122.804688 125.910156 122.429688 126.378906 C 122.054688 126.847656 121.730469 127.347656 121.453125 127.882812 C 121.179688 128.414062 120.957031 128.96875 120.789062 129.546875 C 120.621094 130.121094 120.511719 130.707031 120.460938 131.308594 C 120.433594 131.605469 120.355469 131.890625 120.222656 132.15625 C 120.09375 132.425781 119.914062 132.660156 119.695312 132.863281 C 119.472656 133.066406 119.222656 133.222656 118.945312 133.328125 C 118.664062 133.4375 118.375 133.492188 118.074219 133.488281 L 117.867188 133.488281 C 117.554688 133.460938 117.257812 133.375 116.976562 133.230469 C 116.695312 133.085938 116.453125 132.890625 116.25 132.648438 C 116.046875 132.40625 115.894531 132.136719 115.800781 131.832031 C 115.707031 131.53125 115.671875 131.222656 115.699219 130.910156 C 115.777344 130 115.941406 129.105469 116.195312 128.226562 C 116.453125 127.351562 116.789062 126.507812 117.210938 125.695312 C 117.628906 124.886719 118.125 124.125 118.695312 123.410156 C 119.265625 122.695312 119.902344 122.046875 120.601562 121.457031 C 121.300781 120.871094 122.046875 120.355469 122.847656 119.914062 C 123.648438 119.472656 124.484375 119.117188 125.355469 118.839844 C 126.226562 118.5625 127.113281 118.375 128.023438 118.273438 C 128.929688 118.171875 129.839844 118.160156 130.75 118.238281 C 131.066406 118.265625 131.363281 118.347656 131.644531 118.492188 C 131.925781 118.636719 132.171875 118.832031 132.375 119.070312 C 132.582031 119.3125 132.730469 119.585938 132.828125 119.886719 C 132.925781 120.1875 132.960938 120.496094 132.9375 120.8125 Z M 125.46875 89.054688 C 124.800781 87.789062 123.917969 86.695312 122.8125 85.777344 C 121.710938 84.859375 120.476562 84.1875 119.109375 83.761719 C 118.8125 83.660156 118.546875 83.507812 118.308594 83.304688 C 118.070312 83.097656 117.882812 82.855469 117.742188 82.578125 C 117.597656 82.296875 117.515625 82 117.492188 81.6875 C 117.464844 81.378906 117.5 81.070312 117.597656 80.773438 C 117.691406 80.476562 117.839844 80.207031 118.042969 79.964844 C 118.242188 79.726562 118.480469 79.535156 118.757812 79.386719 C 119.035156 79.242188 119.332031 79.152344 119.644531 79.125 C 119.953125 79.09375 120.261719 79.125 120.558594 79.214844 C 122.527344 79.832031 124.304688 80.796875 125.886719 82.117188 C 127.472656 83.4375 128.746094 85.011719 129.703125 86.835938 C 130.664062 88.660156 131.234375 90.59375 131.414062 92.648438 C 131.589844 94.699219 131.363281 96.703125 130.730469 98.664062 C 130.570312 99.160156 130.285156 99.558594 129.863281 99.867188 C 129.445312 100.171875 128.976562 100.324219 128.457031 100.324219 C 128.207031 100.324219 127.96875 100.289062 127.730469 100.210938 C 127.429688 100.113281 127.160156 99.964844 126.917969 99.761719 C 126.675781 99.554688 126.484375 99.3125 126.339844 99.03125 C 126.191406 98.75 126.105469 98.453125 126.082031 98.136719 C 126.054688 97.824219 126.089844 97.515625 126.183594 97.214844 C 126.621094 95.859375 126.777344 94.476562 126.652344 93.0625 C 126.527344 91.648438 126.132812 90.3125 125.46875 89.054688 Z M 129.609375 52.480469 C 128.492188 52.71875 127.359375 52.839844 126.21875 52.84375 C 124.734375 52.855469 123.28125 52.640625 121.867188 52.195312 C 120.449219 51.75 119.136719 51.097656 117.929688 50.234375 C 117.660156 50.054688 117.4375 49.828125 117.261719 49.558594 C 117.085938 49.289062 116.96875 48.996094 116.914062 48.675781 C 116.855469 48.359375 116.863281 48.042969 116.933594 47.730469 C 117.007812 47.414062 117.136719 47.125 117.324219 46.863281 C 117.511719 46.601562 117.746094 46.386719 118.019531 46.21875 C 118.296875 46.050781 118.59375 45.945312 118.910156 45.898438 C 119.230469 45.851562 119.546875 45.867188 119.859375 45.949219 C 120.171875 46.027344 120.457031 46.167969 120.710938 46.363281 C 122.878906 47.917969 125.6875 48.433594 128.621094 47.8125 C 130.441406 47.425781 132.085938 46.667969 133.554688 45.53125 C 132.144531 44.828125 130.824219 43.984375 129.59375 42.996094 C 128.359375 42.011719 127.25 40.902344 126.253906 39.679688 C 125.261719 38.453125 124.40625 37.140625 123.695312 35.730469 C 122.980469 34.324219 122.425781 32.859375 122.027344 31.332031 C 121.960938 31.03125 121.953125 30.726562 122.007812 30.421875 C 122.058594 30.117188 122.164062 29.835938 122.324219 29.574219 C 122.488281 29.308594 122.691406 29.085938 122.941406 28.902344 C 123.1875 28.722656 123.460938 28.589844 123.761719 28.511719 C 124.058594 28.4375 124.363281 28.417969 124.667969 28.457031 C 124.972656 28.496094 125.261719 28.59375 125.53125 28.746094 C 125.796875 28.898438 126.027344 29.09375 126.222656 29.332031 C 126.414062 29.574219 126.554688 29.84375 126.644531 30.140625 C 126.789062 30.6875 126.957031 31.230469 127.15625 31.765625 C 127.355469 32.296875 127.578125 32.820312 127.828125 33.332031 C 128.074219 33.84375 128.347656 34.34375 128.648438 34.828125 C 128.945312 35.3125 129.265625 35.78125 129.609375 36.234375 C 129.953125 36.6875 130.320312 37.125 130.707031 37.542969 C 131.09375 37.960938 131.5 38.359375 131.925781 38.734375 C 132.351562 39.113281 132.792969 39.46875 133.253906 39.804688 C 133.714844 40.136719 134.191406 40.449219 134.683594 40.734375 C 135.175781 41.023438 135.679688 41.285156 136.195312 41.523438 C 136.710938 41.761719 137.238281 41.972656 137.777344 42.160156 C 138.316406 42.347656 138.859375 42.503906 139.414062 42.636719 C 139.96875 42.769531 140.527344 42.875 141.089844 42.953125 C 141.65625 43.03125 142.222656 43.082031 142.789062 43.105469 C 143.359375 43.125 143.925781 43.121094 144.496094 43.085938 C 145.0625 43.054688 145.628906 42.992188 146.191406 42.902344 C 146.753906 42.8125 147.308594 42.699219 147.859375 42.554688 C 148.171875 42.460938 148.488281 42.433594 148.808594 42.46875 C 149.132812 42.503906 149.433594 42.601562 149.714844 42.761719 C 149.996094 42.921875 150.238281 43.128906 150.433594 43.386719 C 150.632812 43.644531 150.773438 43.929688 150.851562 44.242188 C 150.933594 44.554688 150.949219 44.875 150.902344 45.195312 C 150.855469 45.515625 150.746094 45.8125 150.574219 46.089844 C 150.40625 46.363281 150.1875 46.597656 149.925781 46.785156 C 149.660156 46.972656 149.367188 47.101562 149.050781 47.167969 C 147.214844 47.652344 145.347656 47.890625 143.445312 47.894531 C 141.808594 47.890625 140.1875 47.707031 138.589844 47.34375 C 137.398438 48.652344 136.035156 49.742188 134.503906 50.621094 C 132.96875 51.496094 131.335938 52.117188 129.609375 52.480469 Z M 173.582031 69.738281 C 172.523438 71 171.347656 72.144531 170.0625 73.171875 C 168.777344 74.199219 167.402344 75.09375 165.9375 75.847656 C 164.476562 76.605469 162.953125 77.207031 161.371094 77.664062 C 159.789062 78.117188 158.175781 78.410156 156.535156 78.542969 C 155.820312 78.605469 155.105469 78.632812 154.394531 78.632812 C 153.789062 78.632812 153.179688 78.605469 152.578125 78.558594 C 153.15625 80.761719 154.273438 82.644531 155.933594 84.203125 C 157.113281 85.316406 158.457031 86.164062 159.972656 86.746094 C 161.488281 87.324219 163.058594 87.589844 164.679688 87.542969 C 164.996094 87.539062 165.300781 87.589844 165.597656 87.707031 C 165.890625 87.820312 166.152344 87.988281 166.382812 88.207031 C 166.609375 88.425781 166.789062 88.679688 166.917969 88.96875 C 167.042969 89.261719 167.109375 89.5625 167.117188 89.878906 C 167.125 90.195312 167.070312 90.503906 166.953125 90.796875 C 166.839844 91.09375 166.671875 91.355469 166.453125 91.582031 C 166.234375 91.8125 165.980469 91.988281 165.6875 92.117188 C 165.398438 92.242188 165.097656 92.308594 164.78125 92.316406 L 164.410156 92.316406 C 162.226562 92.324219 160.121094 91.925781 158.089844 91.121094 C 156.058594 90.320312 154.253906 89.167969 152.667969 87.667969 C 151.261719 86.347656 150.121094 84.828125 149.246094 83.113281 C 148.367188 81.394531 147.808594 79.582031 147.5625 77.667969 C 144.097656 76.683594 140.996094 75.03125 138.246094 72.703125 C 138 72.5 137.800781 72.257812 137.652344 71.976562 C 137.503906 71.695312 137.414062 71.394531 137.386719 71.078125 C 137.355469 70.757812 137.390625 70.445312 137.484375 70.140625 C 137.582031 69.835938 137.734375 69.5625 137.941406 69.320312 C 138.144531 69.074219 138.390625 68.882812 138.675781 68.734375 C 138.960938 68.589844 139.261719 68.507812 139.578125 68.480469 C 139.898438 68.457031 140.210938 68.496094 140.511719 68.597656 C 140.816406 68.699219 141.085938 68.851562 141.328125 69.0625 C 143.90625 71.253906 146.847656 72.703125 150.15625 73.410156 L 150.320312 73.445312 C 152.242188 73.839844 154.179688 73.953125 156.132812 73.789062 C 157.460938 73.683594 158.769531 73.445312 160.050781 73.078125 C 161.332031 72.710938 162.566406 72.222656 163.753906 71.609375 C 164.9375 70.996094 166.050781 70.277344 167.09375 69.441406 C 168.136719 68.609375 169.085938 67.683594 169.945312 66.660156 C 170.148438 66.421875 170.390625 66.230469 170.671875 66.085938 C 170.953125 65.941406 171.25 65.855469 171.5625 65.832031 C 171.878906 65.804688 172.183594 65.839844 172.484375 65.9375 C 172.785156 66.03125 173.058594 66.183594 173.296875 66.386719 C 173.539062 66.589844 173.730469 66.832031 173.875 67.109375 C 174.023438 67.390625 174.109375 67.6875 174.136719 68 C 174.164062 68.316406 174.128906 68.625 174.035156 68.925781 C 173.941406 69.226562 173.792969 69.496094 173.589844 69.738281 Z M 173.582031 69.738281 " fill-opacity="1" fill-rule="nonzero"/></g></svg>