<svg width="190" height="71" viewBox="0 0 190 71" fill="none" xmlns="http://www.w3.org/2000/svg">
<g clip-path="url(#clip0_26_315)">
<mask id="mask0_26_315" style="mask-type:luminance" maskUnits="userSpaceOnUse" x="0" y="0" width="70" height="71">
<path d="M0 0.697937H69.6277V70.2894H0V0.697937Z" fill="white"/>
</mask>
<g mask="url(#mask0_26_315)">
<path d="M0 0.697937H69.6275V70.2947H0V0.697937Z" stroke="white" stroke-width="4"/>
</g>
<path d="M37.0115 36.0724H14.8548C15.1156 38.5545 16.1674 40.6013 18.0137 42.217C19.8601 43.8333 22.0379 44.626 24.5478 44.5976C28.4433 44.5397 31.2267 42.7362 32.901 39.1878H36.4059C35.4821 41.842 33.9244 43.9474 31.7327 45.5069C29.5398 47.0647 27.1029 47.8592 24.4204 47.8876C21.0447 47.9456 18.0584 46.7121 15.4622 44.1877C12.8642 41.6627 11.5371 38.6559 11.4791 35.1655C11.3928 31.4728 12.6975 28.2916 15.3952 25.6241C18.0922 22.9548 21.2735 21.7219 24.9378 21.9224C28.2278 22.1246 31.0824 23.4801 33.506 25.99C35.8438 28.4715 37.0115 31.2404 37.0115 34.2973V36.0724ZM33.765 33.0439C33.3037 30.7362 32.2199 28.867 30.5203 27.439C28.8183 26.0105 26.7841 25.283 24.4186 25.2534C22.053 25.225 19.9839 25.932 18.2082 27.3732C16.4331 28.8162 15.3161 30.706 14.8548 33.0414H33.765V33.0439Z" fill="white"/>
<mask id="mask1_26_315" style="mask-type:luminance" maskUnits="userSpaceOnUse" x="31" y="20" width="22" height="35">
<path d="M31.6226 20.4915H52.5523V54.4241H31.6226V20.4915Z" fill="white"/>
</mask>
<g mask="url(#mask1_26_315)">
<path d="M48.7366 24.2486C46.1101 21.6524 43.008 20.4134 39.4312 20.5275C36.4359 20.6024 33.8433 21.6017 31.6504 23.5192C32.4751 24.0832 33.2588 24.7473 33.9991 25.5153L34.0045 25.5207C34.0607 25.5811 34.1168 25.6409 34.1717 25.7013C35.7065 24.4563 37.4744 23.7982 39.4747 23.7293C42.1983 23.585 44.524 24.5275 46.4513 26.5556C48.3779 28.5843 49.3138 30.9607 49.2552 33.6844C49.1972 36.292 48.2692 38.5242 46.4736 40.3784C44.6762 42.232 42.5165 43.16 39.9957 43.16C38.4434 43.16 37.0264 42.8375 35.744 42.1963C35.1631 43.1467 34.4748 44.007 33.6821 44.7738C35.622 45.9101 37.7914 46.4403 40.1847 46.3618C43.7838 46.2175 46.8075 44.7606 49.2552 41.9904V54.4107H52.5451V33.4241C52.6297 29.9035 51.3605 26.8442 48.7366 24.2486Z" fill="white"/>
</g>
<path d="M30.0793 27.9655C29.6615 27.6153 29.2189 27.3092 28.7522 27.049C27.8375 28.6629 27.3128 30.4344 27.1758 32.361H30.4766C30.5853 31.2664 30.8721 30.2339 31.3352 29.2643C30.9681 28.7921 30.5497 28.3592 30.0793 27.9655Z" fill="white"/>
<path d="M30.2162 41.8257C30.9824 41.1097 31.6333 40.2058 32.1749 39.113C31.6466 38.38 31.2396 37.5951 30.951 36.7589H27.5542C28.0306 38.6107 28.9169 40.3 30.2162 41.8257Z" fill="white"/>
<path d="M55.6106 26.3982V28.7806H46.0673V26.8872L50.938 22.2846C51.4548 21.7944 51.8026 21.3717 51.9819 21.0167C52.1636 20.6611 52.2548 20.3091 52.2548 19.9595C52.2548 19.4548 52.0833 19.0671 51.7398 18.7966C51.3992 18.5268 50.8969 18.3915 50.2334 18.3915C49.6815 18.3915 49.1822 18.4972 48.736 18.7085C48.2928 18.9174 47.9197 19.2314 47.6178 19.651L45.4907 18.2816C45.9834 17.5474 46.6633 16.9733 47.5297 16.5597C48.3955 16.1455 49.3881 15.9384 50.5063 15.9384C51.4433 15.9384 52.2639 16.093 52.9685 16.4009C53.6731 16.7064 54.2207 17.1381 54.6107 17.696C55.0014 18.2539 55.197 18.9132 55.197 19.6733C55.197 20.3574 55.0515 21.0004 54.7611 21.6024C54.4731 22.2043 53.9152 22.8896 53.0874 23.6588L50.1808 26.3982H55.6106Z" stroke="#331D4A" stroke-width="1.39805"/>
<path d="M55.61 26.3993V28.7806H46.0679V26.8866L50.938 22.287C51.4554 21.7943 51.8044 21.3705 51.9843 21.0155C52.1648 20.6604 52.2548 20.3084 52.2548 19.9601C52.2548 19.4547 52.0833 19.0671 51.7404 18.7966C51.398 18.5255 50.8963 18.3903 50.2346 18.3903C49.6815 18.3903 49.1828 18.4953 48.7372 18.706C48.2922 18.9168 47.9197 19.2325 47.619 19.6534L45.4907 18.2822C45.984 17.5486 46.6632 16.9744 47.5291 16.5596C48.3949 16.1442 49.3869 15.9371 50.5051 15.9371C51.4433 15.9371 52.2644 16.0905 52.9672 16.3972C53.6712 16.7039 54.2183 17.1368 54.6089 17.6959C55.0001 18.255 55.1952 18.9137 55.1952 19.6715C55.1952 20.3574 55.0509 21.0004 54.7623 21.6017C54.4737 22.2025 53.9146 22.8878 53.0856 23.6576L50.1808 26.3993H55.61Z" fill="white"/>
<path d="M86.8194 18.1091C86.2217 18.1091 85.7483 17.9352 85.3993 17.5874C85.0515 17.2384 84.8777 16.7892 84.8777 16.2398C84.8777 15.6089 85.0763 15.0866 85.4742 14.6724C85.8733 14.257 86.4052 14.0493 87.0706 14.0493C87.7335 14.0493 88.2395 14.228 88.5872 14.5855C88.9362 14.9417 89.1113 15.3849 89.1113 15.9162C89.1113 16.5815 88.9115 17.1135 88.5124 17.5126C88.1145 17.9104 87.559 18.1091 86.846 18.1091H86.8194ZM85.5008 22.7412L83.7329 22.2679V20.599L88.2902 20.0508H88.3409L89.0364 20.5507V32.532L90.7053 32.73V34.225H83.7571V32.73L85.5008 32.5054V22.7412Z" fill="white"/>
<path d="M94.8918 22.7412L93.2979 22.2944V20.5749L97.4325 20.0508H97.5074L98.1304 20.5507V21.5216L98.1039 22.1181C98.6847 21.5711 99.44 21.0984 100.369 20.7005C101.3 20.3014 102.239 20.1015 103.185 20.1015C104.198 20.1015 104.991 20.2887 105.564 20.6618C106.137 21.0356 106.548 21.6206 106.798 22.4176C107.048 23.2146 107.173 24.2941 107.173 25.6562V32.532L108.692 32.73V34.225H102.265V32.73L103.61 32.532V25.6562C103.61 24.7934 103.551 24.1172 103.434 23.6276C103.318 23.1367 103.106 22.7793 102.799 22.5553C102.493 22.3319 102.057 22.2196 101.492 22.2196C100.546 22.2196 99.5324 22.6265 98.4541 23.4392V32.5054L99.9466 32.73V34.225H93.4476V32.73L94.8918 32.5054V22.7412Z" fill="white"/>
<path d="M114.221 32.1818C114.352 32.3816 114.655 32.5694 115.129 32.7445C115.602 32.9184 116.079 33.0053 116.561 33.0053C117.342 33.0053 117.927 32.8435 118.317 32.5199C118.708 32.1951 118.904 31.7664 118.904 31.2351C118.904 30.6881 118.663 30.2443 118.181 29.9044C117.7 29.5632 116.886 29.1436 115.74 28.6461L115.042 28.3466C113.897 27.8654 113.042 27.284 112.477 26.6029C111.912 25.9219 111.629 25.0422 111.629 23.9632C111.629 23.2164 111.853 22.548 112.301 21.9587C112.75 21.3682 113.381 20.9069 114.194 20.5749C115.009 20.2434 115.948 20.0774 117.01 20.0774C117.791 20.0774 118.459 20.1275 119.015 20.2271C119.571 20.3255 120.158 20.4583 120.773 20.6256C121.104 20.7415 121.353 20.8079 121.519 20.8236V24.0864H119.551L118.978 22.193C118.878 22.0275 118.654 21.8784 118.305 21.7462C117.957 21.6128 117.558 21.5457 117.109 21.5457C116.429 21.5457 115.886 21.6919 115.479 21.9829C115.071 22.2727 114.868 22.6754 114.868 23.1904C114.868 23.6559 115.009 24.0423 115.291 24.3497C115.574 24.6558 115.881 24.8924 116.213 25.0597C116.545 25.2257 117.159 25.4992 118.056 25.8808C118.953 26.2624 119.696 26.6283 120.285 26.9773C120.876 27.325 121.366 27.7779 121.756 28.3346C122.145 28.89 122.34 29.5663 122.34 30.3632C122.34 31.5937 121.858 32.5899 120.896 33.3531C119.933 34.1163 118.547 34.4979 116.737 34.4979C115.89 34.4979 115.13 34.423 114.457 34.2733C113.784 34.1253 113.008 33.9267 112.129 33.6767L111.581 33.5029V30.2135H113.648L114.221 32.1818Z" fill="white"/>
<path d="M128.343 18.1091C127.745 18.1091 127.272 17.9352 126.923 17.5874C126.575 17.2384 126.401 16.7892 126.401 16.2398C126.401 15.6089 126.6 15.0866 126.998 14.6724C127.397 14.257 127.929 14.0493 128.594 14.0493C129.257 14.0493 129.763 14.228 130.111 14.5855C130.46 14.9417 130.635 15.3849 130.635 15.9162C130.635 16.5815 130.435 17.1135 130.036 17.5126C129.638 17.9104 129.082 18.1091 128.369 18.1091H128.343ZM127.024 22.7412L125.256 22.2679V20.599L129.814 20.0508H129.864L130.56 20.5507V32.532L132.229 32.73V34.225H125.28V32.73L127.024 32.5054V22.7412Z" fill="white"/>
<path d="M141.048 40.951C138.822 40.951 137.211 40.6014 136.215 39.9028C135.218 39.2055 134.72 38.2594 134.72 37.0651C134.72 36.384 134.948 35.7398 135.406 35.133C135.863 34.5274 136.416 34.0752 137.063 33.7757C136.298 33.3284 135.916 32.6141 135.916 31.6336C135.916 31.0702 136.098 30.5359 136.464 30.0299C136.829 29.5228 137.303 29.1279 137.884 28.8441C136.971 28.4964 136.29 27.9662 135.841 27.2526C135.393 26.5377 135.169 25.69 135.169 24.7095C135.169 23.7628 135.447 22.9368 136.003 22.2316C136.559 21.5252 137.307 20.9806 138.246 20.599C139.185 20.2174 140.201 20.0266 141.297 20.0266C143.239 20.0266 144.685 20.4004 145.632 21.1472C145.847 20.8659 146.212 20.6002 146.726 20.3503C147.241 20.1009 147.773 19.9759 148.322 19.9759H149.194V22.6929H146.627C146.876 23.2242 147.001 23.7887 147.001 24.3859C147.017 25.8977 146.485 27.1065 145.407 28.0109C144.328 28.916 142.85 29.3682 140.973 29.3682C140.192 29.3682 139.536 29.3102 139.005 29.1943C138.839 29.4105 138.71 29.6387 138.618 29.8802C138.528 30.1205 138.483 30.3312 138.483 30.513C138.483 31.0624 138.677 31.4367 139.067 31.636C139.459 31.834 140.16 31.933 141.173 31.933H143.837C147.224 31.933 148.919 33.1623 148.919 35.6209C148.919 36.6497 148.553 37.5705 147.822 38.3837C147.093 39.1982 146.122 39.8292 144.909 40.2772C143.697 40.7264 142.41 40.951 141.048 40.951ZM141.222 27.8226C142.767 27.8226 143.54 26.7684 143.54 24.6588C143.54 23.5804 143.345 22.7883 142.953 22.2823C142.563 21.7752 141.97 21.5216 141.173 21.5216C140.392 21.5216 139.79 21.7752 139.367 22.2823C138.943 22.7883 138.732 23.5472 138.732 24.5598C138.732 26.7352 139.561 27.8226 141.222 27.8226ZM141.422 39.2314C142.468 39.2314 143.373 38.9779 144.137 38.4707C144.9 37.9647 145.281 37.2637 145.281 36.3671C145.281 35.6535 145.094 35.1391 144.721 34.8239C144.347 34.5081 143.679 34.3505 142.717 34.3505H140.002C139.587 34.3505 139.204 34.3252 138.855 34.2757C138.407 34.8728 138.183 35.5871 138.183 36.4179C138.183 37.3308 138.432 38.0275 138.93 38.5093C139.428 38.9905 140.259 39.2314 141.422 39.2314Z" fill="white"/>
<path d="M152.681 16.0152L150.787 15.6916V14.3463L155.419 13.8005H155.494L156.144 14.2715L156.168 19.8286L155.994 21.9949C156.507 21.53 157.209 21.0983 158.098 20.7005C158.986 20.3014 159.921 20.1015 160.902 20.1015C161.946 20.1015 162.759 20.2971 163.341 20.6884C163.922 21.0784 164.329 21.6713 164.56 22.4683C164.793 23.2653 164.911 24.3279 164.911 25.6562V32.5054L166.505 32.73V34.225H159.955V32.73L161.399 32.5054V25.6562C161.399 24.7934 161.34 24.1214 161.223 23.6396C161.107 23.1566 160.895 22.7992 160.588 22.5673C160.281 22.3355 159.829 22.2195 159.23 22.2195C158.716 22.2195 158.189 22.3403 157.648 22.5818C157.109 22.8221 156.632 23.1077 156.216 23.4392V32.5054L157.738 32.73V34.225H151.285V32.73L152.681 32.532V16.0152Z" fill="white"/>
<path d="M173.38 34.4496C172.333 34.4496 171.56 34.2093 171.062 33.7275C170.564 33.2463 170.315 32.4825 170.315 31.4356V22.2944H168.697V20.9975C168.829 20.948 169.07 20.8611 169.419 20.7367C169.768 20.6129 170.034 20.5091 170.216 20.4252C170.498 20.2096 170.739 19.8359 170.938 19.3046C171.088 18.9556 171.362 18.0916 171.76 16.7132H173.754L173.853 20.3744H177.664V22.2944H173.878V29.2934C173.878 30.2226 173.902 30.8789 173.953 31.2617C174.002 31.6433 174.11 31.8884 174.276 31.9959C174.442 32.1039 174.733 32.1577 175.148 32.1577C175.563 32.1577 175.994 32.1118 176.442 32.02C176.892 31.9282 177.266 31.8165 177.565 31.6843L178.039 33.0802C177.573 33.428 176.892 33.7438 175.996 34.0269C175.098 34.3083 174.227 34.4496 173.38 34.4496Z" fill="white"/>
<path d="M84.6071 56.2908H85.7554C85.8853 56.2908 85.9595 56.2165 85.9595 56.0867V50.4909C85.9595 48.9344 85.904 47.0446 85.8665 45.4693L85.904 45.4512C86.3858 46.4517 86.96 47.5451 87.5903 48.7122L89.9064 53.0111C89.9432 53.1034 90.0362 53.1596 90.1473 53.1596H91.129C91.2401 53.1596 91.3331 53.1034 91.3886 53.0111L93.7047 48.7122C94.3163 47.5451 94.8905 46.4517 95.3911 45.4512L95.4279 45.4693C95.3723 47.0446 95.3168 48.9344 95.3168 50.4909V56.0867C95.3168 56.2165 95.3911 56.2908 95.5209 56.2908H96.688C96.8178 56.2908 96.892 56.2165 96.892 56.0867V43.2463C96.892 43.1164 96.8178 43.0422 96.688 43.0422H95.28C95.1683 43.0422 95.0759 43.0796 95.0391 43.1907L92.1482 48.4345C91.6851 49.2683 90.9992 50.6394 90.6659 51.3434H90.6104C90.2771 50.6394 89.5912 49.2683 89.1281 48.4158L86.256 43.1907C86.2004 43.0796 86.1074 43.0422 86.0151 43.0422H84.6071C84.4585 43.0422 84.3843 43.1164 84.3843 43.2463V56.0867C84.3843 56.2165 84.4585 56.2908 84.6071 56.2908Z" fill="white"/>
<path d="M105.1 56.2908H106.342C106.471 56.2908 106.545 56.2352 106.583 56.1241L107.731 52.8257H113.29L114.42 56.1241C114.457 56.2352 114.55 56.2908 114.661 56.2908H115.903C116.051 56.2908 116.126 56.1984 116.069 56.0499L111.475 43.2088C111.437 43.0977 111.345 43.0422 111.234 43.0422H109.77C109.659 43.0422 109.584 43.0977 109.547 43.2088L104.933 56.0499C104.897 56.1984 104.952 56.2908 105.1 56.2908ZM108.213 51.3622L110.474 44.8028H110.548L112.808 51.3622H108.213Z" fill="white"/>
<path d="M132.413 43.0422H122.889C122.759 43.0422 122.685 43.1164 122.685 43.2463V44.2835C122.685 44.4133 122.759 44.4876 122.889 44.4876H126.854V56.0867C126.854 56.2165 126.947 56.2908 127.077 56.2908H128.225C128.355 56.2908 128.448 56.2165 128.448 56.0867V44.4876H132.413C132.543 44.4876 132.635 44.4133 132.635 44.2835V43.2463C132.635 43.1164 132.543 43.0422 132.413 43.0422Z" fill="white"/>
<path d="M148.496 56.2908H149.942C150.108 56.2908 150.183 56.1797 150.072 56.0311L146.31 50.9914C148.496 50.6207 149.793 49.2127 149.793 47.1001C149.793 44.5432 148.033 43.0422 145.124 43.0422H140.955C140.807 43.0422 140.732 43.1164 140.732 43.2463V56.0867C140.732 56.2165 140.807 56.2908 140.955 56.2908H142.104C142.233 56.2908 142.308 56.2165 142.308 56.0867V51.1213H144.549L148.237 56.1609C148.293 56.2539 148.385 56.2908 148.496 56.2908ZM142.308 44.4876H145.142C147.144 44.4876 148.181 45.3582 148.181 47.1001C148.181 48.842 147.144 49.6945 145.142 49.6945H142.308V44.4876Z" fill="white"/>
<path d="M160.226 56.0867V43.2463C160.226 43.1164 160.152 43.0422 160.022 43.0422H158.874C158.725 43.0422 158.651 43.1164 158.651 43.2463V56.0867C158.651 56.2165 158.725 56.2908 158.874 56.2908H160.022C160.152 56.2908 160.226 56.2165 160.226 56.0867Z" fill="white"/>
<path d="M178.644 56.0311L174.494 49.639L178.441 43.3018C178.533 43.172 178.459 43.0422 178.311 43.0422H176.902C176.81 43.0422 176.717 43.0977 176.661 43.1907L173.586 48.3602L170.491 43.1907C170.436 43.0977 170.343 43.0422 170.25 43.0422H168.842C168.675 43.0422 168.602 43.172 168.694 43.3018L172.66 49.639L168.49 56.0311C168.397 56.1609 168.472 56.2908 168.638 56.2908H170.065C170.176 56.2908 170.269 56.2352 170.325 56.1422L173.586 50.8804L176.829 56.1422C176.884 56.2352 176.976 56.2908 177.088 56.2908H178.514C178.682 56.2908 178.737 56.1609 178.644 56.0311Z" fill="white"/>
</g>
<defs>
<clipPath id="clip0_26_315">
<rect width="190" height="69.6705" fill="white" transform="translate(0 0.664795)"/>
</clipPath>
</defs>
</svg>
