<svg width="35" height="37" viewBox="0 0 35 37" fill="none" xmlns="http://www.w3.org/2000/svg">
<mask id="mask0_10_2780" style="mask-type:luminance" maskUnits="userSpaceOnUse" x="0" y="0" width="33" height="36">
<path d="M0.344727 0.449654H32.93V35.2072H0.344727V0.449654Z" fill="white"/>
</mask>
<g mask="url(#mask0_10_2780)">
<path d="M12.9 0.449654C8.74798 0.449654 5.36682 3.83665 5.36682 7.9828C5.36682 12.1289 8.74798 15.5159 12.9 15.5159C17.0461 15.5159 20.4273 12.1289 20.4273 7.9828C20.4273 3.83665 17.0461 0.449654 12.9 0.449654ZM12.9 15.5159C5.97415 15.5159 0.344727 21.1454 0.344727 28.0653H2.85577C2.85577 22.5235 7.35814 18.027 12.9 18.027C14.1205 18.027 15.2884 18.2781 16.3804 18.681C17.0636 18.0153 17.852 17.4781 18.6929 17.0051C16.9468 16.0824 14.9964 15.5159 12.9 15.5159ZM12.9 2.9607C15.6796 2.9607 17.9162 5.19729 17.9162 7.9828C17.9162 10.7683 15.6796 13.0049 12.9 13.0049C10.1145 13.0049 7.87787 10.7683 7.87787 7.9828C7.87787 5.19729 10.1145 2.9607 12.9 2.9607ZM22.9383 18.027V20.6724C22.1441 20.8417 21.4083 21.1629 20.7543 21.595L18.8681 19.7088L17.0928 21.4841L18.979 23.3703C18.5352 24.0243 18.214 24.7601 18.0447 25.5543H15.4052V28.0653H18.0447C18.214 28.8712 18.5469 29.5953 18.979 30.2552L17.0928 32.1356L18.8681 33.9108L20.7543 32.0305C21.4083 32.4568 22.1441 32.7838 22.9383 32.9473V35.5985H25.4494V32.959C26.2552 32.7955 26.991 32.4801 27.6451 32.0363L29.5196 33.9108L31.2949 32.1356L29.4203 30.2611C29.8641 29.607 30.1736 28.8595 30.343 28.0653H32.9825V25.5543H30.343C30.1736 24.7543 29.8641 24.0185 29.4203 23.3586L31.2949 21.4841L29.5196 19.7088L27.6451 21.5833C26.991 21.1454 26.2436 20.83 25.4494 20.6607V18.027H22.9383ZM24.1938 23.0432C26.2903 23.0432 27.9604 24.7134 27.9604 26.8098C27.9604 28.9121 26.2903 30.5764 24.1938 30.5764C22.0974 30.5764 20.4273 28.9121 20.4273 26.8098C20.4273 24.7134 22.0974 23.0432 24.1938 23.0432Z" fill="white"/>
</g>
<mask id="mask1_10_2780" style="mask-type:luminance" maskUnits="userSpaceOnUse" x="0" y="0" width="34" height="36">
<path d="M0.619141 0.449654H33.2044V35.2072H0.619141V0.449654Z" fill="white"/>
</mask>
<g mask="url(#mask1_10_2780)">
<path d="M13.1744 0.449654C9.02239 0.449654 5.64124 3.83665 5.64124 7.9828C5.64124 12.1289 9.02239 15.5159 13.1744 15.5159C17.3205 15.5159 20.7075 12.1289 20.7075 7.9828C20.7075 3.83665 17.3205 0.449654 13.1744 0.449654ZM13.1744 15.5159C6.24856 15.5159 0.619141 21.1454 0.619141 28.0653H3.13019C3.13019 22.5235 7.63256 18.027 13.1744 18.027C14.4007 18.027 15.5686 18.2781 16.6548 18.681C17.3439 18.0153 18.1264 17.4781 18.9673 17.0051C17.2213 16.0824 15.2708 15.5159 13.1744 15.5159ZM13.1744 2.9607C15.9599 2.9607 18.1965 5.19729 18.1965 7.9828C18.1965 10.7683 15.9599 13.0049 13.1744 13.0049C10.3889 13.0049 8.15229 10.7683 8.15229 7.9828C8.15229 5.19729 10.3889 2.9607 13.1744 2.9607ZM23.2127 18.027V20.6724C22.4185 20.8417 21.6827 21.1629 21.0287 21.595L19.1425 19.7088L17.3731 21.4841L19.2535 23.3703C18.8096 24.0243 18.4885 24.7601 18.3191 25.5543H15.6854V28.0653H18.3191C18.4885 28.8712 18.8213 29.5953 19.2535 30.2552L17.3731 32.1356L19.1425 33.9108L21.0287 32.0305C21.6827 32.4568 22.4185 32.7838 23.2127 32.9473V35.5985H25.7238V32.959C26.5297 32.7955 27.2654 32.4801 27.9195 32.0363L29.794 33.9108L31.5693 32.1356L29.6947 30.2611C30.1386 29.607 30.4539 28.8595 30.6174 28.0653H33.2569V25.5543H30.6174C30.4539 24.7543 30.1386 24.0185 29.6947 23.3586L31.5693 21.4841L29.794 19.7088L27.9195 21.5833C27.2654 21.1454 26.518 20.83 25.7238 20.6607V18.027H23.2127ZM24.4683 23.0432C26.5705 23.0432 28.2348 24.7134 28.2348 26.8098C28.2348 28.9121 26.5705 30.5764 24.4683 30.5764C22.3718 30.5764 20.7075 28.9121 20.7075 26.8098C20.7075 24.7134 22.3718 23.0432 24.4683 23.0432Z" fill="white"/>
</g>
</svg>
