<svg width="37" height="29" viewBox="0 0 37 29" fill="none" xmlns="http://www.w3.org/2000/svg">
<mask id="mask0_10_2749" style="mask-type:luminance" maskUnits="userSpaceOnUse" x="0" y="0" width="35" height="28">
<path d="M0.783203 0.453125H34.9578V27.3833H0.783203V0.453125Z" fill="white"/>
</mask>
<g mask="url(#mask0_10_2749)">
<path d="M34.6387 9.34221C34.2751 8.84993 33.7101 8.56463 33.0947 8.56463H30.0347V6.25984C30.0347 4.98438 28.9998 3.94946 27.7243 3.94946H13.8341L10.9811 0.744024C10.8412 0.576201 10.6287 0.486694 10.4105 0.486694H3.09895C1.82349 0.486694 0.788574 1.52161 0.788574 2.79707V25.4981C0.788574 26.7735 1.82349 27.8085 3.09895 27.8085H28.4068C29.2571 27.8085 30.0012 27.2602 30.2473 26.4435L34.9296 11.054C35.1142 10.461 35.0023 9.84009 34.6387 9.34221ZM2.32696 2.79707C2.32696 2.37192 2.6738 2.02508 3.09895 2.02508H10.0637L12.9111 5.23052C13.0565 5.39834 13.2691 5.48785 13.4873 5.48785H27.7243C28.1495 5.48785 28.4963 5.83469 28.4963 6.25984V8.56463H7.79803C6.94772 8.56463 6.2037 9.11285 5.95756 9.92959L2.32696 21.8675V2.79707ZM33.4639 10.6009L28.776 25.996C28.7257 26.1582 28.5802 26.2701 28.4068 26.2701H3.11573C2.94791 26.2701 2.85281 26.1694 2.80806 26.1134C2.76331 26.0519 2.69617 25.9344 2.74652 25.7722L7.43441 10.3771C7.48475 10.2149 7.6302 10.1086 7.79803 10.1086H33.0947C33.2625 10.1086 33.3576 10.2037 33.4024 10.2596C33.4471 10.3212 33.5087 10.4387 33.4639 10.6009Z" fill="white"/>
<path d="M34.6387 9.34221C34.2751 8.84993 33.7101 8.56463 33.0947 8.56463H30.0347V6.25984C30.0347 4.98438 28.9998 3.94946 27.7243 3.94946H13.8341L10.9811 0.744024C10.8412 0.576201 10.6287 0.486694 10.4105 0.486694H3.09895C1.82349 0.486694 0.788574 1.52161 0.788574 2.79707V25.4981C0.788574 26.7735 1.82349 27.8085 3.09895 27.8085H28.4068C29.2571 27.8085 30.0012 27.2602 30.2473 26.4435L34.9296 11.054C35.1142 10.461 35.0023 9.84009 34.6387 9.34221ZM2.32696 2.79707C2.32696 2.37192 2.6738 2.02508 3.09895 2.02508H10.0637L12.9111 5.23052C13.0565 5.39834 13.2691 5.48785 13.4873 5.48785H27.7243C28.1495 5.48785 28.4963 5.83469 28.4963 6.25984V8.56463H7.79803C6.94772 8.56463 6.2037 9.11285 5.95756 9.92959L2.32696 21.8675V2.79707ZM33.4639 10.6009L28.776 25.996C28.7257 26.1582 28.5802 26.2701 28.4068 26.2701H3.11573C2.94791 26.2701 2.85281 26.1694 2.80806 26.1134C2.76331 26.0519 2.69617 25.9344 2.74652 25.7722L7.43441 10.3771C7.48475 10.2149 7.6302 10.1086 7.79803 10.1086H33.0947C33.2625 10.1086 33.3576 10.2037 33.4024 10.2596C33.4471 10.3212 33.5087 10.4387 33.4639 10.6009Z" fill="white"/>
</g>
</svg>
