<svg width="39" height="34" viewBox="0 0 39 34" fill="none" xmlns="http://www.w3.org/2000/svg">
<mask id="mask0_10_2767" style="mask-type:luminance" maskUnits="userSpaceOnUse" x="0" y="0" width="38" height="32">
<path d="M0.891113 0.0171356H37.0161V31.8921H0.891113V0.0171356Z" fill="white"/>
</mask>
<g mask="url(#mask0_10_2767)">
<path d="M25.997 3.78159C24.3347 3.0504 22.501 2.63911 20.5645 2.63911C17.5655 2.63911 14.7836 3.62735 12.5386 5.28965C11.7218 5.00974 10.8478 4.85551 9.9395 4.85551C9.62532 4.85551 9.31114 4.87836 9.00267 4.91263C11.9445 1.8965 16.0403 0.0171356 20.5702 0.0171356C23.1865 0.0171356 25.6542 0.651207 27.8421 1.7537L26.4882 3.10753C26.2826 3.30746 26.1226 3.53595 25.997 3.78159ZM33.5544 10.1794C33.3602 10.3737 33.1374 10.5165 32.9089 10.6421C33.6687 12.3273 34.0914 14.1952 34.0914 16.1603C34.0914 23.4378 28.3105 29.3901 21.0958 29.6643V32.2863C29.7557 32.0064 36.7134 24.8774 36.7134 16.1603C36.7134 13.5097 36.0679 11.0077 34.9311 8.80275L33.5544 10.1794ZM21.0958 26.334C26.4768 26.0541 30.7668 21.6042 30.7668 16.1603C30.7668 14.4751 30.3498 12.8871 29.6186 11.4876L27.6421 13.464C27.9677 14.3038 28.1448 15.2063 28.1448 16.1603C28.1448 20.1818 24.9916 23.4721 21.0329 23.712C21.0672 23.9405 21.09 24.1747 21.09 24.4146V26.334H21.0958ZM20.5702 8.57997C21.4842 8.57997 22.3582 8.75134 23.1636 9.04839L25.1572 7.05477C23.7749 6.35786 22.2211 5.95228 20.5702 5.95228C18.7937 5.95228 17.1257 6.40927 15.6747 7.209C16.3031 7.83736 16.8172 8.56855 17.2171 9.36828C18.2281 8.8713 19.3592 8.57997 20.5702 8.57997ZM9.94521 6.95195C6.62062 6.95195 3.93009 9.64818 3.93009 12.9728C3.93009 16.2974 6.62062 18.9879 9.94521 18.9879C13.2698 18.9879 15.966 16.2974 15.966 12.9728C15.966 9.64818 13.2698 6.95195 9.94521 6.95195ZM16.4687 21.8841H3.4274C2.02216 21.8841 0.891113 23.0151 0.891113 24.4204V32.3091H18.9936V24.4204C18.9936 23.0151 17.8626 21.8841 16.4687 21.8841ZM23.6949 16.2802C23.6949 15.749 23.5692 15.252 23.3464 14.8065L29.4701 8.68279L31.6179 8.86559C31.7893 8.88273 31.955 8.8256 32.0806 8.69993L35.5823 5.19825C35.9022 4.87836 35.748 4.32997 35.3024 4.23286L33.3259 3.7873C33.1089 3.73589 32.9375 3.57023 32.8861 3.34744L32.4462 1.37097C32.3434 0.931114 31.8007 0.771168 31.4751 1.09106L27.9734 4.59845C27.8535 4.71841 27.7964 4.88407 27.8078 5.05544L27.9963 7.20329L21.8669 13.3327C21.4271 13.1099 20.9244 12.9785 20.3931 12.9785C18.5652 12.9785 17.0857 14.4637 17.0857 16.2917C17.0857 18.1139 18.5652 19.5991 20.3931 19.5991C22.2154 19.582 23.6949 18.1082 23.6949 16.2802Z" fill="white"/>
</g>
<mask id="mask1_10_2767" style="mask-type:luminance" maskUnits="userSpaceOnUse" x="0" y="0" width="37" height="32">
<path d="M0.759766 0.0171356H36.8848V31.8921H0.759766V0.0171356Z" fill="white"/>
</mask>
<g mask="url(#mask1_10_2767)">
<path d="M25.8656 3.78159C24.2033 3.0504 22.3696 2.63911 20.4332 2.63911C17.4342 2.63911 14.6522 3.62735 12.4073 5.28965C11.5904 5.00974 10.7164 4.85551 9.80815 4.85551C9.49398 4.85551 9.1798 4.87836 8.87133 4.91263C11.8132 1.8965 15.9032 0.0171356 20.4389 0.0171356C23.0551 0.0171356 25.5229 0.651207 27.7107 1.7537L26.3569 3.10753C26.1512 3.30746 25.9913 3.53595 25.8656 3.78159ZM33.4231 10.1794C33.2289 10.3737 33.0061 10.5165 32.7776 10.6421C33.5373 12.3273 33.96 14.1952 33.96 16.1603C33.96 23.4378 28.1791 29.3901 20.9644 29.6643V32.2863C29.6244 32.0064 36.582 24.8774 36.582 16.1603C36.582 13.5097 35.9365 11.0077 34.7998 8.80275L33.4231 10.1794ZM20.9644 26.334C26.3455 26.0541 30.6354 21.6042 30.6354 16.1603C30.6354 14.4751 30.2184 12.8871 29.4873 11.4876L27.5108 13.464C27.8364 14.3038 28.0135 15.2063 28.0135 16.1603C28.0135 20.1818 24.8602 23.4721 20.9016 23.712C20.9358 23.9405 20.9587 24.1747 20.9587 24.4146V26.334H20.9644ZM20.4389 8.57997C21.3528 8.57997 22.2268 8.75134 23.0323 9.04839L25.0259 7.05477C23.6435 6.35786 22.0897 5.95228 20.4389 5.95228C18.6623 5.95228 16.9943 6.40927 15.5434 7.209C16.1717 7.83736 16.6858 8.56855 17.0857 9.36828C18.0968 8.8713 19.2278 8.57997 20.4389 8.57997ZM9.81387 6.95195C6.48927 6.95195 3.79874 9.64818 3.79874 12.9728C3.79874 16.2974 6.48927 18.9879 9.81387 18.9879C13.1385 18.9879 15.8347 16.2974 15.8347 12.9728C15.8347 9.64818 13.1385 6.95195 9.81387 6.95195ZM16.3374 21.8841H3.29606C1.89081 21.8841 0.759766 23.0151 0.759766 24.4204V32.3091H18.8623V24.4204C18.8623 23.0151 17.7312 21.8841 16.3374 21.8841ZM23.5635 16.2802C23.5635 15.749 23.4379 15.252 23.2151 14.8065L29.3387 8.68279L31.4866 8.86559C31.658 8.88273 31.8236 8.8256 31.9493 8.69993L35.451 5.19825C35.7709 4.87836 35.6166 4.32997 35.1711 4.23286L33.1946 3.7873C32.9775 3.73589 32.8061 3.57023 32.7547 3.34744L32.3149 1.37097C32.2121 0.931114 31.6694 0.771168 31.3438 1.09106L27.8421 4.59845C27.7221 4.71841 27.665 4.88407 27.6764 5.05544L27.8649 7.20329L21.7356 13.3327C21.2957 13.1099 20.793 12.9785 20.2618 12.9785C18.4338 12.9785 16.9543 14.4637 16.9543 16.2917C16.9543 18.1139 18.4338 19.5991 20.2618 19.5991C22.084 19.582 23.5635 18.1082 23.5635 16.2802Z" fill="white"/>
</g>
</svg>
