<svg width="33" height="33" viewBox="0 0 33 33" fill="none" xmlns="http://www.w3.org/2000/svg">
<mask id="mask0_10_2758" style="mask-type:luminance" maskUnits="userSpaceOnUse" x="0" y="0" width="32" height="32">
<path d="M0.327148 0.243958H31.2646V31.1815H0.327148V0.243958Z" fill="white"/>
</mask>
<g mask="url(#mask0_10_2758)">
<path fill-rule="evenodd" clip-rule="evenodd" d="M2.04035 14.7757C2.23441 11.9814 3.25457 9.35888 5.00658 7.15777C6.13763 7.64567 7.34076 8.0615 8.59933 8.38861C8.02271 10.4012 7.69005 12.5469 7.61798 14.7757H2.04035ZM14.8589 23.874V29.4017C13.2732 28.8695 11.7984 27.0454 10.7394 24.3009C12.0257 24.0625 13.4063 23.9239 14.8589 23.874ZM11.4214 28.8307C9.46425 28.1709 7.67896 27.0786 6.18753 25.626C7.08572 25.2656 8.06707 24.9496 9.10941 24.689C9.73037 26.3468 10.5177 27.755 11.4214 28.8307ZM9.28128 16.6996H14.8589V22.1941C13.2621 22.244 11.7042 22.4214 10.2127 22.7152C9.67493 20.8523 9.35336 18.7898 9.28128 16.6996ZM14.8589 9.28126V14.7757H9.28128C9.3589 12.6855 9.67493 10.623 10.2127 8.76009C11.7097 9.05394 13.2677 9.23136 14.8589 9.28126ZM6.18753 5.8493C7.67896 4.39668 9.46425 3.30444 11.4214 2.64466C10.5177 3.72027 9.73592 5.12853 9.10941 6.7863C8.06707 6.52571 7.08572 6.20968 6.18753 5.8493ZM10.7394 7.1744C11.7984 4.4244 13.2732 2.60031 14.8589 2.0736V7.60132C13.4063 7.55142 12.0257 7.40726 10.7394 7.1744ZM8.59933 23.0867C7.34076 23.4138 6.13763 23.8296 5.00658 24.3175C3.25457 22.1164 2.23441 19.494 2.04035 16.6996H7.61798C7.69005 18.9284 8.01717 21.0741 8.59933 23.0867ZM29.5958 16.6941C29.4017 19.494 28.3816 22.122 26.6351 24.3175C25.5041 23.8296 24.2954 23.4138 23.0424 23.0867C23.619 21.0796 23.9461 18.934 24.0237 16.6941H29.5958ZM16.7828 7.60132V2.0736C18.3685 2.60031 19.8433 4.4244 20.8967 7.1744C19.616 7.40726 18.2354 7.55142 16.7828 7.60132ZM22.5323 6.7863C21.9058 5.12853 21.1185 3.72027 20.2203 2.64466C22.1775 3.30444 23.9627 4.39668 25.4542 5.8493C24.5504 6.20968 23.5691 6.52571 22.5323 6.7863ZM22.3604 14.7757H16.7828V9.28126C18.374 9.23136 19.932 9.05394 21.429 8.76009C21.9668 10.6174 22.2828 12.6855 22.3604 14.7757ZM24.0237 14.7757C23.9461 12.5469 23.619 10.4012 23.0424 8.38861C24.2954 8.0615 25.5041 7.64567 26.6351 7.15777C28.3816 9.35888 29.4017 11.9814 29.5958 14.7757H24.0237ZM16.7828 22.1941V16.6941H22.3604C22.2828 18.7898 21.9668 20.8579 21.429 22.7152C19.9375 22.4214 18.374 22.244 16.7828 22.1941ZM25.4542 25.626C23.9627 27.0786 22.1775 28.1709 20.2203 28.8307C21.1185 27.755 21.9058 26.3468 22.5267 24.689C23.5746 24.9551 24.556 25.2656 25.4542 25.626ZM20.8967 24.3009C19.8433 27.0454 18.3685 28.8695 16.7828 29.4017V23.874C18.2299 23.9239 19.6104 24.0625 20.8967 24.3009ZM15.8181 0.243958C7.27977 0.243958 0.327148 7.19658 0.327148 15.7404C0.327148 24.2787 7.27977 31.2314 15.8181 31.2314C24.3619 31.2314 31.3145 24.2787 31.3145 15.7404C31.3145 7.19658 24.3619 0.243958 15.8181 0.243958Z" fill="white"/>
<path fill-rule="evenodd" clip-rule="evenodd" d="M2.04035 14.7757C2.23441 11.9814 3.25457 9.35888 5.00658 7.15777C6.13763 7.64567 7.34076 8.0615 8.59933 8.38861C8.02271 10.4012 7.69005 12.5469 7.61798 14.7757H2.04035ZM14.8589 23.874V29.4017C13.2732 28.8695 11.7984 27.0454 10.7394 24.3009C12.0257 24.0625 13.4063 23.9239 14.8589 23.874ZM11.4214 28.8307C9.46425 28.1709 7.67896 27.0786 6.18753 25.626C7.08572 25.2656 8.06707 24.9496 9.10941 24.689C9.73037 26.3468 10.5177 27.755 11.4214 28.8307ZM9.28128 16.6996H14.8589V22.1941C13.2621 22.244 11.7042 22.4214 10.2127 22.7152C9.67493 20.8523 9.35336 18.7898 9.28128 16.6996ZM14.8589 9.28126V14.7757H9.28128C9.3589 12.6855 9.67493 10.623 10.2127 8.76009C11.7097 9.05394 13.2677 9.23136 14.8589 9.28126ZM6.18753 5.8493C7.67896 4.39668 9.46425 3.30444 11.4214 2.64466C10.5177 3.72027 9.73592 5.12853 9.10941 6.7863C8.06707 6.52571 7.08572 6.20968 6.18753 5.8493ZM10.7394 7.1744C11.7984 4.4244 13.2732 2.60031 14.8589 2.0736V7.60132C13.4063 7.55142 12.0257 7.40726 10.7394 7.1744ZM8.59933 23.0867C7.34076 23.4138 6.13763 23.8296 5.00658 24.3175C3.25457 22.1164 2.23441 19.494 2.04035 16.6996H7.61798C7.69005 18.9284 8.01717 21.0741 8.59933 23.0867ZM29.5958 16.6941C29.4017 19.494 28.3816 22.122 26.6351 24.3175C25.5041 23.8296 24.2954 23.4138 23.0424 23.0867C23.619 21.0796 23.9461 18.934 24.0237 16.6941H29.5958ZM16.7828 7.60132V2.0736C18.3685 2.60031 19.8433 4.4244 20.8967 7.1744C19.616 7.40726 18.2354 7.55142 16.7828 7.60132ZM22.5323 6.7863C21.9058 5.12853 21.1185 3.72027 20.2203 2.64466C22.1775 3.30444 23.9627 4.39668 25.4542 5.8493C24.5504 6.20968 23.5691 6.52571 22.5323 6.7863ZM22.3604 14.7757H16.7828V9.28126C18.374 9.23136 19.932 9.05394 21.429 8.76009C21.9668 10.6174 22.2828 12.6855 22.3604 14.7757ZM24.0237 14.7757C23.9461 12.5469 23.619 10.4012 23.0424 8.38861C24.2954 8.0615 25.5041 7.64567 26.6351 7.15777C28.3816 9.35888 29.4017 11.9814 29.5958 14.7757H24.0237ZM16.7828 22.1941V16.6941H22.3604C22.2828 18.7898 21.9668 20.8579 21.429 22.7152C19.9375 22.4214 18.374 22.244 16.7828 22.1941ZM25.4542 25.626C23.9627 27.0786 22.1775 28.1709 20.2203 28.8307C21.1185 27.755 21.9058 26.3468 22.5267 24.689C23.5746 24.9551 24.556 25.2656 25.4542 25.626ZM20.8967 24.3009C19.8433 27.0454 18.3685 28.8695 16.7828 29.4017V23.874C18.2299 23.9239 19.6104 24.0625 20.8967 24.3009ZM15.8181 0.243958C7.27977 0.243958 0.327148 7.19658 0.327148 15.7404C0.327148 24.2787 7.27977 31.2314 15.8181 31.2314C24.3619 31.2314 31.3145 24.2787 31.3145 15.7404C31.3145 7.19658 24.3619 0.243958 15.8181 0.243958Z" fill="white"/>
</g>
</svg>
