<svg width="28" height="32" viewBox="0 0 28 32" fill="none" xmlns="http://www.w3.org/2000/svg">
<mask id="mask0_10_2740" style="mask-type:luminance" maskUnits="userSpaceOnUse" x="0" y="0" width="27" height="32">
<path d="M0.572754 0.255219H26.5728V31.2552H0.572754V0.255219Z" fill="white"/>
</mask>
<g mask="url(#mask0_10_2740)">
<path d="M13.7969 0.255219C12.2396 0.255219 10.9167 1.27084 10.4167 2.66147H4.18229C2.20312 2.66147 0.578125 4.28647 0.578125 6.26564V27.9011C0.578125 29.8802 2.20312 31.5052 4.18229 31.5052H23.4115C25.3958 31.5052 27.0208 29.8802 27.0208 27.9011V6.26564C27.0208 4.28647 25.3958 2.66147 23.4115 2.66147H17.1771C16.6823 1.27084 15.3542 0.255219 13.7969 0.255219ZM13.7969 2.66147C14.474 2.66147 15 3.18751 15 3.85939V5.06251H17.4063V7.46876H10.1927V5.06251H12.5937V3.85939C12.5937 3.18751 13.1198 2.66147 13.7969 2.66147ZM4.18229 5.06251H7.78646V9.8698H19.8073V5.06251H23.4115C24.0885 5.06251 24.6146 5.58855 24.6146 6.26564V27.9011C24.6146 28.5781 24.0885 29.1042 23.4115 29.1042H4.18229C3.50521 29.1042 2.97917 28.5781 2.97917 27.9011V6.26564C2.97917 5.58855 3.50521 5.06251 4.18229 5.06251ZM21.0104 12.3802L12.5937 20.7917L9.83333 18.0417L8.98958 17.1875L7.29167 18.8854L8.14583 19.7292L12.5937 24.1927L22.7083 14.0781L21.0104 12.3802Z" fill="white"/>
<path d="M13.7969 0.255219C12.2396 0.255219 10.9167 1.27084 10.4167 2.66147H4.18229C2.20312 2.66147 0.578125 4.28647 0.578125 6.26564V27.9011C0.578125 29.8802 2.20312 31.5052 4.18229 31.5052H23.4115C25.3958 31.5052 27.0208 29.8802 27.0208 27.9011V6.26564C27.0208 4.28647 25.3958 2.66147 23.4115 2.66147H17.1771C16.6823 1.27084 15.3542 0.255219 13.7969 0.255219ZM13.7969 2.66147C14.474 2.66147 15 3.18751 15 3.85939V5.06251H17.4063V7.46876H10.1927V5.06251H12.5937V3.85939C12.5937 3.18751 13.1198 2.66147 13.7969 2.66147ZM4.18229 5.06251H7.78646V9.8698H19.8073V5.06251H23.4115C24.0885 5.06251 24.6146 5.58855 24.6146 6.26564V27.9011C24.6146 28.5781 24.0885 29.1042 23.4115 29.1042H4.18229C3.50521 29.1042 2.97917 28.5781 2.97917 27.9011V6.26564C2.97917 5.58855 3.50521 5.06251 4.18229 5.06251ZM21.0104 12.3802L12.5937 20.7917L9.83333 18.0417L8.98958 17.1875L7.29167 18.8854L8.14583 19.7292L12.5937 24.1927L22.7083 14.0781L21.0104 12.3802Z" fill="white"/>
</g>
</svg>
