<svg width="32" height="21" viewBox="0 0 32 21" fill="none" xmlns="http://www.w3.org/2000/svg">
<mask id="mask0_10_2726" style="mask-type:luminance" maskUnits="userSpaceOnUse" x="2" y="0" width="30" height="20">
<path d="M2.6665 0.416656H31.7498V20H2.6665V0.416656Z" fill="white"/>
</mask>
<g mask="url(#mask0_10_2726)">
<path d="M26.4426 8.86457C24.6613 5.86457 21.3332 3.89062 17.4165 3.89062C10.1717 3.89062 5.01027 11.5156 8.23944 18.3021L5.14569 19.9167C0.296727 7.12499 10.6144 0.416656 17.854 0.416656C22.3332 0.416656 27.6457 3.27082 29.9999 8.29166L26.4426 8.86457ZM27.703 12.4062C27.979 14.1927 27.7967 16.151 27.0363 18.1719L30.0728 19.9167C31.3228 16.5573 31.4842 13.5521 30.9113 10.9739L27.703 12.4062ZM31.3436 9.15103C31.4374 9.13541 31.4999 9.17187 31.5311 9.26562C31.5624 9.35416 31.5363 9.42707 31.453 9.47395C28.5884 11.1146 18.9946 16.5677 17.979 16.5989C17.6144 16.6094 17.2603 16.5469 16.9217 16.4167C16.578 16.2812 16.2759 16.0937 16.0103 15.8437C15.7446 15.5885 15.5415 15.2969 15.3905 14.9635C15.2446 14.6302 15.1613 14.2812 15.1509 13.9167C15.1405 13.5521 15.203 13.1979 15.3332 12.8594C15.4634 12.5156 15.6509 12.2135 15.9009 11.9479C16.1509 11.6823 16.4426 11.4739 16.7759 11.3229C17.1092 11.1719 17.4582 11.0937 17.8228 11.0781C18.4321 11.0625 28.2655 9.60416 31.3436 9.15103Z" fill="white"/>
</g>
<mask id="mask1_10_2726" style="mask-type:luminance" maskUnits="userSpaceOnUse" x="2" y="0" width="30" height="21">
<path d="M2.6665 0.666656H31.7498V20.3542H2.6665V0.666656Z" fill="white"/>
</mask>
<g mask="url(#mask1_10_2726)">
<path d="M26.4426 9.11978C24.6613 6.11457 21.3332 4.14582 17.4165 4.14582C10.1717 4.14582 5.01027 11.7708 8.23944 18.5521L5.14569 20.1667C0.296727 7.37499 10.6144 0.666656 17.854 0.666656C22.3332 0.666656 27.6457 3.52603 29.9999 8.54686L26.4426 9.11978ZM27.703 12.6562C27.979 14.4427 27.7967 16.4062 27.0363 18.4219L30.0728 20.1667C31.3228 16.8125 31.4842 13.8073 30.9113 11.2239L27.703 12.6562ZM31.3436 9.40103C31.4374 9.38541 31.4999 9.42707 31.5311 9.51562C31.5624 9.60937 31.5363 9.67707 31.453 9.72916C28.5884 11.3698 18.9946 16.8229 17.979 16.8489C17.6144 16.8594 17.2603 16.7969 16.9217 16.6667C16.578 16.5364 16.2759 16.3437 16.0103 16.0937C15.7446 15.8437 15.5415 15.5521 15.3905 15.2187C15.2446 14.8854 15.1613 14.5364 15.1509 14.1719C15.1405 13.8073 15.203 13.4531 15.3332 13.1094C15.4634 12.7708 15.6509 12.4687 15.9009 12.2031C16.1509 11.9375 16.4426 11.7292 16.7759 11.5781C17.1092 11.4271 17.4582 11.3437 17.8228 11.3333C18.4321 11.3177 28.2655 9.85936 31.3436 9.40103Z" fill="white"/>
</g>
</svg>
