<svg xmlns="http://www.w3.org/2000/svg" xmlns:xlink="http://www.w3.org/1999/xlink" width="843" zoomAndPan="magnify" viewBox="0 0 632.25 238.499993" height="318" preserveAspectRatio="xMidYMid meet" version="1.0"><defs><g/><clipPath id="57b9436051"><path d="M 0.289062 0 L 631.214844 0 L 631.214844 238 L 0.289062 238 Z M 0.289062 0 " clip-rule="nonzero"/></clipPath><clipPath id="46d83d92a7"><path d="M 0.589844 0.078125 L 630.621094 0.078125 L 630.621094 237.617188 L 0.589844 237.617188 Z M 0.589844 0.078125 " clip-rule="nonzero"/></clipPath><clipPath id="f23ef19161"><path d="M 5.828125 0.078125 L 625.382812 0.078125 C 626.773438 0.078125 628.105469 0.632812 629.089844 1.613281 C 630.070312 2.597656 630.621094 3.929688 630.621094 5.320312 L 630.621094 232.378906 C 630.621094 233.765625 630.070312 235.097656 629.089844 236.082031 C 628.105469 237.0625 626.773438 237.617188 625.382812 237.617188 L 5.828125 237.617188 C 4.4375 237.617188 3.105469 237.0625 2.121094 236.082031 C 1.140625 235.097656 0.589844 233.765625 0.589844 232.378906 L 0.589844 5.320312 C 0.589844 3.929688 1.140625 2.597656 2.121094 1.613281 C 3.105469 0.632812 4.4375 0.078125 5.828125 0.078125 Z M 5.828125 0.078125 " clip-rule="nonzero"/></clipPath><clipPath id="cd68bc8790"><path d="M 34.683594 26.683594 L 597.492188 26.683594 L 597.492188 211.207031 L 34.683594 211.207031 Z M 34.683594 26.683594 " clip-rule="nonzero"/></clipPath><clipPath id="ec253ce20d"><path d="M 307.816406 12.15625 L 324.417969 12.15625 L 324.417969 26.679688 L 307.816406 26.679688 Z M 307.816406 12.15625 " clip-rule="nonzero"/></clipPath><clipPath id="1328f5ba8f"><path d="M 316.117188 26.679688 L 307.816406 12.15625 L 324.417969 12.15625 Z M 316.117188 26.679688 " clip-rule="nonzero"/></clipPath><clipPath id="68596bcf91"><path d="M 34.671875 196.6875 L 597.742188 196.6875 L 597.742188 211.214844 L 34.671875 211.214844 Z M 34.671875 196.6875 " clip-rule="nonzero"/></clipPath><clipPath id="1a8c80400a"><path d="M 307.824219 196.6875 L 324.425781 196.6875 L 324.425781 211.214844 L 307.824219 211.214844 Z M 307.824219 196.6875 " clip-rule="nonzero"/></clipPath><clipPath id="252f697551"><path d="M 316.125 196.6875 L 324.425781 211.214844 L 307.824219 211.214844 Z M 316.125 196.6875 " clip-rule="nonzero"/></clipPath></defs><g clip-path="url(#57b9436051)"><path fill="#ffffff" d="M 0.289062 0 L 631.214844 0 L 631.214844 238 L 0.289062 238 Z M 0.289062 0 " fill-opacity="1" fill-rule="nonzero"/></g><g clip-path="url(#46d83d92a7)"><g clip-path="url(#f23ef19161)"><path fill="#f1f1ed" d="M 0.589844 0.078125 L 630.621094 0.078125 L 630.621094 237.617188 L 0.589844 237.617188 Z M 0.589844 0.078125 " fill-opacity="1" fill-rule="nonzero"/></g></g><g clip-path="url(#cd68bc8790)"><path stroke-linecap="butt" transform="matrix(0.748431, 0, 0, 0.748431, 34.683811, 26.683793)" fill="none" stroke-linejoin="miter" d="M -0.000290085 -0.000266004 L 752.302786 -0.000266004 L 752.302786 246.54679 L -0.000290085 246.54679 Z M -0.000290085 -0.000266004 " stroke="#000000" stroke-width="2" stroke-opacity="1" stroke-miterlimit="4"/></g><path stroke-linecap="butt" transform="matrix(0, 0.748431, -0.748431, 0, 316.869677, 26.686514)" fill="none" stroke-linejoin="miter" d="M 0.00131773 1.000203 L 227.148412 1.000203 " stroke="#363847" stroke-width="2" stroke-opacity="1" stroke-miterlimit="4"/><path fill="#363847" d="M 502.953125 196.683594 L 502.957031 195.9375 L 503.703125 195.9375 L 503.703125 196.6875 M 502.957031 195.1875 L 502.957031 194.441406 L 503.707031 194.441406 L 503.703125 195.1875 M 502.960938 193.691406 L 502.960938 192.941406 L 503.710938 192.945312 L 503.707031 193.691406 M 502.960938 192.195312 L 502.964844 191.445312 L 503.710938 191.445312 L 503.710938 192.195312 M 502.964844 190.699219 L 502.964844 189.949219 L 503.714844 189.949219 L 503.714844 190.699219 M 502.96875 189.199219 L 502.96875 188.453125 L 503.71875 188.453125 L 503.714844 189.203125 M 502.96875 187.703125 L 502.972656 186.957031 L 503.71875 186.957031 L 503.71875 187.703125 M 502.972656 186.207031 L 502.972656 185.457031 L 503.722656 185.460938 L 503.722656 186.207031 M 502.976562 184.710938 L 502.976562 183.960938 L 503.726562 183.960938 L 503.722656 184.710938 M 502.976562 183.214844 L 502.980469 182.464844 L 503.726562 182.464844 L 503.726562 183.214844 M 502.980469 181.714844 L 502.984375 180.96875 L 503.730469 180.96875 L 503.730469 181.71875 M 502.984375 180.21875 L 502.984375 179.472656 L 503.734375 179.472656 L 503.730469 180.21875 M 502.988281 178.722656 L 502.988281 177.972656 L 503.738281 177.976562 L 503.734375 178.722656 M 502.988281 177.226562 L 502.992188 176.476562 L 503.738281 176.476562 L 503.738281 177.226562 M 502.992188 175.730469 L 502.992188 174.980469 L 503.742188 174.980469 L 503.742188 175.730469 M 502.996094 174.230469 L 502.996094 173.484375 L 503.746094 173.484375 L 503.742188 174.234375 M 502.996094 172.734375 L 503 171.988281 L 503.746094 171.988281 L 503.746094 172.738281 M 503 171.238281 L 503 170.488281 L 503.75 170.492188 L 503.75 171.238281 M 503.003906 169.742188 L 503.003906 168.992188 L 503.753906 168.996094 L 503.75 169.742188 M 503.003906 168.246094 L 503.007812 167.496094 L 503.753906 167.496094 L 503.753906 168.246094 M 503.007812 166.746094 L 503.007812 166 L 503.757812 166 L 503.757812 166.75 M 503.011719 165.25 L 503.011719 164.503906 L 503.761719 164.503906 L 503.757812 165.253906 M 503.015625 163.753906 L 503.015625 163.003906 L 503.761719 163.007812 L 503.761719 163.753906 M 503.015625 162.257812 L 503.019531 161.507812 L 503.765625 161.511719 L 503.765625 162.257812 M 503.019531 160.761719 L 503.019531 160.011719 L 503.769531 160.011719 L 503.769531 160.761719 M 503.023438 159.261719 L 503.023438 158.515625 L 503.773438 158.515625 L 503.769531 159.265625 M 503.023438 157.765625 L 503.027344 157.019531 L 503.773438 157.019531 L 503.773438 157.769531 M 503.027344 156.269531 L 503.027344 155.519531 L 503.777344 155.523438 L 503.777344 156.269531 M 503.03125 154.773438 L 503.03125 154.023438 L 503.78125 154.027344 L 503.777344 154.773438 M 503.03125 153.277344 L 503.035156 152.527344 L 503.78125 152.527344 L 503.78125 153.277344 M 503.035156 151.777344 L 503.035156 151.03125 L 503.785156 151.03125 L 503.785156 151.78125 M 503.039062 150.28125 L 503.039062 149.535156 L 503.789062 149.535156 L 503.785156 150.285156 M 503.042969 148.785156 L 503.042969 148.035156 L 503.789062 148.039062 L 503.789062 148.785156 M 503.042969 147.289062 L 503.046875 146.539062 L 503.792969 146.542969 L 503.792969 147.289062 M 503.046875 145.792969 L 503.046875 145.042969 L 503.796875 145.042969 L 503.792969 145.792969 M 503.050781 144.292969 L 503.050781 143.546875 L 503.800781 143.546875 L 503.796875 144.296875 M 503.050781 142.796875 L 503.054688 142.050781 L 503.800781 142.050781 L 503.800781 142.800781 M 503.054688 141.300781 L 503.054688 140.550781 L 503.804688 140.554688 L 503.804688 141.300781 M 503.058594 139.804688 L 503.058594 139.054688 L 503.808594 139.058594 L 503.804688 139.804688 M 503.058594 138.308594 L 503.0625 137.558594 L 503.808594 137.558594 L 503.808594 138.308594 M 503.0625 136.808594 L 503.0625 136.0625 L 503.8125 136.0625 L 503.8125 136.8125 M 503.066406 135.3125 L 503.066406 134.566406 L 503.816406 134.566406 L 503.8125 135.316406 M 503.066406 133.816406 L 503.070312 133.066406 L 503.816406 133.070312 L 503.816406 133.816406 M 503.070312 132.320312 L 503.074219 131.570312 L 503.820312 131.574219 L 503.820312 132.320312 M 503.074219 130.824219 L 503.074219 130.074219 L 503.824219 130.074219 L 503.820312 130.824219 M 503.078125 129.324219 L 503.078125 128.578125 L 503.828125 128.578125 L 503.824219 129.328125 M 503.078125 127.828125 L 503.082031 127.082031 L 503.828125 127.082031 L 503.828125 127.832031 M 503.082031 126.332031 L 503.082031 125.582031 L 503.832031 125.585938 L 503.832031 126.332031 M 503.085938 124.835938 L 503.085938 124.085938 L 503.835938 124.089844 L 503.832031 124.835938 M 503.085938 123.339844 L 503.089844 122.589844 L 503.835938 122.589844 L 503.835938 123.339844 M 503.089844 121.839844 L 503.089844 121.09375 L 503.839844 121.09375 L 503.839844 121.84375 M 503.09375 120.34375 L 503.09375 119.597656 L 503.84375 119.597656 L 503.839844 120.347656 M 503.09375 118.847656 L 503.097656 118.101562 L 503.84375 118.101562 L 503.84375 118.847656 M 503.097656 117.351562 L 503.097656 116.601562 L 503.847656 116.605469 L 503.847656 117.351562 M 503.101562 115.855469 L 503.101562 115.105469 L 503.851562 115.105469 L 503.847656 115.855469 M 503.105469 114.359375 L 503.105469 113.609375 L 503.851562 113.609375 L 503.851562 114.359375 M 503.105469 112.859375 L 503.109375 112.113281 L 503.855469 112.113281 L 503.855469 112.863281 M 503.109375 111.363281 L 503.109375 110.617188 L 503.859375 110.617188 L 503.859375 111.363281 M 503.113281 109.867188 L 503.113281 109.117188 L 503.863281 109.121094 L 503.859375 109.867188 M 503.113281 108.371094 L 503.117188 107.621094 L 503.863281 107.621094 L 503.863281 108.371094 M 503.117188 106.875 L 503.117188 106.125 L 503.867188 106.125 L 503.867188 106.875 M 503.121094 105.375 L 503.121094 104.628906 L 503.871094 104.628906 L 503.867188 105.378906 M 503.121094 103.878906 L 503.125 103.132812 L 503.871094 103.132812 L 503.871094 103.878906 M 503.125 102.382812 L 503.125 101.632812 L 503.875 101.636719 L 503.875 102.382812 M 503.128906 100.886719 L 503.128906 100.136719 L 503.878906 100.140625 L 503.875 100.886719 M 503.132812 99.390625 L 503.132812 98.640625 L 503.878906 98.640625 L 503.878906 99.390625 M 503.132812 97.890625 L 503.136719 97.144531 L 503.882812 97.144531 L 503.882812 97.894531 M 503.136719 96.394531 L 503.136719 95.648438 L 503.886719 95.648438 L 503.886719 96.398438 M 503.140625 94.898438 L 503.140625 94.148438 L 503.890625 94.152344 L 503.886719 94.898438 M 503.140625 93.402344 L 503.144531 92.652344 L 503.890625 92.65625 L 503.890625 93.402344 M 503.144531 91.90625 L 503.144531 91.15625 L 503.894531 91.15625 L 503.894531 91.90625 M 503.148438 90.40625 L 503.148438 89.660156 L 503.898438 89.660156 L 503.894531 90.410156 M 503.148438 88.910156 L 503.152344 88.164062 L 503.898438 88.164062 L 503.898438 88.914062 M 503.152344 87.414062 L 503.152344 86.664062 L 503.902344 86.667969 L 503.902344 87.414062 M 503.15625 85.917969 L 503.15625 85.167969 L 503.90625 85.171875 L 503.902344 85.917969 M 503.15625 84.421875 L 503.160156 83.671875 L 503.90625 83.671875 L 503.90625 84.421875 M 503.160156 82.921875 L 503.164062 82.175781 L 503.910156 82.175781 L 503.910156 82.925781 M 503.164062 81.425781 L 503.164062 80.679688 L 503.914062 80.679688 L 503.910156 81.429688 M 503.167969 79.929688 L 503.167969 79.179688 L 503.917969 79.183594 L 503.914062 79.929688 M 503.167969 78.433594 L 503.171875 77.683594 L 503.917969 77.6875 L 503.917969 78.433594 M 503.171875 76.9375 L 503.171875 76.1875 L 503.921875 76.1875 L 503.921875 76.9375 M 503.175781 75.4375 L 503.175781 74.691406 L 503.925781 74.691406 L 503.921875 75.441406 M 503.175781 73.941406 L 503.179688 73.195312 L 503.925781 73.195312 L 503.925781 73.945312 M 503.179688 72.445312 L 503.179688 71.695312 L 503.929688 71.699219 L 503.929688 72.445312 M 503.183594 70.949219 L 503.183594 70.199219 L 503.933594 70.203125 L 503.929688 70.949219 M 503.183594 69.453125 L 503.1875 68.703125 L 503.933594 68.703125 L 503.933594 69.453125 M 503.1875 67.953125 L 503.1875 67.207031 L 503.9375 67.207031 L 503.9375 67.957031 M 503.191406 66.457031 L 503.191406 65.710938 L 503.941406 65.710938 L 503.9375 66.460938 M 503.195312 64.960938 L 503.195312 64.210938 L 503.941406 64.214844 L 503.941406 64.960938 M 503.195312 63.464844 L 503.199219 62.714844 L 503.945312 62.71875 L 503.945312 63.464844 M 503.199219 61.96875 L 503.199219 61.21875 L 503.949219 61.21875 L 503.949219 61.96875 M 503.203125 60.46875 L 503.203125 59.722656 L 503.953125 59.722656 L 503.949219 60.472656 M 503.203125 58.972656 L 503.207031 58.226562 L 503.953125 58.226562 L 503.953125 58.976562 M 503.207031 57.476562 L 503.207031 56.726562 L 503.957031 56.730469 L 503.957031 57.476562 M 503.210938 55.980469 L 503.210938 55.230469 L 503.960938 55.234375 L 503.957031 55.980469 M 503.210938 54.484375 L 503.214844 53.734375 L 503.960938 53.734375 L 503.960938 54.484375 M 503.214844 52.984375 L 503.214844 52.238281 L 503.964844 52.238281 L 503.964844 52.988281 M 503.21875 51.488281 L 503.21875 50.742188 L 503.96875 50.742188 L 503.964844 51.492188 M 503.222656 49.992188 L 503.222656 49.242188 L 503.96875 49.246094 L 503.96875 49.992188 M 503.222656 48.496094 L 503.226562 47.746094 L 503.972656 47.75 L 503.972656 48.496094 M 503.226562 47 L 503.226562 46.25 L 503.976562 46.25 L 503.976562 47 M 503.230469 45.503906 L 503.230469 44.753906 L 503.980469 44.753906 L 503.976562 45.503906 M 503.230469 44.003906 L 503.234375 43.257812 L 503.980469 43.257812 L 503.980469 44.007812 M 503.234375 42.507812 L 503.234375 41.761719 L 503.984375 41.761719 L 503.984375 42.507812 M 503.238281 41.011719 L 503.238281 40.261719 L 503.988281 40.265625 L 503.984375 41.011719 M 503.238281 39.515625 L 503.242188 38.765625 L 503.988281 38.765625 L 503.988281 39.515625 M 503.242188 38.019531 L 503.242188 37.269531 L 503.992188 37.269531 L 503.992188 38.019531 M 503.246094 36.519531 L 503.246094 35.773438 L 503.996094 35.773438 L 503.992188 36.523438 M 503.246094 35.023438 L 503.25 34.277344 L 503.996094 34.277344 L 503.996094 35.023438 M 503.25 33.527344 L 503.253906 32.777344 L 504 32.78125 L 504 33.527344 M 503.253906 32.03125 L 503.253906 31.28125 L 504.003906 31.28125 L 504 32.03125 M 503.257812 30.535156 L 503.257812 29.785156 L 504.007812 29.785156 L 504.003906 30.535156 M 503.257812 29.035156 L 503.261719 28.289062 L 504.007812 28.289062 L 504.007812 29.039062 M 503.261719 27.539062 L 503.261719 26.792969 L 504.011719 26.792969 L 504.011719 27.539062 " fill-opacity="1" fill-rule="nonzero"/><path fill="#363847" d="M 409.183594 196.683594 L 409.1875 195.9375 L 409.933594 195.9375 L 409.933594 196.6875 M 409.1875 195.1875 L 409.191406 194.4375 L 409.9375 194.441406 L 409.9375 195.1875 M 409.191406 193.691406 L 409.195312 192.941406 L 409.941406 192.945312 L 409.941406 193.691406 M 409.195312 192.195312 L 409.199219 191.445312 L 409.945312 191.445312 L 409.945312 192.195312 M 409.199219 190.695312 L 409.199219 189.949219 L 409.949219 189.949219 L 409.949219 190.699219 M 409.203125 189.199219 L 409.203125 188.453125 L 409.953125 188.453125 L 409.949219 189.203125 M 409.207031 187.703125 L 409.207031 186.953125 L 409.957031 186.957031 L 409.953125 187.707031 M 409.210938 186.207031 L 409.210938 185.457031 L 409.960938 185.460938 L 409.957031 186.207031 M 409.214844 184.710938 L 409.214844 183.960938 L 409.964844 183.964844 L 409.960938 184.710938 M 409.21875 183.210938 L 409.21875 182.464844 L 409.96875 182.464844 L 409.964844 183.214844 M 409.21875 181.714844 L 409.222656 180.96875 L 409.972656 180.96875 L 409.96875 181.71875 M 409.222656 180.21875 L 409.226562 179.46875 L 409.972656 179.472656 L 409.972656 180.222656 M 409.226562 178.722656 L 409.230469 177.972656 L 409.976562 177.976562 L 409.976562 178.722656 M 409.230469 177.226562 L 409.234375 176.476562 L 409.980469 176.480469 L 409.980469 177.226562 M 409.234375 175.726562 L 409.238281 174.980469 L 409.984375 174.980469 L 409.984375 175.730469 M 409.238281 174.230469 L 409.238281 173.484375 L 409.988281 173.484375 L 409.988281 174.234375 M 409.242188 172.734375 L 409.242188 171.984375 L 409.992188 171.988281 L 409.992188 172.738281 M 409.246094 171.238281 L 409.246094 170.488281 L 409.996094 170.492188 L 409.992188 171.238281 M 409.25 169.742188 L 409.25 168.992188 L 410 168.996094 L 409.996094 169.742188 M 409.253906 168.246094 L 409.253906 167.496094 L 410.003906 167.496094 L 410 168.246094 M 409.257812 166.746094 L 409.257812 166 L 410.007812 166 L 410.003906 166.75 M 409.257812 165.25 L 409.261719 164.503906 L 410.011719 164.503906 L 410.007812 165.253906 M 409.261719 163.753906 L 409.265625 163.003906 L 410.011719 163.007812 L 410.011719 163.753906 M 409.265625 162.257812 L 409.269531 161.507812 L 410.015625 161.511719 L 410.015625 162.257812 M 409.269531 160.761719 L 409.273438 160.011719 L 410.019531 160.011719 L 410.019531 160.761719 M 409.273438 159.261719 L 409.277344 158.515625 L 410.023438 158.515625 L 410.023438 159.265625 M 409.277344 157.765625 L 409.277344 157.019531 L 410.027344 157.019531 L 410.027344 157.769531 M 409.28125 156.269531 L 409.28125 155.519531 L 410.03125 155.523438 L 410.03125 156.269531 M 409.285156 154.773438 L 409.285156 154.023438 L 410.035156 154.027344 L 410.03125 154.773438 M 409.289062 153.277344 L 409.289062 152.527344 L 410.039062 152.527344 L 410.035156 153.277344 M 409.292969 151.777344 L 409.292969 151.03125 L 410.042969 151.03125 L 410.039062 151.78125 M 409.296875 150.28125 L 409.296875 149.535156 L 410.046875 149.535156 L 410.042969 150.285156 M 409.296875 148.785156 L 409.300781 148.035156 L 410.050781 148.039062 L 410.046875 148.785156 M 409.300781 147.289062 L 409.304688 146.539062 L 410.050781 146.542969 L 410.050781 147.289062 M 409.304688 145.792969 L 409.308594 145.042969 L 410.054688 145.042969 L 410.054688 145.792969 M 409.308594 144.292969 L 409.3125 143.546875 L 410.058594 143.546875 L 410.058594 144.296875 M 409.3125 142.796875 L 409.316406 142.050781 L 410.0625 142.050781 L 410.0625 142.800781 M 409.316406 141.300781 L 409.320312 140.550781 L 410.066406 140.554688 L 410.066406 141.300781 M 409.320312 139.804688 L 409.320312 139.054688 L 410.070312 139.058594 L 410.070312 139.804688 M 409.324219 138.308594 L 409.324219 137.558594 L 410.074219 137.558594 L 410.070312 138.308594 M 409.328125 136.808594 L 409.328125 136.0625 L 410.078125 136.0625 L 410.074219 136.8125 M 409.332031 135.3125 L 409.332031 134.566406 L 410.082031 134.566406 L 410.078125 135.316406 M 409.335938 133.816406 L 409.335938 133.066406 L 410.085938 133.070312 L 410.082031 133.816406 M 409.339844 132.320312 L 409.339844 131.570312 L 410.089844 131.574219 L 410.085938 132.320312 M 409.339844 130.824219 L 409.34375 130.074219 L 410.089844 130.074219 L 410.089844 130.824219 M 409.34375 129.324219 L 409.347656 128.578125 L 410.09375 128.578125 L 410.09375 129.328125 M 409.347656 127.828125 L 409.351562 127.082031 L 410.097656 127.082031 L 410.097656 127.832031 M 409.351562 126.332031 L 409.355469 125.582031 L 410.101562 125.585938 L 410.101562 126.332031 M 409.355469 124.835938 L 409.359375 124.085938 L 410.105469 124.089844 L 410.105469 124.835938 M 409.359375 123.339844 L 409.359375 122.589844 L 410.109375 122.589844 L 410.109375 123.339844 M 409.363281 121.839844 L 409.363281 121.09375 L 410.113281 121.09375 L 410.109375 121.84375 M 409.367188 120.34375 L 409.367188 119.597656 L 410.117188 119.597656 L 410.113281 120.347656 M 409.371094 118.847656 L 409.371094 118.097656 L 410.121094 118.101562 L 410.117188 118.851562 M 409.375 117.351562 L 409.375 116.601562 L 410.125 116.605469 L 410.121094 117.351562 M 409.378906 115.855469 L 409.378906 115.105469 L 410.128906 115.109375 L 410.125 115.855469 M 409.378906 114.355469 L 409.382812 113.609375 L 410.132812 113.609375 L 410.128906 114.359375 M 409.382812 112.859375 L 409.386719 112.113281 L 410.132812 112.113281 L 410.132812 112.863281 M 409.386719 111.363281 L 409.390625 110.613281 L 410.136719 110.617188 L 410.136719 111.367188 M 409.390625 109.867188 L 409.394531 109.117188 L 410.140625 109.121094 L 410.140625 109.867188 M 409.394531 108.371094 L 409.398438 107.621094 L 410.144531 107.625 L 410.144531 108.371094 M 409.398438 106.871094 L 409.398438 106.125 L 410.148438 106.125 L 410.148438 106.875 M 409.402344 105.375 L 409.402344 104.628906 L 410.152344 104.628906 L 410.152344 105.378906 M 409.40625 103.878906 L 409.40625 103.128906 L 410.15625 103.132812 L 410.152344 103.882812 M 409.410156 102.382812 L 409.410156 101.632812 L 410.160156 101.636719 L 410.15625 102.382812 M 409.414062 100.886719 L 409.414062 100.136719 L 410.164062 100.140625 L 410.160156 100.886719 M 409.417969 99.390625 L 409.417969 98.640625 L 410.167969 98.640625 L 410.164062 99.390625 M 409.417969 97.890625 L 409.421875 97.144531 L 410.171875 97.144531 L 410.167969 97.894531 M 409.421875 96.394531 L 409.425781 95.648438 L 410.171875 95.648438 L 410.171875 96.398438 M 409.425781 94.898438 L 409.429688 94.148438 L 410.175781 94.152344 L 410.175781 94.898438 M 409.429688 93.402344 L 409.433594 92.652344 L 410.179688 92.65625 L 410.179688 93.402344 M 409.433594 91.90625 L 409.4375 91.15625 L 410.183594 91.15625 L 410.183594 91.90625 M 409.4375 90.40625 L 409.4375 89.660156 L 410.1875 89.660156 L 410.1875 90.410156 M 409.441406 88.910156 L 409.441406 88.164062 L 410.191406 88.164062 L 410.191406 88.914062 M 409.445312 87.414062 L 409.445312 86.664062 L 410.195312 86.667969 L 410.191406 87.414062 M 409.449219 85.917969 L 409.449219 85.167969 L 410.199219 85.171875 L 410.195312 85.917969 M 409.453125 84.421875 L 409.453125 83.671875 L 410.203125 83.671875 L 410.199219 84.421875 M 409.457031 82.921875 L 409.457031 82.175781 L 410.207031 82.175781 L 410.203125 82.925781 M 409.457031 81.425781 L 409.460938 80.679688 L 410.210938 80.679688 L 410.207031 81.429688 M 409.460938 79.929688 L 409.464844 79.179688 L 410.210938 79.183594 L 410.210938 79.929688 M 409.464844 78.433594 L 409.46875 77.683594 L 410.214844 77.6875 L 410.214844 78.433594 M 409.46875 76.9375 L 409.472656 76.1875 L 410.21875 76.1875 L 410.21875 76.9375 M 409.472656 75.4375 L 409.476562 74.691406 L 410.222656 74.691406 L 410.222656 75.441406 M 409.476562 73.941406 L 409.480469 73.195312 L 410.226562 73.195312 L 410.226562 73.945312 M 409.480469 72.445312 L 409.480469 71.695312 L 410.230469 71.699219 L 410.230469 72.445312 M 409.484375 70.949219 L 409.484375 70.199219 L 410.234375 70.203125 L 410.230469 70.949219 M 409.488281 69.453125 L 409.488281 68.703125 L 410.238281 68.703125 L 410.234375 69.453125 M 409.492188 67.953125 L 409.492188 67.207031 L 410.242188 67.207031 L 410.238281 67.957031 M 409.496094 66.457031 L 409.496094 65.710938 L 410.246094 65.710938 L 410.242188 66.460938 M 409.5 64.960938 L 409.5 64.210938 L 410.25 64.214844 L 410.246094 64.960938 M 409.5 63.464844 L 409.503906 62.714844 L 410.25 62.71875 L 410.25 63.464844 M 409.503906 61.96875 L 409.507812 61.21875 L 410.253906 61.21875 L 410.253906 61.96875 M 409.507812 60.46875 L 409.511719 59.722656 L 410.257812 59.722656 L 410.257812 60.472656 M 409.511719 58.972656 L 409.515625 58.226562 L 410.261719 58.226562 L 410.261719 58.976562 M 409.515625 57.476562 L 409.519531 56.726562 L 410.265625 56.730469 L 410.265625 57.476562 M 409.519531 55.980469 L 409.519531 55.230469 L 410.269531 55.234375 L 410.269531 55.980469 M 409.523438 54.484375 L 409.523438 53.734375 L 410.273438 53.738281 L 410.269531 54.484375 M 409.527344 52.984375 L 409.527344 52.238281 L 410.277344 52.238281 L 410.273438 52.988281 M 409.53125 51.488281 L 409.53125 50.742188 L 410.28125 50.742188 L 410.277344 51.492188 M 409.535156 49.992188 L 409.535156 49.242188 L 410.285156 49.246094 L 410.28125 49.996094 M 409.539062 48.496094 L 409.539062 47.746094 L 410.289062 47.75 L 410.285156 48.496094 M 409.539062 47 L 409.542969 46.25 L 410.289062 46.253906 L 410.289062 47 M 409.542969 45.5 L 409.546875 44.753906 L 410.292969 44.753906 L 410.292969 45.503906 M 409.546875 44.003906 L 409.550781 43.257812 L 410.296875 43.257812 L 410.296875 44.007812 M 409.550781 42.507812 L 409.554688 41.757812 L 410.300781 41.761719 L 410.300781 42.511719 M 409.554688 41.011719 L 409.558594 40.261719 L 410.304688 40.265625 L 410.304688 41.011719 M 409.558594 39.515625 L 409.558594 38.765625 L 410.308594 38.769531 L 410.308594 39.515625 M 409.5625 38.015625 L 409.5625 37.269531 L 410.3125 37.269531 L 410.3125 38.019531 M 409.566406 36.519531 L 409.566406 35.773438 L 410.316406 35.773438 L 410.3125 36.523438 M 409.570312 35.023438 L 409.570312 34.277344 L 410.320312 34.277344 L 410.316406 35.027344 M 409.574219 33.527344 L 409.574219 32.777344 L 410.324219 32.78125 L 410.320312 33.527344 M 409.578125 32.03125 L 409.578125 31.28125 L 410.328125 31.285156 L 410.324219 32.03125 M 409.578125 30.535156 L 409.582031 29.785156 L 410.332031 29.785156 L 410.328125 30.535156 M 409.582031 29.035156 L 409.585938 28.289062 L 410.332031 28.289062 L 410.332031 29.039062 M 409.585938 27.539062 L 409.589844 26.792969 L 410.335938 26.792969 L 410.335938 27.542969 " fill-opacity="1" fill-rule="nonzero"/><path fill="#363847" d="M 129.148438 26.6875 L 129.148438 27.433594 L 128.398438 27.433594 L 128.398438 26.6875 M 129.148438 28.183594 L 129.148438 28.933594 L 128.398438 28.933594 L 128.398438 28.183594 M 129.148438 29.679688 L 129.148438 30.429688 L 128.398438 30.429688 L 128.398438 29.679688 M 129.148438 31.175781 L 129.148438 31.925781 L 128.398438 31.925781 L 128.398438 31.175781 M 129.148438 32.675781 L 129.148438 33.421875 L 128.398438 33.421875 L 128.398438 32.675781 M 129.148438 34.171875 L 129.148438 34.917969 L 128.398438 34.917969 L 128.398438 34.171875 M 129.148438 35.667969 L 129.148438 36.417969 L 128.398438 36.417969 L 128.398438 35.667969 M 129.148438 37.164062 L 129.148438 37.914062 L 128.398438 37.914062 L 128.398438 37.164062 M 129.148438 38.660156 L 129.148438 39.410156 L 128.398438 39.410156 L 128.398438 38.660156 M 129.148438 40.160156 L 129.148438 40.90625 L 128.398438 40.90625 L 128.398438 40.160156 M 129.148438 41.65625 L 129.148438 42.402344 L 128.398438 42.402344 L 128.398438 41.65625 M 129.148438 43.152344 L 129.148438 43.902344 L 128.398438 43.902344 L 128.398438 43.152344 M 129.148438 44.648438 L 129.148438 45.398438 L 128.398438 45.398438 L 128.398438 44.648438 M 129.148438 46.144531 L 129.148438 46.894531 L 128.398438 46.894531 L 128.398438 46.144531 M 129.148438 47.640625 L 129.148438 48.390625 L 128.398438 48.390625 L 128.398438 47.640625 M 129.148438 49.140625 L 129.148438 49.886719 L 128.398438 49.886719 L 128.398438 49.140625 M 129.148438 50.636719 L 129.148438 51.382812 L 128.398438 51.382812 L 128.398438 50.636719 M 129.148438 52.132812 L 129.148438 52.882812 L 128.398438 52.882812 L 128.398438 52.132812 M 129.148438 53.628906 L 129.148438 54.378906 L 128.398438 54.378906 L 128.398438 53.628906 M 129.148438 55.125 L 129.148438 55.875 L 128.398438 55.875 L 128.398438 55.125 M 129.148438 56.625 L 129.148438 57.371094 L 128.398438 57.371094 L 128.398438 56.625 M 129.148438 58.121094 L 129.148438 58.867188 L 128.398438 58.867188 L 128.398438 58.121094 M 129.148438 59.617188 L 129.148438 60.367188 L 128.398438 60.367188 L 128.398438 59.617188 M 129.148438 61.113281 L 129.148438 61.863281 L 128.398438 61.863281 L 128.398438 61.113281 M 129.148438 62.609375 L 129.148438 63.359375 L 128.398438 63.359375 L 128.398438 62.609375 M 129.148438 64.109375 L 129.148438 64.855469 L 128.398438 64.855469 L 128.398438 64.109375 M 129.148438 65.605469 L 129.148438 66.351562 L 128.398438 66.351562 L 128.398438 65.605469 M 129.148438 67.101562 L 129.148438 67.851562 L 128.398438 67.851562 L 128.398438 67.101562 M 129.148438 68.597656 L 129.148438 69.347656 L 128.398438 69.347656 L 128.398438 68.597656 M 129.148438 70.09375 L 129.148438 70.84375 L 128.398438 70.84375 L 128.398438 70.09375 M 129.148438 71.59375 L 129.148438 72.339844 L 128.398438 72.339844 L 128.398438 71.59375 M 129.148438 73.089844 L 129.148438 73.835938 L 128.398438 73.835938 L 128.398438 73.089844 M 129.148438 74.585938 L 129.148438 75.335938 L 128.398438 75.335938 L 128.398438 74.585938 M 129.148438 76.082031 L 129.148438 76.832031 L 128.398438 76.832031 L 128.398438 76.082031 M 129.148438 77.578125 L 129.148438 78.328125 L 128.398438 78.328125 L 128.398438 77.578125 M 129.148438 79.078125 L 129.148438 79.824219 L 128.398438 79.824219 L 128.398438 79.078125 M 129.148438 80.574219 L 129.148438 81.320312 L 128.398438 81.320312 L 128.398438 80.574219 M 129.148438 82.070312 L 129.148438 82.820312 L 128.398438 82.820312 L 128.398438 82.070312 M 129.148438 83.566406 L 129.148438 84.316406 L 128.398438 84.316406 L 128.398438 83.566406 M 129.148438 85.0625 L 129.148438 85.8125 L 128.398438 85.8125 L 128.398438 85.0625 M 129.148438 86.5625 L 129.148438 87.308594 L 128.398438 87.308594 L 128.398438 86.5625 M 129.148438 88.058594 L 129.148438 88.804688 L 128.398438 88.804688 L 128.398438 88.058594 M 129.148438 89.554688 L 129.148438 90.304688 L 128.398438 90.304688 L 128.398438 89.554688 M 129.148438 91.050781 L 129.148438 91.800781 L 128.398438 91.800781 L 128.398438 91.050781 M 129.148438 92.546875 L 129.148438 93.296875 L 128.398438 93.296875 L 128.398438 92.546875 M 129.148438 94.046875 L 129.148438 94.792969 L 128.398438 94.792969 L 128.398438 94.046875 M 129.148438 95.542969 L 129.148438 96.289062 L 128.398438 96.289062 L 128.398438 95.542969 M 129.148438 97.039062 L 129.148438 97.789062 L 128.398438 97.789062 L 128.398438 97.039062 M 129.148438 98.535156 L 129.148438 99.285156 L 128.398438 99.285156 L 128.398438 98.535156 M 129.148438 100.03125 L 129.148438 100.78125 L 128.398438 100.78125 L 128.398438 100.03125 M 129.148438 101.53125 L 129.148438 102.277344 L 128.398438 102.277344 L 128.398438 101.53125 M 129.148438 103.027344 L 129.148438 103.773438 L 128.398438 103.773438 L 128.398438 103.027344 M 129.148438 104.523438 L 129.148438 105.273438 L 128.398438 105.273438 L 128.398438 104.523438 M 129.148438 106.019531 L 129.148438 106.769531 L 128.398438 106.769531 L 128.398438 106.019531 M 129.148438 107.515625 L 129.148438 108.265625 L 128.398438 108.265625 L 128.398438 107.515625 M 129.148438 109.015625 L 129.148438 109.761719 L 128.398438 109.761719 L 128.398438 109.015625 M 129.148438 110.511719 L 129.148438 111.257812 L 128.398438 111.257812 L 128.398438 110.511719 M 129.148438 112.007812 L 129.148438 112.757812 L 128.398438 112.757812 L 128.398438 112.007812 M 129.148438 113.503906 L 129.148438 114.253906 L 128.398438 114.253906 L 128.398438 113.503906 M 129.148438 115 L 129.148438 115.75 L 128.398438 115.75 L 128.398438 115 M 129.148438 116.5 L 129.148438 117.246094 L 128.398438 117.246094 L 128.398438 116.5 M 129.148438 117.996094 L 129.148438 118.742188 L 128.398438 118.742188 L 128.398438 117.996094 M 129.148438 119.492188 L 129.148438 120.242188 L 128.398438 120.242188 L 128.398438 119.492188 M 129.148438 120.988281 L 129.148438 121.738281 L 128.398438 121.738281 L 128.398438 120.988281 M 129.148438 122.484375 L 129.148438 123.234375 L 128.398438 123.234375 L 128.398438 122.484375 M 129.148438 123.984375 L 129.148438 124.730469 L 128.398438 124.730469 L 128.398438 123.984375 M 129.148438 125.480469 L 129.148438 126.226562 L 128.398438 126.226562 L 128.398438 125.480469 M 129.148438 126.976562 L 129.148438 127.726562 L 128.398438 127.726562 L 128.398438 126.976562 M 129.148438 128.472656 L 129.148438 129.222656 L 128.398438 129.222656 L 128.398438 128.472656 M 129.148438 129.96875 L 129.148438 130.71875 L 128.398438 130.71875 L 128.398438 129.96875 M 129.148438 131.46875 L 129.148438 132.214844 L 128.398438 132.214844 L 128.398438 131.46875 M 129.148438 132.964844 L 129.148438 133.710938 L 128.398438 133.710938 L 128.398438 132.964844 M 129.148438 134.460938 L 129.148438 135.210938 L 128.398438 135.210938 L 128.398438 134.460938 M 129.148438 135.957031 L 129.148438 136.707031 L 128.398438 136.707031 L 128.398438 135.957031 M 129.148438 137.453125 L 129.148438 138.203125 L 128.398438 138.203125 L 128.398438 137.453125 M 129.148438 138.949219 L 129.148438 139.699219 L 128.398438 139.699219 L 128.398438 138.949219 M 129.148438 140.449219 L 129.148438 141.195312 L 128.398438 141.195312 L 128.398438 140.449219 M 129.148438 141.945312 L 129.148438 142.691406 L 128.398438 142.691406 L 128.398438 141.945312 M 129.148438 143.441406 L 129.148438 144.191406 L 128.398438 144.191406 L 128.398438 143.441406 M 129.148438 144.9375 L 129.148438 145.6875 L 128.398438 145.6875 L 128.398438 144.9375 M 129.148438 146.433594 L 129.148438 147.183594 L 128.398438 147.183594 L 128.398438 146.433594 M 129.148438 147.933594 L 129.148438 148.679688 L 128.398438 148.679688 L 128.398438 147.933594 M 129.148438 149.429688 L 129.148438 150.175781 L 128.398438 150.175781 L 128.398438 149.429688 M 129.148438 150.925781 L 129.148438 151.675781 L 128.398438 151.675781 L 128.398438 150.925781 M 129.148438 152.421875 L 129.148438 153.171875 L 128.398438 153.171875 L 128.398438 152.421875 M 129.148438 153.917969 L 129.148438 154.667969 L 128.398438 154.667969 L 128.398438 153.917969 M 129.148438 155.417969 L 129.148438 156.164062 L 128.398438 156.164062 L 128.398438 155.417969 M 129.148438 156.914062 L 129.148438 157.660156 L 128.398438 157.660156 L 128.398438 156.914062 M 129.148438 158.410156 L 129.148438 159.160156 L 128.398438 159.160156 L 128.398438 158.410156 M 129.148438 159.90625 L 129.148438 160.65625 L 128.398438 160.65625 L 128.398438 159.90625 M 129.148438 161.402344 L 129.148438 162.152344 L 128.398438 162.152344 L 128.398438 161.402344 M 129.148438 162.902344 L 129.148438 163.648438 L 128.398438 163.648438 L 128.398438 162.902344 M 129.148438 164.398438 L 129.148438 165.144531 L 128.398438 165.144531 L 128.398438 164.398438 M 129.148438 165.894531 L 129.148438 166.644531 L 128.398438 166.644531 L 128.398438 165.894531 M 129.148438 167.390625 L 129.148438 168.140625 L 128.398438 168.140625 L 128.398438 167.390625 M 129.148438 168.886719 L 129.148438 169.636719 L 128.398438 169.636719 L 128.398438 168.886719 M 129.148438 170.386719 L 129.148438 171.132812 L 128.398438 171.132812 L 128.398438 170.386719 M 129.148438 171.882812 L 129.148438 172.628906 L 128.398438 172.628906 L 128.398438 171.882812 M 129.148438 173.378906 L 129.148438 174.128906 L 128.398438 174.128906 L 128.398438 173.378906 M 129.148438 174.875 L 129.148438 175.625 L 128.398438 175.625 L 128.398438 174.875 M 129.148438 176.371094 L 129.148438 177.121094 L 128.398438 177.121094 L 128.398438 176.371094 M 129.148438 177.871094 L 129.148438 178.617188 L 128.398438 178.617188 L 128.398438 177.871094 M 129.148438 179.367188 L 129.148438 180.113281 L 128.398438 180.113281 L 128.398438 179.367188 M 129.148438 180.863281 L 129.148438 181.613281 L 128.398438 181.613281 L 128.398438 180.863281 M 129.148438 182.359375 L 129.148438 183.109375 L 128.398438 183.109375 L 128.398438 182.359375 M 129.148438 183.855469 L 129.148438 184.605469 L 128.398438 184.605469 L 128.398438 183.855469 M 129.148438 185.355469 L 129.148438 186.101562 L 128.398438 186.101562 L 128.398438 185.355469 M 129.148438 186.851562 L 129.148438 187.597656 L 128.398438 187.597656 L 128.398438 186.851562 M 129.148438 188.347656 L 129.148438 189.097656 L 128.398438 189.097656 L 128.398438 188.347656 M 129.148438 189.84375 L 129.148438 190.59375 L 128.398438 190.59375 L 128.398438 189.84375 M 129.148438 191.339844 L 129.148438 192.089844 L 128.398438 192.089844 L 128.398438 191.339844 M 129.148438 192.839844 L 129.148438 193.585938 L 128.398438 193.585938 L 128.398438 192.839844 M 129.148438 194.335938 L 129.148438 195.082031 L 128.398438 195.082031 L 128.398438 194.335938 M 129.148438 195.832031 L 129.148438 196.582031 L 128.398438 196.582031 L 128.398438 195.832031 " fill-opacity="1" fill-rule="nonzero"/><path fill="#363847" d="M 222.820312 26.6875 L 222.820312 27.433594 L 222.074219 27.433594 L 222.074219 26.6875 M 222.820312 28.183594 L 222.820312 28.933594 L 222.074219 28.933594 L 222.074219 28.183594 M 222.820312 29.679688 L 222.820312 30.429688 L 222.074219 30.429688 L 222.074219 29.679688 M 222.820312 31.175781 L 222.820312 31.925781 L 222.074219 31.925781 L 222.074219 31.175781 M 222.820312 32.675781 L 222.820312 33.421875 L 222.074219 33.421875 L 222.074219 32.675781 M 222.820312 34.171875 L 222.820312 34.917969 L 222.074219 34.917969 L 222.074219 34.171875 M 222.820312 35.667969 L 222.820312 36.417969 L 222.074219 36.417969 L 222.074219 35.667969 M 222.820312 37.164062 L 222.820312 37.914062 L 222.074219 37.914062 L 222.074219 37.164062 M 222.820312 38.660156 L 222.820312 39.410156 L 222.074219 39.410156 L 222.074219 38.660156 M 222.820312 40.160156 L 222.820312 40.90625 L 222.074219 40.90625 L 222.074219 40.160156 M 222.820312 41.65625 L 222.820312 42.402344 L 222.074219 42.402344 L 222.074219 41.65625 M 222.820312 43.152344 L 222.820312 43.902344 L 222.074219 43.902344 L 222.074219 43.152344 M 222.820312 44.648438 L 222.820312 45.398438 L 222.074219 45.398438 L 222.074219 44.648438 M 222.820312 46.144531 L 222.820312 46.894531 L 222.074219 46.894531 L 222.074219 46.144531 M 222.820312 47.640625 L 222.820312 48.390625 L 222.074219 48.390625 L 222.074219 47.640625 M 222.820312 49.140625 L 222.820312 49.886719 L 222.074219 49.886719 L 222.074219 49.140625 M 222.820312 50.636719 L 222.820312 51.382812 L 222.074219 51.382812 L 222.074219 50.636719 M 222.820312 52.132812 L 222.820312 52.882812 L 222.074219 52.882812 L 222.074219 52.132812 M 222.820312 53.628906 L 222.820312 54.378906 L 222.074219 54.378906 L 222.074219 53.628906 M 222.820312 55.125 L 222.820312 55.875 L 222.074219 55.875 L 222.074219 55.125 M 222.820312 56.625 L 222.820312 57.371094 L 222.074219 57.371094 L 222.074219 56.625 M 222.820312 58.121094 L 222.820312 58.867188 L 222.074219 58.867188 L 222.074219 58.121094 M 222.820312 59.617188 L 222.820312 60.367188 L 222.074219 60.367188 L 222.074219 59.617188 M 222.820312 61.113281 L 222.820312 61.863281 L 222.074219 61.863281 L 222.074219 61.113281 M 222.820312 62.609375 L 222.820312 63.359375 L 222.074219 63.359375 L 222.074219 62.609375 M 222.820312 64.109375 L 222.820312 64.855469 L 222.074219 64.855469 L 222.074219 64.109375 M 222.820312 65.605469 L 222.820312 66.351562 L 222.074219 66.351562 L 222.074219 65.605469 M 222.820312 67.101562 L 222.820312 67.851562 L 222.074219 67.851562 L 222.074219 67.101562 M 222.820312 68.597656 L 222.820312 69.347656 L 222.074219 69.347656 L 222.074219 68.597656 M 222.820312 70.09375 L 222.820312 70.84375 L 222.074219 70.84375 L 222.074219 70.09375 M 222.820312 71.59375 L 222.820312 72.339844 L 222.074219 72.339844 L 222.074219 71.59375 M 222.820312 73.089844 L 222.820312 73.835938 L 222.074219 73.835938 L 222.074219 73.089844 M 222.820312 74.585938 L 222.820312 75.335938 L 222.074219 75.335938 L 222.074219 74.585938 M 222.820312 76.082031 L 222.820312 76.832031 L 222.074219 76.832031 L 222.074219 76.082031 M 222.820312 77.578125 L 222.820312 78.328125 L 222.074219 78.328125 L 222.074219 77.578125 M 222.820312 79.078125 L 222.820312 79.824219 L 222.074219 79.824219 L 222.074219 79.078125 M 222.820312 80.574219 L 222.820312 81.320312 L 222.074219 81.320312 L 222.074219 80.574219 M 222.820312 82.070312 L 222.820312 82.820312 L 222.074219 82.820312 L 222.074219 82.070312 M 222.820312 83.566406 L 222.820312 84.316406 L 222.074219 84.316406 L 222.074219 83.566406 M 222.820312 85.0625 L 222.820312 85.8125 L 222.074219 85.8125 L 222.074219 85.0625 M 222.820312 86.5625 L 222.820312 87.308594 L 222.074219 87.308594 L 222.074219 86.5625 M 222.820312 88.058594 L 222.820312 88.804688 L 222.074219 88.804688 L 222.074219 88.058594 M 222.820312 89.554688 L 222.820312 90.304688 L 222.074219 90.304688 L 222.074219 89.554688 M 222.820312 91.050781 L 222.820312 91.800781 L 222.074219 91.800781 L 222.074219 91.050781 M 222.820312 92.546875 L 222.820312 93.296875 L 222.074219 93.296875 L 222.074219 92.546875 M 222.820312 94.046875 L 222.820312 94.792969 L 222.074219 94.792969 L 222.074219 94.046875 M 222.820312 95.542969 L 222.820312 96.289062 L 222.074219 96.289062 L 222.074219 95.542969 M 222.820312 97.039062 L 222.820312 97.789062 L 222.074219 97.789062 L 222.074219 97.039062 M 222.820312 98.535156 L 222.820312 99.285156 L 222.074219 99.285156 L 222.074219 98.535156 M 222.820312 100.03125 L 222.820312 100.78125 L 222.074219 100.78125 L 222.074219 100.03125 M 222.820312 101.53125 L 222.820312 102.277344 L 222.074219 102.277344 L 222.074219 101.53125 M 222.820312 103.027344 L 222.820312 103.773438 L 222.074219 103.773438 L 222.074219 103.027344 M 222.820312 104.523438 L 222.820312 105.273438 L 222.074219 105.273438 L 222.074219 104.523438 M 222.820312 106.019531 L 222.820312 106.769531 L 222.074219 106.769531 L 222.074219 106.019531 M 222.820312 107.515625 L 222.820312 108.265625 L 222.074219 108.265625 L 222.074219 107.515625 M 222.820312 109.015625 L 222.820312 109.761719 L 222.074219 109.761719 L 222.074219 109.015625 M 222.820312 110.511719 L 222.820312 111.257812 L 222.074219 111.257812 L 222.074219 110.511719 M 222.820312 112.007812 L 222.820312 112.757812 L 222.074219 112.757812 L 222.074219 112.007812 M 222.820312 113.503906 L 222.820312 114.253906 L 222.074219 114.253906 L 222.074219 113.503906 M 222.820312 115 L 222.820312 115.75 L 222.074219 115.75 L 222.074219 115 M 222.820312 116.5 L 222.820312 117.246094 L 222.074219 117.246094 L 222.074219 116.5 M 222.820312 117.996094 L 222.820312 118.742188 L 222.074219 118.742188 L 222.074219 117.996094 M 222.820312 119.492188 L 222.820312 120.242188 L 222.074219 120.242188 L 222.074219 119.492188 M 222.820312 120.988281 L 222.820312 121.738281 L 222.074219 121.738281 L 222.074219 120.988281 M 222.820312 122.484375 L 222.820312 123.234375 L 222.074219 123.234375 L 222.074219 122.484375 M 222.820312 123.984375 L 222.820312 124.730469 L 222.074219 124.730469 L 222.074219 123.984375 M 222.820312 125.480469 L 222.820312 126.226562 L 222.074219 126.226562 L 222.074219 125.480469 M 222.820312 126.976562 L 222.820312 127.726562 L 222.074219 127.726562 L 222.074219 126.976562 M 222.820312 128.472656 L 222.820312 129.222656 L 222.074219 129.222656 L 222.074219 128.472656 M 222.820312 129.96875 L 222.820312 130.71875 L 222.074219 130.71875 L 222.074219 129.96875 M 222.820312 131.46875 L 222.820312 132.214844 L 222.074219 132.214844 L 222.074219 131.46875 M 222.820312 132.964844 L 222.820312 133.710938 L 222.074219 133.710938 L 222.074219 132.964844 M 222.820312 134.460938 L 222.820312 135.210938 L 222.074219 135.210938 L 222.074219 134.460938 M 222.820312 135.957031 L 222.820312 136.707031 L 222.074219 136.707031 L 222.074219 135.957031 M 222.820312 137.453125 L 222.820312 138.203125 L 222.074219 138.203125 L 222.074219 137.453125 M 222.820312 138.949219 L 222.820312 139.699219 L 222.074219 139.699219 L 222.074219 138.949219 M 222.820312 140.449219 L 222.820312 141.195312 L 222.074219 141.195312 L 222.074219 140.449219 M 222.820312 141.945312 L 222.820312 142.691406 L 222.074219 142.691406 L 222.074219 141.945312 M 222.820312 143.441406 L 222.820312 144.191406 L 222.074219 144.191406 L 222.074219 143.441406 M 222.820312 144.9375 L 222.820312 145.6875 L 222.074219 145.6875 L 222.074219 144.9375 M 222.820312 146.433594 L 222.820312 147.183594 L 222.074219 147.183594 L 222.074219 146.433594 M 222.820312 147.933594 L 222.820312 148.679688 L 222.074219 148.679688 L 222.074219 147.933594 M 222.820312 149.429688 L 222.820312 150.175781 L 222.074219 150.175781 L 222.074219 149.429688 M 222.820312 150.925781 L 222.820312 151.675781 L 222.074219 151.675781 L 222.074219 150.925781 M 222.820312 152.421875 L 222.820312 153.171875 L 222.074219 153.171875 L 222.074219 152.421875 M 222.820312 153.917969 L 222.820312 154.667969 L 222.074219 154.667969 L 222.074219 153.917969 M 222.820312 155.417969 L 222.820312 156.164062 L 222.074219 156.164062 L 222.074219 155.417969 M 222.820312 156.914062 L 222.820312 157.660156 L 222.074219 157.660156 L 222.074219 156.914062 M 222.820312 158.410156 L 222.820312 159.160156 L 222.074219 159.160156 L 222.074219 158.410156 M 222.820312 159.90625 L 222.820312 160.65625 L 222.074219 160.65625 L 222.074219 159.90625 M 222.820312 161.402344 L 222.820312 162.152344 L 222.074219 162.152344 L 222.074219 161.402344 M 222.820312 162.902344 L 222.820312 163.648438 L 222.074219 163.648438 L 222.074219 162.902344 M 222.820312 164.398438 L 222.820312 165.144531 L 222.074219 165.144531 L 222.074219 164.398438 M 222.820312 165.894531 L 222.820312 166.644531 L 222.074219 166.644531 L 222.074219 165.894531 M 222.820312 167.390625 L 222.820312 168.140625 L 222.074219 168.140625 L 222.074219 167.390625 M 222.820312 168.886719 L 222.820312 169.636719 L 222.074219 169.636719 L 222.074219 168.886719 M 222.820312 170.386719 L 222.820312 171.132812 L 222.074219 171.132812 L 222.074219 170.386719 M 222.820312 171.882812 L 222.820312 172.628906 L 222.074219 172.628906 L 222.074219 171.882812 M 222.820312 173.378906 L 222.820312 174.128906 L 222.074219 174.128906 L 222.074219 173.378906 M 222.820312 174.875 L 222.820312 175.625 L 222.074219 175.625 L 222.074219 174.875 M 222.820312 176.371094 L 222.820312 177.121094 L 222.074219 177.121094 L 222.074219 176.371094 M 222.820312 177.871094 L 222.820312 178.617188 L 222.074219 178.617188 L 222.074219 177.871094 M 222.820312 179.367188 L 222.820312 180.113281 L 222.074219 180.113281 L 222.074219 179.367188 M 222.820312 180.863281 L 222.820312 181.613281 L 222.074219 181.613281 L 222.074219 180.863281 M 222.820312 182.359375 L 222.820312 183.109375 L 222.074219 183.109375 L 222.074219 182.359375 M 222.820312 183.855469 L 222.820312 184.605469 L 222.074219 184.605469 L 222.074219 183.855469 M 222.820312 185.355469 L 222.820312 186.101562 L 222.074219 186.101562 L 222.074219 185.355469 M 222.820312 186.851562 L 222.820312 187.597656 L 222.074219 187.597656 L 222.074219 186.851562 M 222.820312 188.347656 L 222.820312 189.097656 L 222.074219 189.097656 L 222.074219 188.347656 M 222.820312 189.84375 L 222.820312 190.59375 L 222.074219 190.59375 L 222.074219 189.84375 M 222.820312 191.339844 L 222.820312 192.089844 L 222.074219 192.089844 L 222.074219 191.339844 M 222.820312 192.839844 L 222.820312 193.585938 L 222.074219 193.585938 L 222.074219 192.839844 M 222.820312 194.335938 L 222.820312 195.082031 L 222.074219 195.082031 L 222.074219 194.335938 M 222.820312 195.832031 L 222.820312 196.582031 L 222.074219 196.582031 L 222.074219 195.832031 " fill-opacity="1" fill-rule="nonzero"/><g fill="#000000" fill-opacity="1"><g transform="translate(211.340435, 22.200042)"><g><path d="M 0.546875 -2.75 L 2.9375 -2.75 L 2.9375 -2.1875 L 0.546875 -2.1875 Z M 0.546875 -2.75 "/></g></g></g><g fill="#000000" fill-opacity="1"><g transform="translate(214.824333, 22.200042)"><g><path d="M 2.640625 -3.65625 C 3.316406 -3.613281 3.828125 -3.429688 4.171875 -3.109375 C 4.523438 -2.785156 4.703125 -2.359375 4.703125 -1.828125 C 4.703125 -1.460938 4.613281 -1.140625 4.4375 -0.859375 C 4.257812 -0.578125 3.992188 -0.351562 3.640625 -0.1875 C 3.296875 -0.0195312 2.875 0.0625 2.375 0.0625 C 1.914062 0.0625 1.476562 -0.0078125 1.0625 -0.15625 C 0.65625 -0.3125 0.328125 -0.515625 0.078125 -0.765625 L 0.40625 -1.28125 C 0.613281 -1.0625 0.894531 -0.882812 1.25 -0.75 C 1.601562 -0.613281 1.976562 -0.546875 2.375 -0.546875 C 2.90625 -0.546875 3.3125 -0.660156 3.59375 -0.890625 C 3.882812 -1.117188 4.03125 -1.429688 4.03125 -1.828125 C 4.03125 -2.222656 3.882812 -2.535156 3.59375 -2.765625 C 3.3125 -2.992188 2.878906 -3.109375 2.296875 -3.109375 L 1.84375 -3.109375 L 1.84375 -3.59375 L 3.609375 -5.796875 L 0.34375 -5.796875 L 0.34375 -6.390625 L 4.453125 -6.390625 L 4.453125 -5.921875 Z M 2.640625 -3.65625 "/></g></g></g><g fill="#000000" fill-opacity="1"><g transform="translate(219.968105, 22.200042)"><g><path d="M 5.90625 -1.671875 L 4.625 -1.671875 L 4.625 0 L 3.96875 0 L 3.96875 -1.671875 L 0.359375 -1.671875 L 0.359375 -2.15625 L 3.75 -6.390625 L 4.484375 -6.390625 L 1.21875 -2.265625 L 3.984375 -2.265625 L 3.984375 -3.734375 L 4.625 -3.734375 L 4.625 -2.265625 L 5.90625 -2.265625 Z M 5.90625 -1.671875 "/></g></g></g><g fill="#000000" fill-opacity="1"><g transform="translate(225.99653, 22.200042)"><g><path d="M 1.828125 -2.96875 C 1.390625 -2.96875 1.039062 -3.125 0.78125 -3.4375 C 0.519531 -3.757812 0.390625 -4.179688 0.390625 -4.703125 C 0.390625 -5.210938 0.519531 -5.628906 0.78125 -5.953125 C 1.039062 -6.273438 1.390625 -6.4375 1.828125 -6.4375 C 2.253906 -6.4375 2.597656 -6.273438 2.859375 -5.953125 C 3.128906 -5.640625 3.265625 -5.222656 3.265625 -4.703125 C 3.265625 -4.179688 3.128906 -3.757812 2.859375 -3.4375 C 2.597656 -3.125 2.253906 -2.96875 1.828125 -2.96875 Z M 5.6875 -6.390625 L 6.234375 -6.390625 L 1.875 0 L 1.328125 0 Z M 1.828125 -3.375 C 2.117188 -3.375 2.351562 -3.488281 2.53125 -3.71875 C 2.71875 -3.957031 2.8125 -4.285156 2.8125 -4.703125 C 2.8125 -5.109375 2.71875 -5.425781 2.53125 -5.65625 C 2.351562 -5.894531 2.117188 -6.015625 1.828125 -6.015625 C 1.523438 -6.015625 1.285156 -5.894531 1.109375 -5.65625 C 0.929688 -5.425781 0.84375 -5.109375 0.84375 -4.703125 C 0.84375 -4.296875 0.929688 -3.972656 1.109375 -3.734375 C 1.285156 -3.492188 1.523438 -3.375 1.828125 -3.375 Z M 5.734375 0.046875 C 5.304688 0.046875 4.957031 -0.109375 4.6875 -0.421875 C 4.425781 -0.742188 4.296875 -1.164062 4.296875 -1.6875 C 4.296875 -2.207031 4.425781 -2.625 4.6875 -2.9375 C 4.957031 -3.257812 5.304688 -3.421875 5.734375 -3.421875 C 6.171875 -3.421875 6.519531 -3.257812 6.78125 -2.9375 C 7.050781 -2.625 7.1875 -2.207031 7.1875 -1.6875 C 7.1875 -1.164062 7.050781 -0.742188 6.78125 -0.421875 C 6.519531 -0.109375 6.171875 0.046875 5.734375 0.046875 Z M 5.734375 -0.359375 C 6.046875 -0.359375 6.285156 -0.476562 6.453125 -0.71875 C 6.628906 -0.957031 6.71875 -1.28125 6.71875 -1.6875 C 6.71875 -2.09375 6.628906 -2.414062 6.453125 -2.65625 C 6.285156 -2.894531 6.046875 -3.015625 5.734375 -3.015625 C 5.441406 -3.015625 5.203125 -2.894531 5.015625 -2.65625 C 4.835938 -2.425781 4.75 -2.101562 4.75 -1.6875 C 4.75 -1.269531 4.835938 -0.941406 5.015625 -0.703125 C 5.203125 -0.472656 5.441406 -0.359375 5.734375 -0.359375 Z M 5.734375 -0.359375 "/></g></g></g><g fill="#000000" fill-opacity="1"><g transform="translate(115.289494, 22.200042)"><g><path d="M 0.546875 -2.75 L 2.9375 -2.75 L 2.9375 -2.1875 L 0.546875 -2.1875 Z M 0.546875 -2.75 "/></g></g></g><g fill="#000000" fill-opacity="1"><g transform="translate(118.773392, 22.200042)"><g><path d="M 2.25 -6.390625 L 2.25 0 L 1.59375 0 L 1.59375 -5.796875 L 0.078125 -5.796875 L 0.078125 -6.390625 Z M 2.25 -6.390625 "/></g></g></g><g fill="#000000" fill-opacity="1"><g transform="translate(122.065768, 22.200042)"><g><path d="M 2.640625 -3.65625 C 3.316406 -3.613281 3.828125 -3.429688 4.171875 -3.109375 C 4.523438 -2.785156 4.703125 -2.359375 4.703125 -1.828125 C 4.703125 -1.460938 4.613281 -1.140625 4.4375 -0.859375 C 4.257812 -0.578125 3.992188 -0.351562 3.640625 -0.1875 C 3.296875 -0.0195312 2.875 0.0625 2.375 0.0625 C 1.914062 0.0625 1.476562 -0.0078125 1.0625 -0.15625 C 0.65625 -0.3125 0.328125 -0.515625 0.078125 -0.765625 L 0.40625 -1.28125 C 0.613281 -1.0625 0.894531 -0.882812 1.25 -0.75 C 1.601562 -0.613281 1.976562 -0.546875 2.375 -0.546875 C 2.90625 -0.546875 3.3125 -0.660156 3.59375 -0.890625 C 3.882812 -1.117188 4.03125 -1.429688 4.03125 -1.828125 C 4.03125 -2.222656 3.882812 -2.535156 3.59375 -2.765625 C 3.3125 -2.992188 2.878906 -3.109375 2.296875 -3.109375 L 1.84375 -3.109375 L 1.84375 -3.59375 L 3.609375 -5.796875 L 0.34375 -5.796875 L 0.34375 -6.390625 L 4.453125 -6.390625 L 4.453125 -5.921875 Z M 2.640625 -3.65625 "/></g></g></g><g fill="#000000" fill-opacity="1"><g transform="translate(127.209539, 22.200042)"><g><path d="M 0.96875 0.046875 C 0.832031 0.046875 0.71875 0 0.625 -0.09375 C 0.53125 -0.195312 0.484375 -0.316406 0.484375 -0.453125 C 0.484375 -0.597656 0.53125 -0.71875 0.625 -0.8125 C 0.71875 -0.90625 0.832031 -0.953125 0.96875 -0.953125 C 1.101562 -0.953125 1.21875 -0.90625 1.3125 -0.8125 C 1.40625 -0.71875 1.453125 -0.597656 1.453125 -0.453125 C 1.453125 -0.316406 1.40625 -0.195312 1.3125 -0.09375 C 1.21875 0 1.101562 0.046875 0.96875 0.046875 Z M 0.96875 0.046875 "/></g></g></g><g fill="#000000" fill-opacity="1"><g transform="translate(129.143011, 22.200042)"><g><path d="M 3.125 -3.828125 C 3.539062 -3.828125 3.910156 -3.742188 4.234375 -3.578125 C 4.566406 -3.421875 4.820312 -3.195312 5 -2.90625 C 5.1875 -2.625 5.28125 -2.289062 5.28125 -1.90625 C 5.28125 -1.519531 5.179688 -1.175781 4.984375 -0.875 C 4.796875 -0.570312 4.535156 -0.335938 4.203125 -0.171875 C 3.878906 -0.015625 3.507812 0.0625 3.09375 0.0625 C 2.25 0.0625 1.597656 -0.210938 1.140625 -0.765625 C 0.691406 -1.328125 0.46875 -2.117188 0.46875 -3.140625 C 0.46875 -3.847656 0.585938 -4.445312 0.828125 -4.9375 C 1.078125 -5.4375 1.421875 -5.8125 1.859375 -6.0625 C 2.296875 -6.3125 2.804688 -6.4375 3.390625 -6.4375 C 4.023438 -6.4375 4.53125 -6.320312 4.90625 -6.09375 L 4.640625 -5.5625 C 4.335938 -5.769531 3.925781 -5.875 3.40625 -5.875 C 2.695312 -5.875 2.140625 -5.648438 1.734375 -5.203125 C 1.335938 -4.753906 1.140625 -4.101562 1.140625 -3.25 C 1.140625 -3.09375 1.148438 -2.921875 1.171875 -2.734375 C 1.328125 -3.078125 1.578125 -3.34375 1.921875 -3.53125 C 2.273438 -3.726562 2.675781 -3.828125 3.125 -3.828125 Z M 3.0625 -0.5 C 3.53125 -0.5 3.90625 -0.625 4.1875 -0.875 C 4.476562 -1.132812 4.625 -1.472656 4.625 -1.890625 C 4.625 -2.304688 4.476562 -2.640625 4.1875 -2.890625 C 3.90625 -3.140625 3.515625 -3.265625 3.015625 -3.265625 C 2.691406 -3.265625 2.40625 -3.203125 2.15625 -3.078125 C 1.914062 -2.960938 1.722656 -2.796875 1.578125 -2.578125 C 1.441406 -2.367188 1.375 -2.132812 1.375 -1.875 C 1.375 -1.625 1.4375 -1.394531 1.5625 -1.1875 C 1.695312 -0.988281 1.890625 -0.820312 2.140625 -0.6875 C 2.398438 -0.5625 2.707031 -0.5 3.0625 -0.5 Z M 3.0625 -0.5 "/></g></g></g><g fill="#000000" fill-opacity="1"><g transform="translate(134.697187, 22.200042)"><g><path d="M 1.828125 -2.96875 C 1.390625 -2.96875 1.039062 -3.125 0.78125 -3.4375 C 0.519531 -3.757812 0.390625 -4.179688 0.390625 -4.703125 C 0.390625 -5.210938 0.519531 -5.628906 0.78125 -5.953125 C 1.039062 -6.273438 1.390625 -6.4375 1.828125 -6.4375 C 2.253906 -6.4375 2.597656 -6.273438 2.859375 -5.953125 C 3.128906 -5.640625 3.265625 -5.222656 3.265625 -4.703125 C 3.265625 -4.179688 3.128906 -3.757812 2.859375 -3.4375 C 2.597656 -3.125 2.253906 -2.96875 1.828125 -2.96875 Z M 5.6875 -6.390625 L 6.234375 -6.390625 L 1.875 0 L 1.328125 0 Z M 1.828125 -3.375 C 2.117188 -3.375 2.351562 -3.488281 2.53125 -3.71875 C 2.71875 -3.957031 2.8125 -4.285156 2.8125 -4.703125 C 2.8125 -5.109375 2.71875 -5.425781 2.53125 -5.65625 C 2.351562 -5.894531 2.117188 -6.015625 1.828125 -6.015625 C 1.523438 -6.015625 1.285156 -5.894531 1.109375 -5.65625 C 0.929688 -5.425781 0.84375 -5.109375 0.84375 -4.703125 C 0.84375 -4.296875 0.929688 -3.972656 1.109375 -3.734375 C 1.285156 -3.492188 1.523438 -3.375 1.828125 -3.375 Z M 5.734375 0.046875 C 5.304688 0.046875 4.957031 -0.109375 4.6875 -0.421875 C 4.425781 -0.742188 4.296875 -1.164062 4.296875 -1.6875 C 4.296875 -2.207031 4.425781 -2.625 4.6875 -2.9375 C 4.957031 -3.257812 5.304688 -3.421875 5.734375 -3.421875 C 6.171875 -3.421875 6.519531 -3.257812 6.78125 -2.9375 C 7.050781 -2.625 7.1875 -2.207031 7.1875 -1.6875 C 7.1875 -1.164062 7.050781 -0.742188 6.78125 -0.421875 C 6.519531 -0.109375 6.171875 0.046875 5.734375 0.046875 Z M 5.734375 -0.359375 C 6.046875 -0.359375 6.285156 -0.476562 6.453125 -0.71875 C 6.628906 -0.957031 6.71875 -1.28125 6.71875 -1.6875 C 6.71875 -2.09375 6.628906 -2.414062 6.453125 -2.65625 C 6.285156 -2.894531 6.046875 -3.015625 5.734375 -3.015625 C 5.441406 -3.015625 5.203125 -2.894531 5.015625 -2.65625 C 4.835938 -2.425781 4.75 -2.101562 4.75 -1.6875 C 4.75 -1.269531 4.835938 -0.941406 5.015625 -0.703125 C 5.203125 -0.472656 5.441406 -0.359375 5.734375 -0.359375 Z M 5.734375 -0.359375 "/></g></g></g><g fill="#000000" fill-opacity="1"><g transform="translate(20.931742, 22.200042)"><g><path d="M 0.546875 -2.75 L 2.9375 -2.75 L 2.9375 -2.1875 L 0.546875 -2.1875 Z M 0.546875 -2.75 "/></g></g></g><g fill="#000000" fill-opacity="1"><g transform="translate(24.41564, 22.200042)"><g><path d="M 4.84375 -0.578125 L 4.84375 0 L 0.359375 0 L 0.359375 -0.46875 L 3.015625 -3.0625 C 3.347656 -3.394531 3.570312 -3.679688 3.6875 -3.921875 C 3.8125 -4.160156 3.875 -4.398438 3.875 -4.640625 C 3.875 -5.015625 3.742188 -5.304688 3.484375 -5.515625 C 3.222656 -5.734375 2.851562 -5.84375 2.375 -5.84375 C 1.625 -5.84375 1.039062 -5.601562 0.625 -5.125 L 0.171875 -5.53125 C 0.410156 -5.820312 0.722656 -6.046875 1.109375 -6.203125 C 1.503906 -6.359375 1.941406 -6.4375 2.421875 -6.4375 C 3.078125 -6.4375 3.59375 -6.28125 3.96875 -5.96875 C 4.351562 -5.664062 4.546875 -5.25 4.546875 -4.71875 C 4.546875 -4.382812 4.472656 -4.066406 4.328125 -3.765625 C 4.179688 -3.460938 3.90625 -3.113281 3.5 -2.71875 L 1.328125 -0.578125 Z M 4.84375 -0.578125 "/></g></g></g><g fill="#000000" fill-opacity="1"><g transform="translate(29.595892, 22.200042)"><g><path d="M 0.96875 0.046875 C 0.832031 0.046875 0.71875 0 0.625 -0.09375 C 0.53125 -0.195312 0.484375 -0.316406 0.484375 -0.453125 C 0.484375 -0.597656 0.53125 -0.71875 0.625 -0.8125 C 0.71875 -0.90625 0.832031 -0.953125 0.96875 -0.953125 C 1.101562 -0.953125 1.21875 -0.90625 1.3125 -0.8125 C 1.40625 -0.71875 1.453125 -0.597656 1.453125 -0.453125 C 1.453125 -0.316406 1.40625 -0.195312 1.3125 -0.09375 C 1.21875 0 1.101562 0.046875 0.96875 0.046875 Z M 0.96875 0.046875 "/></g></g></g><g fill="#000000" fill-opacity="1"><g transform="translate(31.529364, 22.200042)"><g><path d="M 2.25 -6.390625 L 2.25 0 L 1.59375 0 L 1.59375 -5.796875 L 0.078125 -5.796875 L 0.078125 -6.390625 Z M 2.25 -6.390625 "/></g></g></g><g fill="#000000" fill-opacity="1"><g transform="translate(34.821739, 22.200042)"><g><path d="M 5.90625 -1.671875 L 4.625 -1.671875 L 4.625 0 L 3.96875 0 L 3.96875 -1.671875 L 0.359375 -1.671875 L 0.359375 -2.15625 L 3.75 -6.390625 L 4.484375 -6.390625 L 1.21875 -2.265625 L 3.984375 -2.265625 L 3.984375 -3.734375 L 4.625 -3.734375 L 4.625 -2.265625 L 5.90625 -2.265625 Z M 5.90625 -1.671875 "/></g></g></g><g fill="#000000" fill-opacity="1"><g transform="translate(40.850165, 22.200042)"><g><path d="M 1.828125 -2.96875 C 1.390625 -2.96875 1.039062 -3.125 0.78125 -3.4375 C 0.519531 -3.757812 0.390625 -4.179688 0.390625 -4.703125 C 0.390625 -5.210938 0.519531 -5.628906 0.78125 -5.953125 C 1.039062 -6.273438 1.390625 -6.4375 1.828125 -6.4375 C 2.253906 -6.4375 2.597656 -6.273438 2.859375 -5.953125 C 3.128906 -5.640625 3.265625 -5.222656 3.265625 -4.703125 C 3.265625 -4.179688 3.128906 -3.757812 2.859375 -3.4375 C 2.597656 -3.125 2.253906 -2.96875 1.828125 -2.96875 Z M 5.6875 -6.390625 L 6.234375 -6.390625 L 1.875 0 L 1.328125 0 Z M 1.828125 -3.375 C 2.117188 -3.375 2.351562 -3.488281 2.53125 -3.71875 C 2.71875 -3.957031 2.8125 -4.285156 2.8125 -4.703125 C 2.8125 -5.109375 2.71875 -5.425781 2.53125 -5.65625 C 2.351562 -5.894531 2.117188 -6.015625 1.828125 -6.015625 C 1.523438 -6.015625 1.285156 -5.894531 1.109375 -5.65625 C 0.929688 -5.425781 0.84375 -5.109375 0.84375 -4.703125 C 0.84375 -4.296875 0.929688 -3.972656 1.109375 -3.734375 C 1.285156 -3.492188 1.523438 -3.375 1.828125 -3.375 Z M 5.734375 0.046875 C 5.304688 0.046875 4.957031 -0.109375 4.6875 -0.421875 C 4.425781 -0.742188 4.296875 -1.164062 4.296875 -1.6875 C 4.296875 -2.207031 4.425781 -2.625 4.6875 -2.9375 C 4.957031 -3.257812 5.304688 -3.421875 5.734375 -3.421875 C 6.171875 -3.421875 6.519531 -3.257812 6.78125 -2.9375 C 7.050781 -2.625 7.1875 -2.207031 7.1875 -1.6875 C 7.1875 -1.164062 7.050781 -0.742188 6.78125 -0.421875 C 6.519531 -0.109375 6.171875 0.046875 5.734375 0.046875 Z M 5.734375 -0.359375 C 6.046875 -0.359375 6.285156 -0.476562 6.453125 -0.71875 C 6.628906 -0.957031 6.71875 -1.28125 6.71875 -1.6875 C 6.71875 -2.09375 6.628906 -2.414062 6.453125 -2.65625 C 6.285156 -2.894531 6.046875 -3.015625 5.734375 -3.015625 C 5.441406 -3.015625 5.203125 -2.894531 5.015625 -2.65625 C 4.835938 -2.425781 4.75 -2.101562 4.75 -1.6875 C 4.75 -1.269531 4.835938 -0.941406 5.015625 -0.703125 C 5.203125 -0.472656 5.441406 -0.359375 5.734375 -0.359375 Z M 5.734375 -0.359375 "/></g></g></g><g fill="#000000" fill-opacity="1"><g transform="translate(586.280021, 22.200042)"><g><path d="M 4.84375 -0.578125 L 4.84375 0 L 0.359375 0 L 0.359375 -0.46875 L 3.015625 -3.0625 C 3.347656 -3.394531 3.570312 -3.679688 3.6875 -3.921875 C 3.8125 -4.160156 3.875 -4.398438 3.875 -4.640625 C 3.875 -5.015625 3.742188 -5.304688 3.484375 -5.515625 C 3.222656 -5.734375 2.851562 -5.84375 2.375 -5.84375 C 1.625 -5.84375 1.039062 -5.601562 0.625 -5.125 L 0.171875 -5.53125 C 0.410156 -5.820312 0.722656 -6.046875 1.109375 -6.203125 C 1.503906 -6.359375 1.941406 -6.4375 2.421875 -6.4375 C 3.078125 -6.4375 3.59375 -6.28125 3.96875 -5.96875 C 4.351562 -5.664062 4.546875 -5.25 4.546875 -4.71875 C 4.546875 -4.382812 4.472656 -4.066406 4.328125 -3.765625 C 4.179688 -3.460938 3.90625 -3.113281 3.5 -2.71875 L 1.328125 -0.578125 Z M 4.84375 -0.578125 "/></g></g></g><g fill="#000000" fill-opacity="1"><g transform="translate(591.460273, 22.200042)"><g><path d="M 0.96875 0.046875 C 0.832031 0.046875 0.71875 0 0.625 -0.09375 C 0.53125 -0.195312 0.484375 -0.316406 0.484375 -0.453125 C 0.484375 -0.597656 0.53125 -0.71875 0.625 -0.8125 C 0.71875 -0.90625 0.832031 -0.953125 0.96875 -0.953125 C 1.101562 -0.953125 1.21875 -0.90625 1.3125 -0.8125 C 1.40625 -0.71875 1.453125 -0.597656 1.453125 -0.453125 C 1.453125 -0.316406 1.40625 -0.195312 1.3125 -0.09375 C 1.21875 0 1.101562 0.046875 0.96875 0.046875 Z M 0.96875 0.046875 "/></g></g></g><g fill="#000000" fill-opacity="1"><g transform="translate(593.393745, 22.200042)"><g><path d="M 2.25 -6.390625 L 2.25 0 L 1.59375 0 L 1.59375 -5.796875 L 0.078125 -5.796875 L 0.078125 -6.390625 Z M 2.25 -6.390625 "/></g></g></g><g fill="#000000" fill-opacity="1"><g transform="translate(596.68612, 22.200042)"><g><path d="M 5.90625 -1.671875 L 4.625 -1.671875 L 4.625 0 L 3.96875 0 L 3.96875 -1.671875 L 0.359375 -1.671875 L 0.359375 -2.15625 L 3.75 -6.390625 L 4.484375 -6.390625 L 1.21875 -2.265625 L 3.984375 -2.265625 L 3.984375 -3.734375 L 4.625 -3.734375 L 4.625 -2.265625 L 5.90625 -2.265625 Z M 5.90625 -1.671875 "/></g></g></g><g fill="#000000" fill-opacity="1"><g transform="translate(602.714545, 22.200042)"><g><path d="M 1.828125 -2.96875 C 1.390625 -2.96875 1.039062 -3.125 0.78125 -3.4375 C 0.519531 -3.757812 0.390625 -4.179688 0.390625 -4.703125 C 0.390625 -5.210938 0.519531 -5.628906 0.78125 -5.953125 C 1.039062 -6.273438 1.390625 -6.4375 1.828125 -6.4375 C 2.253906 -6.4375 2.597656 -6.273438 2.859375 -5.953125 C 3.128906 -5.640625 3.265625 -5.222656 3.265625 -4.703125 C 3.265625 -4.179688 3.128906 -3.757812 2.859375 -3.4375 C 2.597656 -3.125 2.253906 -2.96875 1.828125 -2.96875 Z M 5.6875 -6.390625 L 6.234375 -6.390625 L 1.875 0 L 1.328125 0 Z M 1.828125 -3.375 C 2.117188 -3.375 2.351562 -3.488281 2.53125 -3.71875 C 2.71875 -3.957031 2.8125 -4.285156 2.8125 -4.703125 C 2.8125 -5.109375 2.71875 -5.425781 2.53125 -5.65625 C 2.351562 -5.894531 2.117188 -6.015625 1.828125 -6.015625 C 1.523438 -6.015625 1.285156 -5.894531 1.109375 -5.65625 C 0.929688 -5.425781 0.84375 -5.109375 0.84375 -4.703125 C 0.84375 -4.296875 0.929688 -3.972656 1.109375 -3.734375 C 1.285156 -3.492188 1.523438 -3.375 1.828125 -3.375 Z M 5.734375 0.046875 C 5.304688 0.046875 4.957031 -0.109375 4.6875 -0.421875 C 4.425781 -0.742188 4.296875 -1.164062 4.296875 -1.6875 C 4.296875 -2.207031 4.425781 -2.625 4.6875 -2.9375 C 4.957031 -3.257812 5.304688 -3.421875 5.734375 -3.421875 C 6.171875 -3.421875 6.519531 -3.257812 6.78125 -2.9375 C 7.050781 -2.625 7.1875 -2.207031 7.1875 -1.6875 C 7.1875 -1.164062 7.050781 -0.742188 6.78125 -0.421875 C 6.519531 -0.109375 6.171875 0.046875 5.734375 0.046875 Z M 5.734375 -0.359375 C 6.046875 -0.359375 6.285156 -0.476562 6.453125 -0.71875 C 6.628906 -0.957031 6.71875 -1.28125 6.71875 -1.6875 C 6.71875 -2.09375 6.628906 -2.414062 6.453125 -2.65625 C 6.285156 -2.894531 6.046875 -3.015625 5.734375 -3.015625 C 5.441406 -3.015625 5.203125 -2.894531 5.015625 -2.65625 C 4.835938 -2.425781 4.75 -2.101562 4.75 -1.6875 C 4.75 -1.269531 4.835938 -0.941406 5.015625 -0.703125 C 5.203125 -0.472656 5.441406 -0.359375 5.734375 -0.359375 Z M 5.734375 -0.359375 "/></g></g></g><g fill="#000000" fill-opacity="1"><g transform="translate(493.426401, 22.200042)"><g><path d="M 2.25 -6.390625 L 2.25 0 L 1.59375 0 L 1.59375 -5.796875 L 0.078125 -5.796875 L 0.078125 -6.390625 Z M 2.25 -6.390625 "/></g></g></g><g fill="#000000" fill-opacity="1"><g transform="translate(496.718776, 22.200042)"><g><path d="M 2.640625 -3.65625 C 3.316406 -3.613281 3.828125 -3.429688 4.171875 -3.109375 C 4.523438 -2.785156 4.703125 -2.359375 4.703125 -1.828125 C 4.703125 -1.460938 4.613281 -1.140625 4.4375 -0.859375 C 4.257812 -0.578125 3.992188 -0.351562 3.640625 -0.1875 C 3.296875 -0.0195312 2.875 0.0625 2.375 0.0625 C 1.914062 0.0625 1.476562 -0.0078125 1.0625 -0.15625 C 0.65625 -0.3125 0.328125 -0.515625 0.078125 -0.765625 L 0.40625 -1.28125 C 0.613281 -1.0625 0.894531 -0.882812 1.25 -0.75 C 1.601562 -0.613281 1.976562 -0.546875 2.375 -0.546875 C 2.90625 -0.546875 3.3125 -0.660156 3.59375 -0.890625 C 3.882812 -1.117188 4.03125 -1.429688 4.03125 -1.828125 C 4.03125 -2.222656 3.882812 -2.535156 3.59375 -2.765625 C 3.3125 -2.992188 2.878906 -3.109375 2.296875 -3.109375 L 1.84375 -3.109375 L 1.84375 -3.59375 L 3.609375 -5.796875 L 0.34375 -5.796875 L 0.34375 -6.390625 L 4.453125 -6.390625 L 4.453125 -5.921875 Z M 2.640625 -3.65625 "/></g></g></g><g fill="#000000" fill-opacity="1"><g transform="translate(501.862548, 22.200042)"><g><path d="M 0.96875 0.046875 C 0.832031 0.046875 0.71875 0 0.625 -0.09375 C 0.53125 -0.195312 0.484375 -0.316406 0.484375 -0.453125 C 0.484375 -0.597656 0.53125 -0.71875 0.625 -0.8125 C 0.71875 -0.90625 0.832031 -0.953125 0.96875 -0.953125 C 1.101562 -0.953125 1.21875 -0.90625 1.3125 -0.8125 C 1.40625 -0.71875 1.453125 -0.597656 1.453125 -0.453125 C 1.453125 -0.316406 1.40625 -0.195312 1.3125 -0.09375 C 1.21875 0 1.101562 0.046875 0.96875 0.046875 Z M 0.96875 0.046875 "/></g></g></g><g fill="#000000" fill-opacity="1"><g transform="translate(503.79602, 22.200042)"><g><path d="M 3.125 -3.828125 C 3.539062 -3.828125 3.910156 -3.742188 4.234375 -3.578125 C 4.566406 -3.421875 4.820312 -3.195312 5 -2.90625 C 5.1875 -2.625 5.28125 -2.289062 5.28125 -1.90625 C 5.28125 -1.519531 5.179688 -1.175781 4.984375 -0.875 C 4.796875 -0.570312 4.535156 -0.335938 4.203125 -0.171875 C 3.878906 -0.015625 3.507812 0.0625 3.09375 0.0625 C 2.25 0.0625 1.597656 -0.210938 1.140625 -0.765625 C 0.691406 -1.328125 0.46875 -2.117188 0.46875 -3.140625 C 0.46875 -3.847656 0.585938 -4.445312 0.828125 -4.9375 C 1.078125 -5.4375 1.421875 -5.8125 1.859375 -6.0625 C 2.296875 -6.3125 2.804688 -6.4375 3.390625 -6.4375 C 4.023438 -6.4375 4.53125 -6.320312 4.90625 -6.09375 L 4.640625 -5.5625 C 4.335938 -5.769531 3.925781 -5.875 3.40625 -5.875 C 2.695312 -5.875 2.140625 -5.648438 1.734375 -5.203125 C 1.335938 -4.753906 1.140625 -4.101562 1.140625 -3.25 C 1.140625 -3.09375 1.148438 -2.921875 1.171875 -2.734375 C 1.328125 -3.078125 1.578125 -3.34375 1.921875 -3.53125 C 2.273438 -3.726562 2.675781 -3.828125 3.125 -3.828125 Z M 3.0625 -0.5 C 3.53125 -0.5 3.90625 -0.625 4.1875 -0.875 C 4.476562 -1.132812 4.625 -1.472656 4.625 -1.890625 C 4.625 -2.304688 4.476562 -2.640625 4.1875 -2.890625 C 3.90625 -3.140625 3.515625 -3.265625 3.015625 -3.265625 C 2.691406 -3.265625 2.40625 -3.203125 2.15625 -3.078125 C 1.914062 -2.960938 1.722656 -2.796875 1.578125 -2.578125 C 1.441406 -2.367188 1.375 -2.132812 1.375 -1.875 C 1.375 -1.625 1.4375 -1.394531 1.5625 -1.1875 C 1.695312 -0.988281 1.890625 -0.820312 2.140625 -0.6875 C 2.398438 -0.5625 2.707031 -0.5 3.0625 -0.5 Z M 3.0625 -0.5 "/></g></g></g><g fill="#000000" fill-opacity="1"><g transform="translate(509.350196, 22.200042)"><g><path d="M 1.828125 -2.96875 C 1.390625 -2.96875 1.039062 -3.125 0.78125 -3.4375 C 0.519531 -3.757812 0.390625 -4.179688 0.390625 -4.703125 C 0.390625 -5.210938 0.519531 -5.628906 0.78125 -5.953125 C 1.039062 -6.273438 1.390625 -6.4375 1.828125 -6.4375 C 2.253906 -6.4375 2.597656 -6.273438 2.859375 -5.953125 C 3.128906 -5.640625 3.265625 -5.222656 3.265625 -4.703125 C 3.265625 -4.179688 3.128906 -3.757812 2.859375 -3.4375 C 2.597656 -3.125 2.253906 -2.96875 1.828125 -2.96875 Z M 5.6875 -6.390625 L 6.234375 -6.390625 L 1.875 0 L 1.328125 0 Z M 1.828125 -3.375 C 2.117188 -3.375 2.351562 -3.488281 2.53125 -3.71875 C 2.71875 -3.957031 2.8125 -4.285156 2.8125 -4.703125 C 2.8125 -5.109375 2.71875 -5.425781 2.53125 -5.65625 C 2.351562 -5.894531 2.117188 -6.015625 1.828125 -6.015625 C 1.523438 -6.015625 1.285156 -5.894531 1.109375 -5.65625 C 0.929688 -5.425781 0.84375 -5.109375 0.84375 -4.703125 C 0.84375 -4.296875 0.929688 -3.972656 1.109375 -3.734375 C 1.285156 -3.492188 1.523438 -3.375 1.828125 -3.375 Z M 5.734375 0.046875 C 5.304688 0.046875 4.957031 -0.109375 4.6875 -0.421875 C 4.425781 -0.742188 4.296875 -1.164062 4.296875 -1.6875 C 4.296875 -2.207031 4.425781 -2.625 4.6875 -2.9375 C 4.957031 -3.257812 5.304688 -3.421875 5.734375 -3.421875 C 6.171875 -3.421875 6.519531 -3.257812 6.78125 -2.9375 C 7.050781 -2.625 7.1875 -2.207031 7.1875 -1.6875 C 7.1875 -1.164062 7.050781 -0.742188 6.78125 -0.421875 C 6.519531 -0.109375 6.171875 0.046875 5.734375 0.046875 Z M 5.734375 -0.359375 C 6.046875 -0.359375 6.285156 -0.476562 6.453125 -0.71875 C 6.628906 -0.957031 6.71875 -1.28125 6.71875 -1.6875 C 6.71875 -2.09375 6.628906 -2.414062 6.453125 -2.65625 C 6.285156 -2.894531 6.046875 -3.015625 5.734375 -3.015625 C 5.441406 -3.015625 5.203125 -2.894531 5.015625 -2.65625 C 4.835938 -2.425781 4.75 -2.101562 4.75 -1.6875 C 4.75 -1.269531 4.835938 -0.941406 5.015625 -0.703125 C 5.203125 -0.472656 5.441406 -0.359375 5.734375 -0.359375 Z M 5.734375 -0.359375 "/></g></g></g><g fill="#000000" fill-opacity="1"><g transform="translate(401.701044, 22.200042)"><g><path d="M 2.640625 -3.65625 C 3.316406 -3.613281 3.828125 -3.429688 4.171875 -3.109375 C 4.523438 -2.785156 4.703125 -2.359375 4.703125 -1.828125 C 4.703125 -1.460938 4.613281 -1.140625 4.4375 -0.859375 C 4.257812 -0.578125 3.992188 -0.351562 3.640625 -0.1875 C 3.296875 -0.0195312 2.875 0.0625 2.375 0.0625 C 1.914062 0.0625 1.476562 -0.0078125 1.0625 -0.15625 C 0.65625 -0.3125 0.328125 -0.515625 0.078125 -0.765625 L 0.40625 -1.28125 C 0.613281 -1.0625 0.894531 -0.882812 1.25 -0.75 C 1.601562 -0.613281 1.976562 -0.546875 2.375 -0.546875 C 2.90625 -0.546875 3.3125 -0.660156 3.59375 -0.890625 C 3.882812 -1.117188 4.03125 -1.429688 4.03125 -1.828125 C 4.03125 -2.222656 3.882812 -2.535156 3.59375 -2.765625 C 3.3125 -2.992188 2.878906 -3.109375 2.296875 -3.109375 L 1.84375 -3.109375 L 1.84375 -3.59375 L 3.609375 -5.796875 L 0.34375 -5.796875 L 0.34375 -6.390625 L 4.453125 -6.390625 L 4.453125 -5.921875 Z M 2.640625 -3.65625 "/></g></g></g><g fill="#000000" fill-opacity="1"><g transform="translate(406.844816, 22.200042)"><g><path d="M 5.90625 -1.671875 L 4.625 -1.671875 L 4.625 0 L 3.96875 0 L 3.96875 -1.671875 L 0.359375 -1.671875 L 0.359375 -2.15625 L 3.75 -6.390625 L 4.484375 -6.390625 L 1.21875 -2.265625 L 3.984375 -2.265625 L 3.984375 -3.734375 L 4.625 -3.734375 L 4.625 -2.265625 L 5.90625 -2.265625 Z M 5.90625 -1.671875 "/></g></g></g><g fill="#000000" fill-opacity="1"><g transform="translate(412.873241, 22.200042)"><g><path d="M 1.828125 -2.96875 C 1.390625 -2.96875 1.039062 -3.125 0.78125 -3.4375 C 0.519531 -3.757812 0.390625 -4.179688 0.390625 -4.703125 C 0.390625 -5.210938 0.519531 -5.628906 0.78125 -5.953125 C 1.039062 -6.273438 1.390625 -6.4375 1.828125 -6.4375 C 2.253906 -6.4375 2.597656 -6.273438 2.859375 -5.953125 C 3.128906 -5.640625 3.265625 -5.222656 3.265625 -4.703125 C 3.265625 -4.179688 3.128906 -3.757812 2.859375 -3.4375 C 2.597656 -3.125 2.253906 -2.96875 1.828125 -2.96875 Z M 5.6875 -6.390625 L 6.234375 -6.390625 L 1.875 0 L 1.328125 0 Z M 1.828125 -3.375 C 2.117188 -3.375 2.351562 -3.488281 2.53125 -3.71875 C 2.71875 -3.957031 2.8125 -4.285156 2.8125 -4.703125 C 2.8125 -5.109375 2.71875 -5.425781 2.53125 -5.65625 C 2.351562 -5.894531 2.117188 -6.015625 1.828125 -6.015625 C 1.523438 -6.015625 1.285156 -5.894531 1.109375 -5.65625 C 0.929688 -5.425781 0.84375 -5.109375 0.84375 -4.703125 C 0.84375 -4.296875 0.929688 -3.972656 1.109375 -3.734375 C 1.285156 -3.492188 1.523438 -3.375 1.828125 -3.375 Z M 5.734375 0.046875 C 5.304688 0.046875 4.957031 -0.109375 4.6875 -0.421875 C 4.425781 -0.742188 4.296875 -1.164062 4.296875 -1.6875 C 4.296875 -2.207031 4.425781 -2.625 4.6875 -2.9375 C 4.957031 -3.257812 5.304688 -3.421875 5.734375 -3.421875 C 6.171875 -3.421875 6.519531 -3.257812 6.78125 -2.9375 C 7.050781 -2.625 7.1875 -2.207031 7.1875 -1.6875 C 7.1875 -1.164062 7.050781 -0.742188 6.78125 -0.421875 C 6.519531 -0.109375 6.171875 0.046875 5.734375 0.046875 Z M 5.734375 -0.359375 C 6.046875 -0.359375 6.285156 -0.476562 6.453125 -0.71875 C 6.628906 -0.957031 6.71875 -1.28125 6.71875 -1.6875 C 6.71875 -2.09375 6.628906 -2.414062 6.453125 -2.65625 C 6.285156 -2.894531 6.046875 -3.015625 5.734375 -3.015625 C 5.441406 -3.015625 5.203125 -2.894531 5.015625 -2.65625 C 4.835938 -2.425781 4.75 -2.101562 4.75 -1.6875 C 4.75 -1.269531 4.835938 -0.941406 5.015625 -0.703125 C 5.203125 -0.472656 5.441406 -0.359375 5.734375 -0.359375 Z M 5.734375 -0.359375 "/></g></g></g><g clip-path="url(#ec253ce20d)"><g clip-path="url(#1328f5ba8f)"><path fill="#f1833a" d="M 324.417969 26.679688 L 307.816406 26.679688 L 307.816406 12.15625 L 324.417969 12.15625 Z M 324.417969 26.679688 " fill-opacity="1" fill-rule="nonzero"/></g></g><g clip-path="url(#68596bcf91)"><path fill="#554266" d="M 34.671875 196.6875 L 597.742188 196.6875 L 597.742188 211.214844 L 34.671875 211.214844 Z M 34.671875 196.6875 " fill-opacity="1" fill-rule="nonzero"/></g><g clip-path="url(#1a8c80400a)"><g clip-path="url(#252f697551)"><path fill="#f1833a" d="M 307.824219 196.6875 L 324.425781 196.6875 L 324.425781 211.214844 L 307.824219 211.214844 Z M 307.824219 196.6875 " fill-opacity="1" fill-rule="nonzero"/></g></g><path stroke-linecap="butt" transform="matrix(0, -0.748431, 0.748431, 0, 128.470392, 210.357938)" fill="none" stroke-linejoin="miter" d="M -0.00191967 0.498854 L 17.11201 0.498854 " stroke="#d9d5cb" stroke-width="1" stroke-opacity="1" stroke-miterlimit="4"/><path stroke-linecap="butt" transform="matrix(0, -0.748431, 0.748431, 0, 222.156152, 210.357938)" fill="none" stroke-linejoin="miter" d="M -0.00191967 0.501179 L 17.11201 0.501179 " stroke="#d9d5cb" stroke-width="1" stroke-opacity="1" stroke-miterlimit="4"/><path stroke-linecap="butt" transform="matrix(0, -0.748431, 0.748431, 0, 409.568753, 210.357938)" fill="none" stroke-linejoin="miter" d="M -0.00191967 0.497912 L 17.11201 0.497912 " stroke="#d9d5cb" stroke-width="1" stroke-opacity="1" stroke-miterlimit="4"/><path stroke-linecap="butt" transform="matrix(0, -0.748431, 0.748431, 0, 503.254532, 210.357938)" fill="none" stroke-linejoin="miter" d="M -0.00191967 0.500212 L 17.11201 0.500212 " stroke="#d9d5cb" stroke-width="1" stroke-opacity="1" stroke-miterlimit="4"/><g fill="#000000" fill-opacity="1"><g transform="translate(121.68962, 221.233726)"><g><path d="M 0.546875 -2.75 L 2.9375 -2.75 L 2.9375 -2.1875 L 0.546875 -2.1875 Z M 0.546875 -2.75 "/></g></g></g><g fill="#000000" fill-opacity="1"><g transform="translate(125.174376, 221.233726)"><g><path d="M 4.84375 -0.578125 L 4.84375 0 L 0.359375 0 L 0.359375 -0.46875 L 3.015625 -3.0625 C 3.347656 -3.394531 3.570312 -3.679688 3.6875 -3.921875 C 3.8125 -4.160156 3.875 -4.398438 3.875 -4.640625 C 3.875 -5.015625 3.742188 -5.304688 3.484375 -5.515625 C 3.222656 -5.734375 2.851562 -5.84375 2.375 -5.84375 C 1.625 -5.84375 1.039062 -5.601562 0.625 -5.125 L 0.171875 -5.53125 C 0.410156 -5.820312 0.722656 -6.046875 1.109375 -6.203125 C 1.503906 -6.359375 1.941406 -6.4375 2.421875 -6.4375 C 3.078125 -6.4375 3.59375 -6.28125 3.96875 -5.96875 C 4.351562 -5.664062 4.546875 -5.25 4.546875 -4.71875 C 4.546875 -4.382812 4.472656 -4.066406 4.328125 -3.765625 C 4.179688 -3.460938 3.90625 -3.113281 3.5 -2.71875 L 1.328125 -0.578125 Z M 4.84375 -0.578125 "/></g></g></g><g fill="#000000" fill-opacity="1"><g transform="translate(130.355905, 221.233726)"><g><path d="M 5.015625 -2.25 C 5.015625 -1.8125 4.925781 -1.414062 4.75 -1.0625 C 4.582031 -0.707031 4.332031 -0.425781 4 -0.21875 C 3.664062 -0.0078125 3.25 0.09375 2.75 0.09375 C 2.070312 0.09375 1.523438 -0.113281 1.109375 -0.53125 C 0.703125 -0.945312 0.5 -1.550781 0.5 -2.34375 C 0.5 -2.945312 0.609375 -3.4375 0.828125 -3.8125 C 1.046875 -4.1875 1.351562 -4.457031 1.75 -4.625 C 2.144531 -4.800781 2.613281 -4.890625 3.15625 -4.890625 L 5.40625 -4.890625 L 5.40625 -4.21875 L 4.21875 -4.21875 C 4.457031 -4 4.648438 -3.722656 4.796875 -3.390625 C 4.941406 -3.066406 5.015625 -2.6875 5.015625 -2.25 Z M 1.328125 -2.34375 C 1.328125 -1.820312 1.4375 -1.394531 1.65625 -1.0625 C 1.882812 -0.738281 2.253906 -0.578125 2.765625 -0.578125 C 3.265625 -0.578125 3.628906 -0.726562 3.859375 -1.03125 C 4.085938 -1.34375 4.203125 -1.738281 4.203125 -2.21875 C 4.203125 -2.613281 4.132812 -2.976562 4 -3.3125 C 3.875 -3.65625 3.6875 -3.957031 3.4375 -4.21875 L 3.15625 -4.21875 C 2.550781 -4.21875 2.09375 -4.070312 1.78125 -3.78125 C 1.476562 -3.5 1.328125 -3.019531 1.328125 -2.34375 Z M 1.328125 -2.34375 "/></g></g></g><g fill="#000000" fill-opacity="1"><g transform="translate(216.2329, 221.233726)"><g><path d="M 0.546875 -2.75 L 2.9375 -2.75 L 2.9375 -2.1875 L 0.546875 -2.1875 Z M 0.546875 -2.75 "/></g></g></g><g fill="#000000" fill-opacity="1"><g transform="translate(219.717656, 221.233726)"><g><path d="M 2.25 -6.390625 L 2.25 0 L 1.59375 0 L 1.59375 -5.796875 L 0.078125 -5.796875 L 0.078125 -6.390625 Z M 2.25 -6.390625 "/></g></g></g><g fill="#000000" fill-opacity="1"><g transform="translate(223.010844, 221.233726)"><g><path d="M 5.015625 -2.25 C 5.015625 -1.8125 4.925781 -1.414062 4.75 -1.0625 C 4.582031 -0.707031 4.332031 -0.425781 4 -0.21875 C 3.664062 -0.0078125 3.25 0.09375 2.75 0.09375 C 2.070312 0.09375 1.523438 -0.113281 1.109375 -0.53125 C 0.703125 -0.945312 0.5 -1.550781 0.5 -2.34375 C 0.5 -2.945312 0.609375 -3.4375 0.828125 -3.8125 C 1.046875 -4.1875 1.351562 -4.457031 1.75 -4.625 C 2.144531 -4.800781 2.613281 -4.890625 3.15625 -4.890625 L 5.40625 -4.890625 L 5.40625 -4.21875 L 4.21875 -4.21875 C 4.457031 -4 4.648438 -3.722656 4.796875 -3.390625 C 4.941406 -3.066406 5.015625 -2.6875 5.015625 -2.25 Z M 1.328125 -2.34375 C 1.328125 -1.820312 1.4375 -1.394531 1.65625 -1.0625 C 1.882812 -0.738281 2.253906 -0.578125 2.765625 -0.578125 C 3.265625 -0.578125 3.628906 -0.726562 3.859375 -1.03125 C 4.085938 -1.34375 4.203125 -1.738281 4.203125 -2.21875 C 4.203125 -2.613281 4.132812 -2.976562 4 -3.3125 C 3.875 -3.65625 3.6875 -3.957031 3.4375 -4.21875 L 3.15625 -4.21875 C 2.550781 -4.21875 2.09375 -4.070312 1.78125 -3.78125 C 1.476562 -3.5 1.328125 -3.019531 1.328125 -2.34375 Z M 1.328125 -2.34375 "/></g></g></g><g fill="#000000" fill-opacity="1"><g transform="translate(27.932591, 221.233726)"><g><path d="M 0.546875 -2.75 L 2.9375 -2.75 L 2.9375 -2.1875 L 0.546875 -2.1875 Z M 0.546875 -2.75 "/></g></g></g><g fill="#000000" fill-opacity="1"><g transform="translate(31.417347, 221.233726)"><g><path d="M 2.640625 -3.65625 C 3.316406 -3.613281 3.828125 -3.429688 4.171875 -3.109375 C 4.523438 -2.785156 4.703125 -2.359375 4.703125 -1.828125 C 4.703125 -1.460938 4.613281 -1.140625 4.4375 -0.859375 C 4.257812 -0.578125 3.992188 -0.351562 3.640625 -0.1875 C 3.296875 -0.0195312 2.875 0.0625 2.375 0.0625 C 1.914062 0.0625 1.476562 -0.0078125 1.0625 -0.15625 C 0.65625 -0.3125 0.328125 -0.515625 0.078125 -0.765625 L 0.40625 -1.28125 C 0.613281 -1.0625 0.894531 -0.882812 1.25 -0.75 C 1.601562 -0.613281 1.976562 -0.546875 2.375 -0.546875 C 2.90625 -0.546875 3.3125 -0.660156 3.59375 -0.890625 C 3.882812 -1.117188 4.03125 -1.429688 4.03125 -1.828125 C 4.03125 -2.222656 3.882812 -2.535156 3.59375 -2.765625 C 3.3125 -2.992188 2.878906 -3.109375 2.296875 -3.109375 L 1.84375 -3.109375 L 1.84375 -3.59375 L 3.609375 -5.796875 L 0.34375 -5.796875 L 0.34375 -6.390625 L 4.453125 -6.390625 L 4.453125 -5.921875 Z M 2.640625 -3.65625 "/></g></g></g><g fill="#000000" fill-opacity="1"><g transform="translate(36.562384, 221.233726)"><g><path d="M 5.015625 -2.25 C 5.015625 -1.8125 4.925781 -1.414062 4.75 -1.0625 C 4.582031 -0.707031 4.332031 -0.425781 4 -0.21875 C 3.664062 -0.0078125 3.25 0.09375 2.75 0.09375 C 2.070312 0.09375 1.523438 -0.113281 1.109375 -0.53125 C 0.703125 -0.945312 0.5 -1.550781 0.5 -2.34375 C 0.5 -2.945312 0.609375 -3.4375 0.828125 -3.8125 C 1.046875 -4.1875 1.351562 -4.457031 1.75 -4.625 C 2.144531 -4.800781 2.613281 -4.890625 3.15625 -4.890625 L 5.40625 -4.890625 L 5.40625 -4.21875 L 4.21875 -4.21875 C 4.457031 -4 4.648438 -3.722656 4.796875 -3.390625 C 4.941406 -3.066406 5.015625 -2.6875 5.015625 -2.25 Z M 1.328125 -2.34375 C 1.328125 -1.820312 1.4375 -1.394531 1.65625 -1.0625 C 1.882812 -0.738281 2.253906 -0.578125 2.765625 -0.578125 C 3.265625 -0.578125 3.628906 -0.726562 3.859375 -1.03125 C 4.085938 -1.34375 4.203125 -1.738281 4.203125 -2.21875 C 4.203125 -2.613281 4.132812 -2.976562 4 -3.3125 C 3.875 -3.65625 3.6875 -3.957031 3.4375 -4.21875 L 3.15625 -4.21875 C 2.550781 -4.21875 2.09375 -4.070312 1.78125 -3.78125 C 1.476562 -3.5 1.328125 -3.019531 1.328125 -2.34375 Z M 1.328125 -2.34375 "/></g></g></g><g fill="#000000" fill-opacity="1"><g transform="translate(495.29654, 221.233726)"><g><path d="M 4.609375 -2.921875 L 2.90625 -2.921875 L 2.90625 -1.265625 L 2.34375 -1.265625 L 2.34375 -2.921875 L 0.640625 -2.921875 L 0.640625 -3.453125 L 2.34375 -3.453125 L 2.34375 -5.125 L 2.90625 -5.125 L 2.90625 -3.453125 L 4.609375 -3.453125 Z M 4.609375 -2.921875 "/></g></g></g><g fill="#000000" fill-opacity="1"><g transform="translate(500.541926, 221.233726)"><g><path d="M 4.84375 -0.578125 L 4.84375 0 L 0.359375 0 L 0.359375 -0.46875 L 3.015625 -3.0625 C 3.347656 -3.394531 3.570312 -3.679688 3.6875 -3.921875 C 3.8125 -4.160156 3.875 -4.398438 3.875 -4.640625 C 3.875 -5.015625 3.742188 -5.304688 3.484375 -5.515625 C 3.222656 -5.734375 2.851562 -5.84375 2.375 -5.84375 C 1.625 -5.84375 1.039062 -5.601562 0.625 -5.125 L 0.171875 -5.53125 C 0.410156 -5.820312 0.722656 -6.046875 1.109375 -6.203125 C 1.503906 -6.359375 1.941406 -6.4375 2.421875 -6.4375 C 3.078125 -6.4375 3.59375 -6.28125 3.96875 -5.96875 C 4.351562 -5.664062 4.546875 -5.25 4.546875 -4.71875 C 4.546875 -4.382812 4.472656 -4.066406 4.328125 -3.765625 C 4.179688 -3.460938 3.90625 -3.113281 3.5 -2.71875 L 1.328125 -0.578125 Z M 4.84375 -0.578125 "/></g></g></g><g fill="#000000" fill-opacity="1"><g transform="translate(505.723455, 221.233726)"><g><path d="M 5.015625 -2.25 C 5.015625 -1.8125 4.925781 -1.414062 4.75 -1.0625 C 4.582031 -0.707031 4.332031 -0.425781 4 -0.21875 C 3.664062 -0.0078125 3.25 0.09375 2.75 0.09375 C 2.070312 0.09375 1.523438 -0.113281 1.109375 -0.53125 C 0.703125 -0.945312 0.5 -1.550781 0.5 -2.34375 C 0.5 -2.945312 0.609375 -3.4375 0.828125 -3.8125 C 1.046875 -4.1875 1.351562 -4.457031 1.75 -4.625 C 2.144531 -4.800781 2.613281 -4.890625 3.15625 -4.890625 L 5.40625 -4.890625 L 5.40625 -4.21875 L 4.21875 -4.21875 C 4.457031 -4 4.648438 -3.722656 4.796875 -3.390625 C 4.941406 -3.066406 5.015625 -2.6875 5.015625 -2.25 Z M 1.328125 -2.34375 C 1.328125 -1.820312 1.4375 -1.394531 1.65625 -1.0625 C 1.882812 -0.738281 2.253906 -0.578125 2.765625 -0.578125 C 3.265625 -0.578125 3.628906 -0.726562 3.859375 -1.03125 C 4.085938 -1.34375 4.203125 -1.738281 4.203125 -2.21875 C 4.203125 -2.613281 4.132812 -2.976562 4 -3.3125 C 3.875 -3.65625 3.6875 -3.957031 3.4375 -4.21875 L 3.15625 -4.21875 C 2.550781 -4.21875 2.09375 -4.070312 1.78125 -3.78125 C 1.476562 -3.5 1.328125 -3.019531 1.328125 -2.34375 Z M 1.328125 -2.34375 "/></g></g></g><g fill="#000000" fill-opacity="1"><g transform="translate(588.77065, 221.233726)"><g><path d="M 4.609375 -2.921875 L 2.90625 -2.921875 L 2.90625 -1.265625 L 2.34375 -1.265625 L 2.34375 -2.921875 L 0.640625 -2.921875 L 0.640625 -3.453125 L 2.34375 -3.453125 L 2.34375 -5.125 L 2.90625 -5.125 L 2.90625 -3.453125 L 4.609375 -3.453125 Z M 4.609375 -2.921875 "/></g></g></g><g fill="#000000" fill-opacity="1"><g transform="translate(594.016036, 221.233726)"><g><path d="M 2.640625 -3.65625 C 3.316406 -3.613281 3.828125 -3.429688 4.171875 -3.109375 C 4.523438 -2.785156 4.703125 -2.359375 4.703125 -1.828125 C 4.703125 -1.460938 4.613281 -1.140625 4.4375 -0.859375 C 4.257812 -0.578125 3.992188 -0.351562 3.640625 -0.1875 C 3.296875 -0.0195312 2.875 0.0625 2.375 0.0625 C 1.914062 0.0625 1.476562 -0.0078125 1.0625 -0.15625 C 0.65625 -0.3125 0.328125 -0.515625 0.078125 -0.765625 L 0.40625 -1.28125 C 0.613281 -1.0625 0.894531 -0.882812 1.25 -0.75 C 1.601562 -0.613281 1.976562 -0.546875 2.375 -0.546875 C 2.90625 -0.546875 3.3125 -0.660156 3.59375 -0.890625 C 3.882812 -1.117188 4.03125 -1.429688 4.03125 -1.828125 C 4.03125 -2.222656 3.882812 -2.535156 3.59375 -2.765625 C 3.3125 -2.992188 2.878906 -3.109375 2.296875 -3.109375 L 1.84375 -3.109375 L 1.84375 -3.59375 L 3.609375 -5.796875 L 0.34375 -5.796875 L 0.34375 -6.390625 L 4.453125 -6.390625 L 4.453125 -5.921875 Z M 2.640625 -3.65625 "/></g></g></g><g fill="#000000" fill-opacity="1"><g transform="translate(599.161073, 221.233726)"><g><path d="M 5.015625 -2.25 C 5.015625 -1.8125 4.925781 -1.414062 4.75 -1.0625 C 4.582031 -0.707031 4.332031 -0.425781 4 -0.21875 C 3.664062 -0.0078125 3.25 0.09375 2.75 0.09375 C 2.070312 0.09375 1.523438 -0.113281 1.109375 -0.53125 C 0.703125 -0.945312 0.5 -1.550781 0.5 -2.34375 C 0.5 -2.945312 0.609375 -3.4375 0.828125 -3.8125 C 1.046875 -4.1875 1.351562 -4.457031 1.75 -4.625 C 2.144531 -4.800781 2.613281 -4.890625 3.15625 -4.890625 L 5.40625 -4.890625 L 5.40625 -4.21875 L 4.21875 -4.21875 C 4.457031 -4 4.648438 -3.722656 4.796875 -3.390625 C 4.941406 -3.066406 5.015625 -2.6875 5.015625 -2.25 Z M 1.328125 -2.34375 C 1.328125 -1.820312 1.4375 -1.394531 1.65625 -1.0625 C 1.882812 -0.738281 2.253906 -0.578125 2.765625 -0.578125 C 3.265625 -0.578125 3.628906 -0.726562 3.859375 -1.03125 C 4.085938 -1.34375 4.203125 -1.738281 4.203125 -2.21875 C 4.203125 -2.613281 4.132812 -2.976562 4 -3.3125 C 3.875 -3.65625 3.6875 -3.957031 3.4375 -4.21875 L 3.15625 -4.21875 C 2.550781 -4.21875 2.09375 -4.070312 1.78125 -3.78125 C 1.476562 -3.5 1.328125 -3.019531 1.328125 -2.34375 Z M 1.328125 -2.34375 "/></g></g></g><g fill="#000000" fill-opacity="1"><g transform="translate(402.466009, 221.233726)"><g><path d="M 4.609375 -2.921875 L 2.90625 -2.921875 L 2.90625 -1.265625 L 2.34375 -1.265625 L 2.34375 -2.921875 L 0.640625 -2.921875 L 0.640625 -3.453125 L 2.34375 -3.453125 L 2.34375 -5.125 L 2.90625 -5.125 L 2.90625 -3.453125 L 4.609375 -3.453125 Z M 4.609375 -2.921875 "/></g></g></g><g fill="#000000" fill-opacity="1"><g transform="translate(407.711395, 221.233726)"><g><path d="M 2.25 -6.390625 L 2.25 0 L 1.59375 0 L 1.59375 -5.796875 L 0.078125 -5.796875 L 0.078125 -6.390625 Z M 2.25 -6.390625 "/></g></g></g><g fill="#000000" fill-opacity="1"><g transform="translate(411.004582, 221.233726)"><g><path d="M 5.015625 -2.25 C 5.015625 -1.8125 4.925781 -1.414062 4.75 -1.0625 C 4.582031 -0.707031 4.332031 -0.425781 4 -0.21875 C 3.664062 -0.0078125 3.25 0.09375 2.75 0.09375 C 2.070312 0.09375 1.523438 -0.113281 1.109375 -0.53125 C 0.703125 -0.945312 0.5 -1.550781 0.5 -2.34375 C 0.5 -2.945312 0.609375 -3.4375 0.828125 -3.8125 C 1.046875 -4.1875 1.351562 -4.457031 1.75 -4.625 C 2.144531 -4.800781 2.613281 -4.890625 3.15625 -4.890625 L 5.40625 -4.890625 L 5.40625 -4.21875 L 4.21875 -4.21875 C 4.457031 -4 4.648438 -3.722656 4.796875 -3.390625 C 4.941406 -3.066406 5.015625 -2.6875 5.015625 -2.25 Z M 1.328125 -2.34375 C 1.328125 -1.820312 1.4375 -1.394531 1.65625 -1.0625 C 1.882812 -0.738281 2.253906 -0.578125 2.765625 -0.578125 C 3.265625 -0.578125 3.628906 -0.726562 3.859375 -1.03125 C 4.085938 -1.34375 4.203125 -1.738281 4.203125 -2.21875 C 4.203125 -2.613281 4.132812 -2.976562 4 -3.3125 C 3.875 -3.65625 3.6875 -3.957031 3.4375 -4.21875 L 3.15625 -4.21875 C 2.550781 -4.21875 2.09375 -4.070312 1.78125 -3.78125 C 1.476562 -3.5 1.328125 -3.019531 1.328125 -2.34375 Z M 1.328125 -2.34375 "/></g></g></g><g fill="#000000" fill-opacity="1"><g transform="translate(313.090209, 221.233726)"><g><path d="M 3.015625 0.0625 C 2.523438 0.0625 2.085938 -0.0664062 1.703125 -0.328125 C 1.316406 -0.597656 1.015625 -0.976562 0.796875 -1.46875 C 0.578125 -1.957031 0.46875 -2.53125 0.46875 -3.1875 C 0.46875 -3.851562 0.578125 -4.429688 0.796875 -4.921875 C 1.015625 -5.410156 1.316406 -5.785156 1.703125 -6.046875 C 2.085938 -6.304688 2.523438 -6.4375 3.015625 -6.4375 C 3.515625 -6.4375 3.957031 -6.304688 4.34375 -6.046875 C 4.726562 -5.785156 5.03125 -5.410156 5.25 -4.921875 C 5.46875 -4.429688 5.578125 -3.851562 5.578125 -3.1875 C 5.578125 -2.53125 5.46875 -1.957031 5.25 -1.46875 C 5.03125 -0.976562 4.726562 -0.597656 4.34375 -0.328125 C 3.957031 -0.0664062 3.515625 0.0625 3.015625 0.0625 Z M 3.015625 -0.546875 C 3.390625 -0.546875 3.71875 -0.648438 4 -0.859375 C 4.28125 -1.066406 4.5 -1.367188 4.65625 -1.765625 C 4.820312 -2.160156 4.90625 -2.632812 4.90625 -3.1875 C 4.90625 -3.75 4.820312 -4.226562 4.65625 -4.625 C 4.5 -5.019531 4.28125 -5.320312 4 -5.53125 C 3.71875 -5.738281 3.390625 -5.84375 3.015625 -5.84375 C 2.648438 -5.84375 2.320312 -5.738281 2.03125 -5.53125 C 1.75 -5.320312 1.53125 -5.019531 1.375 -4.625 C 1.21875 -4.226562 1.140625 -3.75 1.140625 -3.1875 C 1.140625 -2.632812 1.21875 -2.160156 1.375 -1.765625 C 1.53125 -1.367188 1.75 -1.066406 2.03125 -0.859375 C 2.320312 -0.648438 2.648438 -0.546875 3.015625 -0.546875 Z M 3.015625 -0.546875 "/></g></g></g></svg>