<svg xmlns="http://www.w3.org/2000/svg" xmlns:xlink="http://www.w3.org/1999/xlink" width="34" zoomAndPan="magnify" viewBox="0 0 25.5 25.499999" height="34" preserveAspectRatio="xMidYMid meet" version="1.0"><defs><g/><clipPath id="beb062aacf"><path d="M 0.0859375 0.125 L 24.441406 0.125 L 24.441406 24.480469 L 0.0859375 24.480469 Z M 0.0859375 0.125 " clip-rule="nonzero"/></clipPath><clipPath id="a1c7042891"><path d="M 12.261719 0.125 C 5.539062 0.125 0.0859375 5.578125 0.0859375 12.300781 C 0.0859375 19.027344 5.539062 24.480469 12.261719 24.480469 C 18.988281 24.480469 24.441406 19.027344 24.441406 12.300781 C 24.441406 5.578125 18.988281 0.125 12.261719 0.125 Z M 12.261719 0.125 " clip-rule="nonzero"/></clipPath></defs><g clip-path="url(#beb062aacf)"><g clip-path="url(#a1c7042891)"><path fill="#f1833a" d="M 0.0859375 0.125 L 24.441406 0.125 L 24.441406 24.480469 L 0.0859375 24.480469 Z M 0.0859375 0.125 " fill-opacity="1" fill-rule="nonzero"/></g></g><g fill="#ffffff" fill-opacity="1"><g transform="translate(8.594523, 15.668922)"><g><path d="M 3.578125 0.140625 C 3.148438 0.140625 2.765625 0.0976562 2.421875 0.015625 C 2.085938 -0.0546875 1.722656 -0.148438 1.328125 -0.265625 C 1.078125 -0.359375 0.890625 -0.410156 0.765625 -0.421875 L 0.859375 -2.65625 L 1.65625 -2.65625 L 1.859375 -1.046875 C 2.003906 -0.921875 2.234375 -0.804688 2.546875 -0.703125 C 2.867188 -0.597656 3.21875 -0.546875 3.59375 -0.546875 C 4.21875 -0.546875 4.691406 -0.679688 5.015625 -0.953125 C 5.335938 -1.234375 5.5 -1.625 5.5 -2.125 C 5.5 -2.445312 5.410156 -2.722656 5.234375 -2.953125 C 5.054688 -3.179688 4.820312 -3.378906 4.53125 -3.546875 C 4.238281 -3.710938 3.835938 -3.90625 3.328125 -4.125 C 2.867188 -4.332031 2.46875 -4.539062 2.125 -4.75 C 1.78125 -4.96875 1.484375 -5.253906 1.234375 -5.609375 C 0.984375 -5.960938 0.859375 -6.394531 0.859375 -6.90625 C 0.859375 -7.351562 0.976562 -7.753906 1.21875 -8.109375 C 1.46875 -8.472656 1.820312 -8.753906 2.28125 -8.953125 C 2.738281 -9.160156 3.269531 -9.265625 3.875 -9.265625 C 4.25 -9.265625 4.582031 -9.234375 4.875 -9.171875 C 5.164062 -9.117188 5.5 -9.046875 5.875 -8.953125 C 6.039062 -8.890625 6.179688 -8.851562 6.296875 -8.84375 L 6.21875 -6.765625 L 5.46875 -6.765625 L 5.21875 -8.28125 C 5.132812 -8.363281 4.960938 -8.441406 4.703125 -8.515625 C 4.441406 -8.585938 4.160156 -8.625 3.859375 -8.625 C 3.296875 -8.625 2.867188 -8.503906 2.578125 -8.265625 C 2.285156 -8.023438 2.140625 -7.679688 2.140625 -7.234375 C 2.140625 -6.898438 2.226562 -6.625 2.40625 -6.40625 C 2.582031 -6.1875 2.800781 -6 3.0625 -5.84375 C 3.320312 -5.6875 3.738281 -5.472656 4.3125 -5.203125 C 4.851562 -4.941406 5.289062 -4.707031 5.625 -4.5 C 5.96875 -4.300781 6.257812 -4.035156 6.5 -3.703125 C 6.738281 -3.367188 6.859375 -2.96875 6.859375 -2.5 C 6.859375 -2.0625 6.738281 -1.640625 6.5 -1.234375 C 6.257812 -0.835938 5.890625 -0.507812 5.390625 -0.25 C 4.890625 0.0078125 4.285156 0.140625 3.578125 0.140625 Z M 3.578125 0.140625 "/></g></g></g></svg>