<svg xmlns="http://www.w3.org/2000/svg" xmlns:xlink="http://www.w3.org/1999/xlink" width="34" zoomAndPan="magnify" viewBox="0 0 25.5 25.499999" height="34" preserveAspectRatio="xMidYMid meet" version="1.0"><defs><g/><clipPath id="43e162b9e6"><path d="M 0.191406 0.585938 L 24.542969 0.585938 L 24.542969 24.9375 L 0.191406 24.9375 Z M 0.191406 0.585938 " clip-rule="nonzero"/></clipPath><clipPath id="d0009abde6"><path d="M 12.367188 0.585938 C 5.640625 0.585938 0.191406 6.039062 0.191406 12.761719 C 0.191406 19.488281 5.640625 24.9375 12.367188 24.9375 C 19.09375 24.9375 24.542969 19.488281 24.542969 12.761719 C 24.542969 6.039062 19.09375 0.585938 12.367188 0.585938 Z M 12.367188 0.585938 " clip-rule="nonzero"/></clipPath></defs><g clip-path="url(#43e162b9e6)"><g clip-path="url(#d0009abde6)"><path fill="#458fa3" d="M 0.191406 0.585938 L 24.542969 0.585938 L 24.542969 24.9375 L 0.191406 24.9375 Z M 0.191406 0.585938 " fill-opacity="1" fill-rule="nonzero"/></g></g><g fill="#ffffff" fill-opacity="1"><g transform="translate(7.951982, 16.604832)"><g><path d="M 4.671875 0.140625 C 3.765625 0.140625 2.988281 -0.0507812 2.34375 -0.4375 C 1.707031 -0.832031 1.222656 -1.382812 0.890625 -2.09375 C 0.566406 -2.800781 0.40625 -3.632812 0.40625 -4.59375 C 0.40625 -5.507812 0.597656 -6.320312 0.984375 -7.03125 C 1.367188 -7.738281 1.898438 -8.285156 2.578125 -8.671875 C 3.253906 -9.066406 4.007812 -9.265625 4.84375 -9.265625 C 5.476562 -9.265625 6.242188 -9.164062 7.140625 -8.96875 L 7.546875 -8.90625 L 7.421875 -6.671875 L 6.59375 -6.671875 L 6.28125 -8.25 C 6.164062 -8.34375 5.96875 -8.425781 5.6875 -8.5 C 5.40625 -8.570312 5.054688 -8.609375 4.640625 -8.609375 C 4.109375 -8.609375 3.632812 -8.457031 3.21875 -8.15625 C 2.8125 -7.851562 2.488281 -7.410156 2.25 -6.828125 C 2.019531 -6.242188 1.90625 -5.546875 1.90625 -4.734375 C 1.90625 -3.953125 2.007812 -3.242188 2.21875 -2.609375 C 2.425781 -1.984375 2.738281 -1.484375 3.15625 -1.109375 C 3.582031 -0.734375 4.101562 -0.546875 4.71875 -0.546875 C 5.15625 -0.546875 5.488281 -0.582031 5.71875 -0.65625 C 5.957031 -0.726562 6.15625 -0.832031 6.3125 -0.96875 L 6.84375 -2.1875 L 7.609375 -2.09375 L 7.3125 -0.328125 C 7.144531 -0.328125 6.890625 -0.269531 6.546875 -0.15625 C 6.253906 -0.0703125 5.96875 -0.00390625 5.6875 0.046875 C 5.414062 0.109375 5.078125 0.140625 4.671875 0.140625 Z M 4.671875 0.140625 "/></g></g></g></svg>