<svg width="1368" height="516" viewBox="0 0 1368 516" fill="none" xmlns="http://www.w3.org/2000/svg">
<g clip-path="url(#clip0_1_3)">
<mask id="mask0_1_3" style="mask-type:luminance" maskUnits="userSpaceOnUse" x="0" y="0" width="1366" height="515">
<path d="M0.625427 0H1365.76V514.918H0.625427V0Z" fill="white"/>
</mask>
<g mask="url(#mask0_1_3)">
<path d="M0.625427 0H1365.76V514.918H0.625427V0Z" fill="white"/>
</g>
<mask id="mask1_1_3" style="mask-type:luminance" maskUnits="userSpaceOnUse" x="1" y="0" width="1364" height="515">
<path d="M1.27625 0.169037H1364.48V514.09H1.27625V0.169037Z" fill="white"/>
</mask>
<g mask="url(#mask1_1_3)">
<mask id="mask2_1_3" style="mask-type:luminance" maskUnits="userSpaceOnUse" x="1" y="0" width="1364" height="515">
<path d="M12.6103 0.169037H1353.14C1356.15 0.169037 1359.03 1.36911 1361.16 3.49038C1363.28 5.6201 1364.48 8.50198 1364.48 11.5106V502.757C1364.48 505.757 1363.28 508.639 1361.16 510.769C1359.03 512.89 1356.15 514.09 1353.14 514.09H12.6103C9.60142 514.09 6.71931 512.89 4.58941 510.769C2.46797 508.639 1.27625 505.757 1.27625 502.757V11.5106C1.27625 8.50198 2.46797 5.6201 4.58941 3.49038C6.71931 1.36911 9.60142 0.169037 12.6103 0.169037Z" fill="white"/>
</mask>
<g mask="url(#mask2_1_3)">
<path d="M1.27625 0.169037H1364.48V514.09H1.27625V0.169037Z" fill="white"/>
</g>
</g>
<mask id="mask3_1_3" style="mask-type:luminance" maskUnits="userSpaceOnUse" x="75" y="57" width="1218" height="400">
<path d="M75.0449 57.7305H1292.79V456.951H75.0449V57.7305Z" fill="white"/>
</mask>
<g mask="url(#mask3_1_3)">
<path d="M75.0449 57.7305H1293.31V456.951H75.0449V57.7305Z" stroke="black" stroke-width="1.99582"/>
</g>
<path d="M683.992 57.739V425.546" stroke="#363847" stroke-width="1.99582"/>
<path d="M1088.24 425.529L1088.25 423.915H1089.86V425.538M1088.25 422.292V420.678H1089.87L1089.86 422.292M1088.26 419.056V417.433L1089.88 417.441L1089.87 419.056M1088.26 415.819L1088.27 414.196H1089.88V415.819M1088.27 412.582V410.959H1089.89V412.582M1088.27 409.337V407.722H1089.9L1089.89 409.345M1088.27 406.1L1088.28 404.486H1089.9V406.1M1088.28 402.863V401.24L1089.91 401.249V402.863M1088.29 399.626V398.004H1089.91L1089.91 399.626M1088.29 396.389L1088.3 394.767H1089.91V396.389M1088.3 393.144L1088.31 391.53H1089.92V393.153M1088.31 389.907V388.293H1089.93L1089.92 389.907M1088.32 386.67V385.048L1089.94 385.056L1089.93 386.67M1088.32 383.434L1088.32 381.811H1089.94V383.434M1088.32 380.197V378.574H1089.95V380.197M1088.33 376.951V375.337H1089.96L1089.95 376.96M1088.33 373.715L1088.34 372.1H1089.96V373.723M1088.34 370.478V368.855L1089.96 368.864V370.478M1088.35 367.241V365.618L1089.97 365.627L1089.96 367.241M1088.35 364.004L1088.36 362.381H1089.97V364.004M1088.36 360.759V359.145H1089.98V360.767M1088.37 357.522V355.908H1089.99L1089.98 357.53M1088.38 354.285V352.663L1089.99 352.671V354.285M1088.38 351.048L1088.38 349.426L1090 349.434V351.048M1088.38 347.812V346.189H1090.01V347.812M1088.39 344.566V342.952H1090.02L1090.01 344.575M1088.39 341.329L1088.4 339.715H1090.02V341.338M1088.4 338.093V336.47L1090.02 336.478V338.093M1088.41 334.856V333.233L1090.03 333.242L1090.02 334.856M1088.41 331.619L1088.42 329.996H1090.03V331.619M1088.42 328.374V326.759H1090.04V328.382M1088.43 325.137V323.523H1090.05L1090.04 325.145M1088.43 321.9V320.277L1090.05 320.286V321.9M1088.43 318.663L1088.44 317.04L1090.06 317.049V318.663M1088.44 315.426V313.804H1090.07L1090.06 315.426M1088.45 312.181V310.567H1090.07L1090.07 312.189M1088.45 308.944L1088.46 307.33H1090.07V308.953M1088.46 305.707V304.085L1090.08 304.093V305.707M1088.47 302.471V300.848L1090.09 300.856L1090.08 302.471M1088.47 299.234L1088.48 297.611H1090.09V299.234M1088.48 295.988V294.374H1090.1V295.997M1088.49 292.752V291.137H1090.11L1090.1 292.76M1088.49 289.515L1088.49 287.892L1090.11 287.901V289.515M1088.49 286.278L1088.5 284.655L1090.12 284.664V286.278M1088.5 283.041V281.418H1090.13L1090.12 283.041M1088.51 279.796V278.182H1090.13L1090.13 279.804M1088.51 276.559L1088.52 274.945H1090.13V276.567M1088.52 273.322V271.699L1090.14 271.708V273.322M1088.53 270.085V268.463L1090.15 268.471L1090.14 270.085M1088.53 266.848L1088.54 265.226H1090.15V266.848M1088.54 263.603V261.989H1090.16V263.612M1088.54 260.366V258.752H1090.17L1090.16 260.375M1088.54 257.13L1088.55 255.515H1090.17V257.13M1088.55 253.893V252.27L1090.18 252.278V253.893M1088.56 250.656V249.033H1090.18L1090.18 250.656M1088.57 247.419V245.796H1090.18V247.419M1088.57 244.174L1088.58 242.56H1090.19V244.182M1088.58 240.937V239.323H1090.2V240.937M1088.59 237.7V236.077L1090.21 236.086L1090.2 237.7M1088.59 234.463L1088.6 232.841H1090.21V234.463M1088.6 231.226V229.604H1090.22V231.226M1088.6 227.981V226.367H1090.23L1090.22 227.99M1088.6 224.744L1088.61 223.13H1090.23V224.744M1088.61 221.507V219.885L1090.23 219.893V221.507M1088.62 218.271V216.648L1090.24 216.656L1090.23 218.271M1088.63 215.034V213.411H1090.24V215.034M1088.63 211.789L1088.64 210.174H1090.25V211.797M1088.64 208.552V206.938H1090.26V208.56M1088.65 205.315V203.692L1090.27 203.701L1090.26 205.315M1088.65 202.078L1088.65 200.455L1090.27 200.464V202.078M1088.65 198.841V197.219H1090.28V198.841M1088.66 195.596V193.982H1090.29L1090.28 195.604M1088.66 192.359L1088.67 190.745H1090.29V192.368M1088.67 189.122V187.5L1090.29 187.508V189.122M1088.68 185.885V184.263L1090.3 184.271L1090.29 185.885M1088.68 182.649L1088.69 181.026H1090.3V182.649M1088.69 179.403L1088.7 177.789H1090.31V179.412M1088.7 176.166V174.552H1090.32L1090.31 176.175M1088.71 172.93V171.307L1090.33 171.315L1090.32 172.93M1088.71 169.693L1088.71 168.07L1090.33 168.079V169.693M1088.71 166.456V164.833H1090.34V166.456M1088.72 163.211V161.597H1090.34L1090.34 163.219M1088.72 159.974L1088.73 158.36H1090.34V159.982M1088.73 156.737V155.114L1090.35 155.123V156.737M1088.74 153.5V151.878L1090.36 151.886L1090.35 153.5M1088.74 150.263L1088.75 148.641H1090.36V150.263M1088.75 147.018V145.404H1090.37V147.027M1088.76 143.781V142.167H1090.38L1090.37 143.79M1088.76 140.544V138.922L1090.38 138.93V140.544M1088.76 137.308L1088.77 135.685L1090.39 135.693V137.308M1088.77 134.071V132.448H1090.4V134.071M1088.78 130.825V129.211H1090.4L1090.4 130.834M1088.78 127.589L1088.79 125.974H1090.4V127.597M1088.79 124.352V122.729L1090.41 122.738V124.352M1088.8 121.115V119.492L1090.42 119.501L1090.41 121.115M1088.8 117.878L1088.81 116.256H1090.42V117.878M1088.81 114.633V113.019H1090.43V114.641M1088.81 111.396V109.782H1090.44L1090.43 111.404M1088.82 108.159V106.537L1090.44 106.545V108.159M1088.82 104.922L1088.83 103.3L1090.45 103.308V104.922M1088.83 101.686V100.063H1090.45V101.686M1088.84 98.4487V96.8261H1090.46L1090.45 98.4487M1088.84 95.2034L1088.85 93.5892H1090.46V95.2119M1088.85 91.9666V90.3524H1090.47V91.9666M1088.86 88.7298V87.1071L1090.48 87.1156L1090.47 88.7298M1088.86 85.4929L1088.87 83.8703H1090.48V85.4929M1088.87 82.2561V80.6335H1090.49V82.2561M1088.87 79.0108V77.3966H1090.5L1090.49 79.0193M1088.87 75.774L1088.88 74.1598H1090.5V75.774M1088.88 72.5371L1088.89 70.9145L1090.51 70.923V72.5371M1088.89 69.3003V67.6777H1090.51L1090.51 69.3003M1088.9 66.0635V64.4408H1090.52L1090.51 66.0635M1088.9 62.8182L1088.91 61.204H1090.52V62.8267M1088.91 59.5814V57.9672H1090.53V59.5814" fill="#363847"/>
<path d="M885.351 425.529L885.359 423.915H886.974V425.538M885.359 422.292L885.368 420.67L886.982 420.678V422.292M885.368 419.056L885.376 417.433L886.991 417.441V419.056M885.376 415.819L885.385 414.196H886.999V415.819M885.385 412.574V410.959H887.008V412.582M885.393 409.337V407.722H887.016L887.008 409.345M885.402 406.1V404.477L887.024 404.486L887.016 406.108M885.41 402.863V401.24L887.033 401.249L887.024 402.863M885.419 399.626V398.004L887.041 398.012L887.033 399.626M885.427 396.381V394.767H887.05L887.041 396.389M885.427 393.144L885.435 391.53H887.058L887.05 393.153M885.435 389.907L885.444 388.285L887.058 388.293V389.916M885.444 386.67L885.452 385.048L887.067 385.056V386.67M885.452 383.434L885.461 381.811L887.075 381.819V383.434M885.461 380.188L885.469 378.574H887.084V380.197M885.469 376.951V375.337H887.092V376.96M885.478 373.715V372.092L887.101 372.1V373.723M885.486 370.478V368.855L887.109 368.864L887.101 370.478M885.495 367.241V365.618L887.117 365.627L887.109 367.241M885.503 364.004V362.381H887.126L887.117 364.004M885.512 360.759V359.145H887.134L887.126 360.767M885.512 357.522L885.52 355.908H887.143L887.134 357.53M885.52 354.285L885.528 352.663L887.143 352.671V354.285M885.528 351.048L885.537 349.426L887.151 349.434V351.048M885.537 347.812L885.545 346.189H887.16V347.812M885.545 344.566L885.554 342.952H887.168V344.575M885.554 341.329V339.715H887.177V341.338M885.562 338.093V336.47L887.185 336.478V338.093M885.571 334.856V333.233L887.193 333.242L887.185 334.856M885.579 331.619V329.996H887.202L887.193 331.619M885.588 328.374V326.759H887.21L887.202 328.382M885.596 325.137V323.523H887.219L887.21 325.145M885.596 321.9L885.605 320.277L887.227 320.286L887.219 321.9M885.605 318.663L885.613 317.04L887.227 317.049V318.663M885.613 315.426L885.621 313.804H887.236V315.426M885.621 312.181L885.63 310.567H887.244V312.189M885.63 308.944L885.638 307.33H887.253V308.953M885.638 305.707L885.647 304.085L887.261 304.093V305.707M885.647 302.471V300.848L887.27 300.856V302.471M885.655 299.234V297.611H887.278L887.27 299.234M885.664 295.988V294.374H887.286L887.278 295.997M885.672 292.752V291.137H887.295L887.286 292.76M885.681 289.515V287.892L887.303 287.901L887.295 289.515M885.689 286.278V284.655L887.312 284.664L887.303 286.278M885.689 283.041L885.697 281.418H887.312V283.041M885.697 279.796L885.706 278.182H887.32V279.804M885.706 276.559L885.714 274.945H887.329V276.567M885.714 273.322L885.723 271.699L887.337 271.708V273.322M885.723 270.085L885.731 268.463L887.346 268.471V270.085M885.731 266.848V265.226H887.354V266.848M885.74 263.603V261.989H887.363L887.354 263.612M885.748 260.366V258.752H887.371L887.363 260.375M885.757 257.13V255.507L887.379 255.515L887.371 257.138M885.765 253.893V252.27L887.388 252.278L887.379 253.893M885.774 250.656V249.033L887.396 249.042L887.388 250.656M885.774 247.411L885.782 245.796H887.405L887.396 247.419M885.782 244.174L885.79 242.56H887.405V244.182M885.79 240.937L885.799 239.314L887.413 239.323V240.945M885.799 237.7L885.807 236.077L887.422 236.086V237.7M885.807 234.463L885.816 232.841L887.43 232.849V234.463M885.816 231.218V229.604H887.439V231.226M885.824 227.981V226.367H887.447V227.99M885.833 224.744V223.122L887.455 223.13L887.447 224.753M885.841 221.507V219.885L887.464 219.893L887.455 221.507M885.85 218.271V216.648L887.472 216.656L887.464 218.271M885.858 215.034V213.411H887.481L887.472 215.034M885.858 211.789L885.867 210.174H887.489L887.481 211.797M885.867 208.552L885.875 206.938H887.489V208.56M885.875 205.315L885.883 203.692L887.498 203.701V205.315M885.883 202.078L885.892 200.455L887.506 200.464V202.078M885.892 198.841L885.9 197.219H887.515V198.841M885.9 195.596V193.982H887.523V195.604M885.909 192.359V190.745H887.532V192.368M885.917 189.122V187.5L887.54 187.508L887.532 189.122M885.926 185.885V184.263L887.548 184.271L887.54 185.885M885.934 182.649V181.026H887.557L887.548 182.649M885.943 179.403V177.789H887.565L887.557 179.412M885.943 176.166L885.951 174.552H887.574L887.565 176.175M885.951 172.93L885.959 171.307L887.574 171.315V172.93M885.959 169.693L885.968 168.07L887.582 168.079V169.693M885.968 166.456L885.976 164.833H887.591V166.456M885.976 163.211L885.985 161.597H887.599V163.219M885.985 159.974L885.993 158.36H887.608V159.982M885.993 156.737V155.114L887.616 155.123V156.737M886.002 153.5V151.878L887.625 151.886L887.616 153.5M886.01 150.263V148.641H887.633L887.625 150.263M886.019 147.018V145.404H887.641L887.633 147.027M886.027 143.781V142.167H887.65L887.641 143.79M886.036 140.544V138.922L887.658 138.93L887.65 140.544M886.036 137.308L886.044 135.685L887.658 135.693V137.308M886.044 134.071L886.052 132.448H887.667V134.071M886.052 130.825L886.061 129.211H887.675V130.834M886.061 127.589L886.069 125.974H887.684V127.597M886.069 124.352L886.078 122.729L887.692 122.738V124.352M886.078 121.115V119.492L887.701 119.501V121.115M886.086 117.878V116.256L887.709 116.264L887.701 117.878M886.095 114.633V113.019H887.718L887.709 114.641M886.103 111.396V109.782H887.726L887.718 111.404M886.112 108.159V106.537L887.734 106.545L887.726 108.168M886.12 104.922V103.3L887.743 103.308L887.734 104.922M886.12 101.686L886.129 100.063L887.743 100.071V101.686M886.129 98.4403L886.137 96.8261H887.751V98.4487M886.137 95.2034L886.145 93.5892H887.76V95.2119M886.145 91.9666L886.154 90.3439L887.768 90.3524V91.975M886.154 88.7298L886.162 87.1071L887.777 87.1156V88.7298M886.162 85.4929V83.8703L887.785 83.8787V85.4929M886.171 82.2476V80.6335H887.794V82.2561M886.179 79.0108V77.3966H887.802L887.794 79.0193M886.188 75.774V74.1598H887.81L887.802 75.7824M886.196 72.5371V70.9145L887.819 70.923L887.81 72.5371M886.205 69.3003V67.6777L887.827 67.6861L887.819 69.3003M886.205 66.0635L886.213 64.4408H887.836L887.827 66.0635M886.213 62.8182L886.222 61.204H887.836V62.8267M886.222 59.5814L886.23 57.9672H887.844V59.5898" fill="#363847"/>
<path d="M279.439 57.739V59.3532H277.816V57.739M279.439 60.9758V62.5985H277.816V60.9758M279.439 64.2127V65.8353H277.816V64.2127M279.439 67.4495V69.0721H277.816V67.4495M279.439 70.6948V72.309H277.816V70.6948M279.439 73.9316V75.5458H277.816V73.9316M279.439 77.1684V78.7911H277.816V77.1684M279.439 80.4053V82.0279H277.816V80.4053M279.439 83.6421V85.2647H277.816V83.6421M279.439 86.8874V88.5016H277.816V86.8874M279.439 90.1242V91.7384H277.816V90.1242M279.439 93.3611V94.9837H277.816V93.3611M279.439 96.5979V98.2205H277.816V96.5979M279.439 99.8347V101.457H277.816V99.8347M279.439 103.072V104.694H277.816V103.072M279.439 106.317V107.931H277.816V106.317M279.439 109.554V111.168H277.816V109.554M279.439 112.79V114.413H277.816V112.79M279.439 116.027V117.65H277.816V116.027M279.439 119.264V120.887H277.816V119.264M279.439 122.509V124.124H277.816V122.509M279.439 125.746V127.36H277.816V125.746M279.439 128.983V130.606H277.816V128.983M279.439 132.22V133.843H277.816V132.22M279.439 135.457V137.079H277.816V135.457M279.439 138.702V140.316H277.816V138.702M279.439 141.939V143.553H277.816V141.939M279.439 145.176V146.798H277.816V145.176M279.439 148.413V150.035H277.816V148.413M279.439 151.649V153.272H277.816V151.649M279.439 154.895V156.509H277.816V154.895M279.439 158.131V159.746H277.816V158.131M279.439 161.368V162.991H277.816V161.368M279.439 164.605V166.228H277.816V164.605M279.439 167.842V169.465H277.816V167.842M279.439 171.087V172.701H277.816V171.087M279.439 174.324V175.938H277.816V174.324M279.439 177.561V179.184H277.816V177.561M279.439 180.798V182.42H277.816V180.798M279.439 184.035V185.657H277.816V184.035M279.439 187.28V188.894H277.816V187.28M279.439 190.517V192.131H277.816V190.517M279.439 193.754V195.376H277.816V193.754M279.439 196.99V198.613H277.816V196.99M279.439 200.227V201.85H277.816V200.227M279.439 203.472V205.087H277.816V203.472M279.439 206.709V208.324H277.816V206.709M279.439 209.946V211.569H277.816V209.946M279.439 213.183V214.806H277.816V213.183M279.439 216.42V218.042H277.816V216.42M279.439 219.665V221.279H277.816V219.665M279.439 222.902V224.516H277.816V222.902M279.439 226.139V227.761H277.816V226.139M279.439 229.376V230.998H277.816V229.376M279.439 232.612V234.235H277.816V232.612M279.439 235.858V237.472H277.816V235.858M279.439 239.095V240.709H277.816V239.095M279.439 242.331V243.954H277.816V242.331M279.439 245.568V247.191H277.816V245.568M279.439 248.805V250.428H277.816V248.805M279.439 252.05V253.665H277.816V252.05M279.439 255.287V256.901H277.816V255.287M279.439 258.524V260.147H277.816V258.524M279.439 261.761V263.383H277.816V261.761M279.439 264.998V266.62H277.816V264.998M279.439 268.243V269.857H277.816V268.243M279.439 271.48V273.094H277.816V271.48M279.439 274.717V276.339H277.816V274.717M279.439 277.953V279.576H277.816V277.953M279.439 281.19V282.813H277.816V281.19M279.439 284.436V286.05H277.816V284.436M279.439 287.672V289.287H277.816V287.672M279.439 290.909V292.532H277.816V290.909M279.439 294.146V295.769H277.816V294.146M279.439 297.383V299.006H277.816V297.383M279.439 300.62V302.242H277.816V300.62M279.439 303.865V305.479H277.816V303.865M279.439 307.102V308.716H277.816V307.102M279.439 310.339V311.961H277.816V310.339M279.439 313.575V315.198H277.816V313.575M279.439 316.812V318.435H277.816V316.812M279.439 320.058V321.672H277.816V320.058M279.439 323.294V324.909H277.816V323.294M279.439 326.531V328.154H277.816V326.531M279.439 329.768V331.391H277.816V329.768M279.439 333.005V334.628H277.816V333.005M279.439 336.25V337.864H277.816V336.25M279.439 339.487V341.101H277.816V339.487M279.439 342.724V344.347H277.816V342.724M279.439 345.961V347.583H277.816V345.961M279.439 349.198V350.82H277.816V349.198M279.439 352.443V354.057H277.816V352.443M279.439 355.68V357.294H277.816V355.68M279.439 358.916V360.539H277.816V358.916M279.439 362.153V363.776H277.816V362.153M279.439 365.39V367.013H277.816V365.39M279.439 368.635V370.25H277.816V368.635M279.439 371.872V373.486H277.816V371.872M279.439 375.109V376.732H277.816V375.109M279.439 378.346V379.969H277.816V378.346M279.439 381.583V383.205H277.816V381.583M279.439 384.828V386.442H277.816V384.828M279.439 388.065V389.679H277.816V388.065M279.439 391.302V392.924H277.816V391.302M279.439 394.539V396.161H277.816V394.539M279.439 397.775V399.398H277.816V397.775M279.439 401.021V402.635H277.816V401.021M279.439 404.257V405.872H277.816V404.257M279.439 407.494V409.117H277.816V407.494M279.439 410.731V412.354H277.816V410.731M279.439 413.968V415.591H277.816V413.968M279.439 417.213V418.827H277.816V417.213M279.439 420.45V422.064H277.816V420.45M279.439 423.687V425.31H277.816V423.687" fill="#363847"/>
<path d="M482.117 57.739V59.3532H480.502V57.739M482.117 60.9758V62.5985H480.502V60.9758M482.117 64.2127V65.8353H480.502V64.2127M482.117 67.4495V69.0721H480.502V67.4495M482.117 70.6948V72.309H480.502V70.6948M482.117 73.9316V75.5458H480.502V73.9316M482.117 77.1684V78.7911H480.502V77.1684M482.117 80.4053V82.0279H480.502V80.4053M482.117 83.6421V85.2647H480.502V83.6421M482.117 86.8874V88.5016H480.502V86.8874M482.117 90.1242V91.7384H480.502V90.1242M482.117 93.3611V94.9837H480.502V93.3611M482.117 96.5979V98.2205H480.502V96.5979M482.117 99.8347V101.457H480.502V99.8347M482.117 103.072V104.694H480.502V103.072M482.117 106.317V107.931H480.502V106.317M482.117 109.554V111.168H480.502V109.554M482.117 112.79V114.413H480.502V112.79M482.117 116.027V117.65H480.502V116.027M482.117 119.264V120.887H480.502V119.264M482.117 122.509V124.124H480.502V122.509M482.117 125.746V127.36H480.502V125.746M482.117 128.983V130.606H480.502V128.983M482.117 132.22V133.843H480.502V132.22M482.117 135.457V137.079H480.502V135.457M482.117 138.702V140.316H480.502V138.702M482.117 141.939V143.553H480.502V141.939M482.117 145.176V146.798H480.502V145.176M482.117 148.413V150.035H480.502V148.413M482.117 151.649V153.272H480.502V151.649M482.117 154.895V156.509H480.502V154.895M482.117 158.131V159.746H480.502V158.131M482.117 161.368V162.991H480.502V161.368M482.117 164.605V166.228H480.502V164.605M482.117 167.842V169.465H480.502V167.842M482.117 171.087V172.701H480.502V171.087M482.117 174.324V175.938H480.502V174.324M482.117 177.561V179.184H480.502V177.561M482.117 180.798V182.42H480.502V180.798M482.117 184.035V185.657H480.502V184.035M482.117 187.28V188.894H480.502V187.28M482.117 190.517V192.131H480.502V190.517M482.117 193.754V195.376H480.502V193.754M482.117 196.99V198.613H480.502V196.99M482.117 200.227V201.85H480.502V200.227M482.117 203.472V205.087H480.502V203.472M482.117 206.709V208.324H480.502V206.709M482.117 209.946V211.569H480.502V209.946M482.117 213.183V214.806H480.502V213.183M482.117 216.42V218.042H480.502V216.42M482.117 219.665V221.279H480.502V219.665M482.117 222.902V224.516H480.502V222.902M482.117 226.139V227.761H480.502V226.139M482.117 229.376V230.998H480.502V229.376M482.117 232.612V234.235H480.502V232.612M482.117 235.858V237.472H480.502V235.858M482.117 239.095V240.709H480.502V239.095M482.117 242.331V243.954H480.502V242.331M482.117 245.568V247.191H480.502V245.568M482.117 248.805V250.428H480.502V248.805M482.117 252.05V253.665H480.502V252.05M482.117 255.287V256.901H480.502V255.287M482.117 258.524V260.147H480.502V258.524M482.117 261.761V263.383H480.502V261.761M482.117 264.998V266.62H480.502V264.998M482.117 268.243V269.857H480.502V268.243M482.117 271.48V273.094H480.502V271.48M482.117 274.717V276.339H480.502V274.717M482.117 277.953V279.576H480.502V277.953M482.117 281.19V282.813H480.502V281.19M482.117 284.436V286.05H480.502V284.436M482.117 287.672V289.287H480.502V287.672M482.117 290.909V292.532H480.502V290.909M482.117 294.146V295.769H480.502V294.146M482.117 297.383V299.006H480.502V297.383M482.117 300.62V302.242H480.502V300.62M482.117 303.865V305.479H480.502V303.865M482.117 307.102V308.716H480.502V307.102M482.117 310.339V311.961H480.502V310.339M482.117 313.575V315.198H480.502V313.575M482.117 316.812V318.435H480.502V316.812M482.117 320.058V321.672H480.502V320.058M482.117 323.294V324.909H480.502V323.294M482.117 326.531V328.154H480.502V326.531M482.117 329.768V331.391H480.502V329.768M482.117 333.005V334.628H480.502V333.005M482.117 336.25V337.864H480.502V336.25M482.117 339.487V341.101H480.502V339.487M482.117 342.724V344.347H480.502V342.724M482.117 345.961V347.583H480.502V345.961M482.117 349.198V350.82H480.502V349.198M482.117 352.443V354.057H480.502V352.443M482.117 355.68V357.294H480.502V355.68M482.117 358.916V360.539H480.502V358.916M482.117 362.153V363.776H480.502V362.153M482.117 365.39V367.013H480.502V365.39M482.117 368.635V370.25H480.502V368.635M482.117 371.872V373.486H480.502V371.872M482.117 375.109V376.732H480.502V375.109M482.117 378.346V379.969H480.502V378.346M482.117 381.583V383.205H480.502V381.583M482.117 384.828V386.442H480.502V384.828M482.117 388.065V389.679H480.502V388.065M482.117 391.302V392.924H480.502V391.302M482.117 394.539V396.161H480.502V394.539M482.117 397.775V399.398H480.502V397.775M482.117 401.021V402.635H480.502V401.021M482.117 404.257V405.872H480.502V404.257M482.117 407.494V409.117H480.502V407.494M482.117 410.731V412.354H480.502V410.731M482.117 413.968V415.591H480.502V413.968M482.117 417.213V418.827H480.502V417.213M482.117 420.45V422.064H480.502V420.45M482.117 423.687V425.31H480.502V423.687" fill="#363847"/>
<path d="M458.461 42.0806H463.633V43.2976H458.461V42.0806Z" fill="black"/>
<path d="M470.529 40.1199C471.991 40.2129 473.099 40.6101 473.842 41.3031C474.603 42.0045 474.992 42.9257 474.992 44.0751C474.992 44.8695 474.797 45.5625 474.417 46.171C474.028 46.7795 473.454 47.2697 472.693 47.6246C471.949 47.988 471.036 48.1655 469.954 48.1655C468.957 48.1655 468.01 48.0134 467.115 47.6922C466.236 47.3542 465.526 46.9147 464.985 46.3738L465.695 45.2583C466.143 45.7315 466.751 46.1203 467.52 46.4076C468.281 46.7034 469.092 46.8471 469.954 46.8471C471.104 46.8471 471.983 46.602 472.591 46.1034C473.217 45.6132 473.538 44.9371 473.538 44.0751C473.538 43.2215 473.217 42.5454 472.591 42.0468C471.983 41.5566 471.045 41.3031 469.785 41.3031H468.805V40.2551L472.625 35.4886H465.559V34.204H474.451V35.2182L470.529 40.1199Z" fill="black"/>
<path d="M488.725 44.4131H485.952V48.0303H484.532V44.4131H476.723V43.3652L484.059 34.204H485.648L478.582 43.1286H484.566V39.9509H485.952V43.1286H488.725V44.4131Z" fill="black"/>
<path d="M492.944 41.6073C491.998 41.6073 491.237 41.2693 490.679 40.5932C490.113 39.9002 489.834 38.9874 489.834 37.855C489.834 36.7563 490.113 35.852 490.679 35.1506C491.237 34.4576 491.998 34.1026 492.944 34.1026C493.866 34.1026 494.609 34.4576 495.176 35.1506C495.759 35.8267 496.055 36.7309 496.055 37.855C496.055 38.9874 495.759 39.9002 495.176 40.5932C494.609 41.2693 493.866 41.6073 492.944 41.6073ZM501.295 34.204H502.478L493.046 48.0303H491.863L501.295 34.204ZM492.944 40.7284C493.57 40.7284 494.077 40.4833 494.466 39.9847C494.872 39.4691 495.074 38.7592 495.074 37.855C495.074 36.976 494.872 36.2915 494.466 35.7929C494.077 35.2773 493.57 35.0153 492.944 35.0153C492.285 35.0153 491.77 35.2773 491.389 35.7929C491.001 36.2915 490.815 36.976 490.815 37.855C490.815 38.7339 491.001 39.4353 491.389 39.9509C491.77 40.4748 492.285 40.7284 492.944 40.7284ZM501.396 48.1317C500.467 48.1317 499.714 47.7936 499.131 47.1175C498.565 46.4245 498.286 45.5118 498.286 44.3793C498.286 43.2553 498.565 42.351 499.131 41.6749C499.714 40.9819 500.467 40.627 501.396 40.627C502.343 40.627 503.095 40.9819 503.662 41.6749C504.245 42.351 504.541 43.2553 504.541 44.3793C504.541 45.5118 504.245 46.4245 503.662 47.1175C503.095 47.7936 502.343 48.1317 501.396 48.1317ZM501.396 47.2528C502.073 47.2528 502.588 46.9992 502.952 46.4752C503.332 45.9597 503.526 45.2583 503.526 44.3793C503.526 43.5004 503.332 42.8074 502.952 42.2834C502.588 41.7679 502.073 41.5059 501.396 41.5059C500.763 41.5059 500.247 41.7679 499.841 42.2834C499.452 42.782 499.267 43.4835 499.267 44.3793C499.267 45.2836 499.452 45.9935 499.841 46.509C500.247 47.0077 500.763 47.2528 501.396 47.2528Z" fill="black"/>
<path d="M250.635 42.0806H255.808V43.2976H250.635V42.0806Z" fill="black"/>
<path d="M261.858 34.204V48.0303H260.438V35.4886H257.159V34.204H261.858Z" fill="black"/>
<path d="M269.827 40.1199C271.29 40.2129 272.397 40.6101 273.14 41.3031C273.901 42.0045 274.29 42.9257 274.29 44.0751C274.29 44.8695 274.096 45.5625 273.715 46.171C273.326 46.7795 272.752 47.2697 271.991 47.6246C271.247 47.988 270.334 48.1655 269.253 48.1655C268.255 48.1655 267.309 48.0134 266.413 47.6922C265.534 47.3542 264.824 46.9147 264.283 46.3738L264.993 45.2583C265.441 45.7315 266.049 46.1203 266.818 46.4076C267.579 46.7034 268.39 46.8471 269.253 46.8471C270.402 46.8471 271.281 46.602 271.89 46.1034C272.515 45.6132 272.836 44.9371 272.836 44.0751C272.836 43.2215 272.515 42.5454 271.89 42.0468C271.281 41.5566 270.343 41.3031 269.084 41.3031H268.103V40.2551L271.923 35.4886H264.858V34.204H273.749V35.2182L269.827 40.1199Z" fill="black"/>
<path d="M277.339 48.1317C277.044 48.1317 276.799 48.0303 276.596 47.8274C276.393 47.6077 276.291 47.3457 276.291 47.0499C276.291 46.7372 276.393 46.4752 276.596 46.2724C276.799 46.0696 277.044 45.9682 277.339 45.9682C277.627 45.9682 277.88 46.0696 278.083 46.2724C278.286 46.4752 278.388 46.7372 278.388 47.0499C278.388 47.3457 278.286 47.6077 278.083 47.8274C277.88 48.0303 277.627 48.1317 277.339 48.1317Z" fill="black"/>
<path d="M286.188 39.748C287.084 39.748 287.887 39.934 288.589 40.2889C289.307 40.627 289.857 41.1171 290.245 41.7425C290.651 42.351 290.854 43.0778 290.854 43.9061C290.854 44.7427 290.634 45.4864 290.212 46.1372C289.806 46.7964 289.24 47.3035 288.521 47.6584C287.82 47.9965 287.017 48.1655 286.121 48.1655C284.295 48.1655 282.884 47.5739 281.895 46.3738C280.923 45.1568 280.441 43.4497 280.441 41.2355C280.441 39.7058 280.695 38.4127 281.219 37.3479C281.76 36.2661 282.503 35.4548 283.45 34.9139C284.397 34.373 285.495 34.1026 286.763 34.1026C288.132 34.1026 289.231 34.3561 290.043 34.8463L289.468 35.9957C288.809 35.5478 287.921 35.3196 286.797 35.3196C285.259 35.3196 284.059 35.8098 283.18 36.7732C282.317 37.7451 281.895 39.1565 281.895 40.9988C281.895 41.3369 281.912 41.7087 281.962 42.1144C282.301 41.3707 282.841 40.796 283.585 40.3903C284.346 39.9678 285.216 39.748 286.188 39.748ZM286.053 46.9485C287.067 46.9485 287.879 46.6781 288.487 46.1372C289.113 45.5794 289.434 44.8442 289.434 43.9399C289.434 43.044 289.113 42.3172 288.487 41.7763C287.879 41.2355 287.034 40.965 285.952 40.965C285.25 40.965 284.633 41.1002 284.092 41.3707C283.568 41.6242 283.154 41.9792 282.841 42.4524C282.546 42.9088 282.402 43.4159 282.402 43.9737C282.402 44.5146 282.537 45.0132 282.808 45.4611C283.095 45.8921 283.518 46.2555 284.059 46.5429C284.616 46.8133 285.284 46.9485 286.053 46.9485Z" fill="black"/>
<path d="M295.4 41.6073C294.453 41.6073 293.693 41.2693 293.135 40.5932C292.569 39.9002 292.29 38.9874 292.29 37.855C292.29 36.7563 292.569 35.852 293.135 35.1506C293.693 34.4576 294.453 34.1026 295.4 34.1026C296.321 34.1026 297.065 34.4576 297.631 35.1506C298.214 35.8267 298.51 36.7309 298.51 37.855C298.51 38.9874 298.214 39.9002 297.631 40.5932C297.065 41.2693 296.321 41.6073 295.4 41.6073ZM303.75 34.204H304.934L295.501 48.0303H294.318L303.75 34.204ZM295.4 40.7284C296.025 40.7284 296.533 40.4833 296.921 39.9847C297.327 39.4691 297.53 38.7592 297.53 37.855C297.53 36.976 297.327 36.2915 296.921 35.7929C296.533 35.2773 296.025 35.0153 295.4 35.0153C294.741 35.0153 294.225 35.2773 293.845 35.7929C293.456 36.2915 293.27 36.976 293.27 37.855C293.27 38.7339 293.456 39.4353 293.845 39.9509C294.225 40.4748 294.741 40.7284 295.4 40.7284ZM303.852 48.1317C302.922 48.1317 302.17 47.7936 301.587 47.1175C301.021 46.4245 300.742 45.5118 300.742 44.3793C300.742 43.2553 301.021 42.351 301.587 41.6749C302.17 40.9819 302.922 40.627 303.852 40.627C304.799 40.627 305.551 40.9819 306.117 41.6749C306.7 42.351 306.996 43.2553 306.996 44.3793C306.996 45.5118 306.7 46.4245 306.117 47.1175C305.551 47.7936 304.799 48.1317 303.852 48.1317ZM303.852 47.2528C304.528 47.2528 305.044 46.9992 305.407 46.4752C305.787 45.9597 305.982 45.2583 305.982 44.3793C305.982 43.5004 305.787 42.8074 305.407 42.2834C305.044 41.7679 304.528 41.5059 303.852 41.5059C303.218 41.5059 302.702 41.7679 302.297 42.2834C301.908 42.782 301.722 43.4835 301.722 44.3793C301.722 45.2836 301.908 45.9935 302.297 46.509C302.702 47.0077 303.218 47.2528 303.852 47.2528Z" fill="black"/>
<path d="M46.4733 42.0806H51.6459V43.2976H46.4733V42.0806Z" fill="black"/>
<path d="M63.3086 46.7795V48.0303H53.6057V47.0161L59.353 41.4045C60.0715 40.6861 60.5532 40.0692 60.8068 39.5452C61.0772 39.0297 61.2125 38.5142 61.2125 37.9902C61.2125 37.1789 60.9251 36.5535 60.3673 36.0971C59.801 35.6238 58.9981 35.3872 57.9669 35.3872C56.3441 35.3872 55.0763 35.9112 54.1804 36.9422L53.2 36.0633C53.7156 35.4379 54.3917 34.9477 55.2285 34.6097C56.0821 34.2716 57.0287 34.1026 58.0683 34.1026C59.4883 34.1026 60.6039 34.4407 61.4153 35.1168C62.2436 35.776 62.6662 36.6718 62.6662 37.8212C62.6662 38.548 62.5056 39.2325 62.1929 39.8833C61.8717 40.5425 61.2801 41.2946 60.4011 42.1482L55.7018 46.7795H63.3086Z" fill="black"/>
<path d="M66.1328 48.1317C65.8369 48.1317 65.5918 48.0303 65.389 47.8274C65.1861 47.6077 65.0847 47.3457 65.0847 47.0499C65.0847 46.7372 65.1861 46.4752 65.389 46.2724C65.5918 46.0696 65.8369 45.9682 66.1328 45.9682C66.4201 45.9682 66.6737 46.0696 66.8765 46.2724C67.0794 46.4752 67.1808 46.7372 67.1808 47.0499C67.1808 47.3457 67.0794 47.6077 66.8765 47.8274C66.6737 48.0303 66.4201 48.1317 66.1328 48.1317Z" fill="black"/>
<path d="M73.0884 34.204V48.0303H71.6685V35.4886H68.3892V34.204H73.0884Z" fill="black"/>
<path d="M88.1232 44.4131H85.3509V48.0303H83.931V44.4131H76.1214V43.3652L83.4577 34.204H85.0467L77.9808 43.1286H83.9648V39.9509H85.3509V43.1286H88.1232V44.4131Z" fill="black"/>
<path d="M92.343 41.6073C91.3964 41.6073 90.6358 41.2693 90.0779 40.5932C89.5116 39.9002 89.2327 38.9874 89.2327 37.855C89.2327 36.7563 89.5116 35.852 90.0779 35.1506C90.6358 34.4576 91.3964 34.1026 92.343 34.1026C93.2643 34.1026 94.0081 34.4576 94.5744 35.1506C95.1575 35.8267 95.4534 36.7309 95.4534 37.855C95.4534 38.9874 95.1575 39.9002 94.5744 40.5932C94.0081 41.2693 93.2643 41.6073 92.343 41.6073ZM100.694 34.204H101.877L92.4445 48.0303H91.2612L100.694 34.204ZM92.343 40.7284C92.9685 40.7284 93.4756 40.4833 93.8644 39.9847C94.2701 39.4691 94.4729 38.7592 94.4729 37.855C94.4729 36.976 94.2701 36.2915 93.8644 35.7929C93.4756 35.2773 92.9685 35.0153 92.343 35.0153C91.6838 35.0153 91.1682 35.2773 90.7879 35.7929C90.3991 36.2915 90.2132 36.976 90.2132 37.855C90.2132 38.7339 90.3991 39.4353 90.7879 39.9509C91.1682 40.4748 91.6838 40.7284 92.343 40.7284ZM100.795 48.1317C99.8653 48.1317 99.1131 47.7936 98.5299 47.1175C97.9636 46.4245 97.6847 45.5118 97.6847 44.3793C97.6847 43.2553 97.9636 42.351 98.5299 41.6749C99.1131 40.9819 99.8653 40.627 100.795 40.627C101.742 40.627 102.494 40.9819 103.06 41.6749C103.643 42.351 103.939 43.2553 103.939 44.3793C103.939 45.5118 103.643 46.4245 103.06 47.1175C102.494 47.7936 101.742 48.1317 100.795 48.1317ZM100.795 47.2528C101.471 47.2528 101.987 46.9992 102.35 46.4752C102.731 45.9597 102.925 45.2583 102.925 44.3793C102.925 43.5004 102.731 42.8074 102.35 42.2834C101.987 41.7679 101.471 41.5059 100.795 41.5059C100.161 41.5059 99.6455 41.7679 99.2398 42.2834C98.8511 42.782 98.6651 43.4835 98.6651 44.3793C98.6651 45.2836 98.8511 45.9935 99.2398 46.509C99.6455 47.0077 100.161 47.2528 100.795 47.2528Z" fill="black"/>
<path d="M1279.02 46.7795V48.0303H1269.31V47.0161L1275.06 41.4045C1275.78 40.6861 1276.26 40.0692 1276.51 39.5452C1276.78 39.0297 1276.92 38.5142 1276.92 37.9902C1276.92 37.1789 1276.63 36.5535 1276.07 36.0971C1275.51 35.6238 1274.7 35.3872 1273.67 35.3872C1272.05 35.3872 1270.78 35.9112 1269.89 36.9422L1268.91 36.0633C1269.42 35.4379 1270.1 34.9477 1270.94 34.6097C1271.79 34.2716 1272.74 34.1026 1273.78 34.1026C1275.19 34.1026 1276.31 34.4407 1277.12 35.1168C1277.95 35.776 1278.37 36.6718 1278.37 37.8212C1278.37 38.548 1278.21 39.2325 1277.9 39.8833C1277.58 40.5425 1276.99 41.2946 1276.11 42.1482L1271.41 46.7795H1279.02Z" fill="black"/>
<path d="M1281.84 48.1317C1281.54 48.1317 1281.3 48.0303 1281.1 47.8274C1280.89 47.6077 1280.79 47.3457 1280.79 47.0499C1280.79 46.7372 1280.89 46.4752 1281.1 46.2724C1281.3 46.0696 1281.54 45.9682 1281.84 45.9682C1282.13 45.9682 1282.38 46.0696 1282.58 46.2724C1282.79 46.4752 1282.89 46.7372 1282.89 47.0499C1282.89 47.3457 1282.79 47.6077 1282.58 47.8274C1282.38 48.0303 1282.13 48.1317 1281.84 48.1317Z" fill="black"/>
<path d="M1288.79 34.204V48.0303H1287.38V35.4886H1284.1V34.204H1288.79Z" fill="black"/>
<path d="M1303.83 44.4131H1301.06V48.0303H1299.64V44.4131H1291.83V43.3652L1299.16 34.204H1300.75L1293.69 43.1286H1299.67V39.9509H1301.06V43.1286H1303.83V44.4131Z" fill="black"/>
<path d="M1308.05 41.6073C1307.1 41.6073 1306.34 41.2693 1305.78 40.5932C1305.22 39.9002 1304.94 38.9874 1304.94 37.855C1304.94 36.7563 1305.22 35.852 1305.78 35.1506C1306.34 34.4576 1307.1 34.1026 1308.05 34.1026C1308.97 34.1026 1309.71 34.4576 1310.28 35.1506C1310.86 35.8267 1311.16 36.7309 1311.16 37.855C1311.16 38.9874 1310.86 39.9002 1310.28 40.5932C1309.71 41.2693 1308.97 41.6073 1308.05 41.6073ZM1316.4 34.204H1317.58L1308.15 48.0303H1306.97L1316.4 34.204ZM1308.05 40.7284C1308.68 40.7284 1309.18 40.4833 1309.57 39.9847C1309.98 39.4691 1310.18 38.7592 1310.18 37.855C1310.18 36.976 1309.98 36.2915 1309.57 35.7929C1309.18 35.2773 1308.68 35.0153 1308.05 35.0153C1307.39 35.0153 1306.87 35.2773 1306.49 35.7929C1306.11 36.2915 1305.92 36.976 1305.92 37.855C1305.92 38.7339 1306.11 39.4353 1306.49 39.9509C1306.87 40.4748 1307.39 40.7284 1308.05 40.7284ZM1316.5 48.1317C1315.57 48.1317 1314.82 47.7936 1314.24 47.1175C1313.67 46.4245 1313.39 45.5118 1313.39 44.3793C1313.39 43.2553 1313.67 42.351 1314.24 41.6749C1314.82 40.9819 1315.57 40.627 1316.5 40.627C1317.45 40.627 1318.2 40.9819 1318.77 41.6749C1319.35 42.351 1319.65 43.2553 1319.65 44.3793C1319.65 45.5118 1319.35 46.4245 1318.77 47.1175C1318.2 47.7936 1317.45 48.1317 1316.5 48.1317ZM1316.5 47.2528C1317.18 47.2528 1317.69 46.9992 1318.06 46.4752C1318.44 45.9597 1318.63 45.2583 1318.63 44.3793C1318.63 43.5004 1318.44 42.8074 1318.06 42.2834C1317.69 41.7679 1317.18 41.5059 1316.5 41.5059C1315.87 41.5059 1315.35 41.7679 1314.95 42.2834C1314.56 42.782 1314.37 43.4835 1314.37 44.3793C1314.37 45.2836 1314.56 45.9935 1314.95 46.509C1315.35 47.0077 1315.87 47.2528 1316.5 47.2528Z" fill="black"/>
<path d="M1072.5 34.204V48.0303H1071.08V35.4886H1067.8V34.204H1072.5Z" fill="black"/>
<path d="M1080.46 40.1199C1081.93 40.2129 1083.03 40.6101 1083.78 41.3031C1084.54 42.0045 1084.93 42.9257 1084.93 44.0751C1084.93 44.8695 1084.73 45.5625 1084.35 46.171C1083.96 46.7795 1083.39 47.2697 1082.63 47.6246C1081.88 47.988 1080.97 48.1655 1079.89 48.1655C1078.89 48.1655 1077.95 48.0134 1077.05 47.6922C1076.17 47.3542 1075.46 46.9147 1074.92 46.3738L1075.63 45.2583C1076.08 45.7315 1076.69 46.1203 1077.46 46.4076C1078.22 46.7034 1079.03 46.8471 1079.89 46.8471C1081.04 46.8471 1081.92 46.602 1082.53 46.1034C1083.15 45.6132 1083.47 44.9371 1083.47 44.0751C1083.47 43.2215 1083.15 42.5454 1082.53 42.0468C1081.92 41.5566 1080.98 41.3031 1079.72 41.3031H1078.74V40.2551L1082.56 35.4886H1075.49V34.204H1084.39V35.2182L1080.46 40.1199Z" fill="black"/>
<path d="M1087.98 48.1317C1087.68 48.1317 1087.44 48.0303 1087.23 47.8274C1087.03 47.6077 1086.93 47.3457 1086.93 47.0499C1086.93 46.7372 1087.03 46.4752 1087.23 46.2724C1087.44 46.0696 1087.68 45.9682 1087.98 45.9682C1088.26 45.9682 1088.52 46.0696 1088.72 46.2724C1088.92 46.4752 1089.02 46.7372 1089.02 47.0499C1089.02 47.3457 1088.92 47.6077 1088.72 47.8274C1088.52 48.0303 1088.26 48.1317 1087.98 48.1317Z" fill="black"/>
<path d="M1096.83 39.748C1097.72 39.748 1098.52 39.934 1099.23 40.2889C1099.94 40.627 1100.49 41.1171 1100.88 41.7425C1101.29 42.351 1101.49 43.0778 1101.49 43.9061C1101.49 44.7427 1101.27 45.4864 1100.85 46.1372C1100.44 46.7964 1099.88 47.3035 1099.16 47.6584C1098.46 47.9965 1097.65 48.1655 1096.76 48.1655C1094.93 48.1655 1093.52 47.5739 1092.53 46.3738C1091.56 45.1568 1091.08 43.4497 1091.08 41.2355C1091.08 39.7058 1091.33 38.4127 1091.86 37.3479C1092.4 36.2661 1093.14 35.4548 1094.09 34.9139C1095.03 34.373 1096.13 34.1026 1097.4 34.1026C1098.77 34.1026 1099.87 34.3561 1100.68 34.8463L1100.1 35.9957C1099.45 35.5478 1098.56 35.3196 1097.43 35.3196C1095.9 35.3196 1094.7 35.8098 1093.82 36.7732C1092.95 37.7451 1092.53 39.1565 1092.53 40.9988C1092.53 41.3369 1092.55 41.7087 1092.6 42.1144C1092.94 41.3707 1093.48 40.796 1094.22 40.3903C1094.98 39.9678 1095.85 39.748 1096.83 39.748ZM1096.69 46.9485C1097.7 46.9485 1098.52 46.6781 1099.12 46.1372C1099.75 45.5794 1100.07 44.8442 1100.07 43.9399C1100.07 43.044 1099.75 42.3172 1099.12 41.7763C1098.52 41.2355 1097.67 40.965 1096.59 40.965C1095.89 40.965 1095.27 41.1002 1094.73 41.3707C1094.21 41.6242 1093.79 41.9792 1093.48 42.4524C1093.18 42.9088 1093.04 43.4159 1093.04 43.9737C1093.04 44.5146 1093.17 45.0132 1093.44 45.4611C1093.73 45.8921 1094.15 46.2555 1094.7 46.5429C1095.25 46.8133 1095.92 46.9485 1096.69 46.9485Z" fill="black"/>
<path d="M1106.04 41.6073C1105.09 41.6073 1104.33 41.2693 1103.77 40.5932C1103.21 39.9002 1102.93 38.9874 1102.93 37.855C1102.93 36.7563 1103.21 35.852 1103.77 35.1506C1104.33 34.4576 1105.09 34.1026 1106.04 34.1026C1106.96 34.1026 1107.7 34.4576 1108.27 35.1506C1108.85 35.8267 1109.15 36.7309 1109.15 37.855C1109.15 38.9874 1108.85 39.9002 1108.27 40.5932C1107.7 41.2693 1106.96 41.6073 1106.04 41.6073ZM1114.39 34.204H1115.57L1106.14 48.0303H1104.96L1114.39 34.204ZM1106.04 40.7284C1106.66 40.7284 1107.17 40.4833 1107.56 39.9847C1107.96 39.4691 1108.17 38.7592 1108.17 37.855C1108.17 36.976 1107.96 36.2915 1107.56 35.7929C1107.17 35.2773 1106.66 35.0153 1106.04 35.0153C1105.38 35.0153 1104.86 35.2773 1104.48 35.7929C1104.09 36.2915 1103.91 36.976 1103.91 37.855C1103.91 38.7339 1104.09 39.4353 1104.48 39.9509C1104.86 40.4748 1105.38 40.7284 1106.04 40.7284ZM1114.49 48.1317C1113.56 48.1317 1112.81 47.7936 1112.22 47.1175C1111.66 46.4245 1111.38 45.5118 1111.38 44.3793C1111.38 43.2553 1111.66 42.351 1112.22 41.6749C1112.81 40.9819 1113.56 40.627 1114.49 40.627C1115.44 40.627 1116.19 40.9819 1116.75 41.6749C1117.34 42.351 1117.63 43.2553 1117.63 44.3793C1117.63 45.5118 1117.34 46.4245 1116.75 47.1175C1116.19 47.7936 1115.44 48.1317 1114.49 48.1317ZM1114.49 47.2528C1115.17 47.2528 1115.68 46.9992 1116.04 46.4752C1116.42 45.9597 1116.62 45.2583 1116.62 44.3793C1116.62 43.5004 1116.42 42.8074 1116.04 42.2834C1115.68 41.7679 1115.17 41.5059 1114.49 41.5059C1113.86 41.5059 1113.34 41.7679 1112.93 42.2834C1112.55 42.782 1112.36 43.4835 1112.36 44.3793C1112.36 45.2836 1112.55 45.9935 1112.93 46.509C1113.34 47.0077 1113.86 47.2528 1114.49 47.2528Z" fill="black"/>
<path d="M874.875 40.1199C876.337 40.2129 877.444 40.6101 878.188 41.3031C878.948 42.0045 879.337 42.9257 879.337 44.0751C879.337 44.8695 879.143 45.5625 878.762 46.171C878.374 46.7795 877.799 47.2697 877.038 47.6246C876.294 47.988 875.382 48.1655 874.3 48.1655C873.302 48.1655 872.356 48.0134 871.46 47.6922C870.581 47.3542 869.871 46.9147 869.33 46.3738L870.04 45.2583C870.488 45.7315 871.096 46.1203 871.866 46.4076C872.626 46.7034 873.438 46.8471 874.3 46.8471C875.449 46.8471 876.328 46.602 876.937 46.1034C877.562 45.6132 877.883 44.9371 877.883 44.0751C877.883 43.2215 877.562 42.5454 876.937 42.0468C876.328 41.5566 875.39 41.3031 874.131 41.3031H873.15V40.2551L876.971 35.4886H869.905V34.204H878.796V35.2182L874.875 40.1199Z" fill="black"/>
<path d="M893.07 44.4131H890.298V48.0303H888.878V44.4131H881.068V43.3652L888.404 34.204H889.993L882.928 43.1286H888.912V39.9509H890.298V43.1286H893.07V44.4131Z" fill="black"/>
<path d="M897.29 41.6073C896.343 41.6073 895.583 41.2693 895.025 40.5932C894.458 39.9002 894.18 38.9874 894.18 37.855C894.18 36.7563 894.458 35.852 895.025 35.1506C895.583 34.4576 896.343 34.1026 897.29 34.1026C898.211 34.1026 898.955 34.4576 899.521 35.1506C900.104 35.8267 900.4 36.7309 900.4 37.855C900.4 38.9874 900.104 39.9002 899.521 40.5932C898.955 41.2693 898.211 41.6073 897.29 41.6073ZM905.64 34.204H906.824L897.391 48.0303H896.208L905.64 34.204ZM897.29 40.7284C897.915 40.7284 898.422 40.4833 898.811 39.9847C899.217 39.4691 899.42 38.7592 899.42 37.855C899.42 36.976 899.217 36.2915 898.811 35.7929C898.422 35.2773 897.915 35.0153 897.29 35.0153C896.631 35.0153 896.115 35.2773 895.735 35.7929C895.346 36.2915 895.16 36.976 895.16 37.855C895.16 38.7339 895.346 39.4353 895.735 39.9509C896.115 40.4748 896.631 40.7284 897.29 40.7284ZM905.742 48.1317C904.812 48.1317 904.06 47.7936 903.477 47.1175C902.91 46.4245 902.631 45.5118 902.631 44.3793C902.631 43.2553 902.91 42.351 903.477 41.6749C904.06 40.9819 904.812 40.627 905.742 40.627C906.688 40.627 907.441 40.9819 908.007 41.6749C908.59 42.351 908.886 43.2553 908.886 44.3793C908.886 45.5118 908.59 46.4245 908.007 47.1175C907.441 47.7936 906.688 48.1317 905.742 48.1317ZM905.742 47.2528C906.418 47.2528 906.934 46.9992 907.297 46.4752C907.677 45.9597 907.872 45.2583 907.872 44.3793C907.872 43.5004 907.677 42.8074 907.297 42.2834C906.934 41.7679 906.418 41.5059 905.742 41.5059C905.108 41.5059 904.592 41.7679 904.187 42.2834C903.798 42.782 903.612 43.4835 903.612 44.3793C903.612 45.2836 903.798 45.9935 904.187 46.509C904.592 47.0077 905.108 47.2528 905.742 47.2528Z" fill="black"/>
<mask id="mask4_1_3" style="mask-type:luminance" maskUnits="userSpaceOnUse" x="666" y="26" width="36" height="32">
<path d="M666.023 26.3003H701.944V57.7221H666.023V26.3003Z" fill="white"/>
</mask>
<g mask="url(#mask4_1_3)">
<mask id="mask5_1_3" style="mask-type:luminance" maskUnits="userSpaceOnUse" x="666" y="26" width="36" height="32">
<path d="M683.983 57.7221L666.023 26.3003H701.944L683.983 57.7221Z" fill="white"/>
</mask>
<g mask="url(#mask5_1_3)">
<path d="M701.944 57.7221H666.023V26.3003H701.944V57.7221Z" fill="#F1833A"/>
</g>
</g>
<mask id="mask6_1_3" style="mask-type:luminance" maskUnits="userSpaceOnUse" x="75" y="425" width="1219" height="32">
<path d="M75.0195 425.538H1293.34V456.968H75.0195V425.538Z" fill="white"/>
</mask>
<g mask="url(#mask6_1_3)">
<path d="M75.0195 425.538H1293.34V456.968H75.0195V425.538Z" fill="#554266"/>
</g>
<mask id="mask7_1_3" style="mask-type:luminance" maskUnits="userSpaceOnUse" x="666" y="425" width="36" height="32">
<path d="M666.04 425.538H701.96V456.968H666.04V425.538Z" fill="white"/>
</mask>
<g mask="url(#mask7_1_3)">
<mask id="mask8_1_3" style="mask-type:luminance" maskUnits="userSpaceOnUse" x="666" y="425" width="36" height="32">
<path d="M684 425.538L701.96 456.968H666.04L684 425.538Z" fill="white"/>
</mask>
<g mask="url(#mask8_1_3)">
<path d="M666.04 425.538H701.96V456.968H666.04V425.538Z" fill="#F1833A"/>
</g>
</g>
<path d="M278.779 455.117V427.405" stroke="#D9D5CB" stroke-width="0.997908"/>
<path d="M481.491 455.117V427.405" stroke="#D9D5CB" stroke-width="0.997908"/>
<path d="M886.991 455.117V427.405" stroke="#D9D5CB" stroke-width="0.997908"/>
<path d="M1089.7 455.117V427.405" stroke="#D9D5CB" stroke-width="0.997908"/>
<path d="M264.483 472.694H269.656V473.911H264.483V472.694Z" fill="black"/>
<path d="M281.32 477.393V478.644H271.617V477.63L277.365 472.018C278.083 471.3 278.565 470.683 278.819 470.159C279.089 469.643 279.224 469.128 279.224 468.604C279.224 467.793 278.937 467.167 278.379 466.711C277.813 466.238 277.01 466.001 275.979 466.001C274.356 466.001 273.088 466.525 272.192 467.556L271.212 466.677C271.727 466.052 272.404 465.561 273.24 465.223C274.094 464.885 275.041 464.716 276.08 464.716C277.5 464.716 278.616 465.054 279.427 465.73C280.255 466.39 280.678 467.286 280.678 468.435C280.678 469.162 280.517 469.846 280.205 470.497C279.884 471.156 279.292 471.908 278.413 472.762L273.714 477.393H281.32Z" fill="black"/>
<path d="M292.904 473.776C292.904 474.723 292.709 475.585 292.329 476.345C291.965 477.114 291.424 477.723 290.706 478.171C289.979 478.627 289.083 478.847 288.001 478.847C286.531 478.847 285.348 478.399 284.452 477.495C283.573 476.599 283.133 475.289 283.133 473.573C283.133 472.272 283.37 471.207 283.843 470.396C284.316 469.584 284.976 469.001 285.838 468.638C286.691 468.257 287.706 468.063 288.88 468.063H293.749V469.517H291.179C291.695 469.99 292.109 470.59 292.43 471.308C292.743 472.01 292.904 472.83 292.904 473.776ZM284.925 473.573C284.925 474.706 285.162 475.627 285.635 476.345C286.125 477.047 286.928 477.393 288.035 477.393C289.117 477.393 289.903 477.072 290.402 476.413C290.892 475.737 291.146 474.883 291.146 473.844C291.146 472.99 290.993 472.204 290.706 471.477C290.436 470.734 290.03 470.083 289.489 469.517H288.88C287.57 469.517 286.581 469.838 285.905 470.463C285.246 471.072 284.925 472.111 284.925 473.573Z" fill="black"/>
<path d="M469.047 472.694H474.219V473.911H469.047V472.694Z" fill="black"/>
<path d="M480.272 464.818V478.644H478.852V466.102H475.572V464.818H480.272Z" fill="black"/>
<path d="M493.381 473.776C493.381 474.723 493.187 475.585 492.806 476.345C492.443 477.114 491.902 477.723 491.184 478.171C490.457 478.627 489.561 478.847 488.479 478.847C487.008 478.847 485.825 478.399 484.929 477.495C484.05 476.599 483.611 475.289 483.611 473.573C483.611 472.272 483.847 471.207 484.321 470.396C484.794 469.584 485.453 469.001 486.315 468.638C487.169 468.257 488.183 468.063 489.358 468.063H494.226V469.517H491.657C492.172 469.99 492.587 470.59 492.908 471.308C493.221 472.01 493.381 472.83 493.381 473.776ZM485.402 473.573C485.402 474.706 485.639 475.627 486.112 476.345C486.603 477.047 487.406 477.393 488.513 477.393C489.595 477.393 490.381 477.072 490.879 476.413C491.37 475.737 491.623 474.883 491.623 473.844C491.623 472.99 491.471 472.204 491.184 471.477C490.913 470.734 490.507 470.083 489.967 469.517H489.358C488.048 469.517 487.059 469.838 486.383 470.463C485.724 471.072 485.402 472.111 485.402 473.573Z" fill="black"/>
<path d="M61.621 472.694H66.7936V473.911H61.621V472.694Z" fill="black"/>
<path d="M73.6913 470.734C75.1535 470.827 76.2607 471.224 77.0044 471.917C77.7651 472.618 78.1539 473.539 78.1539 474.689C78.1539 475.483 77.9595 476.176 77.5792 476.785C77.1904 477.393 76.6157 477.883 75.855 478.238C75.1112 478.602 74.1984 478.779 73.1165 478.779C72.1192 478.779 71.1726 478.627 70.2767 478.306C69.3977 477.968 68.6877 477.528 68.1468 476.988L68.8568 475.872C69.3047 476.345 69.9132 476.734 70.6824 477.021C71.4431 477.317 72.2544 477.461 73.1165 477.461C74.266 477.461 75.145 477.216 75.7536 476.717C76.379 476.227 76.7002 475.551 76.7002 474.689C76.7002 473.835 76.379 473.159 75.7536 472.661C75.145 472.17 74.2068 471.917 72.9475 471.917H71.9671V470.869L75.7874 466.102H68.7215V464.818H77.613V465.832L73.6913 470.734Z" fill="black"/>
<path d="M89.9624 473.776C89.9624 474.723 89.768 475.585 89.3876 476.345C89.0242 477.114 88.4833 477.723 87.7648 478.171C87.038 478.627 86.1421 478.847 85.0602 478.847C83.5896 478.847 82.4063 478.399 81.5104 477.495C80.6314 476.599 80.1919 475.289 80.1919 473.573C80.1919 472.272 80.4285 471.207 80.9019 470.396C81.3752 469.584 82.0344 469.001 82.8965 468.638C83.7502 468.257 84.7644 468.063 85.9392 468.063H90.8076V469.517H88.2382C88.7537 469.99 89.1679 470.59 89.489 471.308C89.8018 472.01 89.9624 472.83 89.9624 473.776ZM81.9837 473.573C81.9837 474.706 82.2204 475.627 82.6937 476.345C83.1839 477.047 83.9868 477.393 85.094 477.393C86.1759 477.393 86.9619 477.072 87.4606 476.413C87.9508 475.737 88.2044 474.883 88.2044 473.844C88.2044 472.99 88.0522 472.204 87.7648 471.477C87.4944 470.734 87.0887 470.083 86.5478 469.517H85.9392C84.6292 469.517 83.6403 469.838 82.9641 470.463C82.3049 471.072 81.9837 472.111 81.9837 473.573Z" fill="black"/>
<path d="M1081.65 472.322H1077.96V475.906H1076.74V472.322H1073.06V471.173H1076.74V467.556H1077.96V471.173H1081.65V472.322Z" fill="black"/>
<path d="M1093.5 477.393V478.644H1083.8V477.63L1089.55 472.018C1090.27 471.3 1090.75 470.683 1091 470.159C1091.27 469.643 1091.41 469.128 1091.41 468.604C1091.41 467.793 1091.12 467.167 1090.56 466.711C1090 466.238 1089.19 466.001 1088.16 466.001C1086.54 466.001 1085.27 466.525 1084.38 467.556L1083.4 466.677C1083.91 466.052 1084.59 465.561 1085.42 465.223C1086.28 464.885 1087.22 464.716 1088.26 464.716C1089.68 464.716 1090.8 465.054 1091.61 465.73C1092.44 466.39 1092.86 467.286 1092.86 468.435C1092.86 469.162 1092.7 469.846 1092.39 470.497C1092.07 471.156 1091.48 471.908 1090.6 472.762L1085.9 477.393H1093.5Z" fill="black"/>
<path d="M1105.09 473.776C1105.09 474.723 1104.89 475.585 1104.51 476.345C1104.15 477.114 1103.61 477.723 1102.89 478.171C1102.16 478.627 1101.27 478.847 1100.18 478.847C1098.71 478.847 1097.53 478.399 1096.63 477.495C1095.76 476.599 1095.32 475.289 1095.32 473.573C1095.32 472.272 1095.55 471.207 1096.03 470.396C1096.5 469.584 1097.16 469.001 1098.02 468.638C1098.87 468.257 1099.89 468.063 1101.06 468.063H1105.93V469.517H1103.36C1103.88 469.99 1104.29 470.59 1104.61 471.308C1104.93 472.01 1105.09 472.83 1105.09 473.776ZM1097.11 473.573C1097.11 474.706 1097.34 475.627 1097.82 476.345C1098.31 477.047 1099.11 477.393 1100.22 477.393C1101.3 477.393 1102.09 477.072 1102.58 476.413C1103.08 475.737 1103.33 474.883 1103.33 473.844C1103.33 472.99 1103.18 472.204 1102.89 471.477C1102.62 470.734 1102.21 470.083 1101.67 469.517H1101.06C1099.75 469.517 1098.76 469.838 1098.09 470.463C1097.43 471.072 1097.11 472.111 1097.11 473.573Z" fill="black"/>
<path d="M1283.9 472.322H1280.21V475.906H1278.99V472.322H1275.31V471.173H1278.99V467.556H1280.21V471.173H1283.9V472.322Z" fill="black"/>
<path d="M1290.99 470.734C1292.45 470.827 1293.56 471.224 1294.3 471.917C1295.06 472.618 1295.45 473.539 1295.45 474.689C1295.45 475.483 1295.25 476.176 1294.87 476.785C1294.49 477.393 1293.91 477.883 1293.15 478.238C1292.41 478.602 1291.49 478.779 1290.41 478.779C1289.41 478.779 1288.47 478.627 1287.57 478.306C1286.69 477.968 1285.98 477.528 1285.44 476.988L1286.15 475.872C1286.6 476.345 1287.21 476.734 1287.98 477.021C1288.74 477.317 1289.55 477.461 1290.41 477.461C1291.56 477.461 1292.44 477.216 1293.05 476.717C1293.67 476.227 1294 475.551 1294 474.689C1294 473.835 1293.67 473.159 1293.05 472.661C1292.44 472.17 1291.5 471.917 1290.24 471.917H1289.26V470.869L1293.08 466.102H1286.02V464.818H1294.91V465.832L1290.99 470.734Z" fill="black"/>
<path d="M1307.26 473.776C1307.26 474.723 1307.06 475.585 1306.68 476.345C1306.32 477.114 1305.78 477.723 1305.06 478.171C1304.33 478.627 1303.44 478.847 1302.36 478.847C1300.88 478.847 1299.7 478.399 1298.81 477.495C1297.93 476.599 1297.49 475.289 1297.49 473.573C1297.49 472.272 1297.72 471.207 1298.2 470.396C1298.67 469.584 1299.33 469.001 1300.19 468.638C1301.05 468.257 1302.06 468.063 1303.23 468.063H1308.1V469.517H1305.53C1306.05 469.99 1306.46 470.59 1306.78 471.308C1307.1 472.01 1307.26 472.83 1307.26 473.776ZM1299.28 473.573C1299.28 474.706 1299.52 475.627 1299.99 476.345C1300.48 477.047 1301.28 477.393 1302.39 477.393C1303.47 477.393 1304.26 477.072 1304.76 476.413C1305.25 475.737 1305.5 474.883 1305.5 473.844C1305.5 472.99 1305.35 472.204 1305.06 471.477C1304.79 470.734 1304.38 470.083 1303.84 469.517H1303.23C1301.92 469.517 1300.94 469.838 1300.26 470.463C1299.6 471.072 1299.28 472.111 1299.28 473.573Z" fill="black"/>
<path d="M880.789 472.322H877.104V475.906H875.887V472.322H872.202V471.173H875.887V467.556H877.104V471.173H880.789V472.322Z" fill="black"/>
<path d="M887.034 464.818V478.644H885.614V466.102H882.335V464.818H887.034Z" fill="black"/>
<path d="M900.143 473.776C900.143 474.723 899.949 475.585 899.569 476.345C899.205 477.114 898.664 477.723 897.946 478.171C897.219 478.627 896.323 478.847 895.241 478.847C893.771 478.847 892.587 478.399 891.691 477.495C890.812 476.599 890.373 475.289 890.373 473.573C890.373 472.272 890.61 471.207 891.083 470.396C891.556 469.584 892.215 469.001 893.078 468.638C893.931 468.257 894.945 468.063 896.12 468.063H900.989V469.517H898.419C898.935 469.99 899.349 470.59 899.67 471.308C899.983 472.01 900.143 472.83 900.143 473.776ZM892.165 473.573C892.165 474.706 892.401 475.627 892.875 476.345C893.365 477.047 894.168 477.393 895.275 477.393C896.357 477.393 897.143 477.072 897.642 476.413C898.132 475.737 898.385 474.883 898.385 473.844C898.385 472.99 898.233 472.204 897.946 471.477C897.675 470.734 897.27 470.083 896.729 469.517H896.12C894.81 469.517 893.821 469.838 893.145 470.463C892.486 471.072 892.165 472.111 892.165 473.573Z" fill="black"/>
<path d="M683.959 478.779C682.894 478.779 681.947 478.5 681.119 477.934C680.282 477.351 679.631 476.531 679.158 475.466C678.685 474.41 678.448 473.168 678.448 471.748C678.448 470.311 678.685 469.06 679.158 467.995C679.631 466.939 680.282 466.128 681.119 465.561C681.947 465.004 682.894 464.716 683.959 464.716C685.04 464.716 685.995 465.004 686.832 465.561C687.661 466.128 688.32 466.939 688.793 467.995C689.266 469.06 689.503 470.311 689.503 471.748C689.503 473.168 689.266 474.41 688.793 475.466C688.32 476.531 687.661 477.351 686.832 477.934C685.995 478.5 685.04 478.779 683.959 478.779ZM683.959 477.461C684.77 477.461 685.48 477.241 686.088 476.785C686.697 476.337 687.17 475.686 687.508 474.824C687.863 473.97 688.049 472.948 688.049 471.748C688.049 470.531 687.863 469.5 687.508 468.638C687.17 467.784 686.697 467.133 686.088 466.677C685.48 466.229 684.77 466.001 683.959 466.001C683.164 466.001 682.454 466.229 681.829 466.677C681.22 467.133 680.747 467.784 680.409 468.638C680.071 469.5 679.902 470.531 679.902 471.748C679.902 472.948 680.071 473.97 680.409 474.824C680.747 475.686 681.22 476.337 681.829 476.785C682.454 477.241 683.164 477.461 683.959 477.461Z" fill="black"/>
</g>
<defs>
<clipPath id="clip0_1_3">
<rect width="1368" height="516" fill="white"/>
</clipPath>
</defs>
</svg>
