<svg xmlns="http://www.w3.org/2000/svg" xmlns:xlink="http://www.w3.org/1999/xlink" width="34" zoomAndPan="magnify" viewBox="0 0 25.5 25.499999" height="34" preserveAspectRatio="xMidYMid meet" version="1.0"><defs><g/><clipPath id="e9d684a708"><path d="M 0.03125 0.539062 L 24.382812 0.539062 L 24.382812 24.894531 L 0.03125 24.894531 Z M 0.03125 0.539062 " clip-rule="nonzero"/></clipPath><clipPath id="fa102acd3a"><path d="M 12.207031 0.539062 C 5.484375 0.539062 0.03125 5.992188 0.03125 12.714844 C 0.03125 19.441406 5.484375 24.894531 12.207031 24.894531 C 18.933594 24.894531 24.382812 19.441406 24.382812 12.714844 C 24.382812 5.992188 18.933594 0.539062 12.207031 0.539062 Z M 12.207031 0.539062 " clip-rule="nonzero"/></clipPath></defs><g clip-path="url(#e9d684a708)"><g clip-path="url(#fa102acd3a)"><path fill="#331d4a" d="M 0.03125 0.539062 L 24.382812 0.539062 L 24.382812 24.894531 L 0.03125 24.894531 Z M 0.03125 0.539062 " fill-opacity="1" fill-rule="nonzero"/></g></g><g fill="#ffffff" fill-opacity="1"><g transform="translate(9.719017, 16.083213)"><g><path d="M 1.8125 -8.40625 L 0.671875 -8.546875 L 0.671875 -9.171875 L 4.296875 -9.171875 L 4.296875 -8.546875 L 3.140625 -8.40625 L 3.140625 -0.734375 L 4.296875 -0.59375 L 4.296875 0 L 0.671875 0 L 0.671875 -0.609375 L 1.8125 -0.734375 Z M 1.8125 -8.40625 "/></g></g></g></svg>