<svg xmlns="http://www.w3.org/2000/svg" xmlns:xlink="http://www.w3.org/1999/xlink" width="35" zoomAndPan="magnify" viewBox="0 0 26.25 25.499999" height="34" preserveAspectRatio="xMidYMid meet" version="1.0"><defs><g/><clipPath id="d96d730a5e"><path d="M 0.652344 0.257812 L 24.792969 0.257812 L 24.792969 24.398438 L 0.652344 24.398438 Z M 0.652344 0.257812 " clip-rule="nonzero"/></clipPath><clipPath id="9616267814"><path d="M 12.722656 0.257812 C 6.054688 0.257812 0.652344 5.664062 0.652344 12.328125 C 0.652344 18.996094 6.054688 24.398438 12.722656 24.398438 C 19.390625 24.398438 24.792969 18.996094 24.792969 12.328125 C 24.792969 5.664062 19.390625 0.257812 12.722656 0.257812 Z M 12.722656 0.257812 " clip-rule="nonzero"/></clipPath></defs><g clip-path="url(#d96d730a5e)"><g clip-path="url(#9616267814)"><path fill="#363847" d="M 0.652344 0.257812 L 24.792969 0.257812 L 24.792969 24.398438 L 0.652344 24.398438 Z M 0.652344 0.257812 " fill-opacity="1" fill-rule="nonzero"/></g></g><g fill="#ffffff" fill-opacity="1"><g transform="translate(8.391563, 15.720839)"><g><path d="M 1.609375 -8.328125 L 0.640625 -8.484375 L 0.640625 -9.09375 L 2.28125 -9.09375 C 2.570312 -9.09375 2.859375 -9.101562 3.140625 -9.125 C 3.585938 -9.15625 4.003906 -9.171875 4.390625 -9.171875 C 5.578125 -9.160156 6.414062 -8.9375 6.90625 -8.5 C 7.394531 -8.070312 7.640625 -7.425781 7.640625 -6.5625 C 7.640625 -5.90625 7.488281 -5.335938 7.1875 -4.859375 C 6.882812 -4.378906 6.460938 -4.007812 5.921875 -3.75 C 5.390625 -3.5 4.78125 -3.375 4.09375 -3.375 C 3.851562 -3.375 3.609375 -3.378906 3.359375 -3.390625 C 3.117188 -3.398438 2.96875 -3.410156 2.90625 -3.421875 L 2.90625 -0.734375 L 4.59375 -0.59375 L 4.59375 0 L 0.59375 0 L 0.59375 -0.59375 L 1.609375 -0.71875 Z M 2.90625 -4.09375 C 3.132812 -4.050781 3.53125 -4.03125 4.09375 -4.03125 C 4.726562 -4.03125 5.25 -4.226562 5.65625 -4.625 C 6.0625 -5.019531 6.265625 -5.660156 6.265625 -6.546875 C 6.265625 -7.242188 6.085938 -7.742188 5.734375 -8.046875 C 5.390625 -8.359375 4.84375 -8.515625 4.09375 -8.515625 C 3.832031 -8.515625 3.554688 -8.5 3.265625 -8.46875 C 3.085938 -8.445312 2.96875 -8.4375 2.90625 -8.4375 Z M 2.90625 -4.09375 "/></g></g></g></svg>