<svg xmlns="http://www.w3.org/2000/svg" width="1200pt" fill="#458FA3" height="1200pt" viewBox="0 0 1200 1200"><g fill-rule="evenodd"><path d="m116.06 450.93h-108v360h108z"></path><path d="m1106.4 395.47c-28.078 13.246-172.57 81.145-243.02 112.7-4.6211 41.977-40.262 74.746-83.461 74.746h-336v-24h336c25.668 0 47.438-16.262 55.992-38.953v-9.0352-0.011719c0-33.047-26.965-60-60.012-60l-139.86 0.003906c-84.805 0-152.93-48-244.13-48-111.76 0-139.37 39.203-251.84 85.922v268.93c75.156-20.605 158.06-30.395 239.83-30.852 100.37-0.55078 150.38 4.7031 215.3 21.527 33.539 8.7109 65.207 4.2852 97.008-9.5156 122.65-53.281 325.77-159.42 447.3-229.57 104.5-60.32 31.141-144.21-33.109-113.9z"></path></g></svg>