<svg xmlns="http://www.w3.org/2000/svg" xmlns:xlink="http://www.w3.org/1999/xlink" width="1920" zoomAndPan="magnify" viewBox="0 0 1440 1439.999935" height="1920" preserveAspectRatio="xMidYMid meet" version="1.0"><defs><clipPath id="0a76cc7087"><path d="M 0 0.320312 L 1440 0.320312 L 1440 1439.570312 L 0 1439.570312 Z M 0 0.320312 " clip-rule="nonzero"/></clipPath><clipPath id="8fc4057f94"><path d="M 0 0 L 1440 0 L 1440 1439.25 L 0 1439.25 Z M 0 0 " clip-rule="nonzero"/></clipPath></defs><g clip-path="url(#0a76cc7087)"><path fill="#ffffff" d="M 0.00390625 0.320312 L 0.00390625 1439.675781 L 1439.996094 1439.675781 L 1439.996094 0.320312 Z M 24.609375 24.925781 L 1415.390625 24.925781 L 1415.390625 1415.707031 L 720.140625 1415.867188 C 164.273438 1415.996094 24.828125 1415.867188 24.585938 1415.226562 C 24.417969 1414.789062 24.355469 1101.789062 24.445312 719.675781 Z M 24.609375 24.925781 " fill-opacity="1" fill-rule="nonzero"/></g><path fill="#ffffff" d="M 956.804688 546.1875 L 956.804688 520.019531 L 999.148438 485.335938 C 1054.75 439.792969 1069.511719 427.480469 1077.601562 419.902344 C 1099.394531 399.492188 1106.707031 387.121094 1107.472656 369.351562 C 1108.039062 356.261719 1104.789062 346.441406 1097.472656 339.125 C 1091.246094 332.894531 1083.382812 329.367188 1073.15625 328.203125 C 1053.21875 325.9375 1035.308594 334.894531 1016.242188 356.660156 C 1012.90625 360.472656 1009.285156 364.589844 1008.199219 365.808594 L 1006.226562 368.023438 L 983.433594 349.640625 C 970.894531 339.527344 960.636719 331.066406 960.636719 330.839844 C 960.636719 330.613281 963.296875 326.992188 966.550781 322.789062 C 973.453125 313.875 986.34375 300.335938 993.128906 294.875 C 1011.101562 280.417969 1029.902344 272.703125 1053.632812 270.054688 C 1062.007812 269.117188 1082.554688 269.273438 1090.382812 270.332031 C 1115.386719 273.710938 1135.03125 282.6875 1149.847656 297.503906 C 1165.445312 313.101562 1173.421875 332.519531 1174.527344 357.601562 C 1175.761719 385.667969 1168.066406 408.601562 1150.335938 429.695312 C 1137.433594 445.039062 1123.5 456.964844 1072.863281 495.984375 L 1047.988281 515.152344 L 1112.96875 515.3125 L 1177.949219 515.476562 L 1177.949219 572.355469 L 956.804688 572.355469 Z M 956.804688 546.1875 " fill-opacity="1" fill-rule="nonzero"/><path fill="#ffffff" d="M 556.824219 671.726562 C 470.960938 535.871094 400.542969 424.28125 400.339844 423.753906 C 400.011719 422.898438 409.402344 422.808594 484.195312 422.953125 L 568.417969 423.113281 L 642.613281 540.871094 C 683.417969 605.636719 716.949219 658.628906 717.125 658.632812 C 717.300781 658.632812 750.808594 605.679688 791.585938 540.957031 C 832.363281 476.234375 866.011719 423.167969 866.363281 423.03125 C 866.714844 422.894531 901.792969 422.859375 944.316406 422.949219 L 1021.628906 423.113281 L 972.277344 463.566406 L 922.929688 504.023438 L 922.929688 586.398438 L 818.371094 752.105469 C 760.863281 843.246094 713.617188 918.019531 713.375 918.277344 C 713.136719 918.53125 642.6875 807.582031 556.824219 671.726562 Z M 556.824219 671.726562 " fill-opacity="1" fill-rule="nonzero"/><path fill="#ffffff" d="M 792.542969 1031.261719 L 792.542969 955.84375 L 863.488281 955.84375 L 863.488281 743.816406 L 906.796875 675.183594 L 950.109375 606.550781 L 984.132812 606.382812 L 1018.160156 606.21875 L 1018.160156 955.84375 L 1093.582031 955.84375 L 1093.582031 1106.679688 L 792.542969 1106.679688 Z M 792.542969 1031.261719 " fill-opacity="1" fill-rule="nonzero"/><path fill="#ffffff" d="M 340.667969 1031.261719 L 340.667969 955.84375 L 416.085938 955.84375 L 416.085938 574.273438 L 403.464844 574.269531 C 396.519531 574.269531 378.558594 574.082031 363.550781 573.847656 L 336.257812 573.425781 L 335.929688 570.175781 C 335.746094 568.386719 335.480469 534.488281 335.339844 494.84375 L 335.078125 422.769531 L 359.773438 423.113281 L 463.03125 586.308594 L 566.285156 749.5 L 566.285156 955.84375 L 641.703125 955.84375 L 641.703125 1106.679688 L 340.667969 1106.679688 Z M 340.667969 1031.261719 " fill-opacity="1" fill-rule="nonzero"/><g clip-path="url(#8fc4057f94)"><path fill="#ffffff" d="M 0.00390625 0 L 0.00390625 1439.355469 L 1439.996094 1439.355469 L 1439.996094 0 Z M 24.609375 24.605469 L 1415.390625 24.605469 L 1415.390625 1415.386719 L 720.140625 1415.546875 C 164.273438 1415.675781 24.828125 1415.546875 24.585938 1414.90625 C 24.417969 1414.46875 24.355469 1101.472656 24.445312 719.359375 Z M 24.609375 24.605469 " fill-opacity="1" fill-rule="nonzero"/></g><path fill="#ffffff" d="M 956.804688 545.867188 L 956.804688 519.699219 L 999.148438 485.015625 C 1054.75 439.472656 1069.511719 427.160156 1077.601562 419.582031 C 1099.394531 399.171875 1106.707031 386.800781 1107.472656 369.03125 C 1108.039062 355.941406 1104.789062 346.121094 1097.472656 338.804688 C 1091.246094 332.578125 1083.382812 329.046875 1073.15625 327.882812 C 1053.21875 325.617188 1035.308594 334.574219 1016.242188 356.339844 C 1012.90625 360.152344 1009.285156 364.269531 1008.199219 365.488281 L 1006.226562 367.707031 L 983.433594 349.320312 C 970.894531 339.207031 960.636719 330.746094 960.636719 330.519531 C 960.636719 330.292969 963.296875 326.671875 966.550781 322.46875 C 973.453125 313.554688 986.34375 300.015625 993.128906 294.554688 C 1011.101562 280.097656 1029.902344 272.386719 1053.632812 269.734375 C 1062.007812 268.796875 1082.554688 268.953125 1090.382812 270.011719 C 1115.386719 273.394531 1135.03125 282.367188 1149.847656 297.183594 C 1165.445312 312.78125 1173.421875 332.199219 1174.527344 357.28125 C 1175.761719 385.347656 1168.066406 408.28125 1150.335938 429.375 C 1137.433594 444.722656 1123.5 456.644531 1072.863281 495.664062 L 1047.988281 514.832031 L 1112.96875 514.996094 L 1177.949219 515.15625 L 1177.949219 572.035156 L 956.804688 572.035156 Z M 956.804688 545.867188 " fill-opacity="1" fill-rule="nonzero"/><path fill="#ffffff" d="M 556.824219 671.40625 C 470.960938 535.550781 400.542969 423.960938 400.339844 423.433594 C 400.011719 422.578125 409.402344 422.488281 484.195312 422.632812 L 568.417969 422.792969 L 642.613281 540.550781 C 683.417969 605.316406 716.949219 658.308594 717.125 658.3125 C 717.300781 658.3125 750.808594 605.359375 791.585938 540.636719 C 832.363281 475.914062 866.011719 422.847656 866.363281 422.710938 C 866.714844 422.578125 901.792969 422.539062 944.316406 422.628906 L 1021.628906 422.792969 L 972.277344 463.25 L 922.929688 503.703125 L 922.929688 586.078125 L 818.371094 751.785156 C 760.863281 842.925781 713.617188 917.703125 713.375 917.957031 C 713.136719 918.210938 642.6875 807.261719 556.824219 671.40625 Z M 556.824219 671.40625 " fill-opacity="1" fill-rule="nonzero"/><path fill="#ffffff" d="M 792.542969 1030.941406 L 792.542969 955.523438 L 863.488281 955.523438 L 863.488281 743.496094 L 906.796875 674.863281 L 950.109375 606.230469 L 984.132812 606.0625 L 1018.160156 605.898438 L 1018.160156 955.523438 L 1093.582031 955.523438 L 1093.582031 1106.359375 L 792.542969 1106.359375 Z M 792.542969 1030.941406 " fill-opacity="1" fill-rule="nonzero"/><path fill="#ffffff" d="M 340.667969 1030.941406 L 340.667969 955.523438 L 416.085938 955.523438 L 416.085938 573.953125 L 403.464844 573.953125 C 396.519531 573.953125 378.558594 573.761719 363.550781 573.527344 L 336.257812 573.105469 L 335.929688 569.855469 C 335.746094 568.066406 335.480469 534.167969 335.339844 494.527344 L 335.078125 422.449219 L 359.773438 422.792969 L 463.03125 585.988281 L 566.285156 749.183594 L 566.285156 955.523438 L 641.703125 955.523438 L 641.703125 1106.359375 L 340.667969 1106.359375 Z M 340.667969 1030.941406 " fill-opacity="1" fill-rule="nonzero"/></svg>