<svg xmlns="http://www.w3.org/2000/svg" xmlns:xlink="http://www.w3.org/1999/xlink" width="1920" zoomAndPan="magnify" viewBox="0 0 1440 1439.999935" height="1920" preserveAspectRatio="xMidYMid meet" version="1.0"><defs><clipPath id="89ea0ce296"><path d="M 0 0.320312 L 1440 0.320312 L 1440 1439.570312 L 0 1439.570312 Z M 0 0.320312 " clip-rule="nonzero"/></clipPath><clipPath id="2bf0a4ff73"><path d="M 0 0.320312 L 1440 0.320312 L 1440 1439.570312 L 0 1439.570312 Z M 0 0.320312 " clip-rule="nonzero"/></clipPath></defs><g clip-path="url(#89ea0ce296)"><path fill="#222222" d="M 0.00390625 0.320312 L 0.00390625 1439.570312 L 1439.996094 1439.570312 L 1439.996094 0.320312 Z M 24.609375 24.925781 L 1415.390625 24.925781 L 1415.390625 1415.601562 L 720.140625 1415.761719 C 164.273438 1415.890625 24.828125 1415.761719 24.585938 1415.125 C 24.417969 1414.683594 24.355469 1101.710938 24.445312 719.625 Z M 24.609375 24.925781 " fill-opacity="1" fill-rule="nonzero"/></g><path fill="#6a37a6" d="M 956.804688 546.148438 L 956.804688 519.980469 L 999.148438 485.300781 C 1054.75 439.761719 1069.511719 427.449219 1077.601562 419.871094 C 1099.394531 399.460938 1106.707031 387.09375 1107.472656 369.324219 C 1108.039062 356.234375 1104.789062 346.417969 1097.472656 339.101562 C 1091.246094 332.871094 1083.382812 329.339844 1073.15625 328.179688 C 1053.21875 325.914062 1035.308594 334.871094 1016.242188 356.632812 C 1012.90625 360.445312 1009.285156 364.5625 1008.199219 365.78125 L 1006.226562 368 L 983.433594 349.613281 C 970.894531 339.503906 960.636719 331.042969 960.636719 330.816406 C 960.636719 330.589844 963.296875 326.964844 966.550781 322.765625 C 973.453125 313.851562 986.34375 300.3125 993.128906 294.855469 C 1011.101562 280.398438 1029.902344 272.683594 1053.632812 270.035156 C 1062.007812 269.097656 1082.554688 269.253906 1090.382812 270.3125 C 1115.386719 273.691406 1135.03125 282.667969 1149.847656 297.480469 C 1165.445312 313.078125 1173.421875 332.496094 1174.527344 357.574219 C 1175.761719 385.640625 1168.066406 408.570312 1150.335938 429.664062 C 1137.433594 445.007812 1123.5 456.929688 1072.863281 495.949219 L 1047.988281 515.113281 L 1112.96875 515.277344 L 1177.949219 515.4375 L 1177.949219 572.3125 L 956.804688 572.3125 Z M 956.804688 546.148438 " fill-opacity="1" fill-rule="nonzero"/><path fill="#222222" d="M 556.824219 671.675781 C 470.960938 535.832031 400.542969 424.25 400.339844 423.722656 C 400.011719 422.867188 409.402344 422.777344 484.195312 422.921875 L 568.417969 423.082031 L 642.613281 540.832031 C 683.417969 605.59375 716.949219 658.582031 717.125 658.582031 C 717.300781 658.582031 750.808594 605.636719 791.585938 540.917969 C 832.363281 476.199219 866.011719 423.136719 866.363281 423 C 866.714844 422.863281 901.792969 422.828125 944.316406 422.917969 L 1021.628906 423.082031 L 972.277344 463.535156 L 922.929688 503.984375 L 922.929688 586.355469 L 818.371094 752.050781 C 760.863281 843.183594 713.617188 917.953125 713.375 918.207031 C 713.136719 918.460938 642.6875 807.523438 556.824219 671.675781 Z M 556.824219 671.675781 " fill-opacity="1" fill-rule="nonzero"/><path fill="#222222" d="M 792.542969 1031.183594 L 792.542969 955.773438 L 863.488281 955.773438 L 863.488281 743.761719 L 906.796875 675.132812 L 950.109375 606.503906 L 984.132812 606.339844 L 1018.160156 606.171875 L 1018.160156 955.773438 L 1093.582031 955.773438 L 1093.582031 1106.597656 L 792.542969 1106.597656 Z M 792.542969 1031.183594 " fill-opacity="1" fill-rule="nonzero"/><path fill="#222222" d="M 340.667969 1031.183594 L 340.667969 955.773438 L 416.085938 955.773438 L 416.085938 574.230469 L 403.464844 574.230469 C 396.519531 574.230469 378.558594 574.039062 363.550781 573.804688 L 336.257812 573.382812 L 335.929688 570.132812 C 335.746094 568.34375 335.480469 534.449219 335.339844 494.808594 L 335.078125 422.738281 L 359.773438 423.082031 L 463.03125 586.265625 L 566.285156 749.445312 L 566.285156 955.773438 L 641.703125 955.773438 L 641.703125 1106.597656 L 340.667969 1106.597656 Z M 340.667969 1031.183594 " fill-opacity="1" fill-rule="nonzero"/><g clip-path="url(#2bf0a4ff73)"><path fill="#222222" d="M 0.00390625 0.320312 L 0.00390625 1439.570312 L 1439.996094 1439.570312 L 1439.996094 0.320312 Z M 24.609375 24.925781 L 1415.390625 24.925781 L 1415.390625 1415.601562 L 720.140625 1415.761719 C 164.273438 1415.890625 24.828125 1415.761719 24.585938 1415.125 C 24.417969 1414.683594 24.355469 1101.710938 24.445312 719.625 Z M 24.609375 24.925781 " fill-opacity="1" fill-rule="nonzero"/></g><path fill="#6a37a6" d="M 956.804688 546.148438 L 956.804688 519.980469 L 999.148438 485.300781 C 1054.75 439.761719 1069.511719 427.449219 1077.601562 419.871094 C 1099.394531 399.460938 1106.707031 387.09375 1107.472656 369.324219 C 1108.039062 356.234375 1104.789062 346.417969 1097.472656 339.101562 C 1091.246094 332.871094 1083.382812 329.339844 1073.15625 328.179688 C 1053.21875 325.914062 1035.308594 334.871094 1016.242188 356.632812 C 1012.90625 360.445312 1009.285156 364.5625 1008.199219 365.78125 L 1006.226562 368 L 983.433594 349.613281 C 970.894531 339.503906 960.636719 331.042969 960.636719 330.816406 C 960.636719 330.589844 963.296875 326.964844 966.550781 322.765625 C 973.453125 313.851562 986.34375 300.3125 993.128906 294.855469 C 1011.101562 280.398438 1029.902344 272.683594 1053.632812 270.035156 C 1062.007812 269.097656 1082.554688 269.253906 1090.382812 270.3125 C 1115.386719 273.691406 1135.03125 282.667969 1149.847656 297.480469 C 1165.445312 313.078125 1173.421875 332.496094 1174.527344 357.574219 C 1175.761719 385.640625 1168.066406 408.570312 1150.335938 429.664062 C 1137.433594 445.007812 1123.5 456.929688 1072.863281 495.949219 L 1047.988281 515.113281 L 1112.96875 515.277344 L 1177.949219 515.4375 L 1177.949219 572.3125 L 956.804688 572.3125 Z M 956.804688 546.148438 " fill-opacity="1" fill-rule="nonzero"/><path fill="#222222" d="M 556.824219 671.675781 C 470.960938 535.832031 400.542969 424.25 400.339844 423.722656 C 400.011719 422.867188 409.402344 422.777344 484.195312 422.921875 L 568.417969 423.082031 L 642.613281 540.832031 C 683.417969 605.59375 716.949219 658.582031 717.125 658.582031 C 717.300781 658.582031 750.808594 605.636719 791.585938 540.917969 C 832.363281 476.199219 866.011719 423.136719 866.363281 423 C 866.714844 422.863281 901.792969 422.828125 944.316406 422.917969 L 1021.628906 423.082031 L 972.277344 463.535156 L 922.929688 503.984375 L 922.929688 586.355469 L 818.371094 752.050781 C 760.863281 843.183594 713.617188 917.953125 713.375 918.207031 C 713.136719 918.460938 642.6875 807.523438 556.824219 671.675781 Z M 556.824219 671.675781 " fill-opacity="1" fill-rule="nonzero"/><path fill="#222222" d="M 792.542969 1031.183594 L 792.542969 955.773438 L 863.488281 955.773438 L 863.488281 743.761719 L 906.796875 675.132812 L 950.109375 606.503906 L 984.132812 606.339844 L 1018.160156 606.171875 L 1018.160156 955.773438 L 1093.582031 955.773438 L 1093.582031 1106.597656 L 792.542969 1106.597656 Z M 792.542969 1031.183594 " fill-opacity="1" fill-rule="nonzero"/><path fill="#222222" d="M 340.667969 1031.183594 L 340.667969 955.773438 L 416.085938 955.773438 L 416.085938 574.230469 L 403.464844 574.230469 C 396.519531 574.230469 378.558594 574.039062 363.550781 573.804688 L 336.257812 573.382812 L 335.929688 570.132812 C 335.746094 568.34375 335.480469 534.449219 335.339844 494.808594 L 335.078125 422.738281 L 359.773438 423.082031 L 463.03125 586.265625 L 566.285156 749.445312 L 566.285156 955.773438 L 641.703125 955.773438 L 641.703125 1106.597656 L 340.667969 1106.597656 Z M 340.667969 1031.183594 " fill-opacity="1" fill-rule="nonzero"/></svg>