<svg width="66" height="66" viewBox="0 0 66 66" fill="none" xmlns="http://www.w3.org/2000/svg">
<path d="M9.30188 26.439V17.9785H10.1479L21.9926 36.5916V48.4363H26.2229V56.8968H9.30188V48.4363H13.5321V26.439H9.30188Z" fill="white"/>
<path d="M30.4531 45.8981L12.6861 17.9785H21.9926L30.4531 31.5153L38.9136 17.9785H48.2202L42.2978 23.0548V27.285L30.4531 45.8981Z" fill="white"/>
<path d="M47.3741 28.1311H43.9899L38.9136 36.5916V48.4363H34.6834V56.8968H51.6044V48.4363H47.3741V28.1311Z" fill="white"/>
<path d="M56.76 26.439H44.9384V23.952L49.1835 19.6607C50.4405 18.3729 51.2618 17.4822 51.6473 16.9887C52.0329 16.4874 52.3105 16.0247 52.4802 15.6006C52.6498 15.1765 52.7346 14.7369 52.7346 14.282C52.7346 13.6034 52.5457 13.0983 52.1679 12.7667C51.7977 12.4351 51.3003 12.2693 50.6757 12.2693C50.0202 12.2693 49.384 12.4197 48.7671 12.7204C48.1502 13.0211 47.5063 13.4491 46.8354 14.0043L44.8922 11.7025C45.725 10.993 46.4152 10.4918 46.9627 10.1988C47.5102 9.90574 48.1078 9.68211 48.7556 9.52788C49.4033 9.36594 50.1282 9.28497 50.9302 9.28497C51.9866 9.28497 52.9197 9.47776 53.7294 9.86333C54.5391 10.2489 55.1676 10.7887 55.6148 11.4827C56.0621 12.1767 56.2857 12.971 56.2857 13.8655C56.2857 14.6444 56.1469 15.377 55.8693 16.0633C55.5994 16.7419 55.1753 17.4398 54.5969 18.1569C54.0263 18.8741 53.0161 19.8959 51.5664 21.2222L49.3917 23.2696V23.4315H56.76V26.439Z" fill="white"/>
<rect x="0.5" y="0.5" width="65" height="65" stroke="white"/>
</svg>
