<svg xmlns="http://www.w3.org/2000/svg" xmlns:xlink="http://www.w3.org/1999/xlink" width="44" zoomAndPan="magnify" viewBox="0 0 33 32.999998" height="44" preserveAspectRatio="xMidYMid meet" version="1.0"><defs><clipPath id="34b2f64bc7"><path d="M 0.109375 0.136719 L 32.359375 0.136719 L 32.359375 21 L 0.109375 21 Z M 0.109375 0.136719 " clip-rule="nonzero"/></clipPath><clipPath id="a763eca8fa"><path d="M 0.109375 14 L 32.359375 14 L 32.359375 27 L 0.109375 27 Z M 0.109375 14 " clip-rule="nonzero"/></clipPath><clipPath id="6a02b3be3e"><path d="M 0.109375 20 L 32.359375 20 L 32.359375 32.386719 L 0.109375 32.386719 Z M 0.109375 20 " clip-rule="nonzero"/></clipPath><clipPath id="cc585d1b08"><path d="M 0.109375 0.136719 L 32.359375 0.136719 L 32.359375 21 L 0.109375 21 Z M 0.109375 0.136719 " clip-rule="nonzero"/></clipPath><clipPath id="85de669ec1"><path d="M 0.109375 14 L 32.359375 14 L 32.359375 27 L 0.109375 27 Z M 0.109375 14 " clip-rule="nonzero"/></clipPath><clipPath id="d3c2b57a34"><path d="M 0.109375 20 L 32.359375 20 L 32.359375 32.386719 L 0.109375 32.386719 Z M 0.109375 20 " clip-rule="nonzero"/></clipPath></defs><g clip-path="url(#34b2f64bc7)"><path fill="#c4c0b5" d="M 16.296875 20.070312 C 16.035156 20.070312 15.773438 20.003906 15.539062 19.871094 L 1.109375 11.726562 C 0.621094 11.453125 0.324219 10.9375 0.324219 10.382812 C 0.324219 9.824219 0.621094 9.308594 1.109375 9.035156 L 15.539062 0.890625 C 16.007812 0.621094 16.585938 0.621094 17.058594 0.890625 L 31.488281 9.035156 C 31.972656 9.308594 32.273438 9.824219 32.273438 10.382812 C 32.273438 10.9375 31.972656 11.453125 31.488281 11.726562 L 17.058594 19.871094 C 16.824219 20.003906 16.558594 20.070312 16.296875 20.070312 Z M 5.015625 10.382812 L 16.296875 16.75 L 27.582031 10.382812 L 16.296875 4.011719 Z M 5.015625 10.382812 " fill-opacity="1" fill-rule="nonzero"/></g><g clip-path="url(#a763eca8fa)"><path fill="#c4c0b5" d="M 16.296875 26.074219 C 16.035156 26.074219 15.773438 26.007812 15.539062 25.875 L 1.109375 17.726562 C 0.363281 17.308594 0.101562 16.363281 0.523438 15.621094 C 0.941406 14.878906 1.882812 14.613281 2.628906 15.035156 L 16.296875 22.75 L 29.96875 15.035156 C 30.710938 14.613281 31.652344 14.878906 32.074219 15.621094 C 32.496094 16.363281 32.230469 17.308594 31.488281 17.726562 L 17.058594 25.875 C 16.824219 26.007812 16.558594 26.074219 16.296875 26.074219 Z M 16.296875 26.074219 " fill-opacity="1" fill-rule="nonzero"/></g><g clip-path="url(#6a02b3be3e)"><path fill="#c4c0b5" d="M 16.296875 32.074219 C 16.035156 32.074219 15.773438 32.007812 15.539062 31.875 L 1.109375 23.726562 C 0.363281 23.308594 0.101562 22.367188 0.523438 21.621094 C 0.941406 20.878906 1.882812 20.617188 2.628906 21.035156 L 16.296875 28.75 L 29.96875 21.035156 C 30.710938 20.613281 31.652344 20.878906 32.074219 21.621094 C 32.496094 22.367188 32.230469 23.308594 31.488281 23.726562 L 17.058594 31.875 C 16.824219 32.007812 16.558594 32.074219 16.296875 32.074219 Z M 16.296875 32.074219 " fill-opacity="1" fill-rule="nonzero"/></g><g clip-path="url(#cc585d1b08)"><path fill="#f1833a" d="M 16.296875 20.070312 C 16.035156 20.070312 15.773438 20.003906 15.539062 19.871094 L 1.109375 11.726562 C 0.621094 11.453125 0.324219 10.9375 0.324219 10.382812 C 0.324219 9.824219 0.621094 9.308594 1.109375 9.035156 L 15.539062 0.890625 C 16.007812 0.621094 16.585938 0.621094 17.058594 0.890625 L 31.488281 9.035156 C 31.972656 9.308594 32.273438 9.824219 32.273438 10.382812 C 32.273438 10.9375 31.972656 11.453125 31.488281 11.726562 L 17.058594 19.871094 C 16.824219 20.003906 16.558594 20.070312 16.296875 20.070312 Z M 5.015625 10.382812 L 16.296875 16.75 L 27.582031 10.382812 L 16.296875 4.011719 Z M 5.015625 10.382812 " fill-opacity="1" fill-rule="nonzero"/></g><g clip-path="url(#85de669ec1)"><path fill="#f1833a" d="M 16.296875 26.074219 C 16.035156 26.074219 15.773438 26.007812 15.539062 25.875 L 1.109375 17.726562 C 0.363281 17.308594 0.101562 16.363281 0.523438 15.621094 C 0.941406 14.878906 1.882812 14.613281 2.628906 15.035156 L 16.296875 22.75 L 29.96875 15.035156 C 30.710938 14.613281 31.652344 14.878906 32.074219 15.621094 C 32.496094 16.363281 32.230469 17.308594 31.488281 17.726562 L 17.058594 25.875 C 16.824219 26.007812 16.558594 26.074219 16.296875 26.074219 Z M 16.296875 26.074219 " fill-opacity="1" fill-rule="nonzero"/></g><g clip-path="url(#d3c2b57a34)"><path fill="#f1833a" d="M 16.296875 32.074219 C 16.035156 32.074219 15.773438 32.007812 15.539062 31.875 L 1.109375 23.726562 C 0.363281 23.308594 0.101562 22.367188 0.523438 21.621094 C 0.941406 20.878906 1.882812 20.617188 2.628906 21.035156 L 16.296875 28.75 L 29.96875 21.035156 C 30.710938 20.613281 31.652344 20.878906 32.074219 21.621094 C 32.496094 22.367188 32.230469 23.308594 31.488281 23.726562 L 17.058594 31.875 C 16.824219 32.007812 16.558594 32.074219 16.296875 32.074219 Z M 16.296875 32.074219 " fill-opacity="1" fill-rule="nonzero"/></g></svg>