<svg width="22" height="21" viewBox="0 0 22 21" fill="none" xmlns="http://www.w3.org/2000/svg">
<mask id="mask0_2_2439" style="mask-type:luminance" maskUnits="userSpaceOnUse" x="0" y="0" width="21" height="14">
<path d="M0.536438 0.369797H20.9166V13.3333H0.536438V0.369797Z" fill="white"/>
</mask>
<g mask="url(#mask0_2_2439)">
<path d="M10.5052 12.6458C10.3437 12.6458 10.1823 12.6042 10.0364 12.5208L1.151 7.50521C0.848918 7.33854 0.666626 7.02083 0.666626 6.67708C0.666626 6.33333 0.848918 6.01563 1.151 5.84896L10.0364 0.828125C10.3281 0.666667 10.6823 0.666667 10.9739 0.828125L19.8593 5.84896C20.1614 6.01563 20.3437 6.33333 20.3437 6.67708C20.3437 7.02083 20.1614 7.33854 19.8593 7.50521L10.9739 12.5208C10.8281 12.6042 10.6666 12.6458 10.5052 12.6458ZM3.55725 6.67708L10.5052 10.599L17.4531 6.67708L10.5052 2.75L3.55725 6.67708Z" fill="#EDEDED"/>
</g>
<mask id="mask1_2_2439" style="mask-type:luminance" maskUnits="userSpaceOnUse" x="0" y="9" width="21" height="9">
<path d="M0.536438 9.33333H20.9166V17.3333H0.536438V9.33333Z" fill="white"/>
</mask>
<g mask="url(#mask1_2_2439)">
<path d="M10.5052 16.3385C10.3437 16.3385 10.1823 16.3021 10.0365 16.2187L1.15104 11.2031C0.692703 10.9427 0.531246 10.3594 0.786454 9.90103C1.04687 9.44791 1.6302 9.28124 2.08854 9.54166L10.5052 14.2969L18.9271 9.54166C19.3854 9.28124 19.9635 9.44791 20.224 9.90103C20.4792 10.3594 20.3177 10.9427 19.8594 11.2031L10.974 16.2187C10.8281 16.3021 10.6667 16.3385 10.5052 16.3385Z" fill="#EDEDED"/>
</g>
<mask id="mask2_2_2439" style="mask-type:luminance" maskUnits="userSpaceOnUse" x="0" y="12" width="21" height="9">
<path d="M0.536438 12H20.9166V20.5313H0.536438V12Z" fill="white"/>
</mask>
<g mask="url(#mask2_2_2439)">
<path d="M10.5052 20.0365C10.3437 20.0365 10.1823 19.9948 10.0365 19.9115L1.15104 14.8958C0.692703 14.6406 0.531246 14.0573 0.786454 13.599C1.04687 13.1406 1.6302 12.9792 2.08854 13.2396L10.5052 17.9896L18.9271 13.2396C19.3854 12.9792 19.9635 13.1406 20.224 13.599C20.4792 14.0573 20.3177 14.6406 19.8594 14.8958L10.974 19.9115C10.8281 19.9948 10.6667 20.0365 10.5052 20.0365Z" fill="#EDEDED"/>
</g>
<mask id="mask3_2_2439" style="mask-type:luminance" maskUnits="userSpaceOnUse" x="0" y="0" width="21" height="14">
<path d="M0.536438 0.369797H20.9166V13.3333H0.536438V0.369797Z" fill="white"/>
</mask>
<g mask="url(#mask3_2_2439)">
<path d="M10.5052 12.6458C10.3437 12.6458 10.1823 12.6042 10.0364 12.5208L1.151 7.50521C0.848918 7.33854 0.666626 7.02083 0.666626 6.67708C0.666626 6.33333 0.848918 6.01563 1.151 5.84896L10.0364 0.828125C10.3281 0.666667 10.6823 0.666667 10.9739 0.828125L19.8593 5.84896C20.1614 6.01563 20.3437 6.33333 20.3437 6.67708C20.3437 7.02083 20.1614 7.33854 19.8593 7.50521L10.9739 12.5208C10.8281 12.6042 10.6666 12.6458 10.5052 12.6458ZM3.55725 6.67708L10.5052 10.599L17.4531 6.67708L10.5052 2.75L3.55725 6.67708Z" fill="#EDEDED"/>
</g>
<mask id="mask4_2_2439" style="mask-type:luminance" maskUnits="userSpaceOnUse" x="0" y="9" width="21" height="9">
<path d="M0.536438 9.33333H20.9166V17.3333H0.536438V9.33333Z" fill="white"/>
</mask>
<g mask="url(#mask4_2_2439)">
<path d="M10.5052 16.3385C10.3437 16.3385 10.1823 16.3021 10.0365 16.2187L1.15104 11.2031C0.692703 10.9427 0.531246 10.3594 0.786454 9.90103C1.04687 9.44791 1.6302 9.28124 2.08854 9.54166L10.5052 14.2969L18.9271 9.54166C19.3854 9.28124 19.9635 9.44791 20.224 9.90103C20.4792 10.3594 20.3177 10.9427 19.8594 11.2031L10.974 16.2187C10.8281 16.3021 10.6667 16.3385 10.5052 16.3385Z" fill="#EDEDED"/>
</g>
<mask id="mask5_2_2439" style="mask-type:luminance" maskUnits="userSpaceOnUse" x="0" y="12" width="21" height="9">
<path d="M0.536438 12H20.9166V20.5313H0.536438V12Z" fill="white"/>
</mask>
<g mask="url(#mask5_2_2439)">
<path d="M10.5052 20.0365C10.3437 20.0365 10.1823 19.9948 10.0365 19.9115L1.15104 14.8958C0.692703 14.6406 0.531246 14.0573 0.786454 13.599C1.04687 13.1406 1.6302 12.9792 2.08854 13.2396L10.5052 17.9896L18.9271 13.2396C19.3854 12.9792 19.9635 13.1406 20.224 13.599C20.4792 14.0573 20.3177 14.6406 19.8594 14.8958L10.974 19.9115C10.8281 19.9948 10.6667 20.0365 10.5052 20.0365Z" fill="#EDEDED"/>
</g>
</svg>
