<svg xmlns="http://www.w3.org/2000/svg" xmlns:xlink="http://www.w3.org/1999/xlink" width="350" zoomAndPan="magnify" viewBox="0 0 262.5 86.999996" height="116" preserveAspectRatio="xMidYMid meet" version="1.0"><defs><clipPath id="f308413afe"><path d="M 0.601562 0.585938 L 261.851562 0.585938 L 261.851562 85.925781 L 0.601562 85.925781 Z M 0.601562 0.585938 " clip-rule="nonzero"/></clipPath><clipPath id="6e064df1a5"><path d="M 130 0.0820312 L 132 0.0820312 L 132 80 L 130 80 Z M 130 0.0820312 " clip-rule="nonzero"/></clipPath><clipPath id="43d5a662ec"><path d="M 217 0.0820312 L 219 0.0820312 L 219 80 L 217 80 Z M 217 0.0820312 " clip-rule="nonzero"/></clipPath><clipPath id="fb69956cb3"><path d="M 174 0.0820312 L 176 0.0820312 L 176 80 L 174 80 Z M 174 0.0820312 " clip-rule="nonzero"/></clipPath><clipPath id="1a13733c11"><path d="M 43 0.0820312 L 45 0.0820312 L 45 80 L 43 80 Z M 43 0.0820312 " clip-rule="nonzero"/></clipPath><clipPath id="36f5e58616"><path d="M 87 0.0820312 L 89 0.0820312 L 89 80 L 87 80 Z M 87 0.0820312 " clip-rule="nonzero"/></clipPath><clipPath id="95dea442f1"><path d="M 0.597656 79.46875 L 261.859375 79.46875 L 261.859375 86.210938 L 0.597656 86.210938 Z M 0.597656 79.46875 " clip-rule="nonzero"/></clipPath><clipPath id="45412a27ee"><path d="M 127.339844 79.46875 L 135.042969 79.46875 L 135.042969 86.210938 L 127.339844 86.210938 Z M 127.339844 79.46875 " clip-rule="nonzero"/></clipPath><clipPath id="636ef2c23f"><path d="M 131.191406 79.46875 L 135.042969 86.210938 L 127.339844 86.210938 Z M 131.191406 79.46875 " clip-rule="nonzero"/></clipPath><clipPath id="70c7800bb1"><path d="M 43 79 L 45 79 L 45 86.917969 L 43 86.917969 Z M 43 79 " clip-rule="nonzero"/></clipPath><clipPath id="4f9bb24849"><path d="M 87 79 L 89 79 L 89 86.917969 L 87 86.917969 Z M 87 79 " clip-rule="nonzero"/></clipPath><clipPath id="8012d7c96b"><path d="M 174 79 L 176 79 L 176 86.917969 L 174 86.917969 Z M 174 79 " clip-rule="nonzero"/></clipPath><clipPath id="ca3fae74c4"><path d="M 217 79 L 219 79 L 219 86.917969 L 217 86.917969 Z M 217 79 " clip-rule="nonzero"/></clipPath></defs><g clip-path="url(#f308413afe)"><path stroke-linecap="butt" transform="matrix(0.748574, 0, 0, 0.748574, 0.599961, 0.587804)" fill="none" stroke-linejoin="miter" d="M 0.00213898 -0.00249313 L 348.999001 -0.00249313 L 348.999001 114.376428 L 0.00213898 114.376428 Z M 0.00213898 -0.00249313 " stroke="#000000" stroke-width="2" stroke-opacity="1" stroke-miterlimit="4"/></g><g clip-path="url(#6e064df1a5)"><path stroke-linecap="butt" transform="matrix(0, 0.748574, -0.748574, 0, 131.564825, 0.587853)" fill="none" stroke-linejoin="miter" d="M -0.00255934 0.49884 L 105.374866 0.49884 " stroke="#363847" stroke-width="1" stroke-opacity="1" stroke-miterlimit="4"/></g><g clip-path="url(#43d5a662ec)"><path fill="#363847" d="M 217.679688 79.46875 L 217.679688 78.71875 L 218.429688 78.722656 L 218.425781 79.46875 M 217.683594 77.972656 L 217.683594 77.222656 L 218.433594 77.222656 L 218.429688 77.972656 M 217.683594 76.472656 L 217.6875 75.726562 L 218.433594 75.726562 L 218.433594 76.476562 M 217.6875 74.976562 L 217.6875 74.226562 L 218.4375 74.230469 L 218.4375 74.976562 M 217.691406 73.480469 L 217.691406 72.730469 L 218.441406 72.730469 L 218.4375 73.480469 M 217.691406 71.980469 L 217.695312 71.234375 L 218.441406 71.234375 L 218.441406 71.984375 M 217.695312 70.484375 L 217.695312 69.738281 L 218.445312 69.738281 L 218.445312 70.488281 M 217.699219 68.988281 L 217.699219 68.238281 L 218.449219 68.242188 L 218.445312 68.988281 M 217.699219 67.492188 L 217.703125 66.742188 L 218.449219 66.742188 L 218.449219 67.492188 M 217.703125 65.992188 L 217.703125 65.246094 L 218.453125 65.246094 L 218.453125 65.996094 M 217.707031 64.496094 L 217.707031 63.75 L 218.457031 63.75 L 218.453125 64.496094 M 217.710938 63 L 217.710938 62.25 L 218.460938 62.253906 L 218.457031 63 M 217.710938 61.503906 L 217.714844 60.753906 L 218.460938 60.753906 L 218.460938 61.503906 M 217.714844 60.003906 L 217.714844 59.257812 L 218.464844 59.257812 L 218.464844 60.007812 M 217.71875 58.507812 L 217.71875 57.757812 L 218.46875 57.761719 L 218.464844 58.507812 M 217.71875 57.011719 L 217.722656 56.261719 L 218.46875 56.265625 L 218.46875 57.011719 M 217.722656 55.515625 L 217.722656 54.765625 L 218.472656 54.765625 L 218.472656 55.515625 M 217.726562 54.015625 L 217.726562 53.269531 L 218.476562 53.269531 L 218.472656 54.019531 M 217.726562 52.519531 L 217.730469 51.769531 L 218.476562 51.773438 L 218.476562 52.519531 M 217.730469 51.023438 L 217.730469 50.273438 L 218.480469 50.273438 L 218.480469 51.023438 M 217.734375 49.523438 L 217.734375 48.777344 L 218.484375 48.777344 L 218.480469 49.527344 M 217.738281 48.027344 L 217.738281 47.28125 L 218.484375 47.28125 L 218.484375 48.03125 M 217.738281 46.53125 L 217.742188 45.78125 L 218.488281 45.785156 L 218.488281 46.53125 M 217.742188 45.035156 L 217.742188 44.285156 L 218.492188 44.285156 L 218.492188 45.035156 M 217.746094 43.535156 L 217.746094 42.789062 L 218.496094 42.789062 L 218.492188 43.539062 M 217.746094 42.039062 L 217.75 41.289062 L 218.496094 41.292969 L 218.496094 42.039062 M 217.75 40.542969 L 217.75 39.792969 L 218.5 39.796875 L 218.5 40.542969 M 217.753906 39.046875 L 217.753906 38.296875 L 218.503906 38.296875 L 218.5 39.046875 M 217.753906 37.546875 L 217.757812 36.800781 L 218.503906 36.800781 L 218.503906 37.550781 M 217.757812 36.050781 L 217.757812 35.300781 L 218.507812 35.304688 L 218.507812 36.050781 M 217.761719 34.554688 L 217.761719 33.804688 L 218.511719 33.804688 L 218.507812 34.554688 M 217.761719 33.054688 L 217.765625 32.308594 L 218.511719 32.308594 L 218.511719 33.058594 M 217.765625 31.558594 L 217.769531 30.8125 L 218.515625 30.8125 L 218.515625 31.5625 M 217.769531 30.0625 L 217.769531 29.3125 L 218.519531 29.316406 L 218.519531 30.0625 M 217.773438 28.566406 L 217.773438 27.816406 L 218.523438 27.816406 L 218.519531 28.566406 M 217.773438 27.066406 L 217.777344 26.320312 L 218.523438 26.320312 L 218.523438 27.070312 M 217.777344 25.570312 L 217.777344 24.824219 L 218.527344 24.824219 L 218.527344 25.570312 M 217.78125 24.074219 L 217.78125 23.324219 L 218.53125 23.328125 L 218.527344 24.074219 M 217.78125 22.578125 L 217.785156 21.828125 L 218.53125 21.828125 L 218.53125 22.578125 M 217.785156 21.078125 L 217.785156 20.332031 L 218.535156 20.332031 L 218.535156 21.082031 M 217.789062 19.582031 L 217.789062 18.832031 L 218.539062 18.835938 L 218.535156 19.582031 M 217.789062 18.085938 L 217.792969 17.335938 L 218.539062 17.339844 L 218.539062 18.085938 M 217.792969 16.589844 L 217.796875 15.839844 L 218.542969 15.839844 L 218.542969 16.589844 M 217.796875 15.089844 L 217.796875 14.34375 L 218.546875 14.34375 L 218.542969 15.09375 M 217.800781 13.59375 L 217.800781 12.84375 L 218.550781 12.847656 L 218.546875 13.59375 M 217.800781 12.097656 L 217.804688 11.347656 L 218.550781 11.347656 L 218.550781 12.097656 M 217.804688 10.597656 L 217.804688 9.851562 L 218.554688 9.851562 L 218.554688 10.601562 M 217.808594 9.101562 L 217.808594 8.355469 L 218.558594 8.355469 L 218.554688 9.105469 M 217.808594 7.605469 L 217.8125 6.855469 L 218.558594 6.859375 L 218.558594 7.605469 M 217.8125 6.109375 L 217.8125 5.359375 L 218.5625 5.359375 L 218.5625 6.109375 M 217.816406 4.609375 L 217.816406 3.863281 L 218.566406 3.863281 L 218.5625 4.613281 M 217.816406 3.113281 L 217.820312 2.363281 L 218.566406 2.367188 L 218.566406 3.113281 M 217.820312 1.617188 L 217.820312 0.867188 L 218.570312 0.871094 L 218.570312 1.617188 " fill-opacity="1" fill-rule="nonzero"/></g><g clip-path="url(#fb69956cb3)"><path fill="#363847" d="M 174.171875 79.46875 L 174.171875 78.71875 L 174.921875 78.722656 L 174.917969 79.46875 M 174.175781 77.972656 L 174.175781 77.222656 L 174.925781 77.222656 L 174.921875 77.972656 M 174.179688 76.472656 L 174.179688 75.726562 L 174.929688 75.726562 L 174.925781 76.476562 M 174.179688 74.976562 L 174.183594 74.226562 L 174.933594 74.230469 L 174.929688 74.976562 M 174.183594 73.480469 L 174.1875 72.730469 L 174.933594 72.734375 L 174.933594 73.480469 M 174.1875 71.980469 L 174.191406 71.234375 L 174.9375 71.234375 L 174.9375 71.984375 M 174.191406 70.484375 L 174.195312 69.738281 L 174.941406 69.738281 L 174.941406 70.488281 M 174.195312 68.988281 L 174.199219 68.238281 L 174.945312 68.242188 L 174.945312 68.988281 M 174.199219 67.492188 L 174.199219 66.742188 L 174.949219 66.742188 L 174.949219 67.492188 M 174.203125 65.992188 L 174.203125 65.246094 L 174.953125 65.246094 L 174.953125 65.996094 M 174.207031 64.496094 L 174.207031 63.746094 L 174.957031 63.75 L 174.953125 64.5 M 174.210938 63 L 174.210938 62.25 L 174.960938 62.253906 L 174.957031 63 M 174.214844 61.503906 L 174.214844 60.753906 L 174.964844 60.753906 L 174.960938 61.503906 M 174.21875 60.003906 L 174.21875 59.257812 L 174.96875 59.257812 L 174.964844 60.007812 M 174.222656 58.507812 L 174.222656 57.757812 L 174.972656 57.761719 L 174.96875 58.507812 M 174.222656 57.011719 L 174.226562 56.261719 L 174.976562 56.265625 L 174.972656 57.011719 M 174.226562 55.511719 L 174.230469 54.765625 L 174.976562 54.765625 L 174.976562 55.515625 M 174.230469 54.015625 L 174.234375 53.269531 L 174.980469 53.269531 L 174.980469 54.019531 M 174.234375 52.519531 L 174.238281 51.769531 L 174.984375 51.773438 L 174.984375 52.519531 M 174.238281 51.023438 L 174.242188 50.273438 L 174.988281 50.273438 L 174.988281 51.023438 M 174.242188 49.523438 L 174.242188 48.777344 L 174.992188 48.777344 L 174.992188 49.527344 M 174.246094 48.027344 L 174.246094 47.277344 L 174.996094 47.28125 L 174.996094 48.03125 M 174.25 46.53125 L 174.25 45.78125 L 175 45.785156 L 174.996094 46.53125 M 174.253906 45.035156 L 174.253906 44.285156 L 175.003906 44.285156 L 175 45.035156 M 174.257812 43.535156 L 174.257812 42.789062 L 175.007812 42.789062 L 175.003906 43.539062 M 174.261719 42.039062 L 174.261719 41.289062 L 175.011719 41.292969 L 175.007812 42.042969 M 174.261719 40.542969 L 174.265625 39.792969 L 175.015625 39.796875 L 175.011719 40.542969 M 174.265625 39.046875 L 174.269531 38.296875 L 175.015625 38.296875 L 175.015625 39.046875 M 174.269531 37.546875 L 174.273438 36.800781 L 175.019531 36.800781 L 175.019531 37.550781 M 174.273438 36.050781 L 174.277344 35.300781 L 175.023438 35.304688 L 175.023438 36.050781 M 174.277344 34.554688 L 174.28125 33.804688 L 175.027344 33.808594 L 175.027344 34.554688 M 174.28125 33.054688 L 174.28125 32.308594 L 175.03125 32.308594 L 175.03125 33.058594 M 174.285156 31.558594 L 174.285156 30.8125 L 175.035156 30.8125 L 175.035156 31.5625 M 174.289062 30.0625 L 174.289062 29.3125 L 175.039062 29.316406 L 175.035156 30.0625 M 174.292969 28.566406 L 174.292969 27.816406 L 175.042969 27.816406 L 175.039062 28.566406 M 174.296875 27.066406 L 174.296875 26.320312 L 175.046875 26.320312 L 175.042969 27.070312 M 174.300781 25.570312 L 174.300781 24.820312 L 175.050781 24.824219 L 175.046875 25.574219 M 174.300781 24.074219 L 174.304688 23.324219 L 175.054688 23.328125 L 175.050781 24.074219 M 174.304688 22.578125 L 174.308594 21.828125 L 175.054688 21.828125 L 175.054688 22.578125 M 174.308594 21.078125 L 174.3125 20.332031 L 175.058594 20.332031 L 175.058594 21.082031 M 174.3125 19.582031 L 174.316406 18.832031 L 175.0625 18.835938 L 175.0625 19.582031 M 174.316406 18.085938 L 174.320312 17.335938 L 175.066406 17.339844 L 175.066406 18.085938 M 174.320312 16.585938 L 174.320312 15.839844 L 175.070312 15.839844 L 175.070312 16.589844 M 174.324219 15.089844 L 174.324219 14.34375 L 175.074219 14.34375 L 175.074219 15.09375 M 174.328125 13.59375 L 174.328125 12.84375 L 175.078125 12.847656 L 175.074219 13.59375 M 174.332031 12.097656 L 174.332031 11.347656 L 175.082031 11.347656 L 175.078125 12.097656 M 174.335938 10.597656 L 174.335938 9.851562 L 175.085938 9.851562 L 175.082031 10.601562 M 174.339844 9.101562 L 174.339844 8.351562 L 175.089844 8.355469 L 175.085938 9.105469 M 174.339844 7.605469 L 174.34375 6.855469 L 175.09375 6.859375 L 175.089844 7.605469 M 174.34375 6.109375 L 174.347656 5.359375 L 175.09375 5.359375 L 175.09375 6.109375 M 174.347656 4.609375 L 174.351562 3.863281 L 175.097656 3.863281 L 175.097656 4.613281 M 174.351562 3.113281 L 174.355469 2.363281 L 175.101562 2.367188 L 175.101562 3.117188 M 174.355469 1.617188 L 174.359375 0.867188 L 175.105469 0.871094 L 175.105469 1.617188 " fill-opacity="1" fill-rule="nonzero"/></g><g clip-path="url(#1a13733c11)"><path fill="#363847" d="M 44.636719 0.585938 L 44.636719 1.335938 L 43.886719 1.335938 L 43.886719 0.585938 M 44.636719 2.085938 L 44.636719 2.832031 L 43.886719 2.832031 L 43.886719 2.085938 M 44.636719 3.582031 L 44.636719 4.332031 L 43.886719 4.332031 L 43.886719 3.582031 M 44.636719 5.078125 L 44.636719 5.828125 L 43.886719 5.828125 L 43.886719 5.078125 M 44.636719 6.578125 L 44.636719 7.324219 L 43.886719 7.324219 L 43.886719 6.578125 M 44.636719 8.074219 L 44.636719 8.820312 L 43.886719 8.820312 L 43.886719 8.074219 M 44.636719 9.570312 L 44.636719 10.320312 L 43.886719 10.320312 L 43.886719 9.570312 M 44.636719 11.066406 L 44.636719 11.816406 L 43.886719 11.816406 L 43.886719 11.066406 M 44.636719 12.566406 L 44.636719 13.3125 L 43.886719 13.3125 L 43.886719 12.566406 M 44.636719 14.0625 L 44.636719 14.8125 L 43.886719 14.8125 L 43.886719 14.0625 M 44.636719 15.558594 L 44.636719 16.308594 L 43.886719 16.308594 L 43.886719 15.558594 M 44.636719 17.054688 L 44.636719 17.804688 L 43.886719 17.804688 L 43.886719 17.054688 M 44.636719 18.554688 L 44.636719 19.300781 L 43.886719 19.300781 L 43.886719 18.554688 M 44.636719 20.050781 L 44.636719 20.800781 L 43.886719 20.800781 L 43.886719 20.050781 M 44.636719 21.546875 L 44.636719 22.296875 L 43.886719 22.296875 L 43.886719 21.546875 M 44.636719 23.046875 L 44.636719 23.792969 L 43.886719 23.792969 L 43.886719 23.046875 M 44.636719 24.542969 L 44.636719 25.289062 L 43.886719 25.289062 L 43.886719 24.542969 M 44.636719 26.039062 L 44.636719 26.789062 L 43.886719 26.789062 L 43.886719 26.039062 M 44.636719 27.535156 L 44.636719 28.285156 L 43.886719 28.285156 L 43.886719 27.535156 M 44.636719 29.035156 L 44.636719 29.78125 L 43.886719 29.78125 L 43.886719 29.035156 M 44.636719 30.53125 L 44.636719 31.28125 L 43.886719 31.28125 L 43.886719 30.53125 M 44.636719 32.027344 L 44.636719 32.777344 L 43.886719 32.777344 L 43.886719 32.027344 M 44.636719 33.523438 L 44.636719 34.273438 L 43.886719 34.273438 L 43.886719 33.523438 M 44.636719 35.023438 L 44.636719 35.769531 L 43.886719 35.769531 L 43.886719 35.023438 M 44.636719 36.519531 L 44.636719 37.269531 L 43.886719 37.269531 L 43.886719 36.519531 M 44.636719 38.015625 L 44.636719 38.765625 L 43.886719 38.765625 L 43.886719 38.015625 M 44.636719 39.515625 L 44.636719 40.261719 L 43.886719 40.261719 L 43.886719 39.515625 M 44.636719 41.011719 L 44.636719 41.757812 L 43.886719 41.757812 L 43.886719 41.011719 M 44.636719 42.507812 L 44.636719 43.257812 L 43.886719 43.257812 L 43.886719 42.507812 M 44.636719 44.003906 L 44.636719 44.753906 L 43.886719 44.753906 L 43.886719 44.003906 M 44.636719 45.503906 L 44.636719 46.25 L 43.886719 46.25 L 43.886719 45.503906 M 44.636719 47 L 44.636719 47.746094 L 43.886719 47.746094 L 43.886719 47 M 44.636719 48.496094 L 44.636719 49.246094 L 43.886719 49.246094 L 43.886719 48.496094 M 44.636719 49.992188 L 44.636719 50.742188 L 43.886719 50.742188 L 43.886719 49.992188 M 44.636719 51.492188 L 44.636719 52.238281 L 43.886719 52.238281 L 43.886719 51.492188 M 44.636719 52.988281 L 44.636719 53.738281 L 43.886719 53.738281 L 43.886719 52.988281 M 44.636719 54.484375 L 44.636719 55.234375 L 43.886719 55.234375 L 43.886719 54.484375 M 44.636719 55.980469 L 44.636719 56.730469 L 43.886719 56.730469 L 43.886719 55.980469 M 44.636719 57.480469 L 44.636719 58.226562 L 43.886719 58.226562 L 43.886719 57.480469 M 44.636719 58.976562 L 44.636719 59.726562 L 43.886719 59.726562 L 43.886719 58.976562 M 44.636719 60.472656 L 44.636719 61.222656 L 43.886719 61.222656 L 43.886719 60.472656 M 44.636719 61.972656 L 44.636719 62.71875 L 43.886719 62.71875 L 43.886719 61.972656 M 44.636719 63.46875 L 44.636719 64.214844 L 43.886719 64.214844 L 43.886719 63.46875 M 44.636719 64.964844 L 44.636719 65.714844 L 43.886719 65.714844 L 43.886719 64.964844 M 44.636719 66.460938 L 44.636719 67.210938 L 43.886719 67.210938 L 43.886719 66.460938 M 44.636719 67.960938 L 44.636719 68.707031 L 43.886719 68.707031 L 43.886719 67.960938 M 44.636719 69.457031 L 44.636719 70.207031 L 43.886719 70.207031 L 43.886719 69.457031 M 44.636719 70.953125 L 44.636719 71.703125 L 43.886719 71.703125 L 43.886719 70.953125 M 44.636719 72.449219 L 44.636719 73.199219 L 43.886719 73.199219 L 43.886719 72.449219 M 44.636719 73.949219 L 44.636719 74.695312 L 43.886719 74.695312 L 43.886719 73.949219 M 44.636719 75.445312 L 44.636719 76.195312 L 43.886719 76.195312 L 43.886719 75.445312 M 44.636719 76.941406 L 44.636719 77.691406 L 43.886719 77.691406 L 43.886719 76.941406 M 44.636719 78.441406 L 44.636719 79.1875 L 43.886719 79.1875 L 43.886719 78.441406 " fill-opacity="1" fill-rule="nonzero"/></g><g clip-path="url(#36f5e58616)"><path fill="#363847" d="M 88.101562 0.585938 L 88.101562 1.335938 L 87.351562 1.335938 L 87.351562 0.585938 M 88.101562 2.085938 L 88.101562 2.832031 L 87.351562 2.832031 L 87.351562 2.085938 M 88.101562 3.582031 L 88.101562 4.332031 L 87.351562 4.332031 L 87.351562 3.582031 M 88.101562 5.078125 L 88.101562 5.828125 L 87.351562 5.828125 L 87.351562 5.078125 M 88.101562 6.578125 L 88.101562 7.324219 L 87.351562 7.324219 L 87.351562 6.578125 M 88.101562 8.074219 L 88.101562 8.820312 L 87.351562 8.820312 L 87.351562 8.074219 M 88.101562 9.570312 L 88.101562 10.320312 L 87.351562 10.320312 L 87.351562 9.570312 M 88.101562 11.066406 L 88.101562 11.816406 L 87.351562 11.816406 L 87.351562 11.066406 M 88.101562 12.566406 L 88.101562 13.3125 L 87.351562 13.3125 L 87.351562 12.566406 M 88.101562 14.0625 L 88.101562 14.8125 L 87.351562 14.8125 L 87.351562 14.0625 M 88.101562 15.558594 L 88.101562 16.308594 L 87.351562 16.308594 L 87.351562 15.558594 M 88.101562 17.054688 L 88.101562 17.804688 L 87.351562 17.804688 L 87.351562 17.054688 M 88.101562 18.554688 L 88.101562 19.300781 L 87.351562 19.300781 L 87.351562 18.554688 M 88.101562 20.050781 L 88.101562 20.800781 L 87.351562 20.800781 L 87.351562 20.050781 M 88.101562 21.546875 L 88.101562 22.296875 L 87.351562 22.296875 L 87.351562 21.546875 M 88.101562 23.046875 L 88.101562 23.792969 L 87.351562 23.792969 L 87.351562 23.046875 M 88.101562 24.542969 L 88.101562 25.289062 L 87.351562 25.289062 L 87.351562 24.542969 M 88.101562 26.039062 L 88.101562 26.789062 L 87.351562 26.789062 L 87.351562 26.039062 M 88.101562 27.535156 L 88.101562 28.285156 L 87.351562 28.285156 L 87.351562 27.535156 M 88.101562 29.035156 L 88.101562 29.78125 L 87.351562 29.78125 L 87.351562 29.035156 M 88.101562 30.53125 L 88.101562 31.28125 L 87.351562 31.28125 L 87.351562 30.53125 M 88.101562 32.027344 L 88.101562 32.777344 L 87.351562 32.777344 L 87.351562 32.027344 M 88.101562 33.523438 L 88.101562 34.273438 L 87.351562 34.273438 L 87.351562 33.523438 M 88.101562 35.023438 L 88.101562 35.769531 L 87.351562 35.769531 L 87.351562 35.023438 M 88.101562 36.519531 L 88.101562 37.269531 L 87.351562 37.269531 L 87.351562 36.519531 M 88.101562 38.015625 L 88.101562 38.765625 L 87.351562 38.765625 L 87.351562 38.015625 M 88.101562 39.515625 L 88.101562 40.261719 L 87.351562 40.261719 L 87.351562 39.515625 M 88.101562 41.011719 L 88.101562 41.757812 L 87.351562 41.757812 L 87.351562 41.011719 M 88.101562 42.507812 L 88.101562 43.257812 L 87.351562 43.257812 L 87.351562 42.507812 M 88.101562 44.003906 L 88.101562 44.753906 L 87.351562 44.753906 L 87.351562 44.003906 M 88.101562 45.503906 L 88.101562 46.25 L 87.351562 46.25 L 87.351562 45.503906 M 88.101562 47 L 88.101562 47.746094 L 87.351562 47.746094 L 87.351562 47 M 88.101562 48.496094 L 88.101562 49.246094 L 87.351562 49.246094 L 87.351562 48.496094 M 88.101562 49.992188 L 88.101562 50.742188 L 87.351562 50.742188 L 87.351562 49.992188 M 88.101562 51.492188 L 88.101562 52.238281 L 87.351562 52.238281 L 87.351562 51.492188 M 88.101562 52.988281 L 88.101562 53.738281 L 87.351562 53.738281 L 87.351562 52.988281 M 88.101562 54.484375 L 88.101562 55.234375 L 87.351562 55.234375 L 87.351562 54.484375 M 88.101562 55.980469 L 88.101562 56.730469 L 87.351562 56.730469 L 87.351562 55.980469 M 88.101562 57.480469 L 88.101562 58.226562 L 87.351562 58.226562 L 87.351562 57.480469 M 88.101562 58.976562 L 88.101562 59.726562 L 87.351562 59.726562 L 87.351562 58.976562 M 88.101562 60.472656 L 88.101562 61.222656 L 87.351562 61.222656 L 87.351562 60.472656 M 88.101562 61.972656 L 88.101562 62.71875 L 87.351562 62.71875 L 87.351562 61.972656 M 88.101562 63.46875 L 88.101562 64.214844 L 87.351562 64.214844 L 87.351562 63.46875 M 88.101562 64.964844 L 88.101562 65.714844 L 87.351562 65.714844 L 87.351562 64.964844 M 88.101562 66.460938 L 88.101562 67.210938 L 87.351562 67.210938 L 87.351562 66.460938 M 88.101562 67.960938 L 88.101562 68.707031 L 87.351562 68.707031 L 87.351562 67.960938 M 88.101562 69.457031 L 88.101562 70.207031 L 87.351562 70.207031 L 87.351562 69.457031 M 88.101562 70.953125 L 88.101562 71.703125 L 87.351562 71.703125 L 87.351562 70.953125 M 88.101562 72.449219 L 88.101562 73.199219 L 87.351562 73.199219 L 87.351562 72.449219 M 88.101562 73.949219 L 88.101562 74.695312 L 87.351562 74.695312 L 87.351562 73.949219 M 88.101562 75.445312 L 88.101562 76.195312 L 87.351562 76.195312 L 87.351562 75.445312 M 88.101562 76.941406 L 88.101562 77.691406 L 87.351562 77.691406 L 87.351562 76.941406 M 88.101562 78.441406 L 88.101562 79.1875 L 87.351562 79.1875 L 87.351562 78.441406 " fill-opacity="1" fill-rule="nonzero"/></g><g clip-path="url(#95dea442f1)"><path fill="#554266" d="M 0.597656 79.46875 L 261.859375 79.46875 L 261.859375 86.210938 L 0.597656 86.210938 Z M 0.597656 79.46875 " fill-opacity="1" fill-rule="nonzero"/></g><g clip-path="url(#45412a27ee)"><g clip-path="url(#636ef2c23f)"><path fill="#f1833a" d="M 127.339844 79.46875 L 135.042969 79.46875 L 135.042969 86.210938 L 127.339844 86.210938 Z M 127.339844 79.46875 " fill-opacity="1" fill-rule="nonzero"/></g></g><g clip-path="url(#70c7800bb1)"><path stroke-linecap="butt" transform="matrix(0, -0.748574, 0.748574, 0, 43.919926, 85.811677)" fill="none" stroke-linejoin="miter" d="M -0.00109896 0.498338 L 7.935866 0.498338 " stroke="#d9d5cb" stroke-width="1" stroke-opacity="1" stroke-miterlimit="4"/></g><g clip-path="url(#4f9bb24849)"><path stroke-linecap="butt" transform="matrix(0, -0.748574, 0.748574, 0, 87.389565, 85.811677)" fill="none" stroke-linejoin="miter" d="M -0.00109896 0.502369 L 7.935866 0.502369 " stroke="#d9d5cb" stroke-width="1" stroke-opacity="1" stroke-miterlimit="4"/></g><g clip-path="url(#8012d7c96b)"><path stroke-linecap="butt" transform="matrix(0, -0.748574, 0.748574, 0, 174.347927, 85.811677)" fill="none" stroke-linejoin="miter" d="M -0.00109896 0.500591 L 7.935866 0.500591 " stroke="#d9d5cb" stroke-width="1" stroke-opacity="1" stroke-miterlimit="4"/></g><g clip-path="url(#ca3fae74c4)"><path stroke-linecap="butt" transform="matrix(0, -0.748574, 0.748574, 0, 217.817566, 85.811677)" fill="none" stroke-linejoin="miter" d="M -0.00109896 0.499403 L 7.935866 0.499403 " stroke="#d9d5cb" stroke-width="1" stroke-opacity="1" stroke-miterlimit="4"/></g></svg>