<svg xmlns="http://www.w3.org/2000/svg" xmlns:xlink="http://www.w3.org/1999/xlink" width="124" zoomAndPan="magnify" viewBox="0 0 93 44.249999" height="59" preserveAspectRatio="xMidYMid meet" version="1.0"><defs><clipPath id="a443ffccbc"><path d="M 0.84375 15.152344 L 20.449219 15.152344 L 20.449219 43.476562 L 0.84375 43.476562 Z M 0.84375 15.152344 " clip-rule="nonzero"/></clipPath><clipPath id="3d007ee44f"><path d="M 72.425781 15.152344 L 92.03125 15.152344 L 92.03125 43.476562 L 72.425781 43.476562 Z M 72.425781 15.152344 " clip-rule="nonzero"/></clipPath><clipPath id="88d688d06e"><path d="M 48 0.183594 L 78 0.183594 L 78 20 L 48 20 Z M 48 0.183594 " clip-rule="nonzero"/></clipPath><clipPath id="f31d5ca14a"><path d="M 15 0.183594 L 45 0.183594 L 45 20 L 15 20 Z M 15 0.183594 " clip-rule="nonzero"/></clipPath><clipPath id="7f7bb9de53"><path d="M 43.246094 19.257812 L 59.386719 19.257812 L 59.386719 43.476562 L 43.246094 43.476562 Z M 43.246094 19.257812 " clip-rule="nonzero"/></clipPath><clipPath id="ebefcc1c66"><path d="M 0.84375 15.152344 L 20.449219 15.152344 L 20.449219 43.476562 L 0.84375 43.476562 Z M 0.84375 15.152344 " clip-rule="nonzero"/></clipPath><clipPath id="88db1e93d5"><path d="M 72.425781 15.152344 L 92.03125 15.152344 L 92.03125 43.476562 L 72.425781 43.476562 Z M 72.425781 15.152344 " clip-rule="nonzero"/></clipPath><clipPath id="7e0308117c"><path d="M 48 0.183594 L 78 0.183594 L 78 20 L 48 20 Z M 48 0.183594 " clip-rule="nonzero"/></clipPath><clipPath id="74627f8cdf"><path d="M 15 0.183594 L 45 0.183594 L 45 20 L 15 20 Z M 15 0.183594 " clip-rule="nonzero"/></clipPath><clipPath id="5d1f58e46c"><path d="M 43.246094 19.257812 L 59.386719 19.257812 L 59.386719 43.476562 L 43.246094 43.476562 Z M 43.246094 19.257812 " clip-rule="nonzero"/></clipPath></defs><g clip-path="url(#a443ffccbc)"><path fill="#c4c0b5" d="M 11.976562 43.476562 C 12.496094 35.691406 15.601562 28.605469 20.445312 23.070312 L 12.578125 15.207031 C 5.738281 22.769531 1.390625 32.632812 0.84375 43.476562 L 11.976562 43.476562 " fill-opacity="1" fill-rule="nonzero"/></g><g clip-path="url(#3d007ee44f)"><path fill="#c4c0b5" d="M 72.429688 23.070312 C 77.273438 28.605469 80.378906 35.691406 80.898438 43.476562 L 92.03125 43.476562 C 91.484375 32.632812 87.136719 22.769531 80.296875 15.207031 L 72.429688 23.070312 " fill-opacity="1" fill-rule="nonzero"/></g><g clip-path="url(#88d688d06e)"><path fill="#c4c0b5" d="M 48.75 0.199219 L 48.75 11.332031 C 56.535156 11.847656 63.621094 14.957031 69.15625 19.800781 L 77.023438 11.933594 C 69.457031 5.09375 59.597656 0.742188 48.75 0.199219 " fill-opacity="1" fill-rule="nonzero"/></g><g clip-path="url(#f31d5ca14a)"><path fill="#c4c0b5" d="M 23.71875 19.800781 C 29.25 14.957031 36.335938 11.847656 44.125 11.332031 L 44.125 0.199219 C 33.277344 0.742188 23.417969 5.09375 15.851562 11.933594 L 23.71875 19.800781 " fill-opacity="1" fill-rule="nonzero"/></g><g clip-path="url(#7f7bb9de53)"><path fill="#c4c0b5" d="M 43.777344 37.78125 C 42.710938 39.570312 43.300781 41.882812 45.089844 42.949219 C 46.878906 44.011719 49.191406 43.425781 50.253906 41.636719 C 51.082031 40.25 56.78125 26.230469 59.304688 19.996094 C 59.515625 19.472656 58.828125 19.0625 58.46875 19.496094 C 54.195312 24.691406 44.601562 36.394531 43.777344 37.78125 " fill-opacity="1" fill-rule="nonzero"/></g><g clip-path="url(#ebefcc1c66)"><path fill="#c4c0b5" d="M 11.976562 43.476562 C 12.496094 35.691406 15.601562 28.605469 20.445312 23.070312 L 12.578125 15.207031 C 5.738281 22.769531 1.390625 32.632812 0.84375 43.476562 L 11.976562 43.476562 " fill-opacity="1" fill-rule="nonzero"/></g><g clip-path="url(#88db1e93d5)"><path fill="#c4c0b5" d="M 72.429688 23.070312 C 77.273438 28.605469 80.378906 35.691406 80.898438 43.476562 L 92.03125 43.476562 C 91.484375 32.632812 87.136719 22.769531 80.296875 15.207031 L 72.429688 23.070312 " fill-opacity="1" fill-rule="nonzero"/></g><g clip-path="url(#7e0308117c)"><path fill="#c4c0b5" d="M 48.75 0.199219 L 48.75 11.332031 C 56.535156 11.847656 63.621094 14.957031 69.15625 19.800781 L 77.023438 11.933594 C 69.457031 5.09375 59.597656 0.742188 48.75 0.199219 " fill-opacity="1" fill-rule="nonzero"/></g><g clip-path="url(#74627f8cdf)"><path fill="#c4c0b5" d="M 23.71875 19.800781 C 29.25 14.957031 36.335938 11.847656 44.125 11.332031 L 44.125 0.199219 C 33.277344 0.742188 23.417969 5.09375 15.851562 11.933594 L 23.71875 19.800781 " fill-opacity="1" fill-rule="nonzero"/></g><g clip-path="url(#5d1f58e46c)"><path fill="#c4c0b5" d="M 43.777344 37.78125 C 42.710938 39.570312 43.300781 41.882812 45.089844 42.949219 C 46.878906 44.011719 49.191406 43.425781 50.253906 41.636719 C 51.082031 40.25 56.78125 26.230469 59.304688 19.996094 C 59.515625 19.472656 58.828125 19.0625 58.46875 19.496094 C 54.195312 24.691406 44.601562 36.394531 43.777344 37.78125 " fill-opacity="1" fill-rule="nonzero"/></g></svg>