<svg xmlns="http://www.w3.org/2000/svg" xmlns:xlink="http://www.w3.org/1999/xlink" width="124" zoomAndPan="magnify" viewBox="0 0 93 44.249999" height="59" preserveAspectRatio="xMidYMid meet" version="1.0"><defs><clipPath id="1cfc9815b9"><path d="M 72.425781 15.152344 L 92.03125 15.152344 L 92.03125 43.476562 L 72.425781 43.476562 Z M 72.425781 15.152344 " clip-rule="nonzero"/></clipPath><clipPath id="db44be4a36"><path d="M 0.84375 15.152344 L 20.449219 15.152344 L 20.449219 43.476562 L 0.84375 43.476562 Z M 0.84375 15.152344 " clip-rule="nonzero"/></clipPath><clipPath id="b642d7b81a"><path d="M 15 0.183594 L 45 0.183594 L 45 20 L 15 20 Z M 15 0.183594 " clip-rule="nonzero"/></clipPath><clipPath id="935e1943ef"><path d="M 48 0.183594 L 78 0.183594 L 78 20 L 48 20 Z M 48 0.183594 " clip-rule="nonzero"/></clipPath><clipPath id="2535f3cb44"><path d="M 33.488281 19.257812 L 49.628906 19.257812 L 49.628906 43.476562 L 33.488281 43.476562 Z M 33.488281 19.257812 " clip-rule="nonzero"/></clipPath><clipPath id="8bddadfe3b"><path d="M 72.425781 15.152344 L 92.03125 15.152344 L 92.03125 43.476562 L 72.425781 43.476562 Z M 72.425781 15.152344 " clip-rule="nonzero"/></clipPath><clipPath id="f44c87c6d9"><path d="M 0.84375 15.152344 L 20.449219 15.152344 L 20.449219 43.476562 L 0.84375 43.476562 Z M 0.84375 15.152344 " clip-rule="nonzero"/></clipPath><clipPath id="e8c6a6606b"><path d="M 15 0.183594 L 45 0.183594 L 45 20 L 15 20 Z M 15 0.183594 " clip-rule="nonzero"/></clipPath><clipPath id="fae4bc2d3a"><path d="M 48 0.183594 L 78 0.183594 L 78 20 L 48 20 Z M 48 0.183594 " clip-rule="nonzero"/></clipPath><clipPath id="ab0acdfbf7"><path d="M 33.488281 19.257812 L 49.628906 19.257812 L 49.628906 43.476562 L 33.488281 43.476562 Z M 33.488281 19.257812 " clip-rule="nonzero"/></clipPath></defs><g clip-path="url(#1cfc9815b9)"><path fill="#c4c0b5" d="M 80.898438 43.476562 C 80.378906 35.691406 77.273438 28.605469 72.429688 23.070312 L 80.296875 15.207031 C 87.136719 22.769531 91.484375 32.632812 92.03125 43.476562 L 80.898438 43.476562 " fill-opacity="1" fill-rule="nonzero"/></g><g clip-path="url(#db44be4a36)"><path fill="#c4c0b5" d="M 20.445312 23.070312 C 15.601562 28.605469 12.496094 35.691406 11.976562 43.476562 L 0.84375 43.476562 C 1.390625 32.632812 5.738281 22.769531 12.578125 15.207031 L 20.445312 23.070312 " fill-opacity="1" fill-rule="nonzero"/></g><g clip-path="url(#b642d7b81a)"><path fill="#c4c0b5" d="M 44.125 0.199219 L 44.125 11.332031 C 36.335938 11.847656 29.253906 14.957031 23.71875 19.800781 L 15.851562 11.933594 C 23.417969 5.09375 33.277344 0.742188 44.125 0.199219 " fill-opacity="1" fill-rule="nonzero"/></g><g clip-path="url(#935e1943ef)"><path fill="#c4c0b5" d="M 69.15625 19.800781 C 63.621094 14.957031 56.535156 11.847656 48.75 11.332031 L 48.75 0.199219 C 59.597656 0.742188 69.457031 5.09375 77.023438 11.933594 L 69.15625 19.800781 " fill-opacity="1" fill-rule="nonzero"/></g><g clip-path="url(#2535f3cb44)"><path fill="#c4c0b5" d="M 49.097656 37.78125 C 50.164062 39.570312 49.574219 41.882812 47.785156 42.949219 C 45.996094 44.011719 43.683594 43.425781 42.617188 41.636719 C 41.792969 40.25 36.09375 26.230469 33.570312 19.996094 C 33.359375 19.472656 34.046875 19.0625 34.40625 19.496094 C 38.679688 24.691406 48.273438 36.394531 49.097656 37.78125 " fill-opacity="1" fill-rule="nonzero"/></g><g clip-path="url(#8bddadfe3b)"><path fill="#c4c0b5" d="M 80.898438 43.476562 C 80.378906 35.691406 77.273438 28.605469 72.429688 23.070312 L 80.296875 15.207031 C 87.136719 22.769531 91.484375 32.632812 92.03125 43.476562 L 80.898438 43.476562 " fill-opacity="1" fill-rule="nonzero"/></g><g clip-path="url(#f44c87c6d9)"><path fill="#c4c0b5" d="M 20.445312 23.070312 C 15.601562 28.605469 12.496094 35.691406 11.976562 43.476562 L 0.84375 43.476562 C 1.390625 32.632812 5.738281 22.769531 12.578125 15.207031 L 20.445312 23.070312 " fill-opacity="1" fill-rule="nonzero"/></g><g clip-path="url(#e8c6a6606b)"><path fill="#c4c0b5" d="M 44.125 0.199219 L 44.125 11.332031 C 36.335938 11.847656 29.253906 14.957031 23.71875 19.800781 L 15.851562 11.933594 C 23.417969 5.09375 33.277344 0.742188 44.125 0.199219 " fill-opacity="1" fill-rule="nonzero"/></g><g clip-path="url(#fae4bc2d3a)"><path fill="#c4c0b5" d="M 69.15625 19.800781 C 63.621094 14.957031 56.535156 11.847656 48.75 11.332031 L 48.75 0.199219 C 59.597656 0.742188 69.457031 5.09375 77.023438 11.933594 L 69.15625 19.800781 " fill-opacity="1" fill-rule="nonzero"/></g><g clip-path="url(#ab0acdfbf7)"><path fill="#c4c0b5" d="M 49.097656 37.78125 C 50.164062 39.570312 49.574219 41.882812 47.785156 42.949219 C 45.996094 44.011719 43.683594 43.425781 42.617188 41.636719 C 41.792969 40.25 36.09375 26.230469 33.570312 19.996094 C 33.359375 19.472656 34.046875 19.0625 34.40625 19.496094 C 38.679688 24.691406 48.273438 36.394531 49.097656 37.78125 " fill-opacity="1" fill-rule="nonzero"/></g></svg>