<svg xmlns="http://www.w3.org/2000/svg" width="1200pt" fill="#458FA3" height="1200pt" viewBox="0 0 1200 1200"><path d="m600.01 0c-23.855 0-43.156 18.809-43.156 42.02v97.746c0 23.199 19.305 42.008 43.156 42.008 23.871 0 43.168-18.809 43.168-42.008v-97.746c0-23.211-19.293-42.02-43.164-42.02zm306.71 97.168c-13.137 0.18359-25.996 6.2031-34.328 17.363l-59.008 79.098c-13.992 18.773-9.6992 45.047 9.5625 58.668 7.6719 5.418 16.566 8.0273 25.324 8.0273 13.367 0 26.523-6.0078 34.984-17.34l59.008-79.102c14.008-18.773 9.6992-45.043-9.5625-58.668-7.8789-5.5664-16.996-8.1758-25.98-8.0508zm-613.43 0.03125c-8.9883-0.12891-18.098 2.4688-25.953 8.0234-19.262 13.621-23.562 39.895-9.5664 58.668l58.996 79.102c8.4727 11.332 21.625 17.34 35 17.34 8.7617 0 17.648-2.6094 25.32-8.0273 19.27-13.621 23.566-39.895 9.5742-58.668l-59.02-79.105c-8.332-11.133-21.215-17.145-34.352-17.332zm306.68 151.78c-172.22 0-311.81 135.89-311.81 303.5 0 70.715 24.984 135.65 66.727 187.2 36.574 45.176 71.211 94.484 101.23 144.11v100.8h285.94v-98.129c29.734-48.273 68.191-103.85 102.93-146.74 41.777-51.562 66.754-116.48 66.754-187.24 0-167.62-139.59-303.5-311.77-303.5zm-496.72 102.64c-18.465-0.23438-35.523 11.105-41.52 29.047-7.3867 22.043 5.0156 45.758 27.688 52.941l95.523 30.246c4.457 1.3906 8.9219 2.0703 13.344 2.0703 18.207 0 35.109-11.289 41.059-29.055 7.3828-22.043-5.0156-45.758-27.688-52.941l-95.52-30.238c-4.293-1.3477-8.625-2.0195-12.887-2.0703zm993.45 0.058594c-4.2344 0.046874-8.5273 0.70703-12.754 2.043l-95.531 30.199c-22.672 7.1875-35.105 30.875-27.723 52.945 5.9414 17.746 22.852 29.055 41.059 29.055 4.4258 0 8.8906-0.67578 13.32-2.0703l95.504-30.199c22.684-7.1836 35.105-30.875 27.734-52.941-5.9961-17.922-23.258-29.242-41.613-29.031zm-329.22 52.023c4.4141-0.21875 8.8398 0.86328 12.691 3.3828 76.512 50.074 93.711 157.85 38.348 240.25-7.4219 11.047-21.762 14.57-32.039 7.8438-10.266-6.7227-12.559-21.125-5.1328-32.176 40.531-60.328 27.945-139.23-28.074-175.89-10.27-6.7227-12.555-21.125-5.1328-32.176 4.6445-6.9102 11.977-10.875 19.336-11.238zm234.79 232.31c-18.398-0.21094-35.582 11.102-41.57 29.02-7.3828 22.07 5.0508 45.77 27.723 52.945l95.531 30.199c4.4141 1.4023 8.8828 2.0703 13.309 2.0703 18.207 0 35.105-11.301 41.055-29.043 7.3711-22.082-5.0508-45.773-27.734-52.945l-95.504-30.195c-4.2539-1.3359-8.5625-2-12.809-2.0508zm-804.39 0.003906c-4.2617 0.046875-8.5938 0.70703-12.883 2.043l-95.562 30.152c-22.672 7.1562-35.109 30.852-27.723 52.93 5.8984 17.77 22.828 29.066 41.039 29.066 4.3906 0 8.9023-0.67969 13.332-2.0664l95.535-30.16c22.688-7.1562 35.125-30.852 27.742-52.922-5.9531-17.918-23.023-29.246-41.484-29.039zm286.66 392.59c-17.863 0-32.363 14.109-32.363 31.508 0 17.395 14.496 31.504 32.363 31.504h230.8c17.875 0 32.379-14.109 32.379-31.504 0-17.398-14.504-31.508-32.379-31.508zm-12.012 96.988c3.8633 41.613 42.41 74.406 89.926 74.406h75.117c47.52 0 86.086-32.793 89.949-74.406h-255z"></path></svg>